<svg xmlns="http://www.w3.org/2000/svg" xmlns:xlink="http://www.w3.org/1999/xlink" width="973.385" height="652.61" viewBox="0 0 973.385 652.61">
  <defs>
    <linearGradient id="linear-gradient" x1="0.303" y1="0.605" x2="0.11" y2="0.077" gradientUnits="objectBoundingBox">
      <stop offset="0" stop-color="#f5862c"/>
      <stop offset="1" stop-color="#ffeddf"/>
    </linearGradient>
    <linearGradient id="linear-gradient-2" x1="0.179" y1="-0.076" x2="0.72" y2="0.824" gradientUnits="objectBoundingBox">
      <stop offset="0" stop-color="#919dff"/>
      <stop offset="1" stop-color="#ffe5f5"/>
    </linearGradient>
    <linearGradient id="linear-gradient-3" x1="-0.921" y1="-0.124" x2="0.631" y2="0.848" xlink:href="#linear-gradient-2"/>
    <linearGradient id="linear-gradient-4" x1="0" y1="0.5" x2="1" y2="0.5" xlink:href="#linear-gradient-2"/>
    <linearGradient id="linear-gradient-5" x1="0.193" y1="-0.087" x2="0.544" y2="0.838" xlink:href="#linear-gradient-2"/>
    <linearGradient id="linear-gradient-6" y1="0.5" x2="1" y2="0.5" gradientUnits="objectBoundingBox">
      <stop offset="0" stop-color="#f5862c"/>
      <stop offset="1" stop-color="#8f4203"/>
    </linearGradient>
    <linearGradient id="linear-gradient-7" x1="-0.078" y1="1.002" x2="0.948" y2="0.294" gradientUnits="objectBoundingBox">
      <stop offset="0" stop-color="#9a4a09"/>
      <stop offset="1" stop-color="#f5862c"/>
    </linearGradient>
    <linearGradient id="linear-gradient-8" x1="0.862" y1="-0.212" x2="0.348" y2="0.986" xlink:href="#linear-gradient-2"/>
    <linearGradient id="linear-gradient-9" y1="0.5" x2="1" y2="0.5" gradientUnits="objectBoundingBox">
      <stop offset="0" stop-color="#028a98"/>
      <stop offset="1" stop-color="#aaf7ff"/>
    </linearGradient>
    <linearGradient id="linear-gradient-10" y1="0.5" x2="1" y2="0.5" gradientUnits="objectBoundingBox">
      <stop offset="0" stop-color="#028a98"/>
      <stop offset="1" stop-color="#9ff6ff"/>
    </linearGradient>
  </defs>
  <g id="Group_180632" data-name="Group 180632" transform="translate(-3896.001 -5296.756)">
    <path id="Path_48984" data-name="Path 48984" d="M60.787,120.249s125.555-40.3,221.635,68.8C415.285,339.912,327.1,560.955,481,542.983c162.769-19.008,194.161,222.6,194.161,222.6H60.787Z" transform="translate(3835.214 5183.784)" opacity="0.18" fill="url(#linear-gradient)"/>
    <g id="Group_180618" data-name="Group 180618" transform="translate(4007.583 5641.738)">
      <path id="Path_48985" data-name="Path 48985" d="M143.031,525.7s-34.89-281.3,20.878-297.712C223.638,210.414,174.835,525.7,174.835,525.7Z" transform="translate(-132.253 -227.283)" fill="url(#linear-gradient-2)" style="mix-blend-mode: multiply;isolation: isolate"/>
      <path id="Path_48986" data-name="Path 48986" d="M154.271,250.583s-7.174,89.424,3.213,189.565" transform="translate(-121.249 -214.204)" fill="none" stroke="#fff" stroke-linecap="round" stroke-miterlimit="10" stroke-width="1"/>
    </g>
    <g id="Group_180619" data-name="Group 180619" transform="translate(3896.001 5722.21)">
      <path id="Path_48987" data-name="Path 48987" d="M138.04,495.566c-.167,0-8.336-171.252-77.253-216.742V495.566Z" transform="translate(-60.787 -278.824)" fill="url(#linear-gradient-3)" style="mix-blend-mode: multiply;isolation: isolate"/>
      <path id="Path_48988" data-name="Path 48988" d="M67.372,329.78s22.382,51.635,31.116,137.182" transform="translate(-57.091 -250.221)" fill="none" stroke="#fff" stroke-linecap="round" stroke-miterlimit="10" stroke-width="1"/>
    </g>
    <path id="Path_48989" data-name="Path 48989" d="M259.608,447.742s15.905-90.514,45.14-83.313c33.2,8.18-25.779,83.313-25.779,83.313Z" transform="translate(4079.59 5491.21)" fill="url(#linear-gradient-4)" style="mix-blend-mode: multiply;isolation: isolate"/>
    <path id="Path_48990" data-name="Path 48990" d="M165.281,481.92S156.99,353.806,120.9,303.133c0,0-36.862,71.18,9.741,178.072Z" transform="translate(3861.188 5457.032)" fill="url(#linear-gradient-5)" style="mix-blend-mode: multiply;isolation: isolate"/>
    <path id="Path_48995" data-name="Path 48995" d="M289.691,274.608h0a4.886,4.886,0,0,1-.8-6.864l4.172-5.274c1.674-2.117,3.88-3.343,6-1.669,0,0,3.936,3.888,6.545,2.689,2.968-1.366,8.711-7.73,11.557-12.33,2-3.237-4.386-8.167-4.386-8.167-2.116-1.674-1.4-3.674.27-5.789l4.172-5.276a4.886,4.886,0,0,1,6.864-.8h0C340.616,244.24,311.739,286.216,289.691,274.608Z" transform="translate(4111.985 5328.527)" fill="#f5862c" opacity="0.34"/>
    <rect id="Rectangle_163597" data-name="Rectangle 163597" width="135.468" height="25.008" transform="translate(4733.917 5913.944)" fill="#d86100"/>
    <rect id="Rectangle_163598" data-name="Rectangle 163598" width="105.487" height="14.622" transform="translate(4746.453 5899.322)" fill="#f5862c"/>
    <g id="Group_180623" data-name="Group 180623" transform="translate(4519.886 5717.311)">
      <path id="Path_48996" data-name="Path 48996" d="M517.381,433.885H323.019a3.986,3.986,0,0,1-3.847-5.032L358.3,284.89a12.478,12.478,0,0,1,12.039-9.2H564.7a3.987,3.987,0,0,1,3.847,5.034L529.42,424.681A12.476,12.476,0,0,1,517.381,433.885Z" transform="translate(-319.03 -275.686)" fill="#f5862c"/>
      <path id="Path_48997" data-name="Path 48997" d="M521.391,433.885H327.029a3.986,3.986,0,0,1-3.847-5.032L362.308,284.89a12.478,12.478,0,0,1,12.039-9.2H568.708a3.987,3.987,0,0,1,3.847,5.034L533.43,424.681A12.476,12.476,0,0,1,521.391,433.885Z" transform="translate(-316.779 -275.686)" fill="url(#linear-gradient-6)"/>
      <path id="Path_48998" data-name="Path 48998" d="M418.282,329.6,389.416,446.368a18.618,18.618,0,0,1-18.074,14.15H347.618a4.185,4.185,0,0,0-4.186,4.184h0a4.185,4.185,0,0,0,4.186,4.186h62.446a16.37,16.37,0,0,0,15.919-12.552l29.909-124.7a4.287,4.287,0,0,0-4.169-5.285h-29.28A4.287,4.287,0,0,0,418.282,329.6Z" transform="translate(-305.332 -247.248)" fill="url(#linear-gradient-7)"/>
    </g>
    <path id="Path_48999" data-name="Path 48999" d="M810.2,427.947H60.787v-10.3H810.2a5.154,5.154,0,0,1,5.152,5.152h0A5.154,5.154,0,0,1,810.2,427.947Z" transform="translate(3835.214 5521.31)" fill="#00023b"/>
    <path id="Path_49000" data-name="Path 49000" d="M100.82,242.473a25.982,25.982,0,0,0-7.629,46.7l-.069,11.707,8.177-8.083a26.007,26.007,0,1,0-.479-50.32ZM99.4,272.187a2.324,2.324,0,1,1,1.628-2.84A2.324,2.324,0,0,1,99.4,272.187Zm8.837-2.4a2.323,2.323,0,1,1,1.627-2.84A2.316,2.316,0,0,1,108.238,269.787Zm8.836-2.4a2.323,2.323,0,1,1,1.628-2.84A2.312,2.312,0,0,1,117.073,267.387Z" transform="translate(3846.909 5342.061)" fill="#fff"/>
    <g id="Group_180625" data-name="Group 180625" transform="translate(4375.369 5397.898)">
      <path id="Path_49001" data-name="Path 49001" d="M279.312,166.448l.762-3.3a14.957,14.957,0,0,1,17.937-11.214h0a14.959,14.959,0,0,1,11.214,17.937l.028-.126c-1.666,7.643-5.368,11.805-10.868,15.245l-2.86,1.788a15.914,15.914,0,0,0-7.07,9.916l-1.365,5.914" transform="translate(-275.83 -148.069)" fill="#fff"/>
      <g id="Group_180624" data-name="Group 180624" opacity="0.45">
        <path id="Path_49002" data-name="Path 49002" d="M287.559,207.253a3.483,3.483,0,0,1-2.611-4.175l1.365-5.914a19.272,19.272,0,0,1,8.617-12.086l2.86-1.788c4.479-2.8,7.775-6.077,9.293-12.948h0a11.477,11.477,0,0,0-22.366-5.159l-.76,3.3a3.482,3.482,0,1,1-6.786-1.564l.762-3.3a18.439,18.439,0,0,1,35.972,8.121h0c-1.714,7.861-5.43,13.081-12.425,17.456l-2.86,1.788a12.348,12.348,0,0,0-5.522,7.746l-1.365,5.914A3.482,3.482,0,0,1,287.559,207.253Z" transform="translate(-277.082 -149.321)" fill="#f5862c"/>
        <path id="Path_49003" data-name="Path 49003" d="M287.825,193.813a3.821,3.821,0,1,1-2.865-4.581A3.822,3.822,0,0,1,287.825,193.813Z" transform="translate(-275.287 -126.972)" fill="#f5862c"/>
      </g>
    </g>
    <g id="Group_180627" data-name="Group 180627" transform="translate(4043.819 5421.981)">
      <path id="Path_49004" data-name="Path 49004" d="M176.53,170.786l.027.089a14.729,14.729,0,0,1-1.355,12.366l-1.079,1.981a10.638,10.638,0,0,0-.854,8.091l1.148,3.9-3.6-4.049a12.8,12.8,0,0,1,1.265-9.049l1.077-1.981a12.412,12.412,0,0,0,1.162-10.6,7.677,7.677,0,0,0-14.728,4.341l.639,2.167a2.3,2.3,0,0,1-.689,2.4L158,178.7l-.639-2.166a10.006,10.006,0,0,1,19.169-5.747Z" transform="translate(-154.625 -161.375)" fill="#fff"/>
      <g id="Group_180626" data-name="Group 180626" transform="translate(0 0)">
        <path id="Path_49005" data-name="Path 49005" d="M179.593,170.938l.08.269a16.942,16.942,0,0,1-1.585,13.974l-1.079,1.981a8.265,8.265,0,0,0-.671,6.327l1.149,3.9a2.328,2.328,0,0,1-4.467,1.316l-1.149-3.9c-.078-.269-.147-.539-.214-.81a12.8,12.8,0,0,1,1.265-9.049L174,182.964a12.412,12.412,0,0,0,1.162-10.6,7.677,7.677,0,0,0-14.728,4.341l.639,2.167a2.328,2.328,0,0,1-4.467,1.316l-.639-2.166a12.334,12.334,0,0,1,23.628-7.087Z" transform="translate(-155.461 -162.207)" fill="#fff"/>
        <path id="Path_49006" data-name="Path 49006" d="M173,190.141a2.555,2.555,0,1,1-3.174-1.728A2.555,2.555,0,0,1,173,190.141Z" transform="translate(-148.427 -147.556)" fill="#fff"/>
      </g>
    </g>
    <g id="Group_180628" data-name="Group 180628" transform="translate(3954.683 5461.813)">
      <path id="Path_49007" data-name="Path 49007" d="M129.906,216.078l-31.534-8.566,5.61-20.651,12.962,14.608,18.572-6.043Z" transform="translate(-98.372 -180.027)" fill="#fff"/>
      <path id="Path_49008" data-name="Path 49008" d="M118.434,185.67l-11.729-3.186-2.154,7.931,9.636,10.888,13.821-4.517,2.154-7.931Z" transform="translate(-94.903 -182.484)" fill="#fff"/>
      <rect id="Rectangle_163599" data-name="Rectangle 163599" width="18.485" height="0.672" transform="translate(13.641 4.1) rotate(15.197)" fill="#a6abfd"/>
      <rect id="Rectangle_163600" data-name="Rectangle 163600" width="18.485" height="0.672" transform="translate(12.746 7.396) rotate(15.197)" fill="#a6abfd"/>
    </g>
    <path id="Path_49009" data-name="Path 49009" d="M101.247,150.392a4.122,4.122,0,1,1-4.122-4.122A4.122,4.122,0,0,1,101.247,150.392Z" transform="translate(3853.298 5241.131)" fill="none" stroke="#fff" stroke-linecap="round" stroke-miterlimit="10" stroke-width="1"/>
    <path id="Path_49010" data-name="Path 49010" d="M211.808,188.35a4.123,4.123,0,1,1-4.122-4.12A4.122,4.122,0,0,1,211.808,188.35Z" transform="translate(4006.057 5278.49)" fill="none" stroke="#fff" stroke-linecap="round" stroke-miterlimit="10" stroke-width="1"/>
    <path id="Path_49011" data-name="Path 49011" d="M280.046,222.648a4.122,4.122,0,1,1-4.122-4.12A4.121,4.121,0,0,1,280.046,222.648Z" transform="translate(4087.71 5312.244)" fill="#f5862c" stroke="#b0b1fb" stroke-linecap="round" stroke-miterlimit="10" stroke-width="1" opacity="0.34"/>
    <g id="Group_180629" data-name="Group 180629" transform="translate(4269.094 5745.259)">
      <path id="Path_49012" data-name="Path 49012" d="M227.811,487.279s-2.728-140.1,53.5-193.693c0,0,26.191,66.055-13.449,193.693Z" transform="translate(-227.789 -293.586)" fill="url(#linear-gradient-8)" style="mix-blend-mode: multiply;isolation: isolate"/>
      <path id="Path_49013" data-name="Path 49013" d="M259.416,320.685s4.113,56.127-15.837,139.772" transform="translate(-218.926 -278.374)" fill="none" stroke="#fff" stroke-linecap="round" stroke-miterlimit="10" stroke-width="1"/>
    </g>
    <g id="Group_180631" data-name="Group 180631" transform="translate(3951.755 5604.379)">
      <path id="Path_49014" data-name="Path 49014" d="M219,279l-1.079,14.082-.366,4.613-1.132,14.848-31.107.557,3.534-30.759,1.828-15.858.888-7.659Z" transform="translate(-46.635 -172.22)" fill="#ffc194"/>
      <path id="Path_49015" data-name="Path 49015" d="M216.165,290.326l-.367,4.614c-18.3,0-26.675-25.159-27.341-27.189l.464-4.022A55.277,55.277,0,0,0,216.165,290.326Z" transform="translate(-44.875 -169.466)" fill="#fbab71"/>
      <path id="Path_49016" data-name="Path 49016" d="M315.074,315.013s14.524-16.143,26.18-17.36c4.3-.45-3,8.645-3,8.645H387.3s-1.824,6.019-5.471,8.715S338.258,329.5,338.258,329.5Z" transform="translate(26.199 -150.432)" fill="#ffc194"/>
      <path id="Path_49017" data-name="Path 49017" d="M237.3,239.311c4.228,3.224,11.276,6.895,12.285,12.116.9,4.665-8.525,20.187-4.063,26.176,8.292,11.132-8.768,26.835-14.825,31.01-14.549,10.03-51.886-19.507-39.249-57.787C201.055,221.742,225.031,229.948,237.3,239.311Z" transform="translate(-44.636 -188.049)" fill="#ffc194"/>
      <path id="Path_49018" data-name="Path 49018" d="M191.72,239.667s39.175,27.125,58.5,15.581.982-34.313.982-34.313-4.289,7.986-18.364,3.352S192.743,216.746,191.72,239.667Z" transform="translate(-43.044 -193.488)" fill="#0a0a0f"/>
      <path id="Path_49019" data-name="Path 49019" d="M212.519,233.963s-9.238-13.289-21.632-5.5c-9.437,5.928-7.39,38.854,1.121,51.382C192.008,279.843,192.22,241.159,212.519,233.963Z" transform="translate(-47.004 -190.637)" fill="#0a0a0f"/>
      <path id="Path_49020" data-name="Path 49020" d="M216.267,239.375s-7.74,18.674-16.594,23.34c0,0,.793,10.111-8.328,10.141,0,0,2.762-3.177-.19-10.256a23.4,23.4,0,0,1-1.446-4.8c-1.777-9.674,6.658-27.587,16.108-26.552S216.267,239.375,216.267,239.375Z" transform="translate(-44.306 -187.724)" fill="#0a0a0f"/>
      <path id="Path_49021" data-name="Path 49021" d="M194.55,267.2s-6.675.742-9.384-4.736c-4.835-9.78,5.772-15.662,9.1-10.459Z" transform="translate(-47.42 -177.132)" fill="#fa8fa4"/>
      <path id="Path_49022" data-name="Path 49022" d="M207.159,264.319s3.449,16.4,12.438,13.051c6.028-2.242,9.811-11.215,9.811-11.215Z" transform="translate(-34.377 -169.135)" fill="#fff"/>
      <path id="Path_49023" data-name="Path 49023" d="M210.654,254.548c-.131,1.692-.788,3.021-1.468,2.97s-1.124-1.468-.993-3.16.788-3.023,1.466-2.97S210.784,252.855,210.654,254.548Z" transform="translate(-33.809 -176.395)" fill="#2e112e"/>
      <path id="Path_49024" data-name="Path 49024" d="M223.591,255.7c-.131,1.693-.787,3.023-1.468,2.97s-1.123-1.466-.993-3.159.788-3.023,1.468-2.97S223.722,254,223.591,255.7Z" transform="translate(-26.547 -175.748)" fill="#2e112e"/>
      <path id="Path_49025" data-name="Path 49025" d="M151.173,489.207s-43.638-139.3,1.421-170.25,74.825-36.829,120.932-18.257,22.034,188.506,22.034,188.506Z" transform="translate(-76.459 -154.634)" fill="#028a98"/>
      <path id="Path_49026" data-name="Path 49026" d="M228.273,363.412l71.892,65.237a40.611,40.611,0,0,0,62.775-10.327l47.087-84.617-23.184-14.491s-46.37,54.339-54.339,49.992-42.117-79.253-131.413-79.055C158.272,290.247,228.273,363.412,228.273,363.412Z" transform="translate(-45.569 -154.634)" fill="#028a98"/>
      <path id="Path_49027" data-name="Path 49027" d="M172.631,308.6S127.432,343.783,100,412.477c-12.692,31.79,10.614,66.374,44.843,66.374H245.538l-1.911-31.235-70.288-35.862S246.854,347.742,172.631,308.6Z" transform="translate(-96.496 -144.278)" fill="#028a98"/>
      <path id="Path_49028" data-name="Path 49028" d="M197.968,267.022s4.181-36.93,28.11-44.07c0,0-6.812-5.813-15.025-1.129,0,0-18.916,10.186-22.169,45.928Z" transform="translate(-44.636 -194.014)" fill="#028a98"/>
      <g id="Group_180630" data-name="Group 180630" transform="translate(149.894 84.589)">
        <path id="Path_49029" data-name="Path 49029" d="M217.956,288.576a50,50,0,0,1-16.674-10.751c-8.534-8.323-8.761-19.648-8.783-20.141l3.479-.15c0,.106.576,10.828,8.1,18.161a42.138,42.138,0,0,0,16.071,9.939l-.94,3.352C219.132,288.966,218.685,288.838,217.956,288.576Z" transform="translate(-192.5 -257.533)" fill="#0a0a0f"/>
        <path id="Path_49030" data-name="Path 49030" d="M208.048,275.414a3.914,3.914,0,0,0,2.351,4.572,3.29,3.29,0,0,0,2.22-6.194C210.91,273.178,208.661,273.7,208.048,275.414Z" transform="translate(-183.861 -248.545)" fill="#0a0a0f"/>
      </g>
      <ellipse id="Ellipse_951" data-name="Ellipse 951" cx="15.431" cy="17.217" rx="15.431" ry="17.217" transform="translate(129.629 62.637)" fill="#025760"/>
      <ellipse id="Ellipse_952" data-name="Ellipse 952" cx="13.739" cy="15.33" rx="13.739" ry="15.33" transform="translate(126.351 64.524)" fill="#028a98"/>
      <path id="Path_49031" data-name="Path 49031" d="M179.521,297.573,190.8,281.224l19.585,13.94,10.438-10.043,9.905,12.119-10.862,12.65-9.48-10.639-8.537,12.386S187.918,307.122,179.521,297.573Z" transform="translate(-49.891 -159.645)" fill="#fff"/>
      <path id="Path_49032" data-name="Path 49032" d="M170.39,350.989,146.537,388.63a10.12,10.12,0,0,0,5.088,14.926l69.618,25.328" transform="translate(-69.291 -120.484)" fill="#028a98" stroke="#0a0a0f" stroke-miterlimit="10" stroke-width="1"/>
      <path id="Path_49033" data-name="Path 49033" d="M191.954,425.194l2.912-21.006s35.85,10.349,38.15,12.266,8.815,8.74,8.815,8.74Z" transform="translate(-42.912 -90.621)" fill="#ffc194"/>
      <line id="Line_548" data-name="Line 548" x1="1.823" y2="11.848" transform="translate(74.737)" fill="none" stroke="#fff" stroke-linecap="round" stroke-miterlimit="10" stroke-width="1"/>
    </g>
    <line id="Line_549" data-name="Line 549" x1="11.837" y1="1.897" transform="translate(4021.525 5506.336)" fill="none" stroke="#fff" stroke-linecap="round" stroke-miterlimit="10" stroke-width="1"/>
    <line id="Line_550" data-name="Line 550" x1="1.823" y2="11.849" transform="translate(4500.589 5581.844)" fill="none" stroke="#f5862c" stroke-linecap="round" stroke-miterlimit="10" stroke-width="1" opacity="0.6"/>
    <line id="Line_551" data-name="Line 551" x1="11.837" y1="1.897" transform="translate(4495.408 5586.864)" fill="none" stroke="#f5862c" stroke-linecap="round" stroke-miterlimit="10" stroke-width="1" opacity="0.6"/>
    <rect id="Rectangle_163601" data-name="Rectangle 163601" width="9.536" height="9.536" transform="translate(3921.17 5528.719)" fill="none" stroke="#fff" stroke-linecap="round" stroke-miterlimit="10" stroke-width="1"/>
    <rect id="Rectangle_163602" data-name="Rectangle 163602" width="9.536" height="9.536" transform="matrix(0.757, 0.654, -0.654, 0.757, 4286.032, 5385.233)" fill="#f5862c" stroke="#9da5fe" stroke-linecap="round" stroke-miterlimit="10" stroke-width="1" opacity="0.34"/>
    <path id="Path_49034" data-name="Path 49034" d="M327.673,378.669H285.484a4.713,4.713,0,0,0-4.714,4.712v27.593a30.639,30.639,0,0,0,5.387,17.351l5.159,7.512a8.487,8.487,0,0,0,6.995,3.682H314.8a8.483,8.483,0,0,0,7.032-3.738L327.9,426.8a26.233,26.233,0,0,0,4.489-14.672V383.381A4.713,4.713,0,0,0,327.673,378.669Z" transform="translate(4105.017 5499.433)" fill="#fff"/>
    <path id="Path_49035" data-name="Path 49035" d="M307.484,414.669h-23.5a14.406,14.406,0,0,1,0-28.811h23.5Zm-23.5-22.458a8.053,8.053,0,0,0,0,16.105h17.15V392.211Z" transform="translate(4089.252 5503.469)" fill="#fff"/>
    <path id="Path_49036" data-name="Path 49036" d="M300.476,382.837s-8.681-6.915-5.379-17.745,10.366-17.973,5.379-25.643c0,0,12.536,1.852,8.007,14.55S296.626,374.618,300.476,382.837Z" transform="translate(4115.753 5438.545)" fill="url(#linear-gradient-9)"/>
    <path id="Path_49037" data-name="Path 49037" d="M297.257,353.343s-8.5,12.381,0,21.695c10.069,11.032,5.619,16.1,5.619,16.1s-3.11-4.9-11.412-10.335C284.2,376.051,278.747,360.5,297.257,353.343Z" transform="translate(4104.767 5451.295)" fill="url(#linear-gradient-10)"/>
  </g>
</svg>
