<svg xmlns="http://www.w3.org/2000/svg" width="172.119" height="172.119" viewBox="0 0 172.119 172.119">
  <g id="Group_180528" data-name="Group 180528" transform="translate(-1063.94 -2756)">
    <g id="Group_179017" data-name="Group 179017" transform="translate(122.1 1165.061)">
      <rect id="Rectangle_163442" data-name="Rectangle 163442" width="126" height="126" rx="44" transform="translate(1004.841 1590.939) rotate(30)" fill="#c4c4c4" opacity="0.2"/>
      <rect id="Rectangle_163441" data-name="Rectangle 163441" width="126" height="126" rx="44" transform="matrix(0.966, 0.259, -0.259, 0.966, 974.452, 1599.841)" fill="#c4c4c4"/>
    </g>
    <g id="Group_180170" data-name="Group 180170" transform="translate(980.864 2767.429)">
      <g id="Group_180160" data-name="Group 180160" transform="translate(135.93 30.365)">
        <g id="Group_180150" data-name="Group 180150" transform="translate(14.436 29.111)">
          <path id="Path_48282" data-name="Path 48282" d="M163.99,55.521l-14.514-.214-1.648.431-.571.285.139.4,4.51,12.688,1.318,4.185H160.7l.709-3.947,3.929-12.874.16-.524Z" transform="translate(-147.257 -55.308)" fill="#dbd5d5"/>
        </g>
        <path id="Path_48283" data-name="Path 48283" d="M181.125,65.858c0-4.822-6.35-8.533-13.565-9.967l-4.088,13.4-4.457,8.855-5.042-9.093-4.078-13.374c-6.94,1.372-13.59,5.182-13.59,10.181L134.887,84.6h8.969l.93-5.213-.272,5.213h28.233l-.04-5.446.813,5.446h9.026Z" transform="translate(-134.887 -26.135)" fill="#0f3f52"/>
        <g id="Group_180151" data-name="Group 180151" transform="translate(16.926 24.237)">
          <path id="Path_48284" data-name="Path 48284" d="M160.539,51.132h-8.493a2.419,2.419,0,0,0-2.656,2.076v5.346a2.421,2.421,0,0,0,2.656,2.076h8.493a2.59,2.59,0,0,0,2.6-1.637c.02-.01.042-.01.06-.02V53.208A2.418,2.418,0,0,0,160.539,51.132Z" transform="translate(-149.39 -51.132)" fill="#d1ab86"/>
        </g>
        <g id="Group_180152" data-name="Group 180152" transform="translate(10.56 2.195)">
          <path id="Path_48285" data-name="Path 48285" d="M169.673,44.44c-.336-.091-.711.117-1.077.542.009-.208.015-.414.015-.619,0-6.691-5.1-12.117-11.406-12.117S145.8,37.672,145.8,44.363c0,.2,0,.411.014.619-.366-.425-.742-.633-1.076-.542-.8.219-1.042,2.088-.537,4.17s1.564,3.59,2.368,3.372a1.068,1.068,0,0,0,.629-.8c1.941,5.01,5.691,9.543,10.008,9.543s8.065-4.533,10.005-9.543c.135.431.345.72.63.8.8.218,1.859-1.29,2.367-3.372S170.473,44.659,169.673,44.44Z" transform="translate(-143.935 -32.246)" fill="#ffe2c2"/>
        </g>
        <g id="Group_180153" data-name="Group 180153" transform="translate(16.154 29.659)">
          <path id="Path_48286" data-name="Path 48286" d="M148.921,55.778s.237,2.1,4.382,3.242,1.383,3.815,1.383,3.815l-3.242.619-1.906-3.431-.81-2.622Z" transform="translate(-148.728 -55.778)" fill="#fff8f8"/>
        </g>
        <g id="Group_180154" data-name="Group 180154" transform="translate(24.639 30.041)">
          <path id="Path_48287" data-name="Path 48287" d="M162.671,56.105s-.24,2.1-4.386,3.241-1.384,3.815-1.384,3.815l3.242.62,1.907-3.434.813-2.621Z" transform="translate(-155.999 -56.105)" fill="#fff8f8"/>
        </g>
        <g id="Group_180155" data-name="Group 180155" transform="translate(9.351 28.752)">
          <path id="Path_48288" data-name="Path 48288" d="M148.628,55,142.9,57.583l9.734,11.581Z" transform="translate(-142.9 -55)" fill="#14546e"/>
        </g>
        <g id="Group_180156" data-name="Group 180156" transform="translate(28.584 28.991)">
          <path id="Path_48289" data-name="Path 48289" d="M163.385,55.205l5.513,2.42-9.519,11.742Z" transform="translate(-159.379 -55.205)" fill="#14546e"/>
        </g>
        <g id="Group_180157" data-name="Group 180157" transform="translate(21.176 38.228)">
          <path id="Path_48290" data-name="Path 48290" d="M155.2,63.12l-2.166,8.457,2.952,5.323,2.878-5.718-2.379-8.062Z" transform="translate(-153.031 -63.12)" fill="#1f8dc2"/>
        </g>
        <g id="Group_180158" data-name="Group 180158" transform="translate(21.659 34.329)">
          <path id="Path_48291" data-name="Path 48291" d="M154.088,59.779l3.363.05.622,2.479-.694,2.527h-3.17l-.765-2.362Z" transform="translate(-153.445 -59.779)" fill="#1f8dc2"/>
        </g>
        <g id="Group_180159" data-name="Group 180159" transform="translate(12.206)">
          <path id="Path_48292" data-name="Path 48292" d="M163.952,35.051c1.518-7.572-21.121-7.175-18.375,10.245l1.384,6.2s.483-6.862.834-9.188,1.989-7.279,14.188-5.21c4.428,1.6,3.864,4.37,4.336,9.262l.655,5.136,1.385-6.2S169.982,34.284,163.952,35.051Z" transform="translate(-145.346 -30.365)" fill="#0c0a0a"/>
        </g>
        <path id="Path_48293" data-name="Path 48293" d="M161.808,35.987c0,1.049-2.547,1.9-5.69,1.9s-5.69-.851-5.69-1.9,2.548-1.9,5.69-1.9S161.808,34.937,161.808,35.987Z" transform="translate(-132.29 -29.743)" fill="#0c0a0a"/>
      </g>
      <g id="Group_180161" data-name="Group 180161" transform="translate(146.101 79.894)">
        <rect id="Rectangle_163531" data-name="Rectangle 163531" width="10.546" height="3.074" transform="translate(0 24.359) rotate(-74.043)" fill="#525252"/>
        <rect id="Rectangle_163532" data-name="Rectangle 163532" width="16.542" height="6.313" rx="1.392" transform="translate(0.733 15.905) rotate(-74.045)" fill="#cf2d2d"/>
        <rect id="Rectangle_163533" data-name="Rectangle 163533" width="1.819" height="3.074" transform="translate(1.002 20.853) rotate(-74.042)" fill="#8a8a8a"/>
      </g>
      <g id="Group_180165" data-name="Group 180165" transform="translate(158.775 81.114)">
        <g id="Group_180164" data-name="Group 180164" transform="translate(0 0)">
          <path id="Path_48294" data-name="Path 48294" d="M164.069,94.242a2.206,2.206,0,0,1-1.942,2.44h0a2.206,2.206,0,0,1-2.439-1.942l-1.145-8.722a2.2,2.2,0,0,1,1.942-2.438h0a2.2,2.2,0,0,1,2.439,1.941Z" transform="translate(-153.783 -72.225)" fill="#525252"/>
          <g id="Group_180162" data-name="Group 180162" transform="translate(0.915)">
            <path id="Path_48295" data-name="Path 48295" d="M160.888,83.319a5.072,5.072,0,0,0,4.468-5.613l-10.081,1.145A5.071,5.071,0,0,0,160.888,83.319Z" transform="translate(-155.241 -73.204)" fill="#23c7c8"/>
            <path id="Path_48296" data-name="Path 48296" d="M159.746,73.882a5.072,5.072,0,0,0-4.468,5.614L165.36,78.35A5.074,5.074,0,0,0,159.746,73.882Z" transform="translate(-155.246 -73.849)" fill="#26d8d9"/>
          </g>
          <rect id="Rectangle_163534" data-name="Rectangle 163534" width="12.88" height="5.372" transform="translate(0 9.413) rotate(-6.483)" fill="#dbdbdb"/>
          <g id="Group_180163" data-name="Group 180163" transform="translate(1.288 9.465)">
            <path id="Path_48297" data-name="Path 48297" d="M157.527,82.755l.033.285-.81.091.252,2.22-.338.039-.252-2.22-.812.093-.033-.285Z" transform="translate(-155.566 -81.826)" fill="#0f3f52"/>
            <path id="Path_48298" data-name="Path 48298" d="M157.3,82.787l.271-.03a.107.107,0,0,1,.076.014.135.135,0,0,1,.049.05l.908,1.686c.021.039.041.081.06.125s.037.092.056.141c0-.053.01-.1.016-.149a1.346,1.346,0,0,1,.029-.134l.5-1.846a.14.14,0,0,1,.035-.058.111.111,0,0,1,.071-.034l.272-.032-.735,2.619-.306.035Z" transform="translate(-155.276 -81.865)" fill="#0f3f52"/>
            <path id="Path_48299" data-name="Path 48299" d="M159.437,83.669l.862-.1.03.265-.862.1Z" transform="translate(-154.919 -81.69)" fill="#0f3f52"/>
            <path id="Path_48300" data-name="Path 48300" d="M162.449,84.2a.077.077,0,0,1,.054.016l.149.132a1.116,1.116,0,0,1-.341.32,1.291,1.291,0,0,1-.517.159,1.245,1.245,0,0,1-.5-.037,1.088,1.088,0,0,1-.406-.219,1.2,1.2,0,0,1-.287-.376,1.518,1.518,0,0,1-.144-.509,1.415,1.415,0,0,1,.033-.53,1.165,1.165,0,0,1,.579-.745,1.387,1.387,0,0,1,.5-.149,1.227,1.227,0,0,1,.486.03,1.206,1.206,0,0,1,.383.193l-.092.168a.134.134,0,0,1-.025.032.091.091,0,0,1-.046.016.1.1,0,0,1-.049-.01l-.065-.035c-.025-.014-.054-.027-.088-.042a.632.632,0,0,0-.118-.04.817.817,0,0,0-.155-.025,1.058,1.058,0,0,0-.2.006.946.946,0,0,0-.361.111.836.836,0,0,0-.265.229.927.927,0,0,0-.153.333,1.234,1.234,0,0,0-.02.419,1.213,1.213,0,0,0,.114.408.964.964,0,0,0,.218.291.769.769,0,0,0,.3.16.856.856,0,0,0,.35.028,1.437,1.437,0,0,0,.2-.035.892.892,0,0,0,.16-.061.642.642,0,0,0,.134-.086,1.012,1.012,0,0,0,.119-.117A.092.092,0,0,1,162.449,84.2Z" transform="translate(-154.751 -81.911)" fill="#0f3f52"/>
            <path id="Path_48301" data-name="Path 48301" d="M164.822,84.462l-.341.039-.13-1.139L163,83.515l.13,1.14-.34.039-.285-2.5.34-.039.127,1.115,1.349-.153L164.2,82l.341-.04Z" transform="translate(-154.406 -81.959)" fill="#0f3f52"/>
          </g>
        </g>
        <rect id="Rectangle_163535" data-name="Rectangle 163535" width="4.409" height="1.034" transform="translate(5.067 16.489) rotate(-6.487)" fill="#8a8a8a"/>
      </g>
      <g id="Group_180167" data-name="Group 180167" transform="translate(128.647 75.468)">
        <path id="Path_48302" data-name="Path 48302" d="M144.056,77.024c-1.423,3.13-4.547,4.772-6.979,3.668s-3.254-4.539-1.831-7.669,4.545-4.773,6.978-3.668S145.478,73.893,144.056,77.024Z" transform="translate(-127.661 -69.011)" fill="#fdaf3a"/>
        <rect id="Rectangle_163536" data-name="Rectangle 163536" width="10.251" height="10.251" transform="translate(1.221 17.329) rotate(-65.577)" fill="#dbdbdb"/>
        <g id="Group_180166" data-name="Group 180166" transform="translate(5.927 12.014)">
          <path id="Path_48303" data-name="Path 48303" d="M134.847,84.317a2.321,2.321,0,0,1-.6-.389,1.622,1.622,0,0,1-.383-.5,1.319,1.319,0,0,1-.134-.573,1.438,1.438,0,0,1,.138-.612,1.286,1.286,0,0,1,.579-.643,1.425,1.425,0,0,1,.872-.112,1.255,1.255,0,0,1-.376-.67,1.237,1.237,0,0,1,.11-.745,1.276,1.276,0,0,1,.795-.706,1.528,1.528,0,0,1,.571-.06,1.859,1.859,0,0,1,.629.17,1.894,1.894,0,0,1,.542.362,1.516,1.516,0,0,1,.331.468,1.3,1.3,0,0,1,.111.529,1.313,1.313,0,0,1-.119.535,1.235,1.235,0,0,1-.493.571,1.253,1.253,0,0,1-.747.161,1.425,1.425,0,0,1,.488.728,1.279,1.279,0,0,1-.1.86,1.43,1.43,0,0,1-.372.505,1.308,1.308,0,0,1-.519.275,1.626,1.626,0,0,1-.626.042A2.348,2.348,0,0,1,134.847,84.317Zm.212-.469a1.406,1.406,0,0,0,.444.124.99.99,0,0,0,.393-.041.894.894,0,0,0,.321-.191,1.025,1.025,0,0,0,.232-.331,1.088,1.088,0,0,0,.11-.454.844.844,0,0,0-.09-.382.973.973,0,0,0-.244-.3,1.508,1.508,0,0,0-.746-.338.986.986,0,0,0-.389.016.848.848,0,0,0-.344.184,1.069,1.069,0,0,0-.271.38,1.019,1.019,0,0,0-.1.392.856.856,0,0,0,.067.369.974.974,0,0,0,.229.322A1.363,1.363,0,0,0,135.059,83.847Zm1.032-2.271a1.078,1.078,0,0,0,.426.109.779.779,0,0,0,.622-.27,1.162,1.162,0,0,0,.188-.293.967.967,0,0,0,.086-.335.765.765,0,0,0-.047-.328.839.839,0,0,0-.189-.293,1.09,1.09,0,0,0-.342-.23,1.073,1.073,0,0,0-.4-.106.834.834,0,0,0-.345.049.794.794,0,0,0-.278.181.966.966,0,0,0-.194.286,1.174,1.174,0,0,0-.1.334.812.812,0,0,0,.026.336.785.785,0,0,0,.182.309A1.077,1.077,0,0,0,136.091,81.576Z" transform="translate(-133.725 -79.305)"/>
        </g>
        <path id="Path_48304" data-name="Path 48304" d="M133.845,90.7l-3.24-1.471,2.06-4.329,3.241,1.472Z" transform="translate(-128.32 -66.356)"/>
        <path id="Path_48305" data-name="Path 48305" d="M129.525,96.01c-.9-.4-1.147-1.779-.563-3.065l1.97-4.339,3.241,1.471L132.2,94.416C131.617,95.7,130.419,96.416,129.525,96.01Z" transform="translate(-128.647 -65.737)" fill="#8c8c8c"/>
      </g>
      <g id="Group_180169" data-name="Group 180169" transform="translate(174.293 75.082)">
        <path id="Path_48306" data-name="Path 48306" d="M177.154,73.826l-8.111,3.505-.915-6.536,4.893-2.115Z" transform="translate(-167.697 -68.68)" fill="#fdaf3a"/>
        <path id="Path_48307" data-name="Path 48307" d="M177.023,73.089l-8.111,3.505,4.132,5.144,4.893-2.114Z" transform="translate(-167.565 -67.943)" fill="#cf2d2d"/>
        <rect id="Rectangle_163537" data-name="Rectangle 163537" width="17.268" height="7.271" transform="translate(0 16.163) rotate(-23.369)" fill="#dbdbdb"/>
        <g id="Group_180168" data-name="Group 180168" transform="translate(2.046 12.2)">
          <path id="Path_48308" data-name="Path 48308" d="M169.842,83.753a.291.291,0,0,1,.095.034l3.04,1.692c-.022-.04-.042-.077-.061-.116l-.05-.11-1.027-2.381.4-.173,1.452,3.361-.23.1a.211.211,0,0,1-.1.019.227.227,0,0,1-.1-.032l-3.038-1.69.057.112c.016.035.033.069.047.1l1.034,2.394-.4.173-1.453-3.361.236-.1A.229.229,0,0,1,169.842,83.753Z" transform="translate(-169.511 -78.537)" fill="#cf2d2d"/>
          <path id="Path_48309" data-name="Path 48309" d="M174.621,81.63l.161.37-1.614.7.482,1.117,1.306-.565.155.357-1.307.565.5,1.146,1.613-.7.16.371-2.07.894-1.453-3.361Z" transform="translate(-169.003 -78.716)" fill="#cf2d2d"/>
          <path id="Path_48310" data-name="Path 48310" d="M174.563,81.817l.378-.162a.171.171,0,0,1,.113-.013.147.147,0,0,1,.088.054l1.7,2.035c.032.037.062.078.093.121s.063.09.095.14c-.012-.058-.023-.114-.034-.168a1.293,1.293,0,0,1-.021-.151L176.761,81a.186.186,0,0,1,.023-.1.163.163,0,0,1,.085-.077l.131-.057a.171.171,0,0,1,.113-.013.166.166,0,0,1,.088.055l1.8,2a2.675,2.675,0,0,1,.195.246c-.013-.055-.026-.109-.037-.16a.937.937,0,0,1-.027-.144l-.313-2.635a.157.157,0,0,1,.02-.1.168.168,0,0,1,.088-.077l.354-.153.4,3.814-.407.176-1.96-2.2a1.335,1.335,0,0,1-.119-.149c0,.035.01.068.016.1s.009.062.012.089l.251,2.933-.407.176Z" transform="translate(-168.667 -79.025)" fill="#cf2d2d"/>
          <path id="Path_48311" data-name="Path 48311" d="M180.9,79.481a.246.246,0,0,1-.021.071.112.112,0,0,1-.055.044.173.173,0,0,1-.11,0,1.667,1.667,0,0,0-.172-.029,1.082,1.082,0,0,0-.232,0,.873.873,0,0,0-.293.078.913.913,0,0,0-.252.158.622.622,0,0,0-.148.2.5.5,0,0,0-.048.216.6.6,0,0,0,.05.224.414.414,0,0,0,.169.2.646.646,0,0,0,.252.079,1.411,1.411,0,0,0,.307,0l.338-.028c.117-.008.231-.012.345-.012a1.17,1.17,0,0,1,.329.051.806.806,0,0,1,.287.163.872.872,0,0,1,.221.322,1.243,1.243,0,0,1,.105.446,1.055,1.055,0,0,1-.075.431,1.1,1.1,0,0,1-.257.378,1.405,1.405,0,0,1-.442.289,1.6,1.6,0,0,1-.644.138,1.518,1.518,0,0,1-.6-.121L180,82.5a.169.169,0,0,1,.027-.062.113.113,0,0,1,.053-.043.191.191,0,0,1,.134,0c.057.015.127.032.209.048a1.58,1.58,0,0,0,.28.016.986.986,0,0,0,.352-.09.91.91,0,0,0,.268-.169.657.657,0,0,0,.161-.218.58.58,0,0,0,.05-.252.687.687,0,0,0-.061-.271.464.464,0,0,0-.177-.221.614.614,0,0,0-.252-.084,1.327,1.327,0,0,0-.3,0c-.11.009-.222.023-.336.034a3.091,3.091,0,0,1-.344.015,1.052,1.052,0,0,1-.327-.051.818.818,0,0,1-.291-.175.977.977,0,0,1-.231-.344.934.934,0,0,1-.079-.375.946.946,0,0,1,.072-.383,1.042,1.042,0,0,1,.236-.345,1.263,1.263,0,0,1,.411-.27,1.55,1.55,0,0,1,.552-.133,1.3,1.3,0,0,1,.518.083Z" transform="translate(-167.903 -79.133)" fill="#cf2d2d"/>
        </g>
        <path id="Path_48312" data-name="Path 48312" d="M168.92,76.638l.249.31,7.918-3.42-.055-.395-.248-.308-7.918,3.422Z" transform="translate(-167.573 -67.987)" fill="#e6e6e6"/>
        <path id="Path_48313" data-name="Path 48313" d="M183.765,95.5l-3.51,1.518L175.1,86.42l4.477-1.935Z" transform="translate(-166.531 -66.039)" fill="#3d3d3d"/>
      </g>
    </g>
  </g>
</svg>
