<svg xmlns="http://www.w3.org/2000/svg" width="172.119" height="172.119" viewBox="0 0 172.119 172.119">
  <g id="Group_180529" data-name="Group 180529" transform="translate(-626.94 -2756)">
    <g id="Group_179018" data-name="Group 179018" transform="translate(-314.9 1165.061)">
      <rect id="Rectangle_163442" data-name="Rectangle 163442" width="126" height="126" rx="44" transform="translate(1004.841 1590.939) rotate(30)" fill="#dccba9" opacity="0.2"/>
      <rect id="Rectangle_163441" data-name="Rectangle 163441" width="126" height="126" rx="44" transform="matrix(0.966, 0.259, -0.259, 0.966, 974.452, 1599.841)" fill="#dccba9"/>
    </g>
    <g id="Group_180186" data-name="Group 180186" transform="translate(534.839 2558.975)">
      <path id="Path_48314" data-name="Path 48314" d="M147.813,314.613a2.494,2.494,0,1,0-4.978,0,1.484,1.484,0,0,0,.052.361h-.013v.761h4.939Z" transform="translate(1.51 6.388)"/>
      <path id="Path_48315" data-name="Path 48315" d="M135.429,314.613a2.494,2.494,0,1,1,4.977,0,1.487,1.487,0,0,1-.051.361h.013v.761h-4.939Z" transform="translate(0.69 6.388)"/>
      <g id="Group_180185" data-name="Group 180185" transform="translate(129.195 254.261)">
        <g id="Group_180174" data-name="Group 180174" transform="translate(4.923 9.215)">
          <g id="Group_180171" data-name="Group 180171" transform="translate(14.016)">
            <path id="Path_48316" data-name="Path 48316" d="M158.864,272.374c-.644-.75-3.268-1.1-3.9-1.1h-.218v-.9h-.127a3.467,3.467,0,0,0,1.071-1.421.179.179,0,0,0,.1.087c.187.04.432-.365.553-.909s.068-1.016-.118-1.059c-.006,0-.012,0-.018,0,.022-.109.044-.217.058-.329.353-2.588-.64-4.5-3.139-4.144-2.643-.078-3.479,1.864-3.157,4.144.014.113.04.22.061.33a.189.189,0,0,0-.044,0c-.185.042-.239.515-.119,1.059s.369.949.555.909a.2.2,0,0,0,.121-.129,3.466,3.466,0,0,0,1.09,1.463h-.026v.9h-.218c-.532,0-3.5.654-3.924,1.1-1.3,1.382-1.216,7.106-1.216,7.106l.181,3.894h1.756l.529-1.551.1,1.551h8.833l-.022-1.813.549,1.813H159.9l.179-3.894S160.1,273.818,158.864,272.374Z" transform="translate(-146.246 -262.558)" fill="#656f70"/>
          </g>
          <g id="Group_180172" data-name="Group 180172" transform="translate(50.844)">
            <path id="Path_48317" data-name="Path 48317" d="M192.022,272.374c-.644-.75-3.268-1.1-3.905-1.1H187.9v-.9h-.129a3.45,3.45,0,0,0,1.072-1.421.175.175,0,0,0,.1.087c.184.04.433-.365.553-.909s.068-1.016-.117-1.059a.087.087,0,0,0-.019,0c.021-.109.044-.217.058-.329.352-2.588-.639-4.5-3.138-4.144-2.646-.078-3.481,1.864-3.158,4.144.013.113.04.22.061.33a.2.2,0,0,0-.044,0c-.185.042-.238.515-.119,1.059s.369.949.554.909c.051-.012.09-.059.122-.129a3.464,3.464,0,0,0,1.089,1.463h-.024v.9h-.218c-.531,0-3.5.654-3.925,1.1-1.3,1.382-1.216,7.106-1.216,7.106l.182,3.894h1.756l.529-1.551.1,1.551h8.832l-.022-1.813.548,1.813h1.724l.179-3.894S193.255,273.818,192.022,272.374Z" transform="translate(-179.403 -262.558)" fill="#656f70"/>
          </g>
          <g id="Group_180173" data-name="Group 180173" transform="translate(32.166 5.922)">
            <path id="Path_48318" data-name="Path 48318" d="M175.2,277.705c-.642-.751-3.265-1.1-3.9-1.1h-.215v-.9h-.128a3.448,3.448,0,0,0,1.073-1.423.16.16,0,0,0,.1.088c.187.041.433-.365.555-.909s.068-1.015-.119-1.056a.054.054,0,0,0-.019,0c.022-.109.043-.215.059-.329.353-2.588-.64-4.5-3.138-4.142-2.647-.08-3.481,1.862-3.161,4.142.017.114.042.22.067.332a.1.1,0,0,0-.047,0c-.186.041-.238.514-.117,1.056s.367.95.553.909a.2.2,0,0,0,.121-.128,3.462,3.462,0,0,0,1.09,1.463h-.026v.9h-.217c-.534,0-3.5.655-3.925,1.1-1.3,1.381-1.217,7.105-1.217,7.105l.183,3.9h1.755l.529-1.551.1,1.551h8.832l-.019-1.813.546,1.813h1.723l.18-3.9S176.439,279.148,175.2,277.705Z" transform="translate(-162.587 -267.89)" fill="#656f70"/>
          </g>
          <path id="Path_48319" data-name="Path 48319" d="M210.985,278.383c-.891-1.039-4.524-1.528-5.406-1.528h-.3V275.61H205.1a4.745,4.745,0,0,0,1.484-1.968.241.241,0,0,0,.139.121c.258.054.6-.506.769-1.261s.093-1.405-.165-1.464a.224.224,0,0,0-.024,0c.03-.149.06-.3.083-.454.486-3.584-.889-6.233-4.348-5.738-3.664-.109-4.819,2.579-4.375,5.738.023.157.057.305.09.458a.211.211,0,0,0-.064-.006c-.257.059-.33.714-.163,1.464s.509,1.315.767,1.261a.273.273,0,0,0,.168-.179,4.81,4.81,0,0,0,1.511,2.026h-.036v1.244h-.3c-.736,0-4.844.906-5.434,1.528a2.741,2.741,0,0,0-.375.543h-5.743a3.324,3.324,0,0,0-.481-.82c-.889-1.041-4.524-1.528-5.406-1.528h-.3v-1.245h-.179a4.763,4.763,0,0,0,1.486-1.969.224.224,0,0,0,.139.121c.255.057.6-.5.765-1.258s.1-1.406-.163-1.464c-.008,0-.016,0-.026,0,.031-.149.061-.3.083-.453.486-3.585-.886-6.234-4.346-5.739-3.664-.108-4.82,2.579-4.376,5.739.024.156.058.305.09.455a.206.206,0,0,0-.063,0c-.258.058-.33.713-.164,1.464s.51,1.315.767,1.258a.275.275,0,0,0,.169-.177,4.794,4.794,0,0,0,1.508,2.025h-.036v1.245h-.3c-.737,0-4.846.905-5.435,1.528-.037.039-.069.1-.1.14-.032-.043-.062-.1-.1-.14-.89-1.041-4.524-1.528-5.407-1.528h-.3v-1.245h-.179a4.749,4.749,0,0,0,1.484-1.969.236.236,0,0,0,.139.121c.258.057.6-.5.769-1.258s.093-1.406-.165-1.464c-.007,0-.014,0-.024,0,.029-.149.06-.3.082-.453.488-3.585-.887-6.234-4.347-5.739-3.664-.108-4.819,2.579-4.374,5.739.022.156.056.305.089.455a.212.212,0,0,0-.064,0c-.257.058-.33.713-.162,1.464s.509,1.315.766,1.258a.274.274,0,0,0,.168-.177,4.807,4.807,0,0,0,1.511,2.025h-.036v1.245h-.3c-.738,0-4.844.905-5.435,1.528a3.04,3.04,0,0,0-.512.82h-5.747a3.011,3.011,0,0,0-.35-.543c-.89-1.039-4.523-1.528-5.406-1.528h-.3V275.61h-.178a4.745,4.745,0,0,0,1.484-1.968.241.241,0,0,0,.139.121c.258.054.6-.506.769-1.261s.093-1.405-.165-1.464a.223.223,0,0,0-.024,0c.029-.149.059-.3.082-.454.486-3.584-.887-6.233-4.346-5.738-3.665-.109-4.822,2.579-4.376,5.738.023.157.058.305.091.458a.225.225,0,0,0-.066-.006c-.258.059-.33.714-.163,1.464s.51,1.315.768,1.261a.273.273,0,0,0,.168-.179,4.81,4.81,0,0,0,1.511,2.026h-.037v1.244h-.3c-.738,0-4.844.906-5.434,1.528a4.187,4.187,0,0,0-.81,1.576,4.932,4.932,0,0,1,3.856,3.783,64.012,64.012,0,0,1,.508,9.874h74.428l.251-5.395S212.694,280.381,210.985,278.383Z" transform="translate(-133.627 -262.342)" fill="#7e8b8c"/>
        </g>
        <path id="Path_48320" data-name="Path 48320" d="M166.493,274.271c.444.985-.359,2.309-1.793,2.956s-2.957.369-3.4-.616.359-2.309,1.792-2.954S166.047,273.286,166.493,274.271Z" transform="translate(-125.654 -252.153)" fill="#f3ccad"/>
        <g id="Group_180175" data-name="Group 180175" transform="translate(8.318 14.259)">
          <path id="Path_48321" data-name="Path 48321" d="M145,267.1h-5.947l-2.053.735-.321.158.078.226,2.533,7.123.544,5.339h4.2l.591-5.205,2.207-7.228.089-.293Z" transform="translate(-136.683 -267.099)" fill="#dbd5d5"/>
        </g>
        <path id="Path_48322" data-name="Path 48322" d="M147.186,267.881l-2.3,7.521-2.5,4.971-2.831-5.1-2.289-7.506c-3.9.77-2.868,13.306-2.868,13.306l.583,10.333H149.36l1.587-13.334,2.729,3.67a2.635,2.635,0,0,0,3.3,1.059l9.287-4.206-1.537-3.321-8.187,2.113-2.078-4.743C153.288,270.2,151.237,268.686,147.186,267.881Z" transform="translate(-128.632 -252.767)" fill="#0f3f52"/>
        <g id="Group_180176" data-name="Group 180176" transform="translate(10.541 12.016)">
          <path id="Path_48323" data-name="Path 48323" d="M143.61,265.08h-3.751a1.17,1.17,0,0,0-1.174,1.165v3a1.171,1.171,0,0,0,1.174,1.165h3.751a1.171,1.171,0,0,0,1.146-.921.191.191,0,0,0,.027-.01v-3.237A1.169,1.169,0,0,0,143.61,265.08Z" transform="translate(-138.685 -265.08)" fill="#d1ab86"/>
        </g>
        <g id="Group_180177" data-name="Group 180177" transform="translate(6.829 1.119)">
          <path id="Path_48324" data-name="Path 48324" d="M148.458,261.483c-.172-.048-.364.058-.55.273.006-.105.008-.21.008-.314a5.822,5.822,0,1,0-11.622,0c0,.1,0,.209.006.314-.187-.215-.377-.321-.548-.273-.41.11-.531,1.063-.273,2.121s.8,1.832,1.206,1.719c.144-.039.253-.185.321-.405.989,2.552,2.9,4.862,5.1,4.862s4.109-2.309,5.1-4.862c.069.22.177.367.32.405.41.112.947-.658,1.207-1.719S148.866,261.593,148.458,261.483Z" transform="translate(-135.343 -255.269)" fill="#ffe2c2"/>
        </g>
        <g id="Group_180178" data-name="Group 180178" transform="translate(9.282 14.752)">
          <path id="Path_48325" data-name="Path 48325" d="M138.811,267.543s-1.019,1.487,1.307,2.128.777,2.141.777,2.141l-1.819.349-1.071-1.928-.454-1.473Z" transform="translate(-137.551 -267.543)" fill="#fff8f8"/>
        </g>
        <g id="Group_180179" data-name="Group 180179" transform="translate(14.046 14.857)">
          <path id="Path_48326" data-name="Path 48326" d="M144.433,267.637s1.019,1.595-1.308,2.237-.777,2.143-.777,2.143l1.819.347,1.07-1.926.458-1.473Z" transform="translate(-141.841 -267.637)" fill="#fff8f8"/>
        </g>
        <g id="Group_180180" data-name="Group 180180" transform="translate(16.259 14.685)">
          <path id="Path_48327" data-name="Path 48327" d="M146.083,267.482l3.095,1.36-5.344,6.591Z" transform="translate(-143.833 -267.482)" fill="#14546e"/>
        </g>
        <g id="Group_180181" data-name="Group 180181" transform="translate(7.668)">
          <path id="Path_48328" data-name="Path 48328" d="M145.58,256.649c.772-3.859-10.762-3.655-9.364,5.219l.706,3.162s.247-3.5.424-4.683,1.013-3.71,7.231-2.655c2.256.816,1.969,2.228,2.209,4.72l.333,2.617.705-3.162S148.652,256.258,145.58,256.649Z" transform="translate(-136.098 -254.261)" fill="#0c0a0a"/>
        </g>
        <path id="Path_48329" data-name="Path 48329" d="M144.619,257.222c0,.535-1.3.969-2.9.969s-2.9-.433-2.9-.969,1.3-.969,2.9-.969S144.619,256.686,144.619,257.222Z" transform="translate(-128.129 -254.041)" fill="#0c0a0a"/>
        <path id="Path_48330" data-name="Path 48330" d="M136.752,269.12s-2.742-2.141-4.5,2.677c-.193.9-3.422,5.9-2.951,6.861.782,1.608,4.353,2.341,5.4,1.5C136.373,278.8,136.752,269.12,136.752,269.12Z" transform="translate(-129.188 -252.669)" fill="#11485e"/>
        <g id="Group_180182" data-name="Group 180182" transform="translate(5.463 14.55)">
          <path id="Path_48331" data-name="Path 48331" d="M137.329,267.361l-3.215,1.451,5.465,6.5Z" transform="translate(-134.113 -267.361)" fill="#14546e"/>
        </g>
        <g id="Group_180184" data-name="Group 180184" transform="translate(8.786 15.63)">
          <path id="Path_48332" data-name="Path 48332" d="M143.176,271.917c-.231,1.793-1.546,3.1-2.938,2.919s-2.335-1.775-2.1-3.568,1.546-3.1,2.938-2.919S143.407,270.126,143.176,271.917Z" transform="translate(-136.994 -268.333)" fill="#cf2d2d"/>
          <rect id="Rectangle_163538" data-name="Rectangle 163538" width="5.385" height="5.385" transform="translate(0 10.604) rotate(-82.663)" fill="#fff"/>
          <g id="Group_180183" data-name="Group 180183" transform="translate(2.067 6.807)">
            <path id="Path_48333" data-name="Path 48333" d="M139.786,277.239a1.236,1.236,0,0,1-.363-.1.91.91,0,0,1-.269-.191.7.7,0,0,1-.156-.267.755.755,0,0,1-.024-.33.681.681,0,0,1,.19-.412.76.76,0,0,1,.421-.191.621.621,0,0,1-.352-.669.664.664,0,0,1,.1-.273.677.677,0,0,1,.194-.2.743.743,0,0,1,.278-.118,1.042,1.042,0,0,1,.67.084.788.788,0,0,1,.239.184.674.674,0,0,1,.138.248.682.682,0,0,1,.022.289.648.648,0,0,1-.158.362.673.673,0,0,1-.352.2.737.737,0,0,1,.358.292.66.66,0,0,1,.081.448.727.727,0,0,1-.109.31.673.673,0,0,1-.218.219.852.852,0,0,1-.307.118A1.263,1.263,0,0,1,139.786,277.239Zm.036-.27a.758.758,0,0,0,.242-.006.515.515,0,0,0,.19-.081.444.444,0,0,0,.132-.148.542.542,0,0,0,.066-.2.568.568,0,0,0-.017-.245.426.426,0,0,0-.1-.175.514.514,0,0,0-.169-.116.815.815,0,0,0-.21-.058.783.783,0,0,0-.217,0,.535.535,0,0,0-.193.069.434.434,0,0,0-.146.146.6.6,0,0,0-.076.232.558.558,0,0,0,.011.212.462.462,0,0,0,.091.177.537.537,0,0,0,.163.126A.682.682,0,0,0,139.821,276.969Zm.168-1.3a.594.594,0,0,0,.23-.011.461.461,0,0,0,.167-.089.412.412,0,0,0,.1-.143.658.658,0,0,0,.05-.175.505.505,0,0,0-.009-.183.41.41,0,0,0-.073-.155.438.438,0,0,0-.141-.119.609.609,0,0,0-.208-.063.628.628,0,0,0-.217.009.433.433,0,0,0-.165.08.369.369,0,0,0-.111.132.48.48,0,0,0-.054.173.589.589,0,0,0,0,.182.45.45,0,0,0,.066.165.44.44,0,0,0,.139.128A.581.581,0,0,0,139.989,275.67Z" transform="translate(-138.966 -274.462)" fill="#cf2d2d"/>
          </g>
          <path id="Path_48334" data-name="Path 48334" d="M138.772,277.994l-.875,5.25,1.854.237.876-5.248Z" transform="translate(-137.017 -267.264)" fill="#8c8c8c"/>
        </g>
        <path id="Path_48335" data-name="Path 48335" d="M139.284,281.965a1.9,1.9,0,1,1,2.3-1.874A2.123,2.123,0,0,1,139.284,281.965Z" transform="translate(-128.336 -251.604)" fill="#f3ccad"/>
        <path id="Path_48336" data-name="Path 48336" d="M129.567,277.3a3.529,3.529,0,0,0,1.658.479l7.684.876.177,3.244a65.167,65.167,0,0,1-7.176.769c-1,0-3.29-2.908-2.581-5.522Z" transform="translate(-129.194 -251.728)" fill="#17607d"/>
        <path id="Path_48337" data-name="Path 48337" d="M142.233,289.045h-7.318V316.1h6.207l1.009-19.237L143.14,316.1h6.207V289.045Z" transform="translate(-128.561 -250.411)" fill="#0a2b38"/>
      </g>
    </g>
  </g>
</svg>
