<svg xmlns="http://www.w3.org/2000/svg" width="172.119" height="172.119" viewBox="0 0 172.119 172.119">
  <g id="Group_180530" data-name="Group 180530" transform="translate(-189.94 -2756)">
    <g id="Group_179019" data-name="Group 179019" transform="translate(-751.9 1165.061)">
      <rect id="Rectangle_163442" data-name="Rectangle 163442" width="126" height="126" rx="44" transform="translate(1004.841 1590.939) rotate(30)" fill="#dab4e5" opacity="0.2"/>
      <rect id="Rectangle_163441" data-name="Rectangle 163441" width="126" height="126" rx="44" transform="matrix(0.966, 0.259, -0.259, 0.966, 974.452, 1599.841)" fill="#dab4e5"/>
    </g>
    <g id="Group_180200" data-name="Group 180200" transform="translate(100.542 2663.814)">
      <g id="Group_180198" data-name="Group 180198" transform="translate(151.14 140.634)">
        <g id="Group_180187" data-name="Group 180187" transform="translate(9.845 20.321)">
          <path id="Path_48338" data-name="Path 48338" d="M155.672,157.438l10.13-.148,1.152.3.4.2-.1.281-3.15,8.856-.919,2.923H157.97l-.492-2.757-2.744-8.987-.113-.365Z" transform="translate(-154.621 -157.289)" fill="#dbd5d5"/>
        </g>
        <path id="Path_48339" data-name="Path 48339" d="M155.34,157.686l2.857,9.352,3.108,6.181,3.52-6.347,2.848-9.336c4.845.958,9.487,3.616,9.487,7.107l.988,13.078H173.29l-1.31-3.638.19,3.638H160.949l-9.4-.013v-8.952S150.05,160.464,155.34,157.686Z" transform="translate(-145.495 -136.914)" fill="#0f3f52"/>
        <g id="Group_180188" data-name="Group 180188" transform="translate(11.202 16.919)">
          <path id="Path_48340" data-name="Path 48340" d="M157.586,154.5h5.928a1.691,1.691,0,0,1,1.856,1.448v3.733a1.692,1.692,0,0,1-1.856,1.449h-5.928a1.808,1.808,0,0,1-1.812-1.144.281.281,0,0,1-.041-.015v-4.024A1.688,1.688,0,0,1,157.586,154.5Z" transform="translate(-155.733 -154.501)" fill="#d1ab86"/>
        </g>
        <g id="Group_180189" data-name="Group 180189" transform="translate(6.758 1.533)">
          <path id="Path_48341" data-name="Path 48341" d="M152.649,150.4c.234-.063.5.081.753.377-.007-.144-.012-.289-.012-.432a7.977,7.977,0,1,1,15.926,0c0,.143,0,.288-.011.432.257-.3.519-.44.752-.377.56.151.727,1.457.375,2.909s-1.093,2.508-1.653,2.356a.748.748,0,0,1-.439-.556c-1.354,3.5-3.973,6.66-6.985,6.66s-5.631-3.165-6.985-6.66a.749.749,0,0,1-.44.556c-.559.152-1.3-.9-1.652-2.356S152.091,150.554,152.649,150.4Z" transform="translate(-152.09 -141.89)" fill="#ffe2c2"/>
        </g>
        <g id="Group_180190" data-name="Group 180190" transform="translate(16.588 20.704)">
          <path id="Path_48342" data-name="Path 48342" d="M164.8,157.6s-.163,1.467-3.059,2.264-.965,2.663-.965,2.663l2.262.432,1.33-2.4.566-1.83Z" transform="translate(-160.148 -157.603)" fill="#fff8f8"/>
        </g>
        <g id="Group_180191" data-name="Group 180191" transform="translate(10.662 20.97)">
          <path id="Path_48343" data-name="Path 48343" d="M155.424,157.821s.167,1.465,3.062,2.263.966,2.663.966,2.663l-2.266.432-1.327-2.4-.57-1.83Z" transform="translate(-155.29 -157.821)" fill="#fff8f8"/>
        </g>
        <g id="Group_180192" data-name="Group 180192" transform="translate(19.33 20.321)">
          <path id="Path_48344" data-name="Path 48344" d="M164.827,157.289l3.52,1.252-5.951,8.384Z" transform="translate(-162.395 -157.289)" fill="#14546e"/>
        </g>
        <g id="Group_180193" data-name="Group 180193" transform="translate(13.801 26.686)">
          <path id="Path_48345" data-name="Path 48345" d="M160.422,162.507l1.513,5.9-2.062,3.715-2.01-3.991,1.662-5.627Z" transform="translate(-157.863 -162.507)" fill="#1f8dc2"/>
        </g>
        <g id="Group_180194" data-name="Group 180194" transform="translate(14.304 23.963)">
          <path id="Path_48346" data-name="Path 48346" d="M161.058,160.275l-2.348.035-.435,1.731.485,1.765h2.213l.533-1.649Z" transform="translate(-158.275 -160.275)" fill="#1f8dc2"/>
        </g>
        <g id="Group_180195" data-name="Group 180195" transform="translate(7.93)">
          <path id="Path_48347" data-name="Path 48347" d="M156.263,143.905c-1.059-5.287,14.746-5.008,12.829,7.151l-.966,4.331s-.338-4.79-.582-6.414-1.387-5.083-9.9-3.638c-3.093,1.119-2.7,3.051-3.027,6.466l-.456,3.586-.966-4.331S152.055,143.368,156.263,143.905Z" transform="translate(-153.051 -140.634)" fill="#0c0a0a"/>
        </g>
        <path id="Path_48348" data-name="Path 48348" d="M156.426,144.445c0,.732,1.778,1.327,3.974,1.327s3.97-.6,3.97-1.327-1.779-1.327-3.97-1.327S156.426,143.712,156.426,144.445Z" transform="translate(-144.378 -140.087)" fill="#0c0a0a"/>
        <path id="Path_48349" data-name="Path 48349" d="M154.847,159.68s-3.012-2.351-4.94,2.94c-.214.989-3.759,6.476-3.242,7.536.859,1.768,4.781,2.573,5.928,1.646C154.431,170.318,154.847,159.68,154.847,159.68Z" transform="translate(-146.538 -136.557)" fill="#11485e"/>
        <g id="Group_180196" data-name="Group 180196" transform="translate(6.056 20.772)">
          <path id="Path_48350" data-name="Path 48350" d="M155.3,157.659l-3.789,1.987,6.646,7.365Z" transform="translate(-151.515 -157.659)" fill="#14546e"/>
        </g>
        <path id="Path_48351" data-name="Path 48351" d="M159.455,162.272c-.814-.676-2.274-.265-3.256.92s-1.124,2.691-.31,3.369,2.272.267,3.258-.917S160.267,162.95,159.455,162.272Z" transform="translate(-144.613 -135.943)" fill="#f3ccad"/>
        <path id="Path_48352" data-name="Path 48352" d="M146.96,168.739c.145.093.828-.176,1.525-.6L157.3,163.5l2.741,2.794s-7.954,7.583-10.512,7.58c-1.1,0-3.611-2.436-2.833-5.309Z" transform="translate(-146.551 -135.601)" fill="#17607d"/>
        <g id="Group_180197" data-name="Group 180197" transform="translate(7.541 17.529)">
          <path id="Path_48353" data-name="Path 48353" d="M169.324,162.353c0,4.059-3.713,7.351-8.3,7.351s-8.3-3.292-8.3-7.351,3.713-7.352,8.3-7.352S169.324,158.293,169.324,162.353Z" transform="translate(-152.732 -155.001)" fill="#cf2d2d"/>
          <path id="Path_48354" data-name="Path 48354" d="M167.094,162.051c0,3.134-2.87,5.676-6.407,5.676s-6.408-2.541-6.408-5.676,2.87-5.676,6.408-5.676S167.094,158.916,167.094,162.051Z" transform="translate(-152.391 -154.699)" fill="#fff"/>
          <path id="Path_48355" data-name="Path 48355" d="M166.25,161.937c0,2.785-2.549,5.043-5.692,5.043s-5.693-2.257-5.693-5.043,2.549-5.044,5.693-5.044S166.25,159.15,166.25,161.937Z" transform="translate(-152.262 -154.585)" fill="#d6d6d6"/>
          <path id="Path_48356" data-name="Path 48356" d="M162.27,161.4a2.337,2.337,0,1,1-2.319-2.055A2.2,2.2,0,0,1,162.27,161.4Z" transform="translate(-151.654 -154.045)" fill="#969696"/>
        </g>
      </g>
      <g id="Group_180199" data-name="Group 180199" transform="translate(125.701 183.67)">
        <path id="Path_48357" data-name="Path 48357" d="M151.252,186.011c-.662-.772-3.364-1.136-4.019-1.136h-.223v-.925h-.131a3.555,3.555,0,0,0,1.1-1.463.183.183,0,0,0,.1.09c.192.041.445-.376.57-.936s.071-1.046-.121-1.088c-.007,0-.013,0-.018,0,.022-.112.045-.223.06-.337.362-2.666-.659-4.635-3.231-4.267-2.721-.079-3.581,1.918-3.25,4.267.016.115.041.226.065.338a.15.15,0,0,0-.046,0c-.192.043-.246.529-.123,1.088s.381.977.572.936a.212.212,0,0,0,.124-.132,3.564,3.564,0,0,0,1.121,1.5h-.026v.925h-.224c-.547,0-3.6.673-4.038,1.136-1.342,1.421-1.253,7.313-1.253,7.313l.188,4.008h1.807l.543-1.595.107,1.595H150l-.022-1.865.565,1.865h1.774l.184-4.008S152.52,187.5,151.252,186.011Z" transform="translate(-122.936 -175.908)" fill="#656f70"/>
        <path id="Path_48358" data-name="Path 48358" d="M182.319,186.011c-.662-.772-3.364-1.136-4.02-1.136h-.221v-.925h-.133a3.55,3.55,0,0,0,1.1-1.463.176.176,0,0,0,.1.09c.19.041.445-.376.569-.936s.07-1.046-.12-1.088c-.007,0-.015,0-.02,0,.022-.112.045-.223.06-.337.362-2.666-.658-4.635-3.231-4.267-2.722-.079-3.582,1.918-3.25,4.267.016.115.043.226.065.338a.148.148,0,0,0-.046,0c-.19.043-.245.529-.123,1.088s.381.977.571.936a.218.218,0,0,0,.127-.132,3.552,3.552,0,0,0,1.12,1.5h-.026v.925h-.223c-.548,0-3.6.673-4.041,1.136-1.341,1.421-1.251,7.313-1.251,7.313l.187,4.008h1.807l.544-1.595.107,1.595h9.091l-.023-1.865.565,1.865h1.773l.185-4.008S183.588,187.5,182.319,186.011Z" transform="translate(-116.099 -175.908)" fill="#656f70"/>
        <path id="Path_48359" data-name="Path 48359" d="M166.561,191.006c-.661-.774-3.36-1.136-4.018-1.136h-.222v-.926h-.132a3.525,3.525,0,0,0,1.1-1.462.171.171,0,0,0,.1.089c.192.041.445-.376.57-.936s.071-1.044-.121-1.087c-.006,0-.012,0-.021,0,.024-.112.045-.223.062-.338.362-2.665-.659-4.634-3.23-4.265-2.724-.081-3.583,1.917-3.253,4.265.016.115.043.226.067.339a.158.158,0,0,0-.048,0c-.192.043-.245.53-.121,1.087s.377.977.569.936a.207.207,0,0,0,.126-.132,3.557,3.557,0,0,0,1.122,1.5h-.028v.926h-.222c-.549,0-3.6.673-4.04,1.136-1.341,1.42-1.253,7.312-1.253,7.312l.188,4.009h1.807l.544-1.595.106,1.595h9.091l-.021-1.865.564,1.865h1.773l.185-4.009S167.832,192.49,166.561,191.006Z" transform="translate(-119.566 -174.808)" fill="#656f70"/>
        <path id="Path_48360" data-name="Path 48360" d="M206.224,192.014c-.916-1.069-4.657-1.573-5.565-1.573h-.307V189.16h-.183a4.891,4.891,0,0,0,1.528-2.025.244.244,0,0,0,.143.124c.265.057.619-.521.791-1.3s.1-1.447-.17-1.507c-.009,0-.016,0-.027,0,.032-.155.062-.309.087-.467.5-3.691-.914-6.416-4.475-5.906-3.771-.111-4.961,2.655-4.5,5.906.024.16.059.314.093.47a.2.2,0,0,0-.066,0c-.265.06-.339.733-.168,1.507s.525,1.353.791,1.3a.283.283,0,0,0,.172-.183,4.937,4.937,0,0,0,1.554,2.084h-.037v1.281h-.311c-.759,0-4.985.932-5.593,1.573a2.86,2.86,0,0,0-.386.559h-5.912a3.518,3.518,0,0,0-.494-.844c-.915-1.069-4.656-1.573-5.564-1.573h-.307v-1.281h-.184a4.883,4.883,0,0,0,1.529-2.025.231.231,0,0,0,.143.123c.264.059.617-.52.789-1.294s.1-1.447-.17-1.507c-.007,0-.016,0-.024,0,.03-.155.061-.309.084-.467.5-3.689-.913-6.416-4.474-5.906-3.771-.111-4.961,2.656-4.5,5.906.023.16.057.314.092.47a.2.2,0,0,0-.066,0c-.265.06-.339.734-.168,1.507s.525,1.353.789,1.294a.28.28,0,0,0,.173-.182,4.937,4.937,0,0,0,1.554,2.084h-.037v1.281h-.31c-.759,0-4.986.932-5.593,1.573-.039.04-.071.1-.107.145-.034-.045-.065-.1-.1-.145-.916-1.069-4.657-1.573-5.565-1.573h-.307v-1.281h-.183a4.891,4.891,0,0,0,1.528-2.025.238.238,0,0,0,.143.123c.265.059.619-.52.789-1.294s.1-1.447-.168-1.507c-.009,0-.016,0-.027,0,.032-.155.062-.309.087-.467.5-3.689-.914-6.416-4.475-5.906-3.771-.111-4.961,2.656-4.5,5.906.024.16.059.314.091.47a.194.194,0,0,0-.065,0c-.265.06-.34.734-.168,1.507s.525,1.353.789,1.294a.28.28,0,0,0,.173-.182,4.955,4.955,0,0,0,1.553,2.084h-.035v1.281h-.311c-.759,0-4.986.932-5.593,1.573a3.19,3.19,0,0,0-.528.844h-5.915a3.021,3.021,0,0,0-.359-.559c-.916-1.069-4.656-1.573-5.564-1.573h-.307V189.16h-.184a4.891,4.891,0,0,0,1.528-2.025.244.244,0,0,0,.143.124c.265.057.619-.521.791-1.3s.1-1.447-.17-1.507c-.009,0-.016,0-.026,0,.03-.155.061-.309.085-.467.5-3.691-.914-6.416-4.474-5.906-3.772-.111-4.962,2.655-4.5,5.906.023.16.059.314.093.47a.209.209,0,0,0-.067,0c-.265.06-.339.733-.168,1.507s.526,1.353.791,1.3a.28.28,0,0,0,.172-.183,4.947,4.947,0,0,0,1.554,2.084h-.037v1.281h-.31c-.759,0-4.986.932-5.593,1.573-1.857,1.967-1.735,10.127-1.735,10.127l.257,5.551H207.7l.257-5.551S207.982,194.071,206.224,192.014Z" transform="translate(-125.701 -175.505)" fill="#7e8b8c"/>
      </g>
    </g>
  </g>
</svg>
