<svg xmlns="http://www.w3.org/2000/svg" width="172.119" height="172.119" viewBox="0 0 172.119 172.119">
  <g id="Group_180519" data-name="Group 180519" transform="translate(-1064 -1659)">
    <g id="Group_179008" data-name="Group 179008" transform="translate(122.159 68.061)">
      <rect id="Rectangle_163442" data-name="Rectangle 163442" width="126" height="126" rx="44" transform="translate(1004.841 1590.939) rotate(30)" fill="#b7f8ff" opacity="0.2"/>
      <rect id="Rectangle_163441" data-name="Rectangle 163441" width="126" height="126" rx="44" transform="matrix(0.966, 0.259, -0.259, 0.966, 974.452, 1599.841)" fill="#b7f8ff"/>
    </g>
    <g id="Group_179093" data-name="Group 179093" transform="translate(5091.75 -12560.692)">
      <g id="Group_179022" data-name="Group 179022" transform="translate(-4345.56 14252.81)">
        <circle id="Ellipse_906" data-name="Ellipse 906" cx="35.938" cy="35.938" r="35.938" transform="translate(357.893 15.25)" fill="#636362"/>
      </g>
      <g id="Group_179027" data-name="Group 179027" transform="translate(-4345.56 14252.81)">
        <g id="Group_179024" data-name="Group 179024">
          <g id="Group_179023" data-name="Group 179023">
            <path id="Path_45279" data-name="Path 45279" d="M426.51,70.244a4.651,4.651,0,1,0,0,6.576A4.63,4.63,0,0,0,426.51,70.244Z" fill="#636362"/>
          </g>
        </g>
        <g id="Group_179026" data-name="Group 179026">
          <g id="Group_179025" data-name="Group 179025">
            <path id="Path_45280" data-name="Path 45280" d="M424.549,73.424a3.123,3.123,0,0,0-.923-.466l-.26-.087c-.052-.017-.1-.037-.143-.056a1.408,1.408,0,0,1-.451-.26.588.588,0,0,1-.168-.436.636.636,0,0,1,.166-.454.567.567,0,0,1,.433-.177l.02,0a.663.663,0,0,1,.451.169.681.681,0,0,1,.21.46h1.155a1.911,1.911,0,0,0-.261-.888,1.635,1.635,0,0,0-.634-.612,1.712,1.712,0,0,0-.413-.161V69.424h-.959v1.041h0a1.8,1.8,0,0,0-.4.164,1.717,1.717,0,0,0-.647.624,1.621,1.621,0,0,0-.239.857,1.694,1.694,0,0,0,.785,1.424,2.845,2.845,0,0,0,.5.235c.031.008.112.034.243.077.075.026.144.049.211.074a1.994,1.994,0,0,1,.566.306.787.787,0,0,1,.275.63.743.743,0,0,1-.225.558.792.792,0,0,1-.574.219l-.042,0a.82.82,0,0,1-.546-.2.809.809,0,0,1-.245-.562h-1.174a1.858,1.858,0,0,0,.138.672,1.716,1.716,0,0,0,.388.588,1.893,1.893,0,0,0,.988.547v1.012h.959V76.658a1.92,1.92,0,0,0,1.455-1.88A1.669,1.669,0,0,0,424.549,73.424Z" fill="#3c3c3b"/>
          </g>
        </g>
      </g>
      <g id="Group_179032" data-name="Group 179032" transform="translate(-4345.56 14252.81)">
        <g id="Group_179029" data-name="Group 179029">
          <g id="Group_179028" data-name="Group 179028">
            <path id="Path_45281" data-name="Path 45281" d="M362.059,38.708a4.65,4.65,0,1,0,0,6.577A4.635,4.635,0,0,0,362.059,38.708Z" fill="#636362"/>
          </g>
        </g>
        <g id="Group_179031" data-name="Group 179031">
          <g id="Group_179030" data-name="Group 179030">
            <path id="Path_45282" data-name="Path 45282" d="M360.1,41.889a3.146,3.146,0,0,0-.923-.467l-.26-.087c-.052-.017-.1-.036-.144-.055a1.4,1.4,0,0,1-.45-.26.589.589,0,0,1-.168-.437.642.642,0,0,1,.165-.454.571.571,0,0,1,.433-.176l.02,0a.66.66,0,0,1,.451.168.679.679,0,0,1,.211.46h1.155a1.915,1.915,0,0,0-.261-.887,1.631,1.631,0,0,0-.635-.612,1.723,1.723,0,0,0-.412-.162V37.889h-.959v1.04h0a1.769,1.769,0,0,0-.4.165,1.719,1.719,0,0,0-.648.624,1.668,1.668,0,0,0-.025,1.671,1.653,1.653,0,0,0,.572.61,2.826,2.826,0,0,0,.5.235c.031.008.112.034.242.077.076.025.145.049.211.074a2.017,2.017,0,0,1,.567.305.793.793,0,0,1,.275.631.746.746,0,0,1-.225.557.791.791,0,0,1-.575.22c-.015,0-.028,0-.042,0a.764.764,0,0,1-.791-.764h-1.173a1.831,1.831,0,0,0,.138.671,1.7,1.7,0,0,0,.388.588,1.9,1.9,0,0,0,.988.548v1.011h.959V45.123a1.92,1.92,0,0,0,1.455-1.88A1.67,1.67,0,0,0,360.1,41.889Z" fill="#3c3c3b"/>
          </g>
        </g>
      </g>
      <g id="Group_179037" data-name="Group 179037" transform="translate(-4345.56 14252.81)">
        <g id="Group_179034" data-name="Group 179034">
          <g id="Group_179033" data-name="Group 179033">
            <path id="Path_45283" data-name="Path 45283" d="M428.943,62.916a2.287,2.287,0,1,0,0,3.234A2.273,2.273,0,0,0,428.943,62.916Z" fill="#636362"/>
          </g>
        </g>
        <g id="Group_179036" data-name="Group 179036">
          <g id="Group_179035" data-name="Group 179035">
            <path id="Path_45284" data-name="Path 45284" d="M427.979,64.48a1.5,1.5,0,0,0-.454-.229l-.128-.043-.07-.028a.689.689,0,0,1-.222-.128.292.292,0,0,1-.082-.215.32.32,0,0,1,.081-.223.282.282,0,0,1,.213-.087h.01a.317.317,0,0,1,.325.309h.568a.929.929,0,0,0-.128-.436.8.8,0,0,0-.312-.3.864.864,0,0,0-.2-.079v-.509h-.472v.512h0a.869.869,0,0,0-.2.081.83.83,0,0,0-.318.307.83.83,0,0,0,.268,1.122,1.387,1.387,0,0,0,.247.115c.015,0,.055.017.119.039.037.012.071.023.1.036a.964.964,0,0,1,.278.15.387.387,0,0,1,.136.31.367.367,0,0,1-.111.274.388.388,0,0,1-.282.108h-.021a.379.379,0,0,1-.39-.376h-.577a.929.929,0,0,0,.069.33.824.824,0,0,0,.191.289.931.931,0,0,0,.485.27v.5h.472v-.5a.951.951,0,0,0,.237-.1.941.941,0,0,0,.479-.829A.82.82,0,0,0,427.979,64.48Z" fill="#3c3c3b"/>
          </g>
        </g>
      </g>
      <g id="Group_179042" data-name="Group 179042" transform="translate(-4345.56 14252.81)">
        <g id="Group_179039" data-name="Group 179039">
          <g id="Group_179038" data-name="Group 179038">
            <path id="Path_45285" data-name="Path 45285" d="M365.037,69.133a2.287,2.287,0,1,0,0,3.234A2.273,2.273,0,0,0,365.037,69.133Z" fill="#636362"/>
          </g>
        </g>
        <g id="Group_179041" data-name="Group 179041">
          <g id="Group_179040" data-name="Group 179040">
            <path id="Path_45286" data-name="Path 45286" d="M364.073,70.7a1.547,1.547,0,0,0-.454-.229l-.128-.043c-.025-.008-.048-.018-.07-.027a.716.716,0,0,1-.222-.128.291.291,0,0,1-.082-.215.312.312,0,0,1,.081-.223.28.28,0,0,1,.213-.087h.01a.327.327,0,0,1,.222.083.335.335,0,0,1,.1.226h.568a.929.929,0,0,0-.128-.436.808.808,0,0,0-.312-.3.863.863,0,0,0-.2-.079V68.73H363.2v.512h0a.833.833,0,0,0-.2.081.842.842,0,0,0-.318.306.8.8,0,0,0-.118.422.84.84,0,0,0,.386.7,1.453,1.453,0,0,0,.247.116c.015,0,.055.016.119.038l.1.036a.95.95,0,0,1,.278.15.389.389,0,0,1,.136.31.367.367,0,0,1-.11.274.389.389,0,0,1-.284.109l-.02,0a.375.375,0,0,1-.389-.376h-.577a.909.909,0,0,0,.068.33.81.81,0,0,0,.191.289.931.931,0,0,0,.485.27v.5h.472v-.5a.954.954,0,0,0,.237-.1.938.938,0,0,0,.479-.828A.821.821,0,0,0,364.073,70.7Z" fill="#3c3c3b"/>
          </g>
        </g>
      </g>
      <g id="Group_179047" data-name="Group 179047" transform="translate(-4345.56 14252.81)">
        <g id="Group_179044" data-name="Group 179044">
          <g id="Group_179043" data-name="Group 179043">
            <path id="Path_45287" data-name="Path 45287" d="M430.239,56.342a1.345,1.345,0,1,0,0,1.9A1.339,1.339,0,0,0,430.239,56.342Z" fill="#636362"/>
          </g>
        </g>
        <g id="Group_179046" data-name="Group 179046">
          <g id="Group_179045" data-name="Group 179045">
            <path id="Path_45288" data-name="Path 45288" d="M429.672,57.262a.922.922,0,0,0-.268-.135l-.075-.025-.041-.016a.434.434,0,0,1-.131-.075.173.173,0,0,1-.048-.127.184.184,0,0,1,.048-.131.163.163,0,0,1,.125-.051h.006a.193.193,0,0,1,.13.049.2.2,0,0,1,.061.133h.334a.546.546,0,0,0-.075-.257.462.462,0,0,0-.183-.176.516.516,0,0,0-.12-.047v-.3h-.278v.3h0a.459.459,0,0,0-.117.048.5.5,0,0,0-.188.18.485.485,0,0,0-.007.483.468.468,0,0,0,.166.176.828.828,0,0,0,.145.069l.07.022.061.021a.57.57,0,0,1,.164.089.228.228,0,0,1,.079.182.215.215,0,0,1-.064.161.229.229,0,0,1-.167.064h-.012a.234.234,0,0,1-.158-.059.237.237,0,0,1-.071-.162h-.339a.53.53,0,0,0,.04.194.466.466,0,0,0,.112.17.547.547,0,0,0,.285.159v.292h.278v-.3a.533.533,0,0,0,.139-.056.555.555,0,0,0,.282-.487A.481.481,0,0,0,429.672,57.262Z" fill="#3c3c3b"/>
          </g>
        </g>
      </g>
      <g id="Group_179049" data-name="Group 179049" transform="translate(-4345.56 14252.81)">
        <g id="Group_179048" data-name="Group 179048">
          <path id="Path_45289" data-name="Path 45289" d="M437.81,38.638a4.04,4.04,0,0,0-6.221-3.406,6.863,6.863,0,0,0-4.258-1.479,6.99,6.99,0,0,0-.944.072c0-.024,0-.048,0-.072a4.044,4.044,0,0,0-7.629-1.871,8.424,8.424,0,1,0-5.023,15.184c3.02,0,10.644.477,13.592.477a6.9,6.9,0,0,0,6.591-4.868A4.041,4.041,0,0,0,437.81,38.638Z" fill="#66d1ff"/>
        </g>
      </g>
      <g id="Group_179051" data-name="Group 179051" transform="translate(-4345.56 14252.81)">
        <g id="Group_179050" data-name="Group 179050">
          <path id="Path_45290" data-name="Path 45290" d="M376.224,52.8a3.3,3.3,0,0,0-2.634,1.31,5.505,5.505,0,0,0-3.779-.819,4.634,4.634,0,0,0-7.432-4.865,6.9,6.9,0,1,0-6.2,10.43l0,.026A5.648,5.648,0,0,0,366.2,62.458a5.647,5.647,0,0,0,10-3.03h.028a3.314,3.314,0,0,0,0-6.628Z" fill="#66d1ff"/>
        </g>
      </g>
      <g id="Group_179056" data-name="Group 179056" transform="translate(-4345.56 14252.81)">
        <g id="Group_179052" data-name="Group 179052">
          <path id="Path_45291" data-name="Path 45291" d="M393.738,23.093v21.97h30.678l1.944-1.946Z" fill="#aaaaab"/>
        </g>
        <g id="Group_179053" data-name="Group 179053">
          <path id="Path_45292" data-name="Path 45292" d="M393.738,45.063V23.093l-.045-.028L361.028,43.116l1.944,1.946h30.766Z" fill="#fff"/>
        </g>
        <g id="Group_179054" data-name="Group 179054">
          <path id="Path_45293" data-name="Path 45293" d="M393.738,52.972h27.643V45.063H393.738Z" fill="#ff6800"/>
        </g>
        <g id="Group_179055" data-name="Group 179055">
          <path id="Path_45294" data-name="Path 45294" d="M393.693,45.063H366.279v7.909h27.459V45.063Z" fill="#ffa466"/>
        </g>
      </g>
      <g id="Group_179057" data-name="Group 179057" transform="translate(-4345.56 14252.81)">
        <rect id="Rectangle_163444" data-name="Rectangle 163444" width="46.331" height="28.997" transform="translate(370.627 52.972)" fill="#636362"/>
      </g>
      <g id="Group_179085" data-name="Group 179085" transform="translate(-4345.56 14252.81)">
        <g id="Group_179082" data-name="Group 179082">
          <g id="Group_179061" data-name="Group 179061">
            <g id="Group_179059" data-name="Group 179059">
              <path id="Path_45299" data-name="Path 45299" d="M415.459,42.105h3.5L393.693,26.08,368.631,42.105h3.47L393.693,28.3Z" fill="#3c3c3b"/>
            </g>
            <g id="Group_179060" data-name="Group 179060">
              <path id="Path_45300" data-name="Path 45300" d="M393.734,42.105h21.725L393.693,28.3,372.1,42.105h21.634Z" fill="#636362"/>
            </g>
          </g>
          <g id="Group_179063" data-name="Group 179063">
            <g id="Group_179062" data-name="Group 179062">
              <rect id="Rectangle_163445" data-name="Rectangle 163445" width="2.896" height="28.997" transform="translate(367.731 52.972)" fill="#fff"/>
            </g>
          </g>
          <g id="Group_179065" data-name="Group 179065">
            <g id="Group_179064" data-name="Group 179064">
              <rect id="Rectangle_163446" data-name="Rectangle 163446" width="2.896" height="28.997" transform="translate(414.063 52.972)" fill="#fff"/>
            </g>
          </g>
          <g id="Group_179067" data-name="Group 179067">
            <g id="Group_179066" data-name="Group 179066">
              <rect id="Rectangle_163447" data-name="Rectangle 163447" width="2.895" height="28.997" transform="translate(379.306 52.972)" fill="#fff"/>
            </g>
          </g>
          <g id="Group_179069" data-name="Group 179069">
            <g id="Group_179068" data-name="Group 179068">
              <rect id="Rectangle_163448" data-name="Rectangle 163448" width="2.895" height="28.997" transform="translate(390.843 52.972)" fill="#fff"/>
            </g>
          </g>
          <g id="Group_179071" data-name="Group 179071">
            <g id="Group_179070" data-name="Group 179070">
              <rect id="Rectangle_163449" data-name="Rectangle 163449" width="2.896" height="28.997" transform="translate(402.416 52.972)" fill="#fff"/>
            </g>
          </g>
          <g id="Group_179073" data-name="Group 179073">
            <g id="Group_179072" data-name="Group 179072">
              <path id="Path_45301" data-name="Path 45301" d="M416.958,57.319h0V77.627c-.065,0-.131,0-.2,0a4.348,4.348,0,0,0-4.348,4.346h8.7a4.322,4.322,0,0,0-1.256-3.053v-22.7a4.336,4.336,0,0,0,1.454-3.242h-8.7A4.347,4.347,0,0,0,416.958,57.319Z" fill="#e2e3e4"/>
            </g>
          </g>
          <g id="Group_179075" data-name="Group 179075">
            <g id="Group_179074" data-name="Group 179074">
              <path id="Path_45302" data-name="Path 45302" d="M405.312,57.319h0V77.627c-.065,0-.13,0-.2,0a4.346,4.346,0,0,0-4.347,4.346h8.694a4.329,4.329,0,0,0-1.255-3.053v-22.7a4.343,4.343,0,0,0,1.45-3.242h-8.695A4.347,4.347,0,0,0,405.312,57.319Z" fill="#e2e3e4"/>
            </g>
          </g>
          <g id="Group_179077" data-name="Group 179077">
            <g id="Group_179076" data-name="Group 179076">
              <path id="Path_45303" data-name="Path 45303" d="M393.738,57.319h0V77.627c-.066,0-.13,0-.2,0a4.347,4.347,0,0,0-4.348,4.346h8.694a4.322,4.322,0,0,0-1.256-3.053v-22.7a4.334,4.334,0,0,0,1.452-3.242h-8.694A4.347,4.347,0,0,0,393.738,57.319Z" fill="#e2e3e4"/>
            </g>
          </g>
          <g id="Group_179079" data-name="Group 179079">
            <g id="Group_179078" data-name="Group 179078">
              <path id="Path_45304" data-name="Path 45304" d="M382.2,57.319h0V77.627c-.064,0-.13,0-.2,0a4.348,4.348,0,0,0-4.348,4.346h8.7a4.326,4.326,0,0,0-1.256-3.053v-22.7a4.334,4.334,0,0,0,1.452-3.242h-8.7A4.348,4.348,0,0,0,382.2,57.319Z" fill="#e2e3e4"/>
            </g>
          </g>
          <g id="Group_179081" data-name="Group 179081">
            <g id="Group_179080" data-name="Group 179080">
              <path id="Path_45305" data-name="Path 45305" d="M370.627,57.319h0V77.627c-.066,0-.131,0-.2,0a4.347,4.347,0,0,0-4.349,4.346h8.7a4.323,4.323,0,0,0-1.257-3.053v-22.7a4.339,4.339,0,0,0,1.454-3.242h-8.7A4.348,4.348,0,0,0,370.627,57.319Z" fill="#e2e3e4"/>
            </g>
          </g>
        </g>
      </g>
      <g id="Group_179092" data-name="Group 179092" transform="translate(-4345.56 14252.81)">
        <g id="Group_179086" data-name="Group 179086">
          <path id="Path_45307" data-name="Path 45307" d="M393.738,84.859H361.66v2.887h32.078Z" fill="#ff6800"/>
        </g>
        <g id="Group_179087" data-name="Group 179087">
          <path id="Path_45308" data-name="Path 45308" d="M393.738,87.747h31.884V84.859H393.738Z" fill="#863f0d"/>
        </g>
        <g id="Group_179088" data-name="Group 179088">
          <path id="Path_45309" data-name="Path 45309" d="M428.511,87.747H393.738v2.888h34.772Z" fill="#ff6800"/>
        </g>
        <g id="Group_179089" data-name="Group 179089">
          <path id="Path_45310" data-name="Path 45310" d="M361.66,87.747h-2.89v2.888h34.968V87.747Z" fill="#ffa466"/>
        </g>
        <g id="Group_179090" data-name="Group 179090">
          <rect id="Rectangle_163450" data-name="Rectangle 163450" width="28.994" height="2.891" transform="translate(393.738 81.968)" fill="#ff6800"/>
        </g>
        <g id="Group_179091" data-name="Group 179091">
          <rect id="Rectangle_163451" data-name="Rectangle 163451" width="29.191" height="2.891" transform="translate(364.547 81.968)" fill="#ffa466"/>
        </g>
      </g>
    </g>
  </g>
</svg>
