<svg xmlns="http://www.w3.org/2000/svg" width="172.119" height="172.119" viewBox="0 0 172.119 172.119">
  <g id="Group_180520" data-name="Group 180520" transform="translate(-626.94 -1659)">
    <g id="Group_179009" data-name="Group 179009" transform="translate(-314.9 68.061)">
      <rect id="Rectangle_163442" data-name="Rectangle 163442" width="126" height="126" rx="44" transform="translate(1004.841 1590.939) rotate(30)" fill="#b2b5ff" opacity="0.2"/>
      <rect id="Rectangle_163441" data-name="Rectangle 163441" width="126" height="126" rx="44" transform="matrix(0.966, 0.259, -0.259, 0.966, 974.452, 1599.841)" fill="#b2b5ff"/>
    </g>
    <g id="Group_179108" data-name="Group 179108" transform="translate(421.803 1664.371)">
      <path id="Rectangle_163452" data-name="Rectangle 163452" d="M1.463,0H41.585a1.463,1.463,0,0,1,1.463,1.463v52.68a1.463,1.463,0,0,1-1.463,1.463H1.464A1.464,1.464,0,0,1,0,54.142V1.463A1.463,1.463,0,0,1,1.463,0Z" transform="translate(261.149 51.383)" fill="#fff"/>
      <path id="Rectangle_163453" data-name="Rectangle 163453" d="M1.463,0h40.12a1.464,1.464,0,0,1,1.464,1.464V54.142a1.464,1.464,0,0,1-1.464,1.464H1.464A1.464,1.464,0,0,1,0,54.142V1.463A1.463,1.463,0,0,1,1.463,0Z" transform="translate(250.264 54.388)" fill="#fff"/>
      <path id="Path_45311" data-name="Path 45311" d="M261.149,53.313v1.075h30.072a2.089,2.089,0,0,1,2.089,2.09v50.511h1.064V56.257a2.944,2.944,0,0,0-2.944-2.944Z" fill="#72bcc5"/>
      <path id="Path_45312" data-name="Path 45312" d="M299.586,96.377l-2.288.005v-14.5l2.288,0Z" fill="#54587b"/>
      <path id="Path_45313" data-name="Path 45313" d="M301.221,67.486a1.386,1.386,0,0,0-1.312-1.374v-.559a1.453,1.453,0,0,0-.853-1.319l0-1.1a.61.61,0,0,0-.612-.608h-.012a.611.611,0,0,0-.609.611l0,1.1a1.45,1.45,0,0,0-.848,1.322V81.884l2.934-.006V66.641a.92.92,0,0,1,.842.909l.024,11.76a3.171,3.171,0,0,1-.421,1.59l-.092.161a.465.465,0,0,0,.173.635l0,0,.237-.412a4.279,4.279,0,0,0,.57-2.142Z" fill="#ff7047"/>
      <path id="Path_45314" data-name="Path 45314" d="M299.586,96.382l-2.288,0,.724,2.411v.524a.469.469,0,0,0,.075.25l.242.373a.129.129,0,0,0,.219,0l.238-.374a.468.468,0,0,0,.072-.249V98.8h0Z" fill="#ff7047"/>
      <g id="Group_179095" data-name="Group 179095">
        <g id="Group_179094" data-name="Group 179094">
          <path id="Path_45315" data-name="Path 45315" d="M290.383,58.325H275.856a.523.523,0,0,1,0-1.045h14.527a.523.523,0,1,1,0,1.045Z" fill="#393b45"/>
        </g>
      </g>
      <g id="Group_179097" data-name="Group 179097">
        <g id="Group_179096" data-name="Group 179096">
          <path id="Path_45316" data-name="Path 45316" d="M290.383,60.362H275.856a.523.523,0,0,1,0-1.046h14.527a.523.523,0,1,1,0,1.046Z" fill="#393b45"/>
        </g>
      </g>
      <g id="Group_179099" data-name="Group 179099">
        <g id="Group_179098" data-name="Group 179098">
          <path id="Path_45317" data-name="Path 45317" d="M290.383,62.452H275.856a.522.522,0,0,1,0-1.045h14.527a.522.522,0,1,1,0,1.045Z" fill="#393b45"/>
        </g>
      </g>
      <g id="Group_179101" data-name="Group 179101">
        <g id="Group_179100" data-name="Group 179100">
          <path id="Path_45318" data-name="Path 45318" d="M269.68,96.7H255.152a.522.522,0,0,1,0-1.045H269.68a.522.522,0,1,1,0,1.045Z" fill="#393b45"/>
        </g>
      </g>
      <g id="Group_179103" data-name="Group 179103">
        <g id="Group_179102" data-name="Group 179102">
          <path id="Path_45319" data-name="Path 45319" d="M269.68,98.735H255.152a.522.522,0,0,1,0-1.045H269.68a.522.522,0,1,1,0,1.045Z" fill="#393b45"/>
        </g>
      </g>
      <g id="Group_179105" data-name="Group 179105">
        <g id="Group_179104" data-name="Group 179104">
          <path id="Path_45320" data-name="Path 45320" d="M272.907,93.88a3.4,3.4,0,1,0,3.4,3.4A3.4,3.4,0,0,0,272.907,93.88Zm.751,3.392,1.239-1.239a2.31,2.31,0,0,1,0,2.5Zm.5-1.979-1.232,1.234-1.234-1.254a2.308,2.308,0,0,1,2.466.02Zm-3.242,3.243a2.328,2.328,0,0,1,.02-2.54l1.25,1.27Zm.739.739,1.264-1.264,1.241,1.262a2.31,2.31,0,0,1-2.505,0Z" fill="#54587b"/>
          <path id="Path_45321" data-name="Path 45321" d="M272.906,92.1a5.186,5.186,0,1,0,5.186,5.186A5.192,5.192,0,0,0,272.906,92.1Zm0,9.327a4.141,4.141,0,1,1,4.141-4.141A4.144,4.144,0,0,1,272.906,101.425Z" fill="#54587b"/>
        </g>
      </g>
      <g id="Group_179107" data-name="Group 179107">
        <g id="Group_179106" data-name="Group 179106">
          <path id="Path_45322" data-name="Path 45322" d="M282.357,100.528a.526.526,0,0,1-.457-.267l-2.141-3.83a.523.523,0,1,1,.913-.511l1.638,2.929,2.4-5.279a.523.523,0,0,1,.952.433l-2.833,6.219a.522.522,0,0,1-.454.305Z" fill="#393b45"/>
        </g>
      </g>
      <path id="Rectangle_163454" data-name="Rectangle 163454" d="M.418,0h32.3a.418.418,0,0,1,.418.418V2a.418.418,0,0,1-.418.418H.417A.417.417,0,0,1,0,2V.418A.418.418,0,0,1,.418,0Z" transform="translate(255.218 74.218)" fill="#393b45"/>
      <path id="Rectangle_163455" data-name="Rectangle 163455" d="M.419,0h32.3a.418.418,0,0,1,.418.418V2a.418.418,0,0,1-.418.418H.417A.417.417,0,0,1,0,2V.419A.419.419,0,0,1,.419,0Z" transform="translate(255.218 80.058)" fill="#393b45"/>
      <path id="Rectangle_163456" data-name="Rectangle 163456" d="M.417,0h32.3a.418.418,0,0,1,.418.418V2a.418.418,0,0,1-.418.418H.418A.418.418,0,0,1,0,2V.417A.417.417,0,0,1,.417,0Z" transform="translate(255.218 85.897)" fill="#393b45"/>
      <path id="Rectangle_163457" data-name="Rectangle 163457" d="M.418,0H13.041a.418.418,0,0,1,.418.418V2a.418.418,0,0,1-.418.418H.419A.419.419,0,0,1,0,2V.418A.418.418,0,0,1,.418,0Z" transform="translate(265.058 68.093)" fill="#393b45"/>
    </g>
  </g>
</svg>
