<svg xmlns="http://www.w3.org/2000/svg" width="172.119" height="172.119" viewBox="0 0 172.119 172.119">
  <g id="Group_180521" data-name="Group 180521" transform="translate(-189.94 -1659)">
    <g id="Group_179010" data-name="Group 179010" transform="translate(-751.9 68.061)">
      <rect id="Rectangle_163442" data-name="Rectangle 163442" width="126" height="126" rx="44" transform="translate(1004.841 1590.939) rotate(30)" fill="#ffd1ac" opacity="0.2"/>
      <rect id="Rectangle_163441" data-name="Rectangle 163441" width="126" height="126" rx="44" transform="matrix(0.966, 0.259, -0.259, 0.966, 974.452, 1599.841)" fill="#ffd1ac"/>
    </g>
    <g id="Group_179114" data-name="Group 179114" transform="translate(88.793 1663.038)">
      <g id="Group_179109" data-name="Group 179109" transform="translate(144.71 87.707)">
        <path id="Path_45323" data-name="Path 45323" d="M209.295,106.809H145.123a.411.411,0,0,1-.336-.648l14.5-20.606a.415.415,0,0,1,.338-.174l38.333.053a.414.414,0,0,1,.361.213L209.655,106.2A.412.412,0,0,1,209.295,106.809Z" transform="translate(-144.71 -85.381)" fill="#fff"/>
        <path id="Path_45324" data-name="Path 45324" d="M183.457,87.531l-13.145-.016a.093.093,0,0,1-.089-.12l.088-.323a.235.235,0,0,1,.228-.172l12.741.016a.236.236,0,0,1,.233.205l.039.3A.1.1,0,0,1,183.457,87.531Z" transform="translate(-142.927 -85.275)" fill="#393b45"/>
        <path id="Path_45325" data-name="Path 45325" d="M194.184,89.89l-33.635-.037a.094.094,0,0,1-.082-.139l.248-.45a.235.235,0,0,1,.206-.121l32.958.036a.234.234,0,0,1,.218.149l.174.433A.1.1,0,0,1,194.184,89.89Z" transform="translate(-143.609 -85.118)" fill="#393b45"/>
        <path id="Path_45326" data-name="Path 45326" d="M195.007,91.654l-35.429-.034a.094.094,0,0,1-.082-.139l.291-.526a.234.234,0,0,1,.205-.123l34.68.036a.235.235,0,0,1,.218.148l.2.51A.094.094,0,0,1,195.007,91.654Z" transform="translate(-143.677 -85)" fill="#393b45"/>
        <path id="Path_45327" data-name="Path 45327" d="M195.951,93.615l-37.425-.032a.094.094,0,0,1-.081-.14l.339-.614a.234.234,0,0,1,.205-.122l36.59.032a.235.235,0,0,1,.218.148l.241.6A.1.1,0,0,1,195.951,93.615Z" transform="translate(-143.751 -84.869)" fill="#393b45"/>
        <path id="Path_45328" data-name="Path 45328" d="M173.86,97.324l-17.4-.01a.1.1,0,0,1-.083-.14l.153-.277a.24.24,0,0,1,.207-.122l17.012.011a.236.236,0,0,1,.233.269l-.028.189A.1.1,0,0,1,173.86,97.324Z" transform="translate(-143.895 -84.584)" fill="#393b45"/>
        <path id="Path_45329" data-name="Path 45329" d="M173.693,98.738l-18.012-.007a.094.094,0,0,1-.082-.139l.173-.317a.238.238,0,0,1,.207-.121l17.609.009a.236.236,0,0,1,.233.27l-.034.227A.094.094,0,0,1,173.693,98.738Z" transform="translate(-143.95 -84.488)" fill="#393b45"/>
        <path id="Path_45330" data-name="Path 45330" d="M196.11,97.336l-17.352-.009a.1.1,0,0,1-.094-.094v-.211a.236.236,0,0,1,.235-.234l16.974.011a.237.237,0,0,1,.218.148l.1.261A.093.093,0,0,1,196.11,97.336Z" transform="translate(-142.336 -84.583)" fill="#393b45"/>
        <path id="Path_45331" data-name="Path 45331" d="M196.716,98.749l-17.961-.009a.094.094,0,0,1-.094-.094V98.4a.234.234,0,0,1,.234-.235l17.568.009a.235.235,0,0,1,.218.149l.121.3A.1.1,0,0,1,196.716,98.749Z" transform="translate(-142.337 -84.487)" fill="#393b45"/>
        <path id="Path_45332" data-name="Path 45332" d="M167.733,95.5l-3.667,2.812a.266.266,0,0,1-.372-.046l-1.175-1.483a.271.271,0,0,0-.274-.1l-.831.195a.214.214,0,0,0-.122.338l1.822,2.413a.5.5,0,0,0,.709.091l5.091-4.009a.157.157,0,0,0-.065-.277l-.424-.091A.839.839,0,0,0,167.733,95.5Z" transform="translate(-143.554 -84.686)" fill="#54587b"/>
        <path id="Path_45333" data-name="Path 45333" d="M190.017,95.5l-3.667,2.812a.266.266,0,0,1-.372-.046L184.8,96.782a.27.27,0,0,0-.273-.1l-.832.195a.215.215,0,0,0-.123.338l1.822,2.413a.5.5,0,0,0,.71.091l5.09-4.009a.158.158,0,0,0-.063-.277l-.425-.091A.843.843,0,0,0,190.017,95.5Z" transform="translate(-141.996 -84.686)" fill="#54587b"/>
        <path id="Path_45334" data-name="Path 45334" d="M144.71,108.2v-2.722l65-.065v2.722Z" transform="translate(-144.71 -83.981)" fill="#54587b"/>
      </g>
      <g id="Group_179113" data-name="Group 179113" transform="translate(150.692 52.12)">
        <g id="Group_179112" data-name="Group 179112">
          <path id="Path_45335" data-name="Path 45335" d="M186.29,59.759a6.164,6.164,0,0,1-5.525,1.807l-.032-.006a14.156,14.156,0,0,0-4.677.912l-.04.015a9.4,9.4,0,0,0-3.223,2.048L169.946,67.3a4.954,4.954,0,0,0-1.5,3.317l-.152,3.162a.831.831,0,0,0,.79.869l.032,0c.079,0,.154-.009.23-.011a2.85,2.85,0,0,0,.917-.186h0a3.009,3.009,0,0,0,.405-.2l.031-.021a2.551,2.551,0,0,0,.335-.236c.026-.02.047-.044.073-.065a2.8,2.8,0,0,0,.254-.25c.037-.043.068-.091.1-.137a2.846,2.846,0,0,0,.17-.234c.046-.076.081-.156.12-.235s.067-.124.093-.189a2.767,2.767,0,0,0,.142-.472l.214-1.045a2.094,2.094,0,0,1,.42-.9,2.044,2.044,0,0,1,.228-.244h0l.979-.888a1.426,1.426,0,0,1,1.071-.364l1.618.129c.193.016.384.026.576.032a11.75,11.75,0,0,0,3.968-.559l6.735-2.2,4.634,4.859,3.617-3.288L187.1,58.914Z" transform="translate(-149.043 -51.645)" fill="#ffd6b8"/>
          <g id="Group_179111" data-name="Group 179111">
            <path id="Path_45336" data-name="Path 45336" d="M181.179,68.089a11.75,11.75,0,0,1-3.968.559c-.192-.006-.383-.016-.576-.032l-1.618-.129a1.426,1.426,0,0,0-1.071.364l-.979.888a2.044,2.044,0,0,0-.228.244,2.094,2.094,0,0,0-.42.9l-.214,1.045a2.767,2.767,0,0,1-.142.472c-.026.065-.062.125-.093.189s-.074.159-.12.235a2.846,2.846,0,0,1-.17.234c-.035.046-.066.094-.1.137a2.946,2.946,0,0,1-.254.25c-.026.021-.047.046-.073.065a2.551,2.551,0,0,1-.335.236l-.031.021a2.83,2.83,0,0,1-.405.2h0a2.794,2.794,0,0,1-.917.186h0l-2.76,4.939,11,8.184,2.008-1.384a31.1,31.1,0,0,0,3.861-3.015l4.173-3.824c2.353-2.155,3.675-5.312,4.808-8.3l-4.634-4.859Z" transform="translate(-149.154 -51.157)" fill="#ffd6b8"/>
            <g id="Group_179110" data-name="Group 179110">
              <path id="Path_45337" data-name="Path 45337" d="M178.172,62.115l-.042-.014a14.163,14.163,0,0,0-4.718-.656l-.033.007a6.16,6.16,0,0,1-5.614-1.5l-.689-.646-9.942,8.279,5.117,4.166c1.294,2.918,2.786,6,5.252,8.021l4.375,3.592a31.228,31.228,0,0,0,4.019,2.8l1.679.982.6.444a2.981,2.981,0,0,0,3.436.338l.014-.016a1.541,1.541,0,0,0,.164-1.647l-.132-.111a2.376,2.376,0,0,0,2.975-.143l.013-.016a1.318,1.318,0,0,0-.088-1.8l.144.123a2.021,2.021,0,0,0,2.85-.23l.013-.016a1.321,1.321,0,0,0-.15-1.863l-3.951-3.419h0l3.975,3.381a2.008,2.008,0,0,0,2.832-.23l.021-.025a1.322,1.322,0,0,0-.15-1.864l-4.5-3.826c-.08-.067-2.565-2.691-3.955-4.16a8.823,8.823,0,0,1-1.779-2.725c-.118-.292-.2-.545-.281-.809Z" transform="translate(-149.823 -51.618)" fill="#ffd6b8"/>
              <path id="Path_45338" data-name="Path 45338" d="M186.077,81.282l-.619-.578-3.978-3.474a1.158,1.158,0,0,0-.331-.2h0a.4.4,0,0,0-.4.06l-.135.109,3.182,2.71a7.851,7.851,0,0,0,1.814,1.16Z" transform="translate(-148.181 -50.381)" fill="#54587b"/>
              <path id="Path_45339" data-name="Path 45339" d="M183.35,83.039l-.621-.577-3.977-3.474a1.164,1.164,0,0,0-.332-.2h0a.392.392,0,0,0-.395.06l-.135.109,3.182,2.71a7.847,7.847,0,0,0,1.815,1.16Z" transform="translate(-148.372 -50.258)" fill="#54587b"/>
              <path id="Path_45340" data-name="Path 45340" d="M180.621,84.8,180,84.22l-3.977-3.474a1.152,1.152,0,0,0-.33-.2h0a.4.4,0,0,0-.4.06l-.133.109,3.18,2.71a7.934,7.934,0,0,0,1.815,1.161Z" transform="translate(-148.563 -50.135)" fill="#54587b"/>
              <path id="Path_45341" data-name="Path 45341" d="M180.666,70.973A8.8,8.8,0,0,1,178.9,68.28c-.2.037-.394.076-.593.1.039.106.077.212.124.33a8.823,8.823,0,0,0,1.779,2.725c1.391,1.469,3.875,4.092,3.955,4.16l3.26,2.773c.149-.156.3-.31.442-.474l-3.25-2.764C184.541,75.065,182.056,72.442,180.666,70.973Z" transform="translate(-148.343 -50.99)" fill="#54587b"/>
              <path id="Path_45342" data-name="Path 45342" d="M166.1,82.22l-.5-.522a1.319,1.319,0,0,1,.05-1.867l3.276-3.151a1.666,1.666,0,0,1,2.354.061l.024.024a1.664,1.664,0,0,1-.064,2.353l-3.276,3.151A1.322,1.322,0,0,1,166.1,82.22Z" transform="translate(-149.257 -50.435)" fill="#54587b"/>
              <path id="Path_45343" data-name="Path 45343" d="M168.664,84.147l-.494-.521a1.323,1.323,0,0,1,.049-1.868l4.284-4.065a1.665,1.665,0,0,1,2.353.06l.022.025a1.665,1.665,0,0,1-.062,2.353l-4.284,4.065A1.321,1.321,0,0,1,168.664,84.147Z" transform="translate(-149.077 -50.364)" fill="#54587b"/>
              <path id="Path_45344" data-name="Path 45344" d="M171.732,85.57l-.5-.523a1.32,1.32,0,0,1,.05-1.867l4.283-4.065a1.664,1.664,0,0,1,2.353.061l.024.024a1.665,1.665,0,0,1-.063,2.353L173.6,85.618A1.323,1.323,0,0,1,171.732,85.57Z" transform="translate(-148.862 -50.264)" fill="#54587b"/>
              <path id="Path_45345" data-name="Path 45345" d="M174.651,86.644l-.275-.291a1.363,1.363,0,0,1,.037-1.9l2.786-2.657a1.727,1.727,0,0,1,2.269-.039l.025.025A1.514,1.514,0,0,1,179.439,84l-2.653,2.576A1.668,1.668,0,0,1,174.651,86.644Z" transform="translate(-148.643 -50.076)" fill="#54587b"/>
              <path id="Path_45346" data-name="Path 45346" d="M165.8,82.234l-.5-.524a1.318,1.318,0,0,1,.049-1.867l3.276-3.151a1.664,1.664,0,0,1,2.354.062l.025.024a1.666,1.666,0,0,1-.062,2.354l-3.277,3.152A1.323,1.323,0,0,1,165.8,82.234Z" transform="translate(-149.277 -50.434)" fill="#ffd6b8"/>
              <path id="Path_45347" data-name="Path 45347" d="M168.376,84.164l-.5-.523a1.324,1.324,0,0,1,.048-1.869l4.284-4.065a1.665,1.665,0,0,1,2.354.062l.022.025a1.664,1.664,0,0,1-.061,2.354l-4.283,4.066A1.322,1.322,0,0,1,168.376,84.164Z" transform="translate(-149.097 -50.363)" fill="#ffd6b8"/>
              <path id="Path_45348" data-name="Path 45348" d="M171.446,85.589l-.5-.523A1.322,1.322,0,0,1,171,83.2l4.283-4.065a1.665,1.665,0,0,1,2.355.062l.022.024a1.666,1.666,0,0,1-.061,2.355l-4.284,4.065A1.323,1.323,0,0,1,171.446,85.589Z" transform="translate(-148.883 -50.263)" fill="#ffd6b8"/>
              <path id="Path_45349" data-name="Path 45349" d="M174.367,86.665l-.276-.291a1.368,1.368,0,0,1,.036-1.906l2.787-2.656a1.73,1.73,0,0,1,2.271-.037l.022.025a1.513,1.513,0,0,1-.052,2.225L176.5,86.6A1.668,1.668,0,0,1,174.367,86.665Z" transform="translate(-148.663 -50.075)" fill="#ffd6b8"/>
              <path id="Path_45350" data-name="Path 45350" d="M169.207,79.114l0-.007a3.16,3.16,0,0,0-1.31-1.328l-.009,0,.959-.947a.957.957,0,0,1,1.35-.022l.013.014a.955.955,0,0,1-.04,1.348Z" transform="translate(-149.071 -50.413)" fill="#54587b"/>
              <path id="Path_45351" data-name="Path 45351" d="M175.773,81.6l0-.009a3.227,3.227,0,0,0-1.336-1.356l-.01,0,.98-.965a.973.973,0,0,1,1.377-.024l.014.013a.977.977,0,0,1-.041,1.378Z" transform="translate(-148.614 -50.242)" fill="#54587b"/>
              <path id="Path_45352" data-name="Path 45352" d="M177.612,83.742l0-.005a2.535,2.535,0,0,0-1.051-1.066l-.006,0,.769-.76a.766.766,0,0,1,1.083-.017l.011.011a.764.764,0,0,1-.032,1.082Z" transform="translate(-148.466 -50.053)" fill="#54587b"/>
              <path id="Path_45353" data-name="Path 45353" d="M172.672,80.4l0-.01a3.49,3.49,0,0,0-1.451-1.468l-.01-.005,1.062-1.049a1.059,1.059,0,0,1,1.494-.025l.015.014a1.06,1.06,0,0,1-.045,1.495Z" transform="translate(-148.839 -50.342)" fill="#54587b"/>
              <path id="Path_45354" data-name="Path 45354" d="M176.489,68.5l-1.618-.129a1.426,1.426,0,0,0-1.071.364l-.979.888a2.113,2.113,0,0,0-.648,1.141l-.214,1.045a2.8,2.8,0,0,1-2.875,2.235l-.032,0a.9.9,0,0,1-.253-.056.827.827,0,0,0,.761.621h.032a2.8,2.8,0,0,0,2.875-2.233l.214-1.046a2.1,2.1,0,0,1,.649-1.139l.979-.888a1.42,1.42,0,0,1,1.069-.365l1.619.129a7.3,7.3,0,0,0,5.253-1.488A12.573,12.573,0,0,1,176.489,68.5Z" transform="translate(-149.008 -51.039)" fill="#54587b"/>
              <path id="Path_45355" data-name="Path 45355" d="M200.9,62.929l-9.323-9.475-1.314-1.334-4.45,5.166a1.543,1.543,0,0,0,.072,2.093l.011.011,8.955,9.039.013.014a2.057,2.057,0,0,0,2.776.133l4.846-4.033Z" transform="translate(-147.844 -52.12)" fill="#393b45"/>
              <path id="Path_45356" data-name="Path 45356" d="M163.656,52.341l-2.139,1.793-5.958,5L150.3,63.538l4.779,4.82a1.529,1.529,0,0,0,2.065.1l.466-.387,9.942-8.279.007-.006a1.2,1.2,0,0,0,.213-1.618Z" transform="translate(-150.301 -52.105)" fill="#393b45"/>
              <path id="Path_45357" data-name="Path 45357" d="M175.477,61.8a9.392,9.392,0,0,0-3.223,2.047l-2.848,2.765a4.949,4.949,0,0,0-1.5,3.316l-.152,3.162a.831.831,0,0,0,.64.847.827.827,0,0,1-.062-.352l.152-3.162a4.954,4.954,0,0,1,1.5-3.317l2.848-2.764a9.4,9.4,0,0,1,3.223-2.048l.04-.015c.382-.144.767-.27,1.157-.38-.384-.119-.771-.218-1.164-.3-.189.062-.382.117-.57.187Z" transform="translate(-149.081 -51.457)" fill="#54587b"/>
              <path id="Path_45358" data-name="Path 45358" d="M156.446,62.858a1.513,1.513,0,1,1-2.137-.083A1.512,1.512,0,0,1,156.446,62.858Z" transform="translate(-150.055 -51.403)" fill="#ffd6b8"/>
              <path id="Path_45359" data-name="Path 45359" d="M168.446,69.929l.015-.016a.918.918,0,0,1,.53-.257h0l-.106,2.213a1.6,1.6,0,0,1-.393.973l-.2.231Z" transform="translate(-149.043 -50.894)" fill="#54587b"/>
              <path id="Path_45360" data-name="Path 45360" d="M197.359,65.236a1.513,1.513,0,1,1,.122-2.136A1.512,1.512,0,0,1,197.359,65.236Z" transform="translate(-147.187 -51.388)" fill="#ffd6b8"/>
              <path id="Path_45361" data-name="Path 45361" d="M185.922,58.948l-.677.671-.114.12,8.9,8.981.828-.753Z" transform="translate(-147.866 -51.643)" fill="#54587b"/>
            </g>
          </g>
        </g>
        <path id="Path_45362" data-name="Path 45362" d="M167.764,59.949l-.689-.646-6.544,5.449-3.39,2.836.883.719,9.865-8.254C167.85,60.018,167.8,59.987,167.764,59.949Z" transform="translate(-149.823 -51.618)" fill="#54587b"/>
      </g>
    </g>
  </g>
</svg>
