<svg xmlns="http://www.w3.org/2000/svg" width="172.119" height="172.119" viewBox="0 0 172.119 172.119">
  <g id="Group_180522" data-name="Group 180522" transform="translate(-1063.94 -2030)">
    <g id="Group_179011" data-name="Group 179011" transform="translate(122.1 439.061)">
      <rect id="Rectangle_163442" data-name="Rectangle 163442" width="126" height="126" rx="44" transform="translate(1004.841 1590.939) rotate(30)" fill="#ffeab2" opacity="0.2"/>
      <rect id="Rectangle_163441" data-name="Rectangle 163441" width="126" height="126" rx="44" transform="matrix(0.966, 0.259, -0.259, 0.966, 974.452, 1599.841)" fill="#ffeab2"/>
    </g>
    <g id="Group_179359" data-name="Group 179359" transform="translate(5162.448 -12616)">
      <g id="Group_179142" data-name="Group 179142" transform="translate(-4283.882 14466.955)">
        <g id="Group_179117" data-name="Group 179117">
          <g id="Group_179116" data-name="Group 179116">
            <path id="Path_45363" data-name="Path 45363" d="M262.763,237.341l-1.454-1.454,1.467.422L265,238.53l-.61.61-1.711-1.712Z" fill="#fff"/>
          </g>
        </g>
        <g id="Group_179119" data-name="Group 179119">
          <g id="Group_179118" data-name="Group 179118">
            <path id="Path_45364" data-name="Path 45364" d="M261.133,236.07l1.45,1.45.092-.092,1.711,1.712-.609.61-2.222-2.222Z" fill="#fff"/>
          </g>
        </g>
        <g id="Group_179121" data-name="Group 179121">
          <g id="Group_179120" data-name="Group 179120">
            <path id="Path_45365" data-name="Path 45365" d="M262.341,237.278l-1.208-1.208v-.184h.177l1.211,1.212a.392.392,0,1,1-.179.179Z" fill="#3c3c3b"/>
          </g>
        </g>
        <g id="Group_179130" data-name="Group 179130">
          <g id="Group_179123" data-name="Group 179123">
            <g id="Group_179122" data-name="Group 179122">
              <path id="Path_45366" data-name="Path 45366" d="M275.2,249.958l5.721,5.72-1.216,1.216-.486-.486,0,0-.421-.42-4.813-4.814Z" fill="#00b3ff"/>
            </g>
          </g>
          <g id="Group_179125" data-name="Group 179125">
            <g id="Group_179124" data-name="Group 179124">
              <path id="Path_45367" data-name="Path 45367" d="M276.422,248.739l4.813,4.813.421.42.486.487-1.219,1.218-5.721-5.72Z" fill="#66d1ff"/>
            </g>
          </g>
          <g id="Group_179127" data-name="Group 179127">
            <g id="Group_179126" data-name="Group 179126">
              <rect id="Rectangle_163459" data-name="Rectangle 163459" width="1.417" height="13.803" transform="matrix(0.707, -0.707, 0.707, 0.707, 264.386, 239.141)" fill="#aaaaab"/>
            </g>
          </g>
          <g id="Group_179129" data-name="Group 179129">
            <g id="Group_179128" data-name="Group 179128">
              <rect id="Rectangle_163460" data-name="Rectangle 163460" width="1.376" height="13.804" transform="matrix(0.707, -0.707, 0.707, 0.707, 263.413, 240.114)" fill="#636362"/>
            </g>
          </g>
        </g>
        <g id="Group_179132" data-name="Group 179132">
          <g id="Group_179131" data-name="Group 179131">
            <path id="Path_45368" data-name="Path 45368" d="M280.6,256.006l-4.844-4.844a.463.463,0,0,1,.655-.655l4.844,4.844.892-.891a1.239,1.239,0,0,1,0,1.752l-.342.342-.339.34a1.242,1.242,0,0,1-1.753,0Z" fill="#ff6800"/>
          </g>
        </g>
        <g id="Group_179141" data-name="Group 179141">
          <g id="Group_179134" data-name="Group 179134">
            <g id="Group_179133" data-name="Group 179133">
              <path id="Path_45369" data-name="Path 45369" d="M267.343,244.043l.973-.973.423.422-.973.973Z" fill="#3c3c3b"/>
            </g>
          </g>
          <g id="Group_179136" data-name="Group 179136">
            <g id="Group_179135" data-name="Group 179135">
              <path id="Path_45370" data-name="Path 45370" d="M269.317,242.068l.422.423-1,1-.423-.422Z" fill="#3c3c3b"/>
            </g>
          </g>
          <g id="Group_179138" data-name="Group 179138">
            <g id="Group_179137" data-name="Group 179137">
              <rect id="Rectangle_163461" data-name="Rectangle 163461" width="1.722" height="1.494" transform="matrix(0.707, -0.707, 0.707, 0.707, 272.929, 250.119)" fill="#ff6800"/>
            </g>
          </g>
          <g id="Group_179140" data-name="Group 179140">
            <g id="Group_179139" data-name="Group 179139">
              <rect id="Rectangle_163462" data-name="Rectangle 163462" width="1.724" height="1.494" transform="translate(274.147 248.902) rotate(-45.027)" fill="#ffa466"/>
            </g>
          </g>
        </g>
      </g>
      <g id="Group_179212" data-name="Group 179212" transform="translate(-4329.107 14465.564)">
        <g id="Group_179149" data-name="Group 179149">
          <g id="Group_179145" data-name="Group 179145">
            <g id="Group_179144" data-name="Group 179144">
              <g id="Group_179143" data-name="Group 179143">
                <rect id="Rectangle_163463" data-name="Rectangle 163463" width="15.017" height="11.108" transform="translate(284.321 246.16)" fill="#fff"/>
              </g>
            </g>
          </g>
          <g id="Group_179148" data-name="Group 179148">
            <g id="Group_179147" data-name="Group 179147">
              <g id="Group_179146" data-name="Group 179146">
                <path id="Path_45371" data-name="Path 45371" d="M282.943,244.781v13.865h17.773V244.781Zm16.4,12.488H284.321V246.16h15.017Z" fill="#2d2d2c"/>
              </g>
            </g>
          </g>
        </g>
        <g id="Group_179152" data-name="Group 179152">
          <g id="Group_179151" data-name="Group 179151">
            <g id="Group_179150" data-name="Group 179150">
              <rect id="Rectangle_163464" data-name="Rectangle 163464" width="2.234" height="2.234" transform="translate(285.686 253.917)" fill="#ff6800"/>
            </g>
          </g>
        </g>
        <g id="Group_179155" data-name="Group 179155">
          <g id="Group_179154" data-name="Group 179154">
            <g id="Group_179153" data-name="Group 179153">
              <rect id="Rectangle_163465" data-name="Rectangle 163465" width="2.234" height="2.234" transform="translate(289.037 253.917)" fill="#ff6800"/>
            </g>
          </g>
        </g>
        <g id="Group_179158" data-name="Group 179158">
          <g id="Group_179157" data-name="Group 179157">
            <g id="Group_179156" data-name="Group 179156">
              <rect id="Rectangle_163466" data-name="Rectangle 163466" width="2.233" height="2.234" transform="translate(292.389 253.917)" fill="#ff6800"/>
            </g>
          </g>
        </g>
        <g id="Group_179161" data-name="Group 179161">
          <g id="Group_179160" data-name="Group 179160">
            <g id="Group_179159" data-name="Group 179159">
              <rect id="Rectangle_163467" data-name="Rectangle 163467" width="2.234" height="2.234" transform="translate(285.686 250.597)" fill="#ff6800"/>
            </g>
          </g>
        </g>
        <g id="Group_179164" data-name="Group 179164">
          <g id="Group_179163" data-name="Group 179163">
            <g id="Group_179162" data-name="Group 179162">
              <rect id="Rectangle_163468" data-name="Rectangle 163468" width="2.233" height="2.234" transform="translate(292.389 250.597)" fill="#ff6800"/>
            </g>
          </g>
        </g>
        <g id="Group_179167" data-name="Group 179167">
          <g id="Group_179166" data-name="Group 179166">
            <g id="Group_179165" data-name="Group 179165">
              <rect id="Rectangle_163469" data-name="Rectangle 163469" width="2.233" height="2.234" transform="translate(295.739 250.597)" fill="#ff6800"/>
            </g>
          </g>
        </g>
        <g id="Group_179170" data-name="Group 179170">
          <g id="Group_179169" data-name="Group 179169">
            <g id="Group_179168" data-name="Group 179168">
              <rect id="Rectangle_163470" data-name="Rectangle 163470" width="12.286" height="3.336" transform="translate(285.686 246.16)" fill="#aaaaab"/>
            </g>
          </g>
        </g>
        <g id="Group_179206" data-name="Group 179206">
          <g id="Group_179177" data-name="Group 179177">
            <g id="Group_179173" data-name="Group 179173">
              <g id="Group_179172" data-name="Group 179172">
                <g id="Group_179171" data-name="Group 179171">
                  <path id="Path_45372" data-name="Path 45372" d="M296.388,246.164a.76.76,0,1,0,.759.76A.76.76,0,0,0,296.388,246.164Z" fill="#3c3c3b"/>
                </g>
              </g>
            </g>
            <g id="Group_179176" data-name="Group 179176">
              <g id="Group_179175" data-name="Group 179175">
                <g id="Group_179174" data-name="Group 179174">
                  <path id="Path_45373" data-name="Path 45373" d="M296.388,247.262a.462.462,0,0,1-.463-.462v-2.41a.462.462,0,0,1,.463-.462h0a.461.461,0,0,1,.461.462v2.41a.461.461,0,0,1-.461.462Z" fill="#00b3ff"/>
                </g>
              </g>
            </g>
          </g>
          <g id="Group_179184" data-name="Group 179184">
            <g id="Group_179180" data-name="Group 179180">
              <g id="Group_179179" data-name="Group 179179">
                <g id="Group_179178" data-name="Group 179178">
                  <path id="Path_45374" data-name="Path 45374" d="M294.109,246.164a.76.76,0,1,0,.759.76A.76.76,0,0,0,294.109,246.164Z" fill="#3c3c3b"/>
                </g>
              </g>
            </g>
            <g id="Group_179183" data-name="Group 179183">
              <g id="Group_179182" data-name="Group 179182">
                <g id="Group_179181" data-name="Group 179181">
                  <path id="Path_45375" data-name="Path 45375" d="M294.109,247.262a.462.462,0,0,1-.463-.462v-2.41a.462.462,0,0,1,.463-.462h0a.461.461,0,0,1,.461.462v2.41a.461.461,0,0,1-.461.462Z" fill="#00b3ff"/>
                </g>
              </g>
            </g>
          </g>
          <g id="Group_179191" data-name="Group 179191">
            <g id="Group_179187" data-name="Group 179187">
              <g id="Group_179186" data-name="Group 179186">
                <g id="Group_179185" data-name="Group 179185">
                  <path id="Path_45376" data-name="Path 45376" d="M291.829,246.164a.76.76,0,1,0,.76.76A.76.76,0,0,0,291.829,246.164Z" fill="#3c3c3b"/>
                </g>
              </g>
            </g>
            <g id="Group_179190" data-name="Group 179190">
              <g id="Group_179189" data-name="Group 179189">
                <g id="Group_179188" data-name="Group 179188">
                  <path id="Path_45377" data-name="Path 45377" d="M291.829,247.262a.461.461,0,0,1-.461-.462v-2.41a.461.461,0,0,1,.461-.462h0a.462.462,0,0,1,.463.462v2.41a.462.462,0,0,1-.463.462Z" fill="#00b3ff"/>
                </g>
              </g>
            </g>
          </g>
          <g id="Group_179198" data-name="Group 179198">
            <g id="Group_179194" data-name="Group 179194">
              <g id="Group_179193" data-name="Group 179193">
                <g id="Group_179192" data-name="Group 179192">
                  <path id="Path_45378" data-name="Path 45378" d="M289.552,246.164a.76.76,0,1,0,.758.76A.761.761,0,0,0,289.552,246.164Z" fill="#3c3c3b"/>
                </g>
              </g>
            </g>
            <g id="Group_179197" data-name="Group 179197">
              <g id="Group_179196" data-name="Group 179196">
                <g id="Group_179195" data-name="Group 179195">
                  <path id="Path_45379" data-name="Path 45379" d="M289.552,247.262a.462.462,0,0,1-.463-.462v-2.41a.462.462,0,0,1,.463-.462h0a.461.461,0,0,1,.461.462v2.41a.461.461,0,0,1-.461.462Z" fill="#00b3ff"/>
                </g>
              </g>
            </g>
          </g>
          <g id="Group_179205" data-name="Group 179205">
            <g id="Group_179201" data-name="Group 179201">
              <g id="Group_179200" data-name="Group 179200">
                <g id="Group_179199" data-name="Group 179199">
                  <path id="Path_45380" data-name="Path 45380" d="M287.271,246.164a.76.76,0,1,0,.76.76A.76.76,0,0,0,287.271,246.164Z" fill="#3c3c3b"/>
                </g>
              </g>
            </g>
            <g id="Group_179204" data-name="Group 179204">
              <g id="Group_179203" data-name="Group 179203">
                <g id="Group_179202" data-name="Group 179202">
                  <path id="Path_45381" data-name="Path 45381" d="M287.271,247.262a.462.462,0,0,1-.461-.462v-2.41a.462.462,0,0,1,.461-.462h0a.462.462,0,0,1,.463.462v2.41a.462.462,0,0,1-.463.462Z" fill="#00b3ff"/>
                </g>
              </g>
            </g>
          </g>
        </g>
        <g id="Group_179208" data-name="Group 179208">
          <g id="Group_179207" data-name="Group 179207">
            <path id="Path_45382" data-name="Path 45382" d="M291.174,252.463l-.749-.749.7-.7-.272-.271-.7.7-.772-.771-.27.27.771.771-.749.749.271.27.749-.749.749.749Z" fill="#2d2d2c"/>
          </g>
        </g>
        <g id="Group_179211" data-name="Group 179211">
          <g id="Group_179210" data-name="Group 179210">
            <g id="Group_179209" data-name="Group 179209">
              <path id="Path_45383" data-name="Path 45383" d="M290.889,250.979v1.469H289.42v-1.469Zm.382-.382h-2.234v2.234h2.234V250.6Z" fill="#ff6800"/>
            </g>
          </g>
        </g>
      </g>
      <g id="Group_179237" data-name="Group 179237" transform="translate(-4304 14455.06)">
        <g id="Group_179236" data-name="Group 179236">
          <path id="Path_45390" data-name="Path 45390" d="M263.911,246.009a2.517,2.517,0,0,1,.1-.728,1.745,1.745,0,0,1,.307-.6,1.46,1.46,0,0,1,.523-.411,1.7,1.7,0,0,1,.745-.152,1.682,1.682,0,0,1,.74.152,1.5,1.5,0,0,1,.522.411,1.7,1.7,0,0,1,.312.6,2.628,2.628,0,0,1,0,1.464,1.661,1.661,0,0,1-.312.6,1.533,1.533,0,0,1-.522.4,1.668,1.668,0,0,1-.74.152,1.691,1.691,0,0,1-.745-.152,1.49,1.49,0,0,1-.523-.4,1.7,1.7,0,0,1-.307-.6A2.532,2.532,0,0,1,263.911,246.009Zm2.535,0a1.739,1.739,0,0,0-.2-.914.815.815,0,0,0-1.3,0,1.678,1.678,0,0,0-.21.914,1.777,1.777,0,0,0,.2.924.814.814,0,0,0,1.3,0A1.7,1.7,0,0,0,266.446,246.009Zm3.481-1.794a2.168,2.168,0,0,1,.218-.026q.113-.009.219-.009t.237.009a2.185,2.185,0,0,1,.227.026l-4.309,6.31c-.084.011-.163.021-.233.027s-.143.008-.215.008a2.645,2.645,0,0,1-.455-.035Zm-.839,4.525a2.54,2.54,0,0,1,.1-.727,1.766,1.766,0,0,1,.309-.6,1.462,1.462,0,0,1,.521-.41,1.7,1.7,0,0,1,.746-.152,1.67,1.67,0,0,1,.741.152,1.506,1.506,0,0,1,.521.41,1.74,1.74,0,0,1,.313.6,2.5,2.5,0,0,1,.1.727,2.538,2.538,0,0,1-.1.736,1.7,1.7,0,0,1-.313.6,1.52,1.52,0,0,1-.521.406,1.684,1.684,0,0,1-.741.152,1.716,1.716,0,0,1-.746-.152,1.474,1.474,0,0,1-.521-.406,1.724,1.724,0,0,1-.309-.6A2.572,2.572,0,0,1,269.088,248.74Zm2.534,0a1.747,1.747,0,0,0-.2-.915.814.814,0,0,0-1.3,0,1.686,1.686,0,0,0-.211.915,1.767,1.767,0,0,0,.2.924.815.815,0,0,0,1.3,0A1.706,1.706,0,0,0,271.622,248.74Z" fill="#fff"/>
        </g>
      </g>
      <g id="Group_179239" data-name="Group 179239" transform="translate(-4304 14455.06)">
        <g id="Group_179238" data-name="Group 179238">
          <path id="Path_45391" data-name="Path 45391" d="M298.869,234.7a1.3,1.3,0,0,1,.053-.373.908.908,0,0,1,.158-.308.736.736,0,0,1,.268-.21.87.87,0,0,1,.381-.078.859.859,0,0,1,.38.078.771.771,0,0,1,.268.21.894.894,0,0,1,.16.308,1.356,1.356,0,0,1,0,.751.889.889,0,0,1-.16.307.791.791,0,0,1-.268.208.859.859,0,0,1-.38.078.87.87,0,0,1-.381-.078.754.754,0,0,1-.268-.208.9.9,0,0,1-.158-.307A1.313,1.313,0,0,1,298.869,234.7Zm1.3,0a.884.884,0,0,0-.1-.469.416.416,0,0,0-.667,0,.863.863,0,0,0-.108.469.911.911,0,0,0,.1.474.416.416,0,0,0,.667,0A.861.861,0,0,0,300.169,234.7Zm1.784-.919c.036-.006.073-.01.112-.013s.076-.005.112-.005.08,0,.121.005.08.007.117.013l-2.209,3.235c-.044.006-.083.01-.119.013s-.074,0-.11,0a1.52,1.52,0,0,1-.234-.017Zm-.431,2.32a1.293,1.293,0,0,1,.053-.373.9.9,0,0,1,.158-.309.747.747,0,0,1,.268-.211.871.871,0,0,1,.382-.077.862.862,0,0,1,.38.077.77.77,0,0,1,.267.211.874.874,0,0,1,.16.309,1.259,1.259,0,0,1,.053.373,1.287,1.287,0,0,1-.053.377.86.86,0,0,1-.16.306.774.774,0,0,1-.267.208.862.862,0,0,1-.38.078.871.871,0,0,1-.382-.078.751.751,0,0,1-.268-.208.889.889,0,0,1-.158-.306A1.321,1.321,0,0,1,301.522,236.1Zm1.3,0a.9.9,0,0,0-.1-.47.417.417,0,0,0-.668,0,.867.867,0,0,0-.108.47.9.9,0,0,0,.1.473.364.364,0,0,0,.336.167.369.369,0,0,0,.332-.167A.879.879,0,0,0,302.822,236.1Z" fill="#aaaaab"/>
        </g>
      </g>
      <g id="Group_179241" data-name="Group 179241" transform="translate(-4304 14455.06)">
        <g id="Group_179240" data-name="Group 179240">
          <path id="Path_45392" data-name="Path 45392" d="M293.052,238.362a2.267,2.267,0,0,1,.036.266c.008.1.012.191.012.278s0,.179-.012.278a1.815,1.815,0,0,1-.036.252h-5.005a1.405,1.405,0,0,1-.03-.252c0-.1-.006-.192-.006-.278s0-.178.006-.278a1.685,1.685,0,0,1,.03-.266Zm0,2.256a2.248,2.248,0,0,1,.036.265c.008.1.012.191.012.277s0,.18-.012.278a1.871,1.871,0,0,1-.036.254h-5.005a1.441,1.441,0,0,1-.03-.254c0-.1-.006-.19-.006-.278s0-.179.006-.277a1.672,1.672,0,0,1,.03-.265Z" fill="#fff"/>
        </g>
      </g>
      <g id="Group_179248" data-name="Group 179248" transform="translate(-4304 14455.06)">
        <g id="Group_179244" data-name="Group 179244">
          <g id="Group_179243" data-name="Group 179243">
            <g id="Group_179242" data-name="Group 179242">
              <path id="Path_45393" data-name="Path 45393" d="M289.838,256.577a4.534,4.534,0,1,0,0,6.409A4.513,4.513,0,0,0,289.838,256.577Z" fill="#fff"/>
            </g>
          </g>
        </g>
        <g id="Group_179247" data-name="Group 179247">
          <g id="Group_179246" data-name="Group 179246">
            <g id="Group_179245" data-name="Group 179245">
              <path id="Path_45394" data-name="Path 45394" d="M287.927,259.677a3.028,3.028,0,0,0-.9-.454l-.253-.085c-.049-.017-.094-.036-.139-.054a1.39,1.39,0,0,1-.44-.254.573.573,0,0,1-.163-.426.623.623,0,0,1,.161-.442.558.558,0,0,1,.422-.172l.02,0a.645.645,0,0,1,.439.164.662.662,0,0,1,.2.448H288.4a1.828,1.828,0,0,0-.254-.864,1.59,1.59,0,0,0-.618-.6,1.688,1.688,0,0,0-.4-.157v-1.008H286.2v1.015h0a1.725,1.725,0,0,0-.393.16,1.675,1.675,0,0,0-.631.608,1.588,1.588,0,0,0-.233.836,1.655,1.655,0,0,0,.765,1.387,2.81,2.81,0,0,0,.489.23c.03.008.109.033.236.074l.206.072a1.955,1.955,0,0,1,.551.3.768.768,0,0,1,.269.615.72.72,0,0,1-.22.543.769.769,0,0,1-.559.214c-.016,0-.028,0-.041,0a.744.744,0,0,1-.772-.745H284.72a1.788,1.788,0,0,0,.135.654,1.638,1.638,0,0,0,.378.574,1.854,1.854,0,0,0,.962.534v.985h.936v-1a1.894,1.894,0,0,0,.469-.19,1.869,1.869,0,0,0,.949-1.642A1.624,1.624,0,0,0,287.927,259.677Z" fill="#aaaaab"/>
            </g>
          </g>
        </g>
      </g>
      <g id="Group_179255" data-name="Group 179255" transform="translate(-4304 14455.06)">
        <g id="Group_179251" data-name="Group 179251">
          <g id="Group_179250" data-name="Group 179250">
            <g id="Group_179249" data-name="Group 179249">
              <path id="Path_45395" data-name="Path 45395" d="M304.234,260.048a2.466,2.466,0,1,0,0,3.486A2.453,2.453,0,0,0,304.234,260.048Z" fill="#fff"/>
            </g>
          </g>
        </g>
        <g id="Group_179254" data-name="Group 179254">
          <g id="Group_179253" data-name="Group 179253">
            <g id="Group_179252" data-name="Group 179252">
              <path id="Path_45396" data-name="Path 45396" d="M303.194,261.733a1.709,1.709,0,0,0-.489-.247l-.138-.046c-.027-.008-.051-.019-.076-.029a.733.733,0,0,1-.238-.138.309.309,0,0,1-.089-.231.334.334,0,0,1,.088-.241.3.3,0,0,1,.229-.094h.01a.349.349,0,0,1,.239.09.357.357,0,0,1,.112.244h.613a1.02,1.02,0,0,0-.139-.471.864.864,0,0,0-.336-.324.951.951,0,0,0-.218-.086v-.548h-.509v.552h0a.941.941,0,0,0-.214.087.911.911,0,0,0-.344.331.895.895,0,0,0,.29,1.209,1.567,1.567,0,0,0,.266.125c.017,0,.059.018.129.041.04.013.076.026.111.039a1.056,1.056,0,0,1,.3.162.415.415,0,0,1,.145.334.4.4,0,0,1-.119.3.415.415,0,0,1-.3.116h-.023a.406.406,0,0,1-.419-.406h-.622a.965.965,0,0,0,.073.356.9.9,0,0,0,.206.312,1.013,1.013,0,0,0,.524.291v.536h.509v-.545a.948.948,0,0,0,.255-.1,1.018,1.018,0,0,0,.516-.893A.886.886,0,0,0,303.194,261.733Z" fill="#aaaaab"/>
            </g>
          </g>
        </g>
      </g>
      <g id="Group_179259" data-name="Group 179259" transform="translate(-4304 14455.06)">
        <g id="Group_179258" data-name="Group 179258">
          <g id="Group_179257" data-name="Group 179257">
            <g id="Group_179256" data-name="Group 179256">
              <path id="Path_45397" data-name="Path 45397" d="M306.7,253.356a1.684,1.684,0,0,0-.489-.247l-.138-.045-.076-.03a.772.772,0,0,1-.238-.137.314.314,0,0,1-.089-.233.332.332,0,0,1,.088-.24.3.3,0,0,1,.229-.094H306a.345.345,0,0,1,.239.09.352.352,0,0,1,.112.243h.612a1,1,0,0,0-.138-.47.874.874,0,0,0-.336-.325,1,1,0,0,0-.218-.085v-.548h-.509v.551h0a.928.928,0,0,0-.214.088.9.9,0,0,0-.344.331.866.866,0,0,0-.126.454.9.9,0,0,0,.416.755,1.531,1.531,0,0,0,.266.125c.016,0,.059.018.129.041.04.013.076.025.111.039a1.1,1.1,0,0,1,.3.161.423.423,0,0,1,.145.335.392.392,0,0,1-.119.295.416.416,0,0,1-.305.117l-.022,0a.4.4,0,0,1-.419-.4h-.622a.976.976,0,0,0,.073.357.909.909,0,0,0,.206.311,1,1,0,0,0,.524.29v.536h.509v-.544a.99.99,0,0,0,.254-.1,1.019,1.019,0,0,0,.517-.893A.885.885,0,0,0,306.7,253.356Z" fill="#aaaaab"/>
            </g>
          </g>
        </g>
      </g>
      <g id="Group_179263" data-name="Group 179263" transform="translate(-4304 14455.06)">
        <g id="Group_179262" data-name="Group 179262">
          <g id="Group_179261" data-name="Group 179261">
            <g id="Group_179260" data-name="Group 179260">
              <path id="Path_45398" data-name="Path 45398" d="M251.857,243.02a1.218,1.218,0,0,0-.356-.18l-.1-.033c-.019-.007-.038-.014-.055-.022a.524.524,0,0,1-.173-.1.223.223,0,0,1-.066-.168.243.243,0,0,1,.065-.175.216.216,0,0,1,.166-.068h.008a.252.252,0,0,1,.255.243h.445a.731.731,0,0,0-.1-.342.66.66,0,0,0-.4-.3v-.4h-.369v.4h0a.68.68,0,0,0-.156.063.655.655,0,0,0-.249.241.618.618,0,0,0-.092.33.663.663,0,0,0,.3.549,1.184,1.184,0,0,0,.195.09l.093.03c.029.009.055.019.081.028a.746.746,0,0,1,.218.118.3.3,0,0,1,.106.243.285.285,0,0,1-.086.214.3.3,0,0,1-.222.085h-.016a.311.311,0,0,1-.21-.078.315.315,0,0,1-.1-.217h-.452a.685.685,0,0,0,.054.259.627.627,0,0,0,.149.226.72.72,0,0,0,.381.212v.39h.369v-.4a.741.741,0,0,0,.56-.725A.645.645,0,0,0,251.857,243.02Z" fill="#aaaaab"/>
            </g>
          </g>
        </g>
      </g>
      <g id="Group_179267" data-name="Group 179267" transform="translate(-4304 14455.06)">
        <g id="Group_179266" data-name="Group 179266">
          <g id="Group_179265" data-name="Group 179265">
            <g id="Group_179264" data-name="Group 179264">
              <path id="Path_45399" data-name="Path 45399" d="M295.082,233.638a1.2,1.2,0,0,0-.355-.18l-.1-.034c-.02-.007-.037-.014-.055-.022a.562.562,0,0,1-.174-.1.228.228,0,0,1-.064-.168.25.25,0,0,1,.063-.176.221.221,0,0,1,.167-.067h.008a.253.253,0,0,1,.174.064.265.265,0,0,1,.081.178h.444a.732.732,0,0,0-.1-.343.635.635,0,0,0-.245-.235.7.7,0,0,0-.158-.063v-.4H294.4v.4h0a.71.71,0,0,0-.155.063.672.672,0,0,0-.25.241.646.646,0,0,0-.01.644.648.648,0,0,0,.221.235,1.227,1.227,0,0,0,.193.091.952.952,0,0,1,.093.029l.082.028a.771.771,0,0,1,.218.118.3.3,0,0,1,.106.244.286.286,0,0,1-.086.214.3.3,0,0,1-.222.084h-.016a.317.317,0,0,1-.211-.078.309.309,0,0,1-.093-.216h-.454a.736.736,0,0,0,.054.259.66.66,0,0,0,.15.227.74.74,0,0,0,.38.211v.389h.371v-.4a.817.817,0,0,0,.185-.075.752.752,0,0,0,.274-.272.733.733,0,0,0,.1-.378A.641.641,0,0,0,295.082,233.638Z" fill="#aaaaab"/>
            </g>
          </g>
        </g>
      </g>
      <g id="Group_179271" data-name="Group 179271" transform="translate(-4304 14455.06)">
        <g id="Group_179270" data-name="Group 179270">
          <g id="Group_179269" data-name="Group 179269">
            <g id="Group_179268" data-name="Group 179268">
              <path id="Path_45400" data-name="Path 45400" d="M255.93,254.7a2.658,2.658,0,0,0-.781-.393l-.219-.074c-.043-.015-.082-.031-.121-.047a1.178,1.178,0,0,1-.381-.22.5.5,0,0,1-.142-.369.534.534,0,0,1,.14-.383.477.477,0,0,1,.366-.149h.017a.562.562,0,0,1,.38.143.581.581,0,0,1,.179.389h.976a1.621,1.621,0,0,0-.22-.75,1.382,1.382,0,0,0-.537-.517,1.489,1.489,0,0,0-.348-.136v-.874h-.811v.879h0a1.511,1.511,0,0,0-.342.14,1.44,1.44,0,0,0-.547.526,1.374,1.374,0,0,0-.2.725,1.39,1.39,0,0,0,.179.688,1.409,1.409,0,0,0,.483.516,2.508,2.508,0,0,0,.425.2q.038.011.2.066c.064.02.123.041.179.062a1.663,1.663,0,0,1,.478.258.668.668,0,0,1,.232.533.628.628,0,0,1-.189.471.67.67,0,0,1-.486.186.35.35,0,0,1-.035,0,.645.645,0,0,1-.669-.646h-.992a1.552,1.552,0,0,0,.118.567,1.4,1.4,0,0,0,.328.5,1.589,1.589,0,0,0,.834.463v.855h.811v-.867a1.581,1.581,0,0,0,.406-.165,1.62,1.62,0,0,0,.824-1.424A1.412,1.412,0,0,0,255.93,254.7Z" fill="#aaaaab"/>
            </g>
          </g>
        </g>
      </g>
      <g id="Group_179278" data-name="Group 179278" transform="translate(-4304 14455.06)">
        <g id="Group_179274" data-name="Group 179274">
          <g id="Group_179273" data-name="Group 179273">
            <g id="Group_179272" data-name="Group 179272">
              <path id="Path_45401" data-name="Path 45401" d="M258.369,245.181a2.466,2.466,0,1,0,0,3.486A2.455,2.455,0,0,0,258.369,245.181Z" fill="#fff"/>
            </g>
          </g>
        </g>
        <g id="Group_179277" data-name="Group 179277">
          <g id="Group_179276" data-name="Group 179276">
            <g id="Group_179275" data-name="Group 179275">
              <path id="Path_45402" data-name="Path 45402" d="M257.329,246.867a1.659,1.659,0,0,0-.489-.248l-.138-.046a.749.749,0,0,1-.076-.029.74.74,0,0,1-.239-.138.311.311,0,0,1-.089-.231.336.336,0,0,1,.088-.24.3.3,0,0,1,.229-.094h.011a.349.349,0,0,1,.239.089.359.359,0,0,1,.112.244h.612a1.011,1.011,0,0,0-.138-.471.86.86,0,0,0-.337-.324.908.908,0,0,0-.219-.086v-.548h-.508v.552h0a.95.95,0,0,0-.215.087.916.916,0,0,0-.343.331.863.863,0,0,0-.126.454.878.878,0,0,0,.112.432.9.9,0,0,0,.3.324,1.674,1.674,0,0,0,.267.124c.016,0,.058.018.128.041l.112.039a1.045,1.045,0,0,1,.3.162.421.421,0,0,1,.145.334.394.394,0,0,1-.119.3.42.42,0,0,1-.3.116h-.022a.4.4,0,0,1-.419-.406h-.623a.985.985,0,0,0,.074.356.9.9,0,0,0,.205.312,1.017,1.017,0,0,0,.524.291v.536h.508v-.544a1.028,1.028,0,0,0,.256-.1,1.016,1.016,0,0,0,.516-.893A.884.884,0,0,0,257.329,246.867Z" fill="#aaaaab"/>
            </g>
          </g>
        </g>
      </g>
      <g id="Group_179285" data-name="Group 179285" transform="translate(-4304 14455.06)">
        <g id="Group_179281" data-name="Group 179281">
          <g id="Group_179280" data-name="Group 179280">
            <g id="Group_179279" data-name="Group 179279">
              <path id="Path_45403" data-name="Path 45403" d="M272.249,239.283a2.465,2.465,0,1,0,0,3.488A2.456,2.456,0,0,0,272.249,239.283Z" fill="#fff"/>
            </g>
          </g>
        </g>
        <g id="Group_179284" data-name="Group 179284">
          <g id="Group_179283" data-name="Group 179283">
            <g id="Group_179282" data-name="Group 179282">
              <path id="Path_45404" data-name="Path 45404" d="M271.21,240.97a1.655,1.655,0,0,0-.49-.247l-.137-.047c-.027-.009-.052-.02-.077-.029a.722.722,0,0,1-.238-.138.31.31,0,0,1-.089-.232.335.335,0,0,1,.088-.24.3.3,0,0,1,.229-.094h.01a.353.353,0,0,1,.239.089.363.363,0,0,1,.112.244h.613a1.016,1.016,0,0,0-.139-.47.874.874,0,0,0-.336-.325.9.9,0,0,0-.219-.085v-.548h-.508v.551h0a.936.936,0,0,0-.215.088.9.9,0,0,0-.343.33.858.858,0,0,0-.126.455.893.893,0,0,0,.415.755,1.484,1.484,0,0,0,.267.124l.127.041.112.039a1.081,1.081,0,0,1,.3.163.418.418,0,0,1,.146.333.393.393,0,0,1-.12.3.414.414,0,0,1-.3.117h-.022a.406.406,0,0,1-.419-.406h-.622a.971.971,0,0,0,.073.356.889.889,0,0,0,.206.312,1,1,0,0,0,.524.29v.536h.508v-.543a1.06,1.06,0,0,0,.255-.1,1.017,1.017,0,0,0,.378-.373,1,1,0,0,0,.139-.52A.885.885,0,0,0,271.21,240.97Z" fill="#aaaaab"/>
            </g>
          </g>
        </g>
      </g>
      <g id="Group_179303" data-name="Group 179303" transform="translate(-4304 14455.06)">
        <g id="Group_179302" data-name="Group 179302">
          <g id="Group_179292" data-name="Group 179292">
            <g id="Group_179286" data-name="Group 179286">
              <path id="Path_45405" data-name="Path 45405" d="M281.123,257.207h-1.716v6.736h3.43v-6.737Z" fill="#aaaaab"/>
            </g>
            <g id="Group_179291" data-name="Group 179291">
              <g id="Group_179287" data-name="Group 179287">
                <rect id="Rectangle_163475" data-name="Rectangle 163475" width="3.186" height="11.954" transform="translate(277.937 263.943)" fill="#3c3c3b"/>
              </g>
              <g id="Group_179288" data-name="Group 179288">
                <rect id="Rectangle_163476" data-name="Rectangle 163476" width="3.186" height="11.954" transform="translate(281.123 263.943)" fill="#2d2d2c"/>
              </g>
              <g id="Group_179289" data-name="Group 179289">
                <rect id="Rectangle_163477" data-name="Rectangle 163477" width="3.186" height="3.032" transform="translate(281.123 275.897)" fill="#959595"/>
              </g>
              <g id="Group_179290" data-name="Group 179290">
                <rect id="Rectangle_163478" data-name="Rectangle 163478" width="3.186" height="3.033" transform="translate(277.936 275.897)" fill="#e2e3e4"/>
              </g>
            </g>
          </g>
          <g id="Group_179301" data-name="Group 179301">
            <g id="Group_179294" data-name="Group 179294">
              <g id="Group_179293" data-name="Group 179293">
                <path id="Path_45406" data-name="Path 45406" d="M275.238,253.259a8.322,8.322,0,0,1,5.885-14.207V235.4a11.977,11.977,0,0,0,0,23.955V255.7A8.3,8.3,0,0,1,275.238,253.259Z" fill="#aaaaab"/>
              </g>
            </g>
            <g id="Group_179296" data-name="Group 179296">
              <g id="Group_179295" data-name="Group 179295">
                <path id="Path_45407" data-name="Path 45407" d="M281.123,235.4v3.655a8.323,8.323,0,0,1,0,16.645v3.655a11.977,11.977,0,0,0,0-23.955Z" fill="#3c3c3b"/>
              </g>
            </g>
            <g id="Group_179298" data-name="Group 179298">
              <g id="Group_179297" data-name="Group 179297">
                <path id="Path_45408" data-name="Path 45408" d="M287.006,241.489a8.323,8.323,0,1,0,0,11.77A8.286,8.286,0,0,0,287.006,241.489Z" fill="#00b3ff"/>
              </g>
            </g>
            <g id="Group_179300" data-name="Group 179300">
              <g id="Group_179299" data-name="Group 179299">
                <path id="Path_45409" data-name="Path 45409" d="M283.5,247.181a5.615,5.615,0,0,0-1.652-.834l-.464-.157c-.093-.031-.175-.065-.259-.1a2.519,2.519,0,0,1-.806-.466,1.054,1.054,0,0,1-.3-.781,1.141,1.141,0,0,1,.3-.813,1.019,1.019,0,0,1,.774-.315c.012,0,.022,0,.035,0a1.182,1.182,0,0,1,.808.3,1.22,1.22,0,0,1,.377.823h2.066a3.407,3.407,0,0,0-.465-1.588,2.915,2.915,0,0,0-1.136-1.1,3.114,3.114,0,0,0-.738-.29v-1.85h-1.718v1.863h0a3.18,3.18,0,0,0-1.883,1.412,2.92,2.92,0,0,0-.424,1.533,3.041,3.041,0,0,0,1.4,2.549,5.2,5.2,0,0,0,.9.42c.054.015.2.06.433.139.135.043.261.086.377.131a3.576,3.576,0,0,1,1.015.547,1.412,1.412,0,0,1,.493,1.128,1.327,1.327,0,0,1-.4,1,1.407,1.407,0,0,1-1.028.394c-.027,0-.05,0-.076,0a1.366,1.366,0,0,1-1.415-1.368h-2.1a3.343,3.343,0,0,0,.249,1.2,3.042,3.042,0,0,0,.7,1.053,3.405,3.405,0,0,0,1.766.979v1.81h1.718v-1.837a3.446,3.446,0,0,0,2.605-3.364A2.989,2.989,0,0,0,283.5,247.181Z" fill="#fff"/>
              </g>
            </g>
          </g>
        </g>
      </g>
      <g id="Group_179304" data-name="Group 179304" transform="translate(-4304 14455.06)">
        <circle id="Ellipse_907" data-name="Ellipse 907" cx="23.376" cy="23.376" r="23.376" transform="translate(257.836 266.953)" fill="#fff"/>
      </g>
      <g id="Group_179358" data-name="Group 179358" transform="translate(-4304 14455.06)">
        <g id="Group_179348" data-name="Group 179348">
          <g id="Group_179321" data-name="Group 179321">
            <g id="Group_179306" data-name="Group 179306">
              <path id="Path_45422" data-name="Path 45422" d="M266.781,304.72l-3.372-3.372,1.895,6.959Z" fill="#fff"/>
            </g>
            <g id="Group_179307" data-name="Group 179307">
              <path id="Path_45423" data-name="Path 45423" d="M260.006,304.751l1.472,3.692,1.932-7.1Z" fill="#e2e3e4"/>
            </g>
            <g id="Group_179308" data-name="Group 179308">
              <path id="Path_45424" data-name="Path 45424" d="M261.5,300.029l-2.383-2.383v2.383h.039a7.509,7.509,0,0,0,3.636,1.293Z" fill="#ffcab3"/>
            </g>
            <g id="Group_179309" data-name="Group 179309">
              <path id="Path_45425" data-name="Path 45425" d="M259.115,296.077v1.569l2.383,2.383,1.292,1.293c.2.015.41.026.619.026.135,0,.267-.009.4-.016a7.487,7.487,0,0,0,3.848-1.3l.015-.005v-3.952Z" fill="#f9b59d"/>
            </g>
            <g id="Group_179313" data-name="Group 179313">
              <g id="Group_179310" data-name="Group 179310">
                <path id="Path_45426" data-name="Path 45426" d="M267.423,284.254c-1.654,0-3.622,1.456-4.614,2.627l.6,12.461c4.384-.039,7.985-5.44,8.5-10.005a9.8,9.8,0,0,0,.065-1.084v-1.877C271.516,285.188,268.678,284.254,267.423,284.254Z" fill="#f9b59d"/>
              </g>
              <g id="Group_179311" data-name="Group 179311">
                <path id="Path_45427" data-name="Path 45427" d="M270.185,279.982a23.914,23.914,0,0,1-13.678,4.272c-.59,0-1.171-.027-1.747-.071a8.627,8.627,0,0,0-.071,1.046v3.024a10.04,10.04,0,0,0,.064,1.084c.516,4.59,4.158,10.007,8.577,10.007l.079,0v-5.657a.981.981,0,0,0,.913-1.019v-5.58s.117-.148.321-.364a5.063,5.063,0,0,1,3.231-1.8,5.511,5.511,0,0,1,4.1,1.45v-1.147A8.587,8.587,0,0,0,270.185,279.982Z" fill="#ffcab3"/>
              </g>
              <g id="Group_179312" data-name="Group 179312">
                <path id="Path_45428" data-name="Path 45428" d="M272.681,277.992a11.3,11.3,0,0,0-20.561,5.857c-.011.2-.018.4-.018.609v2.264a2.617,2.617,0,0,0,2.6,2.615h.05a10.04,10.04,0,0,1-.064-1.084v-3.024a8.627,8.627,0,0,1,.071-1.046c.576.044,1.157.071,1.747.071a23.894,23.894,0,0,0,13.68-4.276l0,0a8.587,8.587,0,0,1,1.787,5.247v3.024a9.8,9.8,0,0,1-.065,1.084h.208a2.617,2.617,0,0,0,2.6-2.615v-2.264A11.251,11.251,0,0,0,272.681,277.992Z" fill="#1e1e1e"/>
              </g>
            </g>
            <g id="Group_179314" data-name="Group 179314">
              <path id="Path_45429" data-name="Path 45429" d="M259.154,300.029h-.039v2.489l.891,2.233,3.4-3.4A7.5,7.5,0,0,1,259.154,300.029Z" fill="#fff"/>
            </g>
            <g id="Group_179315" data-name="Group 179315">
              <path id="Path_45430" data-name="Path 45430" d="M267.69,302.518h-.018v-2.489h-.006a7.509,7.509,0,0,1-4.257,1.319l3.372,3.372Z" fill="#e2e3e4"/>
            </g>
            <g id="Group_179316" data-name="Group 179316">
              <path id="Path_45431" data-name="Path 45431" d="M272.3,300.029h-4.631l.018,2.489-2.386,5.789-1.895-6.959-1.932,7.1-2.362-5.925-3.509,3.509,7.062,7.062h17.176V307.57A7.541,7.541,0,0,0,272.3,300.029Z" fill="#00b3ff"/>
            </g>
            <g id="Group_179319" data-name="Group 179319">
              <g id="Group_179317" data-name="Group 179317">
                <path id="Path_45432" data-name="Path 45432" d="M259.115,300.029h-2.489l2.489,2.488Z" fill="#00b3ff"/>
              </g>
              <g id="Group_179318" data-name="Group 179318">
                <path id="Path_45433" data-name="Path 45433" d="M255.606,306.027l3.509-3.509-2.489-2.489h-2.138a7.54,7.54,0,0,0-7.54,7.54v0a5.515,5.515,0,0,0,5.516,5.516h10.2Z" fill="#66d1ff"/>
              </g>
            </g>
            <g id="Group_179320" data-name="Group 179320">
              <rect id="Rectangle_163479" data-name="Rectangle 163479" width="2.741" height="2.741" transform="translate(261.471 303.285) rotate(-44.97)" fill="#66d1ff"/>
            </g>
          </g>
          <g id="Group_179337" data-name="Group 179337">
            <g id="Group_179322" data-name="Group 179322">
              <path id="Path_45434" data-name="Path 45434" d="M302.491,304.72l-3.373-3.372,1.892,6.959Z" fill="#fff"/>
            </g>
            <g id="Group_179323" data-name="Group 179323">
              <path id="Path_45435" data-name="Path 45435" d="M295.715,304.751l1.474,3.692,1.93-7.1Z" fill="#e2e3e4"/>
            </g>
            <g id="Group_179324" data-name="Group 179324">
              <path id="Path_45436" data-name="Path 45436" d="M297.208,300.029l-2.384-2.383v2.383h.037a7.52,7.52,0,0,0,3.638,1.293Z" fill="#ffcab3"/>
            </g>
            <g id="Group_179325" data-name="Group 179325">
              <path id="Path_45437" data-name="Path 45437" d="M294.824,296.077v1.569l2.384,2.383,1.291,1.293c.2.015.412.026.619.026.135,0,.268-.009.4-.016a7.483,7.483,0,0,0,3.846-1.3l.016-.005v-3.952Z" fill="#f9b59d"/>
            </g>
            <g id="Group_179329" data-name="Group 179329">
              <g id="Group_179326" data-name="Group 179326">
                <path id="Path_45438" data-name="Path 45438" d="M303.131,284.254c-1.654,0-3.621,1.456-4.612,2.627l.6,12.461c4.384-.039,7.985-5.44,8.5-10.005a9.789,9.789,0,0,0,.064-1.084v-1.877C307.226,285.188,304.388,284.254,303.131,284.254Z" fill="#f9b59d"/>
              </g>
              <g id="Group_179327" data-name="Group 179327">
                <path id="Path_45439" data-name="Path 45439" d="M305.894,279.982a23.916,23.916,0,0,1-13.678,4.272c-.589,0-1.17-.027-1.748-.071a8.628,8.628,0,0,0-.069,1.046v3.024a10.053,10.053,0,0,0,.065,1.084c.514,4.59,4.157,10.007,8.576,10.007l.078,0v-5.657a.981.981,0,0,0,.914-1.019v-5.58s.118-.148.32-.364a5.066,5.066,0,0,1,3.23-1.8,5.508,5.508,0,0,1,4.1,1.45v-1.147A8.6,8.6,0,0,0,305.894,279.982Z" fill="#ffcab3"/>
              </g>
              <g id="Group_179328" data-name="Group 179328">
                <path id="Path_45440" data-name="Path 45440" d="M308.391,277.992a11.3,11.3,0,0,0-20.561,5.857c-.012.2-.018.4-.018.609v2.264a2.616,2.616,0,0,0,2.6,2.615h.053a10.053,10.053,0,0,1-.065-1.084v-3.024a8.628,8.628,0,0,1,.069-1.046c.578.044,1.159.071,1.748.071a23.894,23.894,0,0,0,13.68-4.276l0,0a8.6,8.6,0,0,1,1.786,5.247v3.024a9.789,9.789,0,0,1-.064,1.084h.209a2.616,2.616,0,0,0,2.6-2.615v-2.264A11.257,11.257,0,0,0,308.391,277.992Z" fill="#1e1e1e"/>
              </g>
            </g>
            <g id="Group_179330" data-name="Group 179330">
              <path id="Path_45441" data-name="Path 45441" d="M294.861,300.029h-.037v2.489l.891,2.233,3.4-3.4A7.509,7.509,0,0,1,294.861,300.029Z" fill="#fff"/>
            </g>
            <g id="Group_179331" data-name="Group 179331">
              <path id="Path_45442" data-name="Path 45442" d="M303.4,302.518h-.018v-2.489h-.006a7.509,7.509,0,0,1-4.257,1.319l3.373,3.372Z" fill="#e2e3e4"/>
            </g>
            <g id="Group_179332" data-name="Group 179332">
              <path id="Path_45443" data-name="Path 45443" d="M308.011,300.029h-4.629l.017,2.489-2.388,5.789-1.893-6.959-1.93,7.1-2.364-5.925-3.509,3.509,7.062,7.062h11.659a5.515,5.515,0,0,0,5.516-5.516h0v0A7.541,7.541,0,0,0,308.011,300.029Z" fill="#1e1e1e"/>
            </g>
            <g id="Group_179335" data-name="Group 179335">
              <g id="Group_179333" data-name="Group 179333">
                <path id="Path_45444" data-name="Path 45444" d="M294.824,300.029h-2.489l2.489,2.488Z" fill="#1e1e1e"/>
              </g>
              <g id="Group_179334" data-name="Group 179334">
                <path id="Path_45445" data-name="Path 45445" d="M291.315,306.027l3.509-3.509-2.489-2.489H290.2a7.543,7.543,0,0,0-7.541,7.541v5.519h15.721Z" fill="#3c3c3b"/>
              </g>
            </g>
            <g id="Group_179336" data-name="Group 179336">
              <rect id="Rectangle_163480" data-name="Rectangle 163480" width="2.74" height="2.74" transform="translate(297.18 303.286) rotate(-44.985)" fill="#3c3c3b"/>
            </g>
          </g>
          <g id="Group_179342" data-name="Group 179342">
            <g id="Group_179338" data-name="Group 179338">
              <path id="Path_45446" data-name="Path 45446" d="M291.533,297.871l-3.1,2.061a14.9,14.9,0,0,0-7.036-1.684c-6.521,0-11.807,3.829-11.807,8.556s5.286,8.555,11.807,8.555,11.809-3.83,11.809-8.555a6.848,6.848,0,0,0-1.635-4.344l1.222-3.621A.841.841,0,0,0,291.533,297.871Z" fill="#ff6800"/>
            </g>
            <g id="Group_179339" data-name="Group 179339">
              <path id="Path_45447" data-name="Path 45447" d="M277.008,306.8a1.711,1.711,0,1,1-1.711-1.713A1.711,1.711,0,0,1,277.008,306.8Z" fill="#fff"/>
            </g>
            <g id="Group_179340" data-name="Group 179340">
              <path id="Path_45448" data-name="Path 45448" d="M283.111,306.8a1.711,1.711,0,1,1-1.712-1.713A1.712,1.712,0,0,1,283.111,306.8Z" fill="#fff"/>
            </g>
            <g id="Group_179341" data-name="Group 179341">
              <path id="Path_45449" data-name="Path 45449" d="M289.215,306.8a1.712,1.712,0,1,1-1.712-1.713A1.712,1.712,0,0,1,289.215,306.8Z" fill="#fff"/>
            </g>
          </g>
          <g id="Group_179347" data-name="Group 179347">
            <g id="Group_179343" data-name="Group 179343">
              <path id="Path_45450" data-name="Path 45450" d="M271.264,293.159l3.1-2.06a14.933,14.933,0,0,0,7.036,1.683c6.522,0,11.809-3.831,11.809-8.555s-5.287-8.556-11.809-8.556-11.807,3.832-11.807,8.556a6.837,6.837,0,0,0,1.634,4.343L270,292.191A.84.84,0,0,0,271.264,293.159Z" fill="#00b3ff"/>
            </g>
            <g id="Group_179344" data-name="Group 179344">
              <path id="Path_45451" data-name="Path 45451" d="M285.788,284.227a1.712,1.712,0,1,1,1.711,1.713A1.712,1.712,0,0,1,285.788,284.227Z" fill="#fff"/>
            </g>
            <g id="Group_179345" data-name="Group 179345">
              <path id="Path_45452" data-name="Path 45452" d="M279.685,284.227a1.712,1.712,0,1,1,1.712,1.713A1.711,1.711,0,0,1,279.685,284.227Z" fill="#fff"/>
            </g>
            <g id="Group_179346" data-name="Group 179346">
              <path id="Path_45453" data-name="Path 45453" d="M273.582,284.227a1.712,1.712,0,1,1,1.712,1.713A1.712,1.712,0,0,1,273.582,284.227Z" fill="#fff"/>
            </g>
          </g>
        </g>
        <g id="Group_179350" data-name="Group 179350">
          <g id="Group_179349" data-name="Group 179349">
            <path id="Path_45454" data-name="Path 45454" d="M305.5,288.921h-.834a.951.951,0,1,0-1.9,0h-.833a1.785,1.785,0,1,1,3.569,0Z" fill="#1e1e1e"/>
          </g>
        </g>
        <g id="Group_179352" data-name="Group 179352">
          <g id="Group_179351" data-name="Group 179351">
            <path id="Path_45455" data-name="Path 45455" d="M296.938,288.921H296.1a.951.951,0,0,0-1.9,0h-.833a1.785,1.785,0,1,1,3.569,0Z" fill="#1e1e1e"/>
          </g>
        </g>
        <g id="Group_179354" data-name="Group 179354">
          <g id="Group_179353" data-name="Group 179353">
            <path id="Path_45456" data-name="Path 45456" d="M261.624,295.185h.833a.951.951,0,0,0,1.9,0h.834a1.785,1.785,0,0,1-3.57,0Z" fill="#1e1e1e"/>
          </g>
        </g>
        <g id="Group_179355" data-name="Group 179355">
          <path id="Path_45457" data-name="Path 45457" d="M299.951,296.077a.832.832,0,1,1-.833-.832A.833.833,0,0,1,299.951,296.077Z" fill="#1e1e1e"/>
        </g>
        <g id="Group_179356" data-name="Group 179356">
          <path id="Path_45458" data-name="Path 45458" d="M268.8,288.936a.964.964,0,1,1-.964-.963A.964.964,0,0,1,268.8,288.936Z" fill="#1e1e1e"/>
        </g>
        <g id="Group_179357" data-name="Group 179357">
          <path id="Path_45459" data-name="Path 45459" d="M260.235,288.936a.963.963,0,1,1-.964-.963A.963.963,0,0,1,260.235,288.936Z" fill="#1e1e1e"/>
        </g>
      </g>
    </g>
  </g>
</svg>
