<svg xmlns="http://www.w3.org/2000/svg" width="172.119" height="172.119" viewBox="0 0 172.119 172.119">
  <g id="Group_180523" data-name="Group 180523" transform="translate(-626.94 -2030)">
    <g id="Group_179012" data-name="Group 179012" transform="translate(-314.9 439.061)">
      <rect id="Rectangle_163442" data-name="Rectangle 163442" width="126" height="126" rx="44" transform="translate(1004.841 1590.939) rotate(30)" fill="#5d4845" opacity="0.2"/>
      <rect id="Rectangle_163441" data-name="Rectangle 163441" width="126" height="126" rx="44" transform="matrix(0.966, 0.259, -0.259, 0.966, 974.452, 1599.841)" fill="#5d4845"/>
    </g>
    <g id="Group_179370" data-name="Group 179370" transform="translate(629.719 2038.701)">
      <g id="Group_179361" data-name="Group 179361" transform="translate(96.353 61.658)">
        <g id="Group_179360" data-name="Group 179360">
          <path id="Path_45460" data-name="Path 45460" d="M114.964,96.545l-.356-.125,10.358-29.293.355.126Z" transform="translate(-114.608 -67.127)" fill="#f4d17a"/>
        </g>
      </g>
      <g id="Group_179363" data-name="Group 179363" transform="translate(106.948 61.656)">
        <g id="Group_179362" data-name="Group 179362">
          <rect id="Rectangle_163481" data-name="Rectangle 163481" width="0.377" height="31.239" transform="matrix(0.938, -0.347, 0.347, 0.938, 0, 0.131)" fill="#f4d17a"/>
        </g>
      </g>
      <g id="Group_179365" data-name="Group 179365" transform="translate(106.83 61.719)">
        <g id="Group_179364" data-name="Group 179364">
          <rect id="Rectangle_163482" data-name="Rectangle 163482" width="0.377" height="30.242" fill="#f4d17a"/>
        </g>
      </g>
      <path id="Path_45461" data-name="Path 45461" d="M121.573,62.138c-1.417-1.352-3.572-.185-3.572-.185-6.717,3.906-11.2-1-11.2-1-6.522-5.768-11.259-3.219-11.259-3.219l.01,2.8c3.553-1.044,6.065-.668,9.075,1.674a17.461,17.461,0,0,0,5.434,3.009c4.264,1.046,8.171-2.939,9.628-2.924s1.863.625,1.557,1.216-1.147.422-1.147.422l.013.329C121.538,64.6,122.493,63.017,121.573,62.138Z" transform="translate(-13.44 -2.954)" fill="#f4d17a"/>
      <path id="Rectangle_163483" data-name="Rectangle 163483" d="M0,0H21.985a0,0,0,0,1,0,0V0a5.143,5.143,0,0,1-5.143,5.143H5.143A5.143,5.143,0,0,1,0,0V0A0,0,0,0,1,0,0Z" transform="translate(96.262 90.795)" fill="#f4d17a"/>
      <rect id="Rectangle_163484" data-name="Rectangle 163484" width="0.474" height="0.865" transform="translate(106.77 60.874)" fill="#f4c767"/>
      <rect id="Rectangle_163485" data-name="Rectangle 163485" width="0.201" height="0.843" transform="translate(107.429 61.617) rotate(90)" fill="#e9b13d"/>
      <g id="Group_179366" data-name="Group 179366" transform="translate(53.494 61.658)">
        <path id="Path_45462" data-name="Path 45462" d="M67.628,96.545,57.27,67.253l.356-.126L67.983,96.42Z" transform="translate(-57.27 -67.127)" fill="#e9b13d"/>
      </g>
      <g id="Group_179367" data-name="Group 179367" transform="translate(42.406 61.655)">
        <rect id="Rectangle_163486" data-name="Rectangle 163486" width="31.239" height="0.377" transform="translate(0 29.293) rotate(-69.672)" fill="#e9b13d"/>
      </g>
      <g id="Group_179368" data-name="Group 179368" transform="translate(53.354 61.719)">
        <rect id="Rectangle_163487" data-name="Rectangle 163487" width="0.377" height="30.242" fill="#e9b13d"/>
      </g>
      <path id="Path_45463" data-name="Path 45463" d="M55.723,62.138c1.416-1.352,3.571-.185,3.571-.185,6.717,3.906,11.2-1,11.2-1,6.521-5.768,11.259-3.219,11.259-3.219l-.009,2.8c-3.554-1.044-6.067-.668-9.076,1.674a17.461,17.461,0,0,1-5.434,3.009c-4.264,1.046-8.172-2.939-9.628-2.924s-1.863.625-1.558,1.216,1.147.422,1.147.422l-.013.329C55.757,64.6,54.8,63.017,55.723,62.138Z" transform="translate(-3.294 -2.954)" fill="#e9b13d"/>
      <path id="Rectangle_163488" data-name="Rectangle 163488" d="M5.143,0h11.7a5.143,5.143,0,0,1,5.143,5.143v0a0,0,0,0,1,0,0H0a0,0,0,0,1,0,0v0A5.143,5.143,0,0,1,5.143,0Z" transform="translate(64.298 95.938) rotate(180)" fill="#e9b13d"/>
      <rect id="Rectangle_163489" data-name="Rectangle 163489" width="0.473" height="0.865" transform="translate(53.79 61.74) rotate(180)" fill="#e0a337"/>
      <rect id="Rectangle_163490" data-name="Rectangle 163490" width="0.201" height="0.805" transform="translate(53.957 61.617) rotate(90)" fill="#f4d17a"/>
      <g id="Group_179369" data-name="Group 179369" transform="translate(66.813 45.472)">
        <rect id="Rectangle_163491" data-name="Rectangle 163491" width="1.424" height="0.887" transform="translate(12.011 14.452)" fill="#e0a337"/>
        <rect id="Rectangle_163492" data-name="Rectangle 163492" width="1.461" height="0.887" transform="translate(13.435 14.452)" fill="#f4c767"/>
        <path id="Path_45464" data-name="Path 45464" d="M94.523,65.993H93.062v.544H95.22v-.544Z" transform="translate(-79.628 -50.654)" fill="#f4c767"/>
        <path id="Path_45465" data-name="Path 45465" d="M90.9,65.993h-.766v.544h2.19v-.544Z" transform="translate(-78.888 -50.654)" fill="#e0a337"/>
        <path id="Path_45466" data-name="Path 45466" d="M91.574,111.057H89.849v-.119a4.471,4.471,0,0,0-2.68,4.1V118h4.4Z" transform="translate(-78.139 -62.003)" fill="#e0a337"/>
        <path id="Path_45467" data-name="Path 45467" d="M93.062,111.035v6.945H97.6v-2.968a4.47,4.47,0,0,0-2.843-4.162v.185Z" transform="translate(-79.627 -61.981)" fill="#f4c767"/>
        <path id="Path_45468" data-name="Path 45468" d="M90.754,66.72V99.892H92.48V66.72Z" transform="translate(-79.045 -50.837)" fill="#e9b13d"/>
        <path id="Path_45469" data-name="Path 45469" d="M93.062,66.72V99.892h1.7V66.72Z" transform="translate(-79.628 -50.837)" fill="#f4d17a"/>
        <path id="Path_45470" data-name="Path 45470" d="M86.124,120.388H83.03v3.844h7.5v-3.844Z" transform="translate(-77.094 -64.389)" fill="#e9b13d"/>
        <path id="Path_45471" data-name="Path 45471" d="M97.6,120.388h-4.54v3.844H100.7v-3.844Z" transform="translate(-79.628 -64.389)" fill="#f4d17a"/>
        <path id="Path_45472" data-name="Path 45472" d="M81.025,125.616v-.085H79.019a3.929,3.929,0,0,0-3.93,3.93H88.524v-3.844Z" transform="translate(-75.089 -65.688)" fill="#e0a337"/>
        <path id="Path_45473" data-name="Path 45473" d="M102.7,125.531H100.7v.085H93.062v3.844h13.569A3.929,3.929,0,0,0,102.7,125.531Z" transform="translate(-79.627 -65.688)" fill="#f4c767"/>
        <rect id="Rectangle_163493" data-name="Rectangle 163493" width="7.633" height="0.085" transform="translate(13.435 59.843)" fill="#f4d17a"/>
        <rect id="Rectangle_163494" data-name="Rectangle 163494" width="7.499" height="0.085" transform="translate(5.936 59.843)" fill="#dcb956"/>
        <path id="Path_45474" data-name="Path 45474" d="M93.062,54.741h.718V53.505a3.06,3.06,0,0,1-.718.111Z" transform="translate(-79.627 -47.5)" fill="#f4c767"/>
        <path id="Path_45475" data-name="Path 45475" d="M92.788,53.627c-.037,0-.073.006-.11.006a3.046,3.046,0,0,1-.7-.084v1.2h.811Z" transform="translate(-79.353 -47.512)" fill="#e0a337"/>
        <path id="Path_45476" data-name="Path 45476" d="M91.611,55.159H90.527V62.37h1.9V55.159Z" transform="translate(-78.987 -47.918)" fill="#e9b13d"/>
        <path id="Path_45477" data-name="Path 45477" d="M93.78,55.159h-.718V62.37H94.93V55.159Z" transform="translate(-79.628 -47.918)" fill="#f4d17a"/>
        <path id="Path_45478" data-name="Path 45478" d="M93.062,45.48v6.109a3.056,3.056,0,0,0,0-6.109Z" transform="translate(-79.627 -45.474)" fill="#f4d17a"/>
        <path id="Path_45479" data-name="Path 45479" d="M91.881,45.472a3.061,3.061,0,0,0,0,6.121c.037,0,.073-.005.11-.006V45.478C91.954,45.476,91.918,45.472,91.881,45.472Z" transform="translate(-78.556 -45.472)" fill="#e9b13d"/>
      </g>
    </g>
  </g>
</svg>
