<svg xmlns="http://www.w3.org/2000/svg" width="172.119" height="172.119" viewBox="0 0 172.119 172.119">
  <g id="Group_180525" data-name="Group 180525" transform="translate(-1063.94 -2415)">
    <g id="Group_179014" data-name="Group 179014" transform="translate(122.1 824.061)">
      <rect id="Rectangle_163442" data-name="Rectangle 163442" width="126" height="126" rx="44" transform="translate(1004.841 1590.939) rotate(30)" fill="#f8d290" opacity="0.2"/>
      <rect id="Rectangle_163441" data-name="Rectangle 163441" width="126" height="126" rx="44" transform="matrix(0.966, 0.259, -0.259, 0.966, 974.452, 1599.841)" fill="#f8d290"/>
    </g>
    <g id="Group_180098" data-name="Group 180098" transform="translate(971.713 2097.854)">
      <g id="Group_180097" data-name="Group 180097" transform="translate(166.642 362.228)">
        <path id="Path_48177" data-name="Path 48177" d="M176.265,373.081s-1.652-2.028-3.282-2.262-2.388.941-2.056,1.667a7.384,7.384,0,0,0,1.355,1.673,8.132,8.132,0,0,0,1.82,1.741C174.857,376.281,176.265,373.081,176.265,373.081Z" transform="translate(-149.41 -359.032)" fill="#e2c7b5"/>
        <path id="Path_48178" data-name="Path 48178" d="M190.171,372.669s-2.362,2.483-2.276,4.789-3.848,1.912-4.9,1.383c-.883-.446-7.291-6.573-7.291-6.573l-2.633,3.429s7.561,8.133,9.157,8.512c.494.117,2.418,1.21,4.283.7,3.779-1.03,8.321-4.8,7.277-9.757C192.709,370.121,190.171,372.669,190.171,372.669Z" transform="translate(-148.581 -358.571)" fill="#14546e"/>
        <g id="Group_180094" data-name="Group 180094" transform="translate(9.442 17.517)">
          <g id="Group_180093" data-name="Group 180093" transform="translate(0.379)">
            <rect id="Rectangle_163514" data-name="Rectangle 163514" width="5.179" height="1.509" transform="matrix(0.833, -0.553, 0.553, 0.833, 0, 7.424)" fill="#525252"/>
            <path id="Rectangle_163515" data-name="Rectangle 163515" d="M.583,0h6.96a.581.581,0,0,1,.581.581V2.52a.581.581,0,0,1-.581.581H.582A.582.582,0,0,1,0,2.519V.583A.583.583,0,0,1,.583,0Z" transform="matrix(0.833, -0.554, 0.554, 0.833, 2.966, 4.499)" fill="#fdaf3a"/>
            <rect id="Rectangle_163516" data-name="Rectangle 163516" width="0.895" height="1.511" transform="translate(1.49 6.434) rotate(-33.628)" fill="#8a8a8a"/>
          </g>
          <path id="Path_48179" data-name="Path 48179" d="M163.709,383.185h-1.6l.38-2.795h1.215Z" transform="translate(-162.113 -372.964)" fill="#525252"/>
        </g>
        <g id="Group_180096" data-name="Group 180096" transform="translate(34.098)">
          <g id="Group_180095" data-name="Group 180095">
            <path id="Path_48180" data-name="Path 48180" d="M187.089,371.041c-.525-1.051.548-.041-.54-.238-.957-.177-3.106-4.811-4.07-4.754-.678.04-1.761.125-2.013-.317.025-.8-.42-1.055.044-1.829a3.423,3.423,0,0,1,2.328-1.331c2.019-.349,3.947-.871,5.652.983,1.815,1.971,1.862,3.274,1.7,5.648a20.2,20.2,0,0,1-.994,4.208C187.575,372.988,187.818,372.495,187.089,371.041Z" transform="translate(-179.982 -362.228)" fill="#31130b"/>
            <path id="Path_48181" data-name="Path 48181" d="M180.552,364.826c.689-.084,1.335.357,2.013.317.964-.056,1.5-.911,2.2-.223.626.625.591,4.267,2.076,4.171.273-.019.08-.916.216-1.435.729,1.454,1.691,3.726,2.227,4.849-.514,1.87-1.9,2.66-3.461,2.214a6.28,6.28,0,0,1-1.064-.825c-.53-.453-.851.621-2.033-.069a4.009,4.009,0,0,1-1.8-2.66c-.147-.354-.762-.352-.821-.695-.2-1.173.536-2.41.336-4.305C180.476,365.9,180.547,365.065,180.552,364.826Z" transform="translate(-180.068 -361.322)" fill="#ffe2c2"/>
          </g>
          <path id="Path_48182" data-name="Path 48182" d="M185.169,367.2c-.176,1,.163,1.887.757,1.993s1.217-.618,1.391-1.612-.129-1.572-.721-1.675S185.343,366.2,185.169,367.2Z" transform="translate(-178.181 -360.862)" fill="#ffe2c2"/>
        </g>
        <path id="Path_48183" data-name="Path 48183" d="M181.135,395.225l1.583,32.42h2.5l-2.147-32.42Z" transform="translate(-145.571 -349.91)" fill="#262c2d"/>
        <path id="Path_48184" data-name="Path 48184" d="M181.027,423.052c-2.13,0-2.979-1.4-2.77-1.825s1.14-.452,2.133-.573a5.7,5.7,0,0,0,3.479-1.822h5.9l-.058,1.229.368,2.387c0,.385-.86.6-2.582.6,0-.411-.533-.492-.533-.492Z" transform="translate(-146.656 -341.097)"/>
        <path id="Path_48185" data-name="Path 48185" d="M183.174,423.052c-2.131,0-2.98-1.4-2.767-1.825s1.14-.452,2.134-.573a5.676,5.676,0,0,0,3.473-1.822h5.9l-.055,1.229.368,2.387c0,.385-.858.6-2.579.6,0-.411-.536-.492-.536-.492Z" transform="translate(-145.854 -341.097)" fill="#262c2d"/>
        <path id="Path_48186" data-name="Path 48186" d="M188.958,370.786l-.341-.415a44.573,44.573,0,0,0-4.362,2.214c-1.206,1.105-1.645,2.525-2.225,4.877C180.531,383.581,188.958,370.786,188.958,370.786Z" transform="translate(-145.303 -359.188)" fill="#1f8dc2"/>
        <path id="Path_48187" data-name="Path 48187" d="M189.134,370.371s4.5,5.2,4.741,10.438-1.307,10.7,0,15.351a15.075,15.075,0,0,1,.026,8.343H180.466s.477-22.617,1.791-26.311S185.582,373.755,189.134,370.371Z" transform="translate(-145.82 -359.188)" fill="#0f3f52"/>
        <path id="Path_48188" data-name="Path 48188" d="M192.588,395.225s-.584,6.375-.707,7.984c-.247,3.263,0,24.435,0,24.435H184.95l-3.1-32.419Z" transform="translate(-145.303 -349.91)" fill="#3b3b3b"/>
        <rect id="Rectangle_163517" data-name="Rectangle 163517" width="28.848" height="48.965" transform="translate(0.756 32.989)" fill="#94847b"/>
        <path id="Path_48189" data-name="Path 48189" d="M184.636,395.312l-28.848-7.926h28.848Z" transform="translate(-155.033 -352.836)" fill="#73665f"/>
        <path id="Path_48190" data-name="Path 48190" d="M191.148,393.894l-35.91-4.45v-7.572h6.725l29.185,4.448Z" transform="translate(-155.238 -354.894)" fill="#a3a3a3"/>
        <path id="Path_48191" data-name="Path 48191" d="M175.315,383.425s-2.53-.672-3.985.1-1.379,2.163-.684,2.554a7.26,7.26,0,0,0,2.079.558,8.139,8.139,0,0,0,2.5.339C176.056,386.839,175.315,383.425,175.315,383.425Z" transform="translate(-149.666 -354.416)" fill="#e2c7b5"/>
        <path id="Path_48192" data-name="Path 48192" d="M189.885,374.431s-2.362,2.484-2.276,4.79-2.547,6.659-3.17,7.428-10.485-.173-10.485-.173l-.115,4.322s12.752,1.483,13.69.137,7.534-6.621,5.974-14.02C192.422,371.884,189.885,374.431,189.885,374.431Z" transform="translate(-148.294 -357.913)" fill="#14546e"/>
      </g>
      <path id="Path_48193" data-name="Path 48193" d="M156.631,404.967c-.1-.243-.2-.448-.309-.662a13.913,13.913,0,0,0-1.218-3.344,1.263,1.263,0,0,0,.22-.162c.369-.424.753.393,1.614-.3a3.222,3.222,0,0,0,1.125-2.332c.073-.3.382-.25.389-.534.025-.956-.527-1.971-.592-3.5a5.073,5.073,0,0,1-.14-.6c-.113-.64.106-1.344-.357-1.912a2.76,2.76,0,0,0-2.01-.783c-1.649-.041-3.246-.229-4.39,1.447-1.214,1.787-1.1,2.829-.688,4.7a7.906,7.906,0,0,0,.72,2.135c-.007.008-.014.018-.03.041l-.036-.01v.055a19.392,19.392,0,0,0-2.541,4.6,17.845,17.845,0,0,0-.715-3.418c-.08-.2-.166-.356-.249-.534-.008-.019-.008-.038-.016-.062-.563-1.934-.972-3.693-2.013-4.57a1.208,1.208,0,0,0-.3-.168,1.39,1.39,0,0,0,.471-.35c.39-.448.8.422,1.717-.31a3.464,3.464,0,0,0,1.2-2.487c.076-.317.409-.266.412-.567.026-1.02-.563-2.1-.632-3.735-.023-.08-.034-.152-.054-.231a2.467,2.467,0,0,0,.486-.069c.658-.2-.291-3.038-1.625-3.658a3.69,3.69,0,0,0-2.8.07c-.691.187-1.98-.154-2.351.551a2.183,2.183,0,0,0-2.2,2.195c-.019.812-.521,1.244-.343,1.989.152.662.2,1.366.3,2.044a10.447,10.447,0,0,1-.174,3.443,4.64,4.64,0,0,0,.867,2.155,14.449,14.449,0,0,0-2.265,6.879c-.015,4.366,1.214,7.164.288,11.072-.06.257-.113.508-.155.757a38.26,38.26,0,0,0-1.3-7.443c-.14-.352-.287-.666-.441-.97a18.893,18.893,0,0,0-1.62-4.466,1.891,1.891,0,0,0,.279-.258c.5-.575,1.026.54,2.2-.4a4.415,4.415,0,0,0,1.537-3.185c.1-.407.52-.342.53-.725.033-1.307-.721-2.694-.809-4.787a6.886,6.886,0,0,1-.191-.818c-.155-.871.144-1.833-.489-2.608a3.764,3.764,0,0,0-2.744-1.068c-2.254-.056-4.433-.313-5.993,1.975-1.658,2.439-1.5,3.863-.941,6.416a10.683,10.683,0,0,0,.985,2.917c-.011.012-.021.026-.043.055l-.049-.008,0,.07c-.684.9-4.447,6.086-4.466,11.17-.016,4.209.871,5.7.806,8.306v16.967H158.5V418.968C158.2,415.128,157.493,407.1,156.631,404.967Z" transform="translate(0 7.9)" fill="#7e8b8c"/>
    </g>
  </g>
</svg>
