<svg xmlns="http://www.w3.org/2000/svg" width="172.119" height="172.119" viewBox="0 0 172.119 172.119">
  <g id="Group_180526" data-name="Group 180526" transform="translate(-626.94 -2415)">
    <g id="Group_179015" data-name="Group 179015" transform="translate(-314.9 824.061)">
      <rect id="Rectangle_163442" data-name="Rectangle 163442" width="126" height="126" rx="44" transform="translate(1004.841 1590.939) rotate(30)" fill="#ffbec5" opacity="0.2"/>
      <rect id="Rectangle_163441" data-name="Rectangle 163441" width="126" height="126" rx="44" transform="matrix(0.966, 0.259, -0.259, 0.966, 974.452, 1599.841)" fill="#ffbec5"/>
    </g>
    <g id="Group_180149" data-name="Group 180149" transform="translate(317.068 2436.091)">
      <g id="Group_180125" data-name="Group 180125" transform="translate(372.673 28.39)">
        <rect id="Rectangle_163519" data-name="Rectangle 163519" width="47.534" height="36.056" fill="#dbdbdb"/>
        <rect id="Rectangle_163520" data-name="Rectangle 163520" width="47.534" height="32.616" transform="translate(0 1.72)" fill="#f2f2f2"/>
        <g id="Group_180118" data-name="Group 180118" transform="translate(8.244 4.483)">
          <path id="Path_48235" data-name="Path 48235" d="M377.894,35.613v-3.08h.982a1.877,1.877,0,0,1,.488.056.946.946,0,0,1,.338.159.625.625,0,0,1,.2.253.846.846,0,0,1,.063.336.7.7,0,0,1-.036.219.614.614,0,0,1-.108.2.718.718,0,0,1-.18.161.984.984,0,0,1-.255.117.961.961,0,0,1,.51.242.638.638,0,0,1,.171.466.886.886,0,0,1-.071.357.759.759,0,0,1-.212.277.986.986,0,0,1-.339.18,1.557,1.557,0,0,1-.459.063Zm.418-1.7h.55a1.064,1.064,0,0,0,.306-.038.61.61,0,0,0,.213-.108.41.41,0,0,0,.126-.167.544.544,0,0,0,.04-.214.467.467,0,0,0-.164-.4.822.822,0,0,0-.507-.128h-.565Zm0,.3v1.073h.666a1.018,1.018,0,0,0,.306-.04.558.558,0,0,0,.21-.116.45.45,0,0,0,.121-.177.614.614,0,0,0,.039-.225.461.461,0,0,0-.169-.376.789.789,0,0,0-.51-.14Z" transform="translate(-377.894 -32.498)" fill="#5c5c5c"/>
          <path id="Path_48236" data-name="Path 48236" d="M381.646,35.282a.852.852,0,0,0,.342-.064.722.722,0,0,0,.254-.18.82.82,0,0,0,.159-.278,1.078,1.078,0,0,0,.055-.354V32.533h.415v1.872a1.4,1.4,0,0,1-.085.494,1.14,1.14,0,0,1-.243.395,1.1,1.1,0,0,1-.386.262,1.429,1.429,0,0,1-1.024,0,1.141,1.141,0,0,1-.386-.262,1.127,1.127,0,0,1-.244-.395,1.424,1.424,0,0,1-.085-.494V32.533h.415V34.4a1.108,1.108,0,0,0,.055.354.786.786,0,0,0,.159.278.724.724,0,0,0,.256.181A.852.852,0,0,0,381.646,35.282Z" transform="translate(-377.666 -32.498)" fill="#5c5c5c"/>
          <path id="Path_48237" data-name="Path 48237" d="M384.922,33.017a.194.194,0,0,1-.04.049.1.1,0,0,1-.057.015.144.144,0,0,1-.084-.036c-.034-.024-.074-.051-.123-.081a.983.983,0,0,0-.179-.081.768.768,0,0,0-.252-.037.747.747,0,0,0-.247.038.515.515,0,0,0-.18.1.4.4,0,0,0-.108.152.465.465,0,0,0-.037.188.352.352,0,0,0,.063.214.534.534,0,0,0,.168.145,1.279,1.279,0,0,0,.237.1l.27.092c.093.032.183.067.271.106a.95.95,0,0,1,.237.15.681.681,0,0,1,.167.221.731.731,0,0,1,.064.323,1.037,1.037,0,0,1-.07.378.863.863,0,0,1-.2.309.916.916,0,0,1-.325.206,1.187,1.187,0,0,1-.436.076,1.341,1.341,0,0,1-.545-.109,1.264,1.264,0,0,1-.421-.293l.12-.2a.184.184,0,0,1,.043-.039.1.1,0,0,1,.055-.016.171.171,0,0,1,.1.049,1.7,1.7,0,0,0,.145.106,1.181,1.181,0,0,0,.21.107.844.844,0,0,0,.3.048.8.8,0,0,0,.265-.04.557.557,0,0,0,.2-.116.492.492,0,0,0,.123-.177.585.585,0,0,0,.044-.23.39.39,0,0,0-.063-.229.53.53,0,0,0-.167-.15,1.233,1.233,0,0,0-.236-.1l-.27-.086a2.617,2.617,0,0,1-.271-.1.867.867,0,0,1-.236-.15.686.686,0,0,1-.166-.231.874.874,0,0,1,0-.659.807.807,0,0,1,.183-.27.883.883,0,0,1,.3-.19,1.1,1.1,0,0,1,.408-.071,1.307,1.307,0,0,1,.471.082,1.073,1.073,0,0,1,.371.237Z" transform="translate(-377.424 -32.501)" fill="#5c5c5c"/>
          <path id="Path_48238" data-name="Path 48238" d="M385.9,35.613h-.417v-3.08h.417Z" transform="translate(-377.208 -32.498)" fill="#5c5c5c"/>
          <path id="Path_48239" data-name="Path 48239" d="M386.923,32.546a.206.206,0,0,1,.06.058l1.785,2.321c0-.037-.008-.073-.009-.109s0-.069,0-.1V32.533h.365v3.08h-.21a.168.168,0,0,1-.082-.017.2.2,0,0,1-.067-.058l-1.783-2.319c0,.035.005.071.008.1s0,.065,0,.095v2.195h-.366v-3.08h.215A.2.2,0,0,1,386.923,32.546Z" transform="translate(-377.105 -32.498)" fill="#5c5c5c"/>
          <path id="Path_48240" data-name="Path 48240" d="M391.5,32.533v.339h-1.48V33.9h1.2v.326h-1.2v1.051h1.48v.34h-1.9v-3.08Z" transform="translate(-376.836 -32.498)" fill="#5c5c5c"/>
          <path id="Path_48241" data-name="Path 48241" d="M393.5,33.017a.173.173,0,0,1-.04.049.1.1,0,0,1-.057.015.147.147,0,0,1-.084-.036c-.033-.024-.073-.051-.122-.081a1.019,1.019,0,0,0-.179-.081.779.779,0,0,0-.253-.037.736.736,0,0,0-.246.038.51.51,0,0,0-.181.1.415.415,0,0,0-.108.152.464.464,0,0,0-.036.188.352.352,0,0,0,.062.214.527.527,0,0,0,.169.145,1.235,1.235,0,0,0,.236.1l.27.092c.093.032.183.067.272.106a.93.93,0,0,1,.237.15.669.669,0,0,1,.168.221.731.731,0,0,1,.063.323,1.036,1.036,0,0,1-.069.378.867.867,0,0,1-.2.309.917.917,0,0,1-.325.206,1.187,1.187,0,0,1-.436.076,1.341,1.341,0,0,1-.545-.109,1.275,1.275,0,0,1-.421-.293l.12-.2a.167.167,0,0,1,.044-.039.091.091,0,0,1,.053-.016.169.169,0,0,1,.1.049,1.7,1.7,0,0,0,.145.106,1.219,1.219,0,0,0,.21.107.846.846,0,0,0,.3.048.794.794,0,0,0,.264-.04.548.548,0,0,0,.2-.116.509.509,0,0,0,.124-.177.6.6,0,0,0,.043-.23.39.39,0,0,0-.063-.229.53.53,0,0,0-.167-.15,1.234,1.234,0,0,0-.236-.1l-.27-.086a2.623,2.623,0,0,1-.271-.1.884.884,0,0,1-.236-.15.7.7,0,0,1-.166-.231.874.874,0,0,1,0-.659.825.825,0,0,1,.183-.27.883.883,0,0,1,.3-.19,1.106,1.106,0,0,1,.408-.071,1.306,1.306,0,0,1,.471.082,1.088,1.088,0,0,1,.372.237Z" transform="translate(-376.65 -32.501)" fill="#5c5c5c"/>
          <path id="Path_48242" data-name="Path 48242" d="M395.585,33.017a.194.194,0,0,1-.04.049.1.1,0,0,1-.057.015.144.144,0,0,1-.084-.036c-.034-.024-.074-.051-.123-.081a.95.95,0,0,0-.179-.081.767.767,0,0,0-.252-.037.747.747,0,0,0-.248.038.515.515,0,0,0-.18.1.4.4,0,0,0-.108.152.463.463,0,0,0-.036.188.352.352,0,0,0,.062.214.534.534,0,0,0,.168.145,1.28,1.28,0,0,0,.237.1l.27.092c.093.032.183.067.272.106a.949.949,0,0,1,.237.15.667.667,0,0,1,.167.221.73.73,0,0,1,.064.323,1.036,1.036,0,0,1-.069.378.866.866,0,0,1-.2.309.917.917,0,0,1-.325.206,1.187,1.187,0,0,1-.436.076,1.341,1.341,0,0,1-.545-.109,1.265,1.265,0,0,1-.421-.293l.12-.2a.181.181,0,0,1,.043-.039.1.1,0,0,1,.054-.016.169.169,0,0,1,.1.049,1.7,1.7,0,0,0,.145.106,1.18,1.18,0,0,0,.21.107.843.843,0,0,0,.3.048.8.8,0,0,0,.265-.04.557.557,0,0,0,.2-.116.508.508,0,0,0,.124-.177.6.6,0,0,0,.043-.23.39.39,0,0,0-.063-.229.53.53,0,0,0-.167-.15,1.233,1.233,0,0,0-.236-.1l-.27-.086a2.621,2.621,0,0,1-.272-.1.868.868,0,0,1-.236-.15.687.687,0,0,1-.166-.231.874.874,0,0,1,0-.659.808.808,0,0,1,.183-.27.882.882,0,0,1,.3-.19,1.1,1.1,0,0,1,.408-.071,1.307,1.307,0,0,1,.471.082,1.088,1.088,0,0,1,.372.237Z" transform="translate(-376.461 -32.501)" fill="#5c5c5c"/>
          <path id="Path_48243" data-name="Path 48243" d="M397.326,35.613h-.418v-3.08h.418Z" transform="translate(-376.176 -32.498)" fill="#5c5c5c"/>
          <path id="Path_48244" data-name="Path 48244" d="M400.718,34.074a1.734,1.734,0,0,1-.109.63,1.415,1.415,0,0,1-.311.486,1.37,1.37,0,0,1-.479.312,1.661,1.661,0,0,1-.619.111h-1.152v-3.08H399.2a1.661,1.661,0,0,1,.619.11,1.375,1.375,0,0,1,.479.314,1.409,1.409,0,0,1,.311.487A1.728,1.728,0,0,1,400.718,34.074Zm-.427,0a1.528,1.528,0,0,0-.079-.507,1.044,1.044,0,0,0-.219-.378.919.919,0,0,0-.343-.237,1.186,1.186,0,0,0-.449-.082h-.733v2.405h.733a1.186,1.186,0,0,0,.449-.081.932.932,0,0,0,.343-.237,1.025,1.025,0,0,0,.219-.376A1.53,1.53,0,0,0,400.291,34.074Z" transform="translate(-376.073 -32.498)" fill="#5c5c5c"/>
          <path id="Path_48245" data-name="Path 48245" d="M402.915,32.533v.339h-1.478V33.9h1.2v.326h-1.2v1.051h1.478v.34h-1.9v-3.08Z" transform="translate(-375.805 -32.498)" fill="#5c5c5c"/>
          <path id="Path_48246" data-name="Path 48246" d="M405.872,35.613h-.323a.142.142,0,0,1-.091-.027.178.178,0,0,1-.051-.072l-.288-.744h-1.383l-.289.744a.147.147,0,0,1-.051.069.132.132,0,0,1-.091.031h-.322l1.231-3.08h.424Zm-2.019-1.144H405l-.483-1.253a2.13,2.13,0,0,1-.093-.29l-.046.161c-.016.049-.031.093-.045.131Z" transform="translate(-375.627 -32.498)" fill="#5c5c5c"/>
        </g>
        <g id="Group_180124" data-name="Group 180124" transform="translate(5.415 13.018)">
          <g id="Group_180120" data-name="Group 180120">
            <g id="Group_180119" data-name="Group 180119">
              <path id="Path_48247" data-name="Path 48247" d="M382.458,44.033v-3.7a7.1,7.1,0,0,0-4.356,1.414l2.181,3A3.685,3.685,0,0,1,382.458,44.033Z" transform="translate(-375.047 -40.329)" fill="#cf2d2d"/>
              <path id="Path_48248" data-name="Path 48248" d="M379,47.621a3.7,3.7,0,0,1,1.531-3l-2.181-3a7.185,7.185,0,0,0-3.055,5.995,7.41,7.41,0,0,0,7.411,7.409v-3.7A3.705,3.705,0,0,1,379,47.621Z" transform="translate(-375.3 -40.212)" fill="#b8b8b8"/>
              <path id="Path_48249" data-name="Path 48249" d="M385.8,47.124a3.7,3.7,0,0,1-3.7,3.7v3.7a7.409,7.409,0,0,0,7.41-7.409Z" transform="translate(-374.686 -39.715)" fill="#fdaf3a"/>
              <path id="Path_48250" data-name="Path 48250" d="M385.62,47.621h3.707a7.186,7.186,0,0,0-3.056-5.995l-2.178,3A3.7,3.7,0,0,1,385.62,47.621Z" transform="translate(-374.506 -40.212)" fill="#23c7c8"/>
              <path id="Path_48251" data-name="Path 48251" d="M384.272,44.743l2.178-3a7.092,7.092,0,0,0-4.354-1.414v3.7A3.69,3.69,0,0,1,384.272,44.743Z" transform="translate(-374.686 -40.329)" fill="#b8b8b8"/>
            </g>
          </g>
          <g id="Group_180123" data-name="Group 180123" transform="translate(19.679 0.581)">
            <g id="Group_180122" data-name="Group 180122">
              <g id="Group_180121" data-name="Group 180121">
                <rect id="Rectangle_163521" data-name="Rectangle 163521" width="2.733" height="6.151" transform="translate(0 7.986)" fill="#fdaf3a"/>
                <rect id="Rectangle_163522" data-name="Rectangle 163522" width="2.732" height="11.633" transform="translate(3.613 2.503)" fill="#b8b8b8"/>
                <rect id="Rectangle_163523" data-name="Rectangle 163523" width="2.732" height="8.784" transform="translate(7.224 5.353)" fill="#fdaf3a"/>
                <rect id="Rectangle_163524" data-name="Rectangle 163524" width="2.732" height="11.726" transform="translate(10.837 2.41)" fill="#23c7c8"/>
                <rect id="Rectangle_163525" data-name="Rectangle 163525" width="2.732" height="14.137" transform="translate(14.449)" fill="#cf2d2d"/>
              </g>
            </g>
          </g>
        </g>
      </g>
      <g id="Group_180137" data-name="Group 180137" transform="translate(348.179 36.328)">
        <path id="Path_48252" data-name="Path 48252" d="M384.877,57.1c.436.966-.352,2.266-1.76,2.9s-2.9.363-3.338-.6.352-2.267,1.759-2.9S384.44,56.127,384.877,57.1Z" transform="translate(-344.996 -33.821)" fill="#f3ccad"/>
        <g id="Group_180136" data-name="Group 180136">
          <g id="Group_180126" data-name="Group 180126" transform="translate(7.955 16.042)">
            <path id="Path_48253" data-name="Path 48253" d="M364.386,50.5l-8-.118-.909.238-.315.156.077.222,2.486,6.992.725,2.307h4.119l.39-2.175,2.167-7.1.087-.288Z" transform="translate(-355.164 -50.384)" fill="#dbd5d5"/>
          </g>
          <path id="Path_48254" data-name="Path 48254" d="M365.874,50.72,363.62,58.1l-2.454,4.879-2.779-5.011-2.248-7.37c-3.825.756-7.488,2.856-7.488,5.611l-.782,10.326h4.944l.511-2.873-.149,2.873h15.557l.835-5.819,2.679,3.6a2.585,2.585,0,0,0,3.237,1.038l9.116-4.128-1.509-3.26-8.037,2.074-2.04-4.656C371.863,52.992,369.849,51.509,365.874,50.72Z" transform="translate(-347.868 -34.322)" fill="#0f3f52"/>
          <g id="Group_180127" data-name="Group 180127" transform="translate(9.327 13.356)">
            <path id="Path_48255" data-name="Path 48255" d="M362.568,47.92h-4.681a1.337,1.337,0,0,0-1.465,1.145v2.947a1.336,1.336,0,0,0,1.465,1.144h4.681a1.426,1.426,0,0,0,1.429-.9.315.315,0,0,0,.034-.012V49.065A1.334,1.334,0,0,0,362.568,47.92Z" transform="translate(-356.422 -47.92)" fill="#d1ab86"/>
          </g>
          <g id="Group_180128" data-name="Group 180128" transform="translate(5.819 1.21)">
            <path id="Path_48256" data-name="Path 48256" d="M367.39,43.5c-.186-.051-.394.063-.6.3q.01-.172.01-.34a6.3,6.3,0,1,0-12.572,0c0,.112,0,.226.007.34-.2-.233-.408-.348-.592-.3-.445.12-.575,1.15-.3,2.3s.862,1.979,1.305,1.859c.156-.043.273-.2.347-.438,1.07,2.759,3.137,5.258,5.515,5.258s4.444-2.5,5.515-5.258c.074.237.191.4.346.438.444.12,1.026-.711,1.306-1.859S367.831,43.621,367.39,43.5Z" transform="translate(-353.205 -36.78)" fill="#ffe2c2"/>
          </g>
          <g id="Group_180129" data-name="Group 180129" transform="translate(8.902 16.345)">
            <path id="Path_48257" data-name="Path 48257" d="M356.139,50.661s.13,1.158,2.414,1.787.763,2.1.763,2.1l-1.787.342L356.479,53l-.447-1.446Z" transform="translate(-356.032 -50.661)" fill="#fff8f8"/>
          </g>
          <g id="Group_180130" data-name="Group 180130" transform="translate(13.579 16.555)">
            <path id="Path_48258" data-name="Path 48258" d="M364,50.854s-.133,1.156-2.416,1.786-.764,2.1-.764,2.1l1.787.342,1.05-1.892.449-1.446Z" transform="translate(-360.322 -50.854)" fill="#fff8f8"/>
          </g>
          <g id="Group_180131" data-name="Group 180131" transform="translate(5.154 15.845)">
            <path id="Path_48259" data-name="Path 48259" d="M355.751,50.2l-3.156,1.424,5.364,6.382Z" transform="translate(-352.595 -50.203)" fill="#14546e"/>
          </g>
          <g id="Group_180132" data-name="Group 180132" transform="translate(15.752 15.977)">
            <path id="Path_48260" data-name="Path 48260" d="M364.523,50.324l3.038,1.334-5.246,6.471Z" transform="translate(-362.315 -50.324)" fill="#14546e"/>
          </g>
          <g id="Group_180133" data-name="Group 180133" transform="translate(11.669 21.068)">
            <path id="Path_48261" data-name="Path 48261" d="M359.765,54.993l-1.195,4.66,1.628,2.933,1.587-3.151-1.313-4.442Z" transform="translate(-358.57 -54.993)" fill="#1f8dc2"/>
          </g>
          <g id="Group_180134" data-name="Group 180134" transform="translate(11.937 18.918)">
            <path id="Path_48262" data-name="Path 48262" d="M359.168,53.021l1.855.028.344,1.367-.384,1.393h-1.745l-.422-1.3Z" transform="translate(-358.816 -53.021)" fill="#1f8dc2"/>
          </g>
          <g id="Group_180135" data-name="Group 180135" transform="translate(6.727)">
            <path id="Path_48263" data-name="Path 48263" d="M364.293,38.253c.835-4.173-11.64-3.954-10.128,5.645l.763,3.42s.267-3.782.46-5.065,1.095-4.011,7.82-2.871c2.44.882,2.131,2.409,2.389,5.1l.361,2.832.762-3.42S367.615,37.83,364.293,38.253Z" transform="translate(-354.037 -35.671)" fill="#0c0a0a"/>
          </g>
          <path id="Path_48264" data-name="Path 48264" d="M363.308,38.913c0,.578-1.4,1.048-3.137,1.048s-3.135-.47-3.135-1.048,1.4-1.048,3.135-1.048S363.308,38.334,363.308,38.913Z" transform="translate(-347.04 -35.472)" fill="#0c0a0a"/>
        </g>
      </g>
      <g id="Group_180142" data-name="Group 180142" transform="translate(344.428 65.817)">
        <path id="Path_48265" data-name="Path 48265" d="M372.135,94.24H350.8l-3.148-25h27.635Z" transform="translate(-344.137 -62.127)" fill="#94847b"/>
        <path id="Path_48266" data-name="Path 48266" d="M377.771,69.825H345.745a1.316,1.316,0,0,1-1.317-1.316V62.716h34.659v5.793A1.316,1.316,0,0,1,377.771,69.825Z" transform="translate(-344.428 -62.716)" fill="#a3a3a3"/>
        <path id="Path_48267" data-name="Path 48267" d="M348.042,72.354h26.85l.392-3.118H347.649Z" transform="translate(-344.137 -62.127)" fill="#73665f"/>
        <g id="Group_180141" data-name="Group 180141" transform="translate(8.117 7.07)">
          <g id="Group_180138" data-name="Group 180138" transform="translate(0 0)">
            <rect id="Rectangle_163526" data-name="Rectangle 163526" width="0.658" height="20.499" transform="translate(0 0.078) rotate(-6.796)" fill="#73665f"/>
          </g>
          <g id="Group_180139" data-name="Group 180139" transform="translate(15.349 0)">
            <rect id="Rectangle_163527" data-name="Rectangle 163527" width="20.499" height="0.658" transform="translate(0 20.356) rotate(-83.219)" fill="#73665f"/>
          </g>
          <g id="Group_180140" data-name="Group 180140" transform="translate(2.423 20.066)">
            <path id="Path_48268" data-name="Path 48268" d="M367.345,88.26H354.424a.329.329,0,1,1,0-.657h12.921a.329.329,0,1,1,0,.657Z" transform="translate(-354.095 -87.603)" fill="#73665f"/>
          </g>
        </g>
      </g>
      <g id="Group_180148" data-name="Group 180148" transform="translate(350.499 66.335)">
        <path id="Path_48269" data-name="Path 48269" d="M385.357,71.984c-.2.918-.623,1.606-.937,1.536s-.4-.87-.2-1.788.624-1.606.937-1.536S385.56,71.067,385.357,71.984Z" transform="translate(-346.914 -62.559)" fill="#e2c7b5"/>
        <path id="Path_48270" data-name="Path 48270" d="M375.633,71.984c.2.918.623,1.606.938,1.536s.4-.87.2-1.788-.624-1.606-.938-1.536S375.43,71.067,375.633,71.984Z" transform="translate(-347.69 -62.559)" fill="#e2c7b5"/>
        <g id="Group_180147" data-name="Group 180147">
          <g id="Group_180143" data-name="Group 180143" transform="translate(21.475 0.073)">
            <rect id="Rectangle_163528" data-name="Rectangle 163528" width="5.708" height="2.913" transform="translate(8.864 12.367)" fill="#e2c7b5"/>
            <path id="Path_48271" data-name="Path 48271" d="M375.842,71.655c.435,2.948,2.211,5.4,4.935,5.4s4.515-2.453,4.933-5.4c.6-4.222-.664-6.3-4.928-6.3C376.361,65.353,375.3,67.936,375.842,71.655Z" transform="translate(-369.148 -63.069)" fill="#e2c7b5"/>
            <path id="Path_48272" data-name="Path 48272" d="M375.467,70.269a5.9,5.9,0,0,0,2.49,4.015c.759.61,1.313,2.121,2.936,2.121,1.149,0,2.224-1.728,2.851-2.121,1.436-.9,2.061-1.721,2.374-4.015a5.889,5.889,0,0,0-5.31-7.011C378.1,63.258,374.922,66.41,375.467,70.269Z" transform="translate(-369.176 -63.258)" fill="#8d6752"/>
            <path id="Path_48273" data-name="Path 48273" d="M371.752,78.576c.717-.76,5.737-1.868,6.638-1.868h6.038c1.077,0,5.516.6,6.6,1.868,2.086,2.44,2.057,12.018,2.057,12.018l-.305,6.589H370l-.3-6.589S369.546,80.911,371.752,78.576Z" transform="translate(-369.692 -62.043)" fill="#323232"/>
          </g>
          <g id="Group_180145" data-name="Group 180145" transform="translate(43.312)">
            <path id="Path_48274" data-name="Path 48274" d="M405.482,71.984c-.2.918-.621,1.606-.936,1.536s-.4-.87-.2-1.788.624-1.606.937-1.536S405.687,71.067,405.482,71.984Z" transform="translate(-388.408 -62.559)" fill="#e2c7b5"/>
            <path id="Path_48275" data-name="Path 48275" d="M395.343,71.984c.2.918.624,1.606.938,1.536s.4-.87.2-1.788-.622-1.606-.936-1.536S395.14,71.067,395.343,71.984Z" transform="translate(-389.221 -62.559)" fill="#e2c7b5"/>
            <g id="Group_180144" data-name="Group 180144">
              <rect id="Rectangle_163529" data-name="Rectangle 163529" width="5.306" height="2.134" transform="translate(9.068 13.219)" fill="#e2c7b5"/>
              <path id="Path_48276" data-name="Path 48276" d="M395.872,71.655c.434,2.948,2.208,5.4,4.934,5.4s4.515-2.453,4.932-5.4c.6-4.222-.663-6.3-4.926-6.3C396.389,65.353,395.327,67.936,395.872,71.655Z" transform="translate(-389.175 -62.996)" fill="#e2c7b5"/>
              <path id="Path_48277" data-name="Path 48277" d="M395.5,70.275a7.2,7.2,0,0,0,2.9,5,3.9,3.9,0,0,0,2.436,1.132,4.038,4.038,0,0,0,2.7-1.216,7.226,7.226,0,0,0,2.612-4.92c.6-4.379-1.082-7.616-5.308-7.011C396.367,63.132,394.954,66.416,395.5,70.275Z" transform="translate(-389.207 -63.191)" fill="#31130b"/>
              <path id="Path_48278" data-name="Path 48278" d="M391.78,78.576c.72-.76,5.738-1.868,6.639-1.868h6.039c1.077,0,5.516.6,6.6,1.868,2.087,2.44,2.057,12.018,2.057,12.018l-.305,6.589H409.9l-.931-3.068.036,3.068H394.068l-.176-2.623L393,97.182h-2.972l-.306-6.589S389.575,80.911,391.78,78.576Z" transform="translate(-389.719 -61.97)" fill="#2191bf"/>
            </g>
          </g>
          <g id="Group_180146" data-name="Group 180146" transform="translate(0 0.073)">
            <rect id="Rectangle_163530" data-name="Rectangle 163530" width="4.43" height="2.134" transform="translate(9.503 13.146)" fill="#e2c7b5"/>
            <path id="Path_48279" data-name="Path 48279" d="M356.146,71.655c.433,2.948,2.21,5.4,4.935,5.4s4.515-2.453,4.933-5.4c.6-4.222-.664-6.3-4.929-6.3C356.664,65.353,355.6,67.936,356.146,71.655Z" transform="translate(-349.452 -63.069)" fill="#e2c7b5"/>
            <path id="Path_48280" data-name="Path 48280" d="M355.871,70.269c.245,1.738,2.406,7.654-1.17,9.872a18.447,18.447,0,0,0,4.2-2.218c1.14-.763,1.642-2.049,2.306-2.05,4.6,0,4.9-2.545,5.315-5.6.6-4.379-1.047-7.011-5.312-7.011C356.79,63.258,355.327,66.41,355.871,70.269Z" transform="translate(-349.579 -63.258)" fill="#df7e2f"/>
            <path id="Path_48281" data-name="Path 48281" d="M352.056,78.576c.719-.76,5.736-1.868,6.639-1.868h6.038c1.077,0,5.516.6,6.6,1.868,2.088,2.44,2.055,12.018,2.055,12.018l-.3,6.589h-18.6l-.09-4.319-1.264,4.319H350.3l-.3-6.589S349.85,80.911,352.056,78.576Z" transform="translate(-349.996 -62.043)" fill="#23c7c8"/>
          </g>
        </g>
      </g>
    </g>
  </g>
</svg>
