<svg xmlns="http://www.w3.org/2000/svg" width="172.119" height="172.119" viewBox="0 0 172.119 172.119">
  <g id="Group_180527" data-name="Group 180527" transform="translate(-189.94 -2415)">
    <g id="Group_179016" data-name="Group 179016" transform="translate(-751.9 824.061)">
      <rect id="Rectangle_163442" data-name="Rectangle 163442" width="126" height="126" rx="44" transform="translate(1004.841 1590.939) rotate(30)" fill="#b9dcff" opacity="0.2"/>
      <rect id="Rectangle_163441" data-name="Rectangle 163441" width="126" height="126" rx="44" transform="matrix(0.966, 0.259, -0.259, 0.966, 974.452, 1599.841)" fill="#b9dcff"/>
    </g>
    <g id="Group_180117" data-name="Group 180117" transform="translate(-12.183 2430.021)">
      <path id="Path_48194" data-name="Path 48194" d="M305.645,59.864l-.068-.616a12.743,12.743,0,0,0-2.643,1.21c-.506.3-1.465.488-1.9.979-1.083,1.225-1.261,3.4-1.593,5.8C298.588,73.489,305.645,59.864,305.645,59.864Z" transform="translate(17.387 2.879)" fill="#1f8dc2"/>
      <path id="Path_48195" data-name="Path 48195" d="M305.332,59.44s5.031,4.7,5.818,9.9-.184,8.753,1.606,13.247c.777,1.949-1.424,7.942-4.17,9.4-3.584,1.911-8.1.532-8.1.532s-2.11-20.759-1.189-24.578S302.144,63.183,305.332,59.44Z" transform="translate(17.315 2.925)" fill="#262c2d"/>
      <path id="Path_48196" data-name="Path 48196" d="M231.943,59.864l.068-.616a12.785,12.785,0,0,1,2.642,1.21c.507.3,1.466.488,1.9.979,1.084,1.225,1.26,3.4,1.591,5.8C239,73.489,231.943,59.864,231.943,59.864Z" transform="translate(1.379 2.879)" fill="#fdaf3a"/>
      <path id="Path_48197" data-name="Path 48197" d="M233.707,59.44s-5.033,4.7-5.82,9.9.186,8.753-1.606,13.247c-.672,1.685,1.084,8.068,3.292,9.415,3.684,2.247,8.975.64,8.975.64s2.11-20.879,1.19-24.7S236.893,63.183,233.707,59.44Z" transform="translate(0 2.925)" fill="#262c2d"/>
      <g id="Group_180109" data-name="Group 180109" transform="translate(263.688 47.12)">
        <g id="Group_180099" data-name="Group 180099" transform="translate(7.552 15.226)">
          <path id="Path_48198" data-name="Path 48198" d="M271.34,59.537l-7.594-.112-.86.225-.3.15.073.21,2.36,6.636.691,2.19h3.907l.37-2.065,2.058-6.734.082-.274Z" transform="translate(-262.586 -59.425)" fill="#dbd5d5"/>
        </g>
        <path id="Path_48199" data-name="Path 48199" d="M280.671,64.933c0-2.523-3.322-4.465-7.1-5.213l-2.141,7.007L269.1,71.36,266.468,66.6l-2.133-7c-3.631.719-7.106,2.71-7.106,5.326l-.745,9.8h4.692l.488-2.726-.09,2.868,7.8-.142h6.915l-.02-2.849.426,2.849h4.718Z" transform="translate(-256.483 -44.155)" fill="#0f3f52"/>
        <g id="Group_180100" data-name="Group 180100" transform="translate(8.856 12.678)">
          <path id="Path_48200" data-name="Path 48200" d="M269.471,57.365h-4.442a1.265,1.265,0,0,0-1.388,1.085v2.8a1.267,1.267,0,0,0,1.388,1.086h4.442a1.354,1.354,0,0,0,1.357-.858c.011,0,.021,0,.031-.01V58.45A1.264,1.264,0,0,0,269.471,57.365Z" transform="translate(-263.64 -57.365)" fill="#d1ab86"/>
        </g>
        <g id="Group_180101" data-name="Group 180101" transform="translate(5.525 1.149)">
          <path id="Path_48201" data-name="Path 48201" d="M274.41,54.426c-.174-.047-.37.061-.564.283.006-.108.009-.217.009-.323a5.977,5.977,0,1,0-11.932,0c0,.106,0,.215.009.323-.192-.223-.387-.33-.564-.283-.421.115-.543,1.093-.278,2.182s.818,1.877,1.237,1.763c.15-.041.26-.192.329-.417,1.016,2.621,2.977,4.992,5.236,4.992s4.217-2.371,5.231-4.992c.073.225.184.376.333.417.417.114.971-.674,1.236-1.763S274.829,54.541,274.41,54.426Z" transform="translate(-260.948 -48.048)" fill="#ffe2c2"/>
        </g>
        <g id="Group_180102" data-name="Group 180102" transform="translate(8.452 15.514)">
          <path id="Path_48202" data-name="Path 48202" d="M263.412,59.657s.125,1.1,2.293,1.7.724,1.995.724,1.995l-1.694.325-1-1.8-.423-1.371Z" transform="translate(-263.313 -59.657)" fill="#fff8f8"/>
        </g>
        <g id="Group_180103" data-name="Group 180103" transform="translate(12.889 15.714)">
          <path id="Path_48203" data-name="Path 48203" d="M270.391,59.819s-.126,1.1-2.3,1.7-.724,2-.724,2l1.694.323,1-1.8.424-1.372Z" transform="translate(-266.899 -59.819)" fill="#fff8f8"/>
        </g>
        <g id="Group_180104" data-name="Group 180104" transform="translate(4.892 15.04)">
          <path id="Path_48204" data-name="Path 48204" d="M263.433,59.274l-3,1.35,5.092,6.057Z" transform="translate(-260.437 -59.274)" fill="#14546e"/>
        </g>
        <g id="Group_180105" data-name="Group 180105" transform="translate(14.952 15.164)">
          <path id="Path_48205" data-name="Path 48205" d="M270.663,59.375l2.883,1.265-4.98,6.142Z" transform="translate(-268.566 -59.375)" fill="#14546e"/>
        </g>
        <g id="Group_180106" data-name="Group 180106" transform="translate(11.078 19.997)">
          <path id="Path_48206" data-name="Path 48206" d="M266.569,63.28,265.436,67.7l1.543,2.784,1.506-2.991-1.243-4.217Z" transform="translate(-265.436 -63.28)" fill="#1f8dc2"/>
        </g>
        <g id="Group_180107" data-name="Group 180107" transform="translate(11.332 17.957)">
          <path id="Path_48207" data-name="Path 48207" d="M265.977,61.632l1.757.026.329,1.3-.364,1.321H266.04l-.4-1.235Z" transform="translate(-265.641 -61.632)" fill="#1f8dc2"/>
        </g>
        <g id="Group_180108" data-name="Group 180108" transform="translate(6.386)">
          <path id="Path_48208" data-name="Path 48208" d="M271.376,49.57c.794-3.96-11.049-3.752-9.611,5.359l.724,3.244s.251-3.589.437-4.806,1.041-3.806,7.421-2.725c2.316.838,2.021,2.285,2.269,4.844l.339,2.686.725-3.244S274.53,49.169,271.376,49.57Z" transform="translate(-261.644 -47.12)" fill="#0c0a0a"/>
        </g>
        <path id="Path_48209" data-name="Path 48209" d="M270.1,49.95c0,.549-1.333.994-2.975.994s-2.978-.444-2.978-.994,1.334-.995,2.978-.995S270.1,49.4,270.1,49.95Z" transform="translate(-254.663 -46.684)" fill="#0c0a0a"/>
      </g>
      <path id="Path_48210" data-name="Path 48210" d="M317.56,85.6c0,7.687-18.634,13.918-41.618,13.918S234.325,93.287,234.325,85.6s18.634-13.918,41.617-13.918S317.56,77.914,317.56,85.6Z" transform="translate(1.944 5.831)" fill="#94847b"/>
      <path id="Path_48211" data-name="Path 48211" d="M277.717,71.848s.052,5.477-3.355,6.144-2.3-1.187-1.375-6.232Z" transform="translate(10.9 5.85)" fill="#0f3f52"/>
      <path id="Path_48212" data-name="Path 48212" d="M256.483,71.848s-.05,5.477,3.358,6.144,2.3-1.187,1.374-6.232Z" transform="translate(7.205 5.85)" fill="#0f3f52"/>
      <g id="Group_180111" data-name="Group 180111" transform="translate(232.257 49.141)">
        <g id="Group_180110" data-name="Group 180110">
          <path id="Path_48213" data-name="Path 48213" d="M234.8,59.1c.619-1.232-.64-.045.632-.276,1.13-.208,3.652-5.65,4.783-5.584.8.046,2.069.148,2.362-.372-.025-.943.5-1.237-.052-2.149a4.013,4.013,0,0,0-2.73-1.56c-2.372-.408-4.637-1.022-6.64,1.152-2.133,2.318-2.188,3.85-2,6.634a11.522,11.522,0,0,0,.591,3.259C233.648,59.705,233.941,60.808,234.8,59.1Z" transform="translate(-231.083 -48.753)" fill="#31130b"/>
          <path id="Path_48214" data-name="Path 48214" d="M242.445,52.116c-.808-.1-1.564.418-2.362.372-1.131-.066-1.767-1.069-2.58-.259-.739.731-.693,5.009-2.44,4.9-.322-.021-.092-1.077-.252-1.687-.855,1.709-1.289,3.515-3.193,4.012.686,2.509,4.163,4.8,5.889,3.311.621-.53,1,.731,2.386-.08a4.711,4.711,0,0,0,2.12-3.122c.168-.417.892-.412.96-.815.238-1.376-.629-2.829-.394-5.056C242.533,53.374,242.452,52.4,242.445,52.116Z" transform="translate(-230.956 -48.002)" fill="#ffe2c2"/>
        </g>
        <path id="Path_48215" data-name="Path 48215" d="M234.694,55.059c.205,1.169-.192,2.215-.887,2.34s-1.429-.726-1.637-1.893.151-1.846.849-1.969S234.487,53.889,234.694,55.059Z" transform="translate(-230.839 -47.622)" fill="#ffe2c2"/>
      </g>
      <path id="Path_48216" data-name="Path 48216" d="M234.038,63.209s2.091,2.721,1.762,5.009,3.013,8.148,3.554,8.977,14.819,1.07,14.819,1.07l-.687,4.153s-18.293-.631-19.085-2.068-6.558-7.837-4.229-15.048C231.773,60.405,234.038,63.209,234.038,63.209Z" transform="translate(0.828 3.63)" fill="#262c2d"/>
      <g id="Group_180113" data-name="Group 180113" transform="translate(312.037 49.141)">
        <g id="Group_180112" data-name="Group 180112">
          <path id="Path_48217" data-name="Path 48217" d="M303.832,59.1c-.62-1.232.638-.045-.631-.276a10.416,10.416,0,0,1-4.609-2.227,31.748,31.748,0,0,1-2.538-3.73c.026-.943-.495-1.237.052-2.149a4.015,4.015,0,0,1,2.73-1.56c2.372-.408,4.637-1.022,6.642,1.152,2.132,2.318,2.185,3.85,2,6.634a11.406,11.406,0,0,1-.594,3.259C304.977,59.705,304.685,60.808,303.832,59.1Z" transform="translate(-295.485 -48.753)" fill="#8d6752"/>
          <path id="Path_48218" data-name="Path 48218" d="M296.124,52.118c.809-.1,1.455-.54,1.649.236.521,2.089,3.988,4.887,5.734,4.774.322-.021.09-1.077.254-1.687.853,1.709,1.287,3.515,3.189,4.012-.684,2.509-4.159,4.8-5.886,3.311-.622-.53-1,.731-2.387-.08a4.716,4.716,0,0,1-2.121-3.122c-.167-.417-.891-.412-.958-.815-.24-1.376.627-2.829.393-5.056C296.036,53.376,296.119,52.4,296.124,52.118Z" transform="translate(-295.556 -48.005)" fill="#ffe2c2"/>
        </g>
        <path id="Path_48219" data-name="Path 48219" d="M302.2,55.059c-.207,1.169.189,2.215.885,2.34s1.429-.726,1.636-1.893-.148-1.846-.846-1.969S302.4,53.889,302.2,55.059Z" transform="translate(-293.992 -47.622)" fill="#ffe2c2"/>
      </g>
      <path id="Path_48220" data-name="Path 48220" d="M307.178,63.209s-2.092,2.721-1.762,5.009-3.014,8.148-3.553,8.977S286.41,81,286.41,81l.687,4.153s18.923-3.367,19.717-4.8,6.557-7.837,4.228-15.048C309.443,60.405,307.178,63.209,307.178,63.209Z" transform="translate(14.31 3.63)" fill="#262c2d"/>
      <path id="Path_48221" data-name="Path 48221" d="M287.335,77.551s-2.607.281-3.691,1.521-.517,2.522.276,2.637a7.331,7.331,0,0,0,2.144-.225,8.148,8.148,0,0,0,2.458-.578C289.254,80.479,287.335,77.551,287.335,77.551Z" transform="translate(13.511 7.225)" fill="#c9b1a1"/>
      <path id="Path_48222" data-name="Path 48222" d="M288.421,78.093s-2.608.282-3.692,1.523-.515,2.519.278,2.634a7.294,7.294,0,0,0,2.142-.224,8.139,8.139,0,0,0,2.458-.579C290.341,81.021,288.421,78.093,288.421,78.093Z" transform="translate(13.769 7.353)" fill="#e2c7b5"/>
      <path id="Path_48223" data-name="Path 48223" d="M306.924,64.033s-2.092,2.721-1.762,5.009-4.9,6.3-5.445,7.134S287.476,81.2,287.476,81.2l1.444,4.08s14.959-4.517,15.751-5.954,8.447-5.99,6.118-13.2C309.19,61.23,306.924,64.033,306.924,64.033Z" transform="translate(14.563 3.826)" fill="#3b3b3b"/>
      <path id="Path_48224" data-name="Path 48224" d="M249.624,75.578s2.607.282,3.692,1.522.517,2.521-.277,2.636a7.338,7.338,0,0,1-2.144-.225,8.168,8.168,0,0,1-2.456-.577C247.706,78.506,249.624,75.578,249.624,75.578Z" transform="translate(5.256 6.756)" fill="#c9b1a1"/>
      <path id="Path_48225" data-name="Path 48225" d="M249.046,78.093s2.608.282,3.691,1.523.515,2.519-.277,2.634a7.287,7.287,0,0,1-2.142-.224,8.144,8.144,0,0,1-2.459-.579C247.126,81.021,249.046,78.093,249.046,78.093Z" transform="translate(5.118 7.353)" fill="#e2c7b5"/>
      <path id="Path_48226" data-name="Path 48226" d="M277.551,85.551a2.949,2.949,0,0,1-.1-2.587,1.522,1.522,0,0,1,2.424-.3,4.163,4.163,0,0,1,.329,1.067,6.4,6.4,0,0,1,.115,1.965C280.166,86.334,277.551,85.551,277.551,85.551Z" transform="translate(12.116 8.326)" fill="#e2c7b5"/>
      <path id="Path_48227" data-name="Path 48227" d="M234.013,64.033s2.091,2.721,1.762,5.009,4.281,8.182,4.823,9.013S253.461,81.2,253.461,81.2l-1.444,4.08s-14.459-2.225-15.252-3.663-8.947-8.282-6.618-15.492C231.747,61.23,234.013,64.033,234.013,64.033Z" transform="translate(0.853 3.826)" fill="#3b3b3b"/>
      <path id="Path_48228" data-name="Path 48228" d="M279.047,92.642l1.495-7.65s-.507-.1-1.266-.329-2.034.742-2.034.742Z" transform="translate(12.133 8.905)" fill="#1fb2b3"/>
      <g id="Group_180116" data-name="Group 180116" transform="translate(263.518 63.612)">
        <g id="Group_180115" data-name="Group 180115">
          <path id="Path_48229" data-name="Path 48229" d="M273.05,69.92c-.244,1.093-.741,1.911-1.115,1.828s-.48-1.036-.239-2.127.744-1.912,1.116-1.829S273.291,68.828,273.05,69.92Z" transform="translate(-252.733 -58.706)" fill="#e2c7b5"/>
          <path id="Path_48230" data-name="Path 48230" d="M262.258,69.92c.243,1.093.741,1.911,1.116,1.828s.479-1.036.236-2.127-.741-1.912-1.115-1.829S262.015,68.828,262.258,69.92Z" transform="translate(-254.973 -58.706)" fill="#e2c7b5"/>
          <g id="Group_180114" data-name="Group 180114">
            <rect id="Rectangle_163518" data-name="Rectangle 163518" width="6.314" height="2.541" transform="translate(10.786 15.728)" fill="#e2c7b5"/>
            <path id="Path_48231" data-name="Path 48231" d="M262.813,70.212c.517,3.508,2.629,6.431,5.872,6.431s5.373-2.919,5.872-6.431c.707-5.021-.791-7.5-5.864-7.5C263.429,62.715,262.166,65.787,262.813,70.212Z" transform="translate(-254.848 -59.91)" fill="#e2c7b5"/>
            <path id="Path_48232" data-name="Path 48232" d="M262.423,68.876a8.55,8.55,0,0,0,3.452,5.954c.714.457,1.4,1.345,2.9,1.345a4.812,4.812,0,0,0,3.216-1.445,8.611,8.611,0,0,0,3.108-5.854c.708-5.211-1.287-9.06-6.317-8.341C263.4,60,261.774,64.285,262.423,68.876Z" transform="translate(-254.935 -60.448)" fill="#8d6752"/>
            <path id="Path_48233" data-name="Path 48233" d="M258.8,76.843c.856-.906,6.828-2.224,7.9-2.224h7.187c1.281,0,6.561.712,7.856,2.224,2.483,2.9,2.446,14.3,2.446,14.3a14.753,14.753,0,0,1-.178,3.876,4.039,4.039,0,0,1-2.564,1.927c-.678,0-2.19-1.614-2.19-1.614l.043,3.649a52.412,52.412,0,0,1-9.006.807,47.536,47.536,0,0,1-8.772-.807l-.209-3.12a11.439,11.439,0,0,1-2.18,1.1c-1.065.108-2.615-2.2-2.615-2.2l-.167-3.622S256.175,79.621,258.8,76.843Z" transform="translate(-256.346 -57.084)" fill="#23c7c8"/>
          </g>
        </g>
        <path id="Path_48234" data-name="Path 48234" d="M262.6,75.056a22.168,22.168,0,0,0,6.089.75,21.153,21.153,0,0,0,6.472-.871,19.247,19.247,0,0,0-2.761-.316h-7.187A17.4,17.4,0,0,0,262.6,75.056Z" transform="translate(-254.862 -57.084)" fill="#1fb2b3"/>
      </g>
    </g>
  </g>
</svg>
