<svg id="SvgjsG1014" xmlns="http://www.w3.org/2000/svg" width="32.174" height="32.174" viewBox="0 0 32.174 32.174">
  <g id="Ebene_1" data-name="Ebene 1">
    <path id="Path_12054" data-name="Path 12054" d="M32.174,16.087a16.087,16.087,0,1,0-18.6,15.892V20.737H9.489v-4.65h4.085V12.543c0-4.032,2.4-6.259,6.076-6.259a24.738,24.738,0,0,1,3.6.314v3.959H21.222A2.325,2.325,0,0,0,18.6,13.069v3.018h4.462l-.713,4.65H18.6V31.979A16.091,16.091,0,0,0,32.174,16.087Z" fill="#1877f2"/>
    <path id="Path_12055" data-name="Path 12055" d="M314.86,214.453l.713-4.65h-4.462v-3.018a2.325,2.325,0,0,1,2.622-2.512h2.029v-3.959a24.74,24.74,0,0,0-3.6-.314c-3.675,0-6.076,2.227-6.076,6.259V209.8H302v4.65h4.085v11.241a16.256,16.256,0,0,0,5.027,0V214.453Z" transform="translate(-292.511 -193.716)" fill="#fff"/>
  </g>
</svg>
