<svg id="Group_176326" data-name="Group 176326" xmlns="http://www.w3.org/2000/svg" width="91.01" height="123.651" viewBox="0 0 91.01 123.651">
  <g id="Group_176309" data-name="Group 176309" transform="translate(0 33.477)">
    <path id="Path_38426" data-name="Path 38426" d="M530.3,3147.879l-1.245-13.947-13.88-2.909,28.728-25.776,15.125,16.856Z" transform="translate(-515.176 -3105.247)" fill="#e2340c"/>
    <path id="Path_38427" data-name="Path 38427" d="M810.485,3147.879l1.244-13.947,13.88-2.909-28.729-25.776L781.756,3122.1Z" transform="translate(-734.599 -3105.247)" fill="#e2340c"/>
  </g>
  <g id="Group_176319" data-name="Group 176319" transform="translate(1.293 84.08)">
    <g id="Group_176315" data-name="Group 176315" transform="translate(55.297 0)">
      <rect id="Rectangle_162350" data-name="Rectangle 162350" width="10.186" height="3.163" transform="translate(11.471 17.428)" fill="#3dc0cd"/>
      <path id="Path_38428" data-name="Path 38428" d="M907.707,3482.655h-7.825c-.125.877-.606,3.447-1.443,4.154.063,8.378,10.832,8.344,10.712,0C908.315,3486.1,907.833,3483.532,907.707,3482.655Z" transform="translate(-887.232 -3466.495)" fill="#f49d56"/>
      <path id="Path_38429" data-name="Path 38429" d="M896.4,3399.589l-6.948,4.289,1.374,9.757s2.317,3.239,5.574,3.239,5.573-3.239,5.573-3.239l1.373-9.757Z" transform="translate(-879.832 -3398.124)" fill="#fcb87a"/>
      <path id="Path_38430" data-name="Path 38430" d="M900.708,3506.464l-3.221-.368-3.222.368-3.491,2.876c1.21,3.706,4.884,8.006,6.713,9.748,1.829-1.742,5.5-6.042,6.713-9.748Z" transform="translate(-880.922 -3485.79)" fill="#3dc0cd"/>
      <g id="Group_176310" data-name="Group 176310" transform="translate(8.958 9.281)">
        <path id="Path_38431" data-name="Path 38431" d="M887.205,3444.157c-1.274-1.092-2.209.246-.72,2.535,0,0-.113.753.953.753Z" transform="translate(-885.722 -3443.77)" fill="#fcb87a"/>
        <path id="Path_38432" data-name="Path 38432" d="M962.247,3444.157c1.273-1.092,2.208.246.719,2.535,0,0,.112.753-.954.753Z" transform="translate(-948.517 -3443.77)" fill="#fcb87a"/>
      </g>
      <g id="Group_176311" data-name="Group 176311" transform="translate(9.408 10.095)">
        <path id="Path_38433" data-name="Path 38433" d="M889,3448.433a.7.7,0,0,0-.557,0s-.3.137-.106.549l.425,1.163a.685.685,0,0,1,.506,0C889.39,3449.395,887.959,3448.708,889,3448.433Z" transform="translate(-888.267 -3448.372)" fill="#f49d56"/>
        <path id="Path_38434" data-name="Path 38434" d="M963.766,3448.433a.7.7,0,0,1,.557,0s.3.137.105.549l-.425,1.163a.686.686,0,0,0-.506,0C963.372,3449.395,964.8,3448.708,963.766,3448.433Z" transform="translate(-950.183 -3448.372)" fill="#f49d56"/>
      </g>
      <g id="Group_176312" data-name="Group 176312" transform="translate(13.893 20.306)">
        <path id="Path_38435" data-name="Path 38435" d="M918.794,3526.064h-2.513l-1.056,10.3h4.623Z" transform="translate(-914.941 -3522.532)" fill="#3c3c99"/>
        <path id="Path_38436" data-name="Path 38436" d="M917.867,3506.1h-3.3l-.945,1.323,1.34,2.21h2.513l1.34-2.21Z" transform="translate(-913.619 -3506.096)" fill="#3c3c99"/>
      </g>
      <path id="Path_38437" data-name="Path 38437" d="M887.9,3400.667l.711,2.224h.792l-.63-5.58c1.071-1.7,2.975-1.647,5.727-1.361,2.751-.286,4.655-.336,5.724,1.361l-.629,5.58h.793l.71-2.224C906.306,3388.184,882.688,3388.184,887.9,3400.667Z" transform="translate(-877.932 -3391.304)" fill="#313c3b"/>
      <path id="Path_38438" data-name="Path 38438" d="M868.21,3508.227a20.574,20.574,0,0,1-33.127-.009l.09-2.9c1.344-3.94,8.374-5.886,8.374-5.886l4.515,7.9,2.07,4.32,1.516,1.952,1.582-2.018,1.765-3.841,4.749-8.312s7.031,1.946,8.376,5.886Z" transform="translate(-835.084 -3480.306)" fill="#e2340c"/>
      <g id="Group_176313" data-name="Group 176313" transform="translate(9.419 17.428)">
        <path id="Path_38439" data-name="Path 38439" d="M933.815,3489.825l-5.092,2.878,3.3,3.616,3.845-4.192Z" transform="translate(-921.578 -3489.825)" fill="#bfe0e2"/>
        <path id="Path_38440" data-name="Path 38440" d="M890.383,3489.825l5.094,2.878-3.3,3.616-3.844-4.192Z" transform="translate(-888.332 -3489.825)" fill="#bfe0e2"/>
      </g>
      <g id="Group_176314" data-name="Group 176314" transform="translate(5.835 17.797)">
        <path id="Path_38441" data-name="Path 38441" d="M934.673,3491.912c-.858,2.877-1.912,10.016-5.95,15.5a18.333,18.333,0,0,0,7.812-6.013l-1.825-1.961,4.742-5.51Z" transform="translate(-917.993 -3491.912)" fill="#a54021"/>
        <path id="Path_38442" data-name="Path 38442" d="M872.846,3491.912c.858,2.877,1.911,10.016,5.952,15.5a18.324,18.324,0,0,1-7.812-6.013l1.823-1.961-4.74-5.51Z" transform="translate(-868.068 -3491.912)" fill="#a54021"/>
      </g>
    </g>
    <g id="Group_176318" data-name="Group 176318" transform="translate(0 0.387)">
      <path id="Path_38443" data-name="Path 38443" d="M550.791,3415.3a20.437,20.437,0,0,0,11.453-3.764c-1.083-.7-1-2.927-.962-5.569.228-16.667-21.137-16.429-20.992-.526.026,2.869.2,5.346-.955,6.095a20.437,20.437,0,0,0,11.454,3.764h0Z" transform="translate(-536.355 -3393.49)" fill="#a54021"/>
      <rect id="Rectangle_162351" data-name="Rectangle 162351" width="10.185" height="3.164" transform="translate(9.343 17.041)" fill="#3dc0cd"/>
      <path id="Path_38444" data-name="Path 38444" d="M583.08,3482.658h-7.826c-.125.878-.607,3.446-1.443,4.152.062,8.379,10.832,8.346,10.711,0C583.686,3486.1,583.2,3483.536,583.08,3482.658Z" transform="translate(-564.732 -3466.885)" fill="#f49d56"/>
      <path id="Path_38445" data-name="Path 38445" d="M571.767,3399.591l-6.946,4.287,1.372,9.759s2.317,3.238,5.574,3.238,5.574-3.238,5.574-3.238l1.373-9.759Z" transform="translate(-557.333 -3398.512)" fill="#fcb87a"/>
      <g id="Group_176316" data-name="Group 176316" transform="translate(6.829 8.894)">
        <path id="Path_38446" data-name="Path 38446" d="M562.573,3444.157c-1.274-1.093-2.207.245-.719,2.535,0,0-.113.752.953.752Z" transform="translate(-561.091 -3443.77)" fill="#fcb87a"/>
        <path id="Path_38447" data-name="Path 38447" d="M637.616,3444.157c1.273-1.093,2.208.245.719,2.535,0,0,.113.752-.954.752Z" transform="translate(-623.885 -3443.77)" fill="#fcb87a"/>
      </g>
      <path id="Path_38448" data-name="Path 38448" d="M562.761,3504.017l-6.713.369-6.714-.371-3.612,2.258c1.209,3.706,8.493,9.362,10.325,11.1v0c1.831-1.741,9.116-7.4,10.327-11.1Z" transform="translate(-541.612 -3484.463)" fill="#3dc0cd"/>
      <path id="Path_38449" data-name="Path 38449" d="M551.36,3514.443a20.559,20.559,0,0,1-28.872,0l.572-5.28c1.345-3.941,7.15-5.146,7.15-5.146l6.714,13.361,6.713-13.361s5.805,1.207,7.151,5.148Z" transform="translate(-522.488 -3484.463)" fill="#e2340c"/>
      <g id="Group_176317" data-name="Group 176317" transform="translate(7.289 17.041)">
        <path id="Path_38450" data-name="Path 38450" d="M565.748,3489.825l5.092,2.879-3.3,3.615-3.845-4.192Z" transform="translate(-563.695 -3489.825)" fill="#bfe0e2"/>
        <path id="Path_38451" data-name="Path 38451" d="M609.189,3489.829l-5.092,2.88,3.3,3.615,3.845-4.191Z" transform="translate(-596.95 -3489.828)" fill="#bfe0e2"/>
      </g>
      <path id="Path_38452" data-name="Path 38452" d="M567.426,3396.2c-9.5.6-7.756,9.242-7.756,9.242H575.18S576.924,3396.8,567.426,3396.2Z" transform="translate(-552.989 -3395.718)" fill="#a54021"/>
    </g>
  </g>
  <path id="Path_38453" data-name="Path 38453" d="M650.456,2949.386A33.387,33.387,0,1,1,617.07,2916,33.388,33.388,0,0,1,650.456,2949.386Z" transform="translate(-571.564 -2916)" fill="#ff8b00"/>
  <path id="Path_38454" data-name="Path 38454" d="M682.677,2990.429a24.566,24.566,0,1,1-24.566-24.566A24.565,24.565,0,0,1,682.677,2990.429Z" transform="translate(-612.606 -2957.043)" fill="#ffc50b"/>
  <path id="Path_38455" data-name="Path 38455" d="M696.72,3027.8l-17.088,17.089-11.453-11.452-5.064,5.065,16.517,16.517,22.153-22.154Z" transform="translate(-636.946 -3008.026)" fill="#e2340c"/>
  <g id="Group_176325" data-name="Group 176325" transform="translate(21.848 71.823)">
    <rect id="Rectangle_162352" data-name="Rectangle 162352" width="14.548" height="4.518" transform="translate(16.384 24.892)" fill="#3dc0cd"/>
    <path id="Path_38456" data-name="Path 38456" d="M742.414,3452.5H731.237c-.179,1.254-.868,4.922-2.062,5.931.089,11.97,15.472,11.92,15.3,0C743.282,3457.421,742.592,3453.753,742.414,3452.5Z" transform="translate(-713.167 -3429.417)" fill="#f49d56"/>
    <path id="Path_38457" data-name="Path 38457" d="M726.261,3333.852l-9.921,6.124,1.961,13.938s3.309,4.625,7.961,4.625,7.96-4.625,7.96-4.625l1.962-13.937Z" transform="translate(-702.603 -3331.758)" fill="#fcb87a"/>
    <path id="Path_38458" data-name="Path 38458" d="M732.417,3486.5l-4.6-.525-4.6.525-4.986,4.11c1.729,5.291,6.975,11.435,9.588,13.923,2.612-2.488,7.859-8.632,9.587-13.923Z" transform="translate(-704.156 -3456.975)" fill="#3dc0cd"/>
    <g id="Group_176320" data-name="Group 176320" transform="translate(12.794 13.256)">
      <path id="Path_38459" data-name="Path 38459" d="M713.127,3397.507c-1.819-1.562-3.154.349-1.026,3.62,0,0-.162,1.075,1.362,1.075Z" transform="translate(-711.01 -3396.953)" fill="#fcb87a"/>
      <path id="Path_38460" data-name="Path 38460" d="M820.312,3397.507c1.819-1.562,3.154.349,1.027,3.62,0,0,.161,1.075-1.363,1.075Z" transform="translate(-800.7 -3396.953)" fill="#fcb87a"/>
    </g>
    <g id="Group_176321" data-name="Group 176321" transform="translate(13.437 14.419)">
      <path id="Path_38461" data-name="Path 38461" d="M715.686,3403.611a1.006,1.006,0,0,0-.8,0s-.431.2-.151.785l.607,1.663a.967.967,0,0,1,.723,0C716.248,3404.987,714.2,3404,715.686,3403.611Z" transform="translate(-714.643 -3403.524)" fill="#f49d56"/>
      <path id="Path_38462" data-name="Path 38462" d="M822.478,3403.611a1.006,1.006,0,0,1,.8,0s.43.2.151.785l-.607,1.663a.969.969,0,0,0-.724,0C821.916,3404.987,823.96,3404,822.478,3403.611Z" transform="translate(-803.078 -3403.524)" fill="#f49d56"/>
    </g>
    <g id="Group_176322" data-name="Group 176322" transform="translate(19.844 29.005)">
      <path id="Path_38463" data-name="Path 38463" d="M758.252,3514.5h-3.589l-1.508,14.709h6.6Z" transform="translate(-752.749 -3509.451)" fill="#e2340c"/>
      <path id="Path_38464" data-name="Path 38464" d="M756.927,3485.979h-4.718l-1.349,1.89,1.914,3.155h3.588l1.914-3.155Z" transform="translate(-750.86 -3485.979)" fill="#e2340c"/>
    </g>
    <path id="Path_38465" data-name="Path 38465" d="M714.117,3335.388l1.014,3.178h1.132l-.9-7.971c1.531-2.424,4.25-2.353,8.18-1.943,3.931-.41,6.648-.481,8.179,1.943l-.9,7.971h1.133l1.014-3.178C740.409,3317.558,706.676,3317.558,714.117,3335.388Z" transform="translate(-699.884 -3322.016)" fill="#313c3b"/>
    <path id="Path_38466" data-name="Path 38466" d="M686,3489.021a29.385,29.385,0,0,1-47.314-.011l.129-4.14c1.92-5.628,11.961-8.406,11.961-8.406l6.539,11.439,2.963,6.259,2.068,2.542,2.163-2.691,2.945-6.25,6.456-11.3s10.041,2.778,11.962,8.406Z" transform="translate(-638.684 -3449.143)" fill="#3c3c99"/>
    <g id="Group_176323" data-name="Group 176323" transform="translate(13.453 24.892)">
      <path id="Path_38467" data-name="Path 38467" d="M779.7,3462.732l-7.274,4.112,4.714,5.165,5.492-5.987Z" transform="translate(-762.22 -3462.732)" fill="#bfe0e2"/>
      <path id="Path_38468" data-name="Path 38468" d="M717.663,3462.732l7.274,4.112-4.714,5.165-5.492-5.987Z" transform="translate(-714.731 -3462.732)" fill="#bfe0e2"/>
    </g>
    <g id="Group_176324" data-name="Group 176324" transform="translate(8.335 25.42)">
      <path id="Path_38469" data-name="Path 38469" d="M780.926,3465.717c-1.226,4.109-2.73,14.305-8.5,22.143a26.194,26.194,0,0,0,11.157-8.589l-2.6-2.8,6.77-7.87Z" transform="translate(-757.103 -3465.717)" fill="#201c6f"/>
      <path id="Path_38470" data-name="Path 38470" d="M692.626,3465.717c1.226,4.109,2.731,14.305,8.5,22.143a26.184,26.184,0,0,1-11.156-8.589l2.6-2.8-6.77-7.87Z" transform="translate(-685.803 -3465.717)" fill="#201c6f"/>
    </g>
  </g>
</svg>
