<svg xmlns="http://www.w3.org/2000/svg" width="87.475" height="102.628" viewBox="0 0 87.475 102.628">
  <g id="Group_176331" data-name="Group 176331" transform="translate(0 -0.003)">
    <g id="Group_176328" data-name="Group 176328" transform="translate(0 0.005)">
      <path id="Path_38471" data-name="Path 38471" d="M274.991,97.43l79.911-.047,7.506-37.269-79.911.047Z" transform="translate(-274.934 -28.713)" fill="#e8d5bc" fill-rule="evenodd"/>
      <rect id="Rectangle_162353" data-name="Rectangle 162353" width="79.898" height="68.63" transform="translate(0 0.082) rotate(-0.058)" fill="#fff6ea"/>
      <rect id="Rectangle_162354" data-name="Rectangle 162354" width="39.97" height="68.633" transform="matrix(1, -0.001, 0.001, 1, 39.928, 0.038)" fill="#f5e7d5"/>
      <path id="Path_38472" data-name="Path 38472" d="M287.594,54.763h3.543V47.739l3.815,7.024h3.525V40.638h-3.525v7.217l-3.8-7.217h-3.56V54.763Zm12.21-3.091c0,2.956,2.388,3.206,3.563,3.168,0,0,3.888-.058,5.76-.328V51.382h-4.671c-.526,0-1.126.019-1.126-1.006v-.85l4.889-.175V46.242l-4.889-.213v-.85c0-.521,0-1.082.946-1.082h4.852V40.948a55.182,55.182,0,0,0-5.943-.31c-1.283,0-3.38.374-3.38,3.285v7.748Zm10.031-11.034L313.6,54.763h4.251l1.073-4.612,1.218,4.612h4.251l3.253-14.125h-3.706l-1.654,9.533-1.854-6.6.672-2.935h-3.706l-1.654,9.533-2.2-9.533Zm18.534,4.889c0,.908.146,4.1,3.6,4.1H333.6c.8,0,.963.29.963.85v.31c0,.58-.29.791-1.071.791-1.69,0-3.98-.135-4.706-.212V54.28c1.816.656,2.216.656,5.614.656,1.8,0,3.69-.733,3.69-4.328v-.637c0-1.547-.636-4.1-3.4-4.1h-1.709c-.982,0-1.089-.329-1.089-.928v-.213c0-.811.362-.85,1.344-.85,1.2,0,3.2.057,4.36.193V41.161a12.478,12.478,0,0,0-5.633-.638,3.523,3.523,0,0,0-3.6,3.825Z" transform="translate(-272.859 -33.395)" fill="#f5862c" fill-rule="evenodd"/>
      <g id="Group_176327" data-name="Group 176327" transform="translate(3.754 27.006)">
        <rect id="Rectangle_162355" data-name="Rectangle 162355" width="32.368" height="2.665" transform="translate(0 0.001)" fill="#f5862c"/>
        <rect id="Rectangle_162356" data-name="Rectangle 162356" width="32.368" height="2.665" transform="translate(0 8.633)" fill="#f5862c"/>
        <rect id="Rectangle_162357" data-name="Rectangle 162357" width="32.368" height="2.665" transform="translate(0 17.265)" fill="#f5862c"/>
        <rect id="Rectangle_162358" data-name="Rectangle 162358" width="32.368" height="2.665" transform="translate(0 25.897)" fill="#f5862c"/>
        <rect id="Rectangle_162359" data-name="Rectangle 162359" width="32.368" height="2.665" transform="translate(0 34.53)" fill="#f5862c"/>
        <path id="Path_38473" data-name="Path 38473" d="M312.731,56.565h32.2v19.93h-32.2Z" transform="translate(-272.474 -56.565)" fill="#f5862c" fill-rule="evenodd"/>
        <rect id="Rectangle_162360" data-name="Rectangle 162360" width="32.203" height="2.665" transform="translate(40.258 25.897)" fill="#f5862c"/>
        <rect id="Rectangle_162361" data-name="Rectangle 162361" width="32.203" height="2.665" transform="translate(40.258 34.53)" fill="#f5862c"/>
      </g>
    </g>
    <g id="Group_176330" data-name="Group 176330" transform="translate(20.592 43.342)">
      <rect id="Rectangle_162362" data-name="Rectangle 162362" width="66.883" height="59.288" fill="#f5862c"/>
      <rect id="Rectangle_162363" data-name="Rectangle 162363" width="33.44" height="59.288" transform="translate(33.443)" fill="#f5862c"/>
      <rect id="Rectangle_162364" data-name="Rectangle 162364" width="59.003" height="44.474" transform="translate(3.94 4.139)" fill="#fff6ea"/>
      <rect id="Rectangle_162365" data-name="Rectangle 162365" width="29.501" height="44.474" transform="translate(33.443 4.139)" fill="#f5e7d5"/>
      <path id="Path_38474" data-name="Path 38474" d="M428.705,426.229l20.486,10.69-20.486,10.69Z" transform="translate(-405.507 -410.543)" fill="#028a98" fill-rule="evenodd"/>
      <rect id="Rectangle_162366" data-name="Rectangle 162366" width="48.5" height="1.56" transform="translate(14.443 52.966)" fill="#47c6cc"/>
      <g id="Group_176329" data-name="Group 176329" transform="translate(3.94 52.176)">
        <path id="Path_38475" data-name="Path 38475" d="M412.169,455.7h1.092v3.139h-1.092V455.7Zm1.918,0h1.094v3.139h-1.094Z" transform="translate(-412.169 -455.695)" fill="#47c6cc" fill-rule="evenodd"/>
        <rect id="Rectangle_162367" data-name="Rectangle 162367" width="3.012" height="3.139" transform="translate(3.75 0)" fill="#47c6cc"/>
      </g>
      <rect id="Rectangle_162368" data-name="Rectangle 162368" width="1.39" height="3.202" transform="translate(29.464 52.145)" fill="#3daab0"/>
      <rect id="Rectangle_162369" data-name="Rectangle 162369" width="17.569" height="1.56" transform="translate(11.973 52.966)" fill="#36979c"/>
    </g>
  </g>
</svg>
