<svg id="Group_176334" data-name="Group 176334" xmlns="http://www.w3.org/2000/svg" xmlns:xlink="http://www.w3.org/1999/xlink" width="105.53" height="81.609" viewBox="0 0 105.53 81.609">
  <defs>
    <linearGradient id="linear-gradient" x1="-0.944" y1="4.311" x2="0.761" y2="-0.189" gradientUnits="objectBoundingBox">
      <stop offset="0" stop-color="#007dc6"/>
      <stop offset="1" stop-color="#00bef5"/>
    </linearGradient>
    <linearGradient id="linear-gradient-2" x1="-0.752" y1="4.534" x2="0.85" y2="-0.628" gradientUnits="objectBoundingBox">
      <stop offset="0.006" stop-color="#5fbd3f"/>
      <stop offset="1" stop-color="#e4e61d"/>
    </linearGradient>
    <linearGradient id="linear-gradient-3" x1="0.163" y1="0.954" x2="0.656" y2="-0.233" xlink:href="#linear-gradient-2"/>
    <linearGradient id="linear-gradient-4" x1="0.789" y1="-0.442" x2="-0.562" y2="3.966" gradientUnits="objectBoundingBox">
      <stop offset="0" stop-color="#ffd04d"/>
      <stop offset="1" stop-color="#ff9f00"/>
    </linearGradient>
    <linearGradient id="linear-gradient-5" x1="0.643" y1="-0.188" x2="0.228" y2="0.825" xlink:href="#linear-gradient-4"/>
    <linearGradient id="linear-gradient-6" x1="0.672" y1="-0.289" x2="-0.158" y2="3.513" gradientUnits="objectBoundingBox">
      <stop offset="0" stop-color="#ffb445"/>
      <stop offset="1" stop-color="#ff307e"/>
    </linearGradient>
    <linearGradient id="linear-gradient-7" x1="-0.041" y1="5.638" x2="0.944" y2="-3.343" xlink:href="#linear-gradient"/>
    <linearGradient id="linear-gradient-8" x1="0.626" y1="-0.153" x2="0.347" y2="0.715" xlink:href="#linear-gradient-6"/>
    <linearGradient id="linear-gradient-9" x1="-0.003" y1="0.981" x2="0.779" y2="-0.07" xlink:href="#linear-gradient"/>
  </defs>
  <circle id="Ellipse_609" data-name="Ellipse 609" cx="8.655" cy="8.655" r="8.655" transform="translate(58.773 0.381)" fill="url(#linear-gradient)"/>
  <g id="Group_176332" data-name="Group 176332" transform="translate(71.702 31.847)">
    <circle id="Ellipse_610" data-name="Ellipse 610" cx="5.454" cy="5.454" r="5.454" transform="translate(11.46)" fill="url(#linear-gradient-2)"/>
    <path id="Path_38476" data-name="Path 38476" d="M352.221,233.664a2.783,2.783,0,0,0-3.823.146l-4.546,4.546a10.815,10.815,0,0,1-7.648,3.168h0a10.815,10.815,0,0,1-7.648-3.168l-4.546-4.546a2.783,2.783,0,0,0-3.824-.146,2.733,2.733,0,0,0-.1,3.956l8.818,8.818a1.417,1.417,0,0,1,.415,1V275.43a2.783,2.783,0,0,0,2.6,2.807,2.733,2.733,0,0,0,2.865-2.729V261.82a1.416,1.416,0,1,1,2.832,0v13.61a2.783,2.783,0,0,0,2.6,2.807,2.733,2.733,0,0,0,2.864-2.729V247.439a1.416,1.416,0,0,1,.415-1l8.818-8.818A2.733,2.733,0,0,0,352.221,233.664Z" transform="translate(-319.29 -228.479)" fill="url(#linear-gradient-3)"/>
  </g>
  <g id="Group_176333" data-name="Group 176333" transform="translate(0 30.16)">
    <circle id="Ellipse_611" data-name="Ellipse 611" cx="5.454" cy="5.454" r="5.454" transform="translate(9.773 10.056) rotate(-67.201)" fill="url(#linear-gradient-4)"/>
    <path id="Path_38477" data-name="Path 38477" d="M80.733,247.439a1.426,1.426,0,0,1,.414-1l8.819-8.819a2.734,2.734,0,0,0-.1-3.956,2.784,2.784,0,0,0-3.824.147L81.5,238.357a10.82,10.82,0,0,1-15.3,0l-4.546-4.546a2.784,2.784,0,0,0-3.824-.147,2.734,2.734,0,0,0-.1,3.956l8.819,8.819a1.413,1.413,0,0,1,.414,1v6.471l-3.6,11.883a.755.755,0,0,0,.722.975H66.97v8.663a2.783,2.783,0,0,0,2.6,2.807,2.731,2.731,0,0,0,2.862-2.73v-8.74h2.833v8.663a2.785,2.785,0,0,0,2.6,2.807,2.734,2.734,0,0,0,2.865-2.73v-8.74H83.61a.756.756,0,0,0,.725-.975l-3.6-11.883v-6.471Z" transform="translate(-56.937 -226.792)" fill="url(#linear-gradient-5)"/>
  </g>
  <circle id="Ellipse_612" data-name="Ellipse 612" cx="8.655" cy="8.655" r="8.655" transform="matrix(0.999, -0.045, 0.045, 0.999, 30.811, 0.779)" fill="url(#linear-gradient-6)"/>
  <path id="Path_38478" data-name="Path 38478" d="M168.158,181.477h0a4.336,4.336,0,0,1,4.336-4.336h25.624v8.672H172.494A4.336,4.336,0,0,1,168.158,181.477Z" transform="translate(-137.761 -156.059)" fill="url(#linear-gradient-7)"/>
  <path id="Path_38479" data-name="Path 38479" d="M142.288,160.715v-4.952l5.782,7.956,6.792-4.572L143.8,143.23a5.055,5.055,0,0,0-4.15-2.169H128.5a10.249,10.249,0,0,1-7.247-3l-9.239-9.239a4.417,4.417,0,0,0-6.067-.231,4.337,4.337,0,0,0-.152,6.277l13.992,13.992a2.247,2.247,0,0,1,.658,1.589v10.268L114.73,179.57a1.2,1.2,0,0,0,1.15,1.55h4.569v16.009a4.417,4.417,0,0,0,4.127,4.454,4.336,4.336,0,0,0,4.546-4.331V181.119h4.494v16.009a4.417,4.417,0,0,0,4.127,4.454,4.336,4.336,0,0,0,4.546-4.331V181.119h4.569a1.2,1.2,0,0,0,1.15-1.55Z" transform="translate(-91.522 -119.979)" fill="url(#linear-gradient-8)"/>
  <path id="Path_38480" data-name="Path 38480" d="M300.178,128.587a4.415,4.415,0,0,0-6.066.23l-9.242,9.241a10.246,10.246,0,0,1-7.246,3h-9.974a3.81,3.81,0,0,0-3.81,3.81v52.258a4.416,4.416,0,0,0,4.127,4.454,4.336,4.336,0,0,0,4.546-4.331v-23.9a2.305,2.305,0,0,1,2.108-2.33,2.247,2.247,0,0,1,2.386,2.243v23.861a4.416,4.416,0,0,0,4.126,4.454,4.336,4.336,0,0,0,4.546-4.331v-46.8a2.247,2.247,0,0,1,.658-1.589l13.992-13.992A4.336,4.336,0,0,0,300.178,128.587Z" transform="translate(-207.293 -119.977)" fill="url(#linear-gradient-9)"/>
</svg>
