<svg id="Group_176308" data-name="Group 176308" xmlns="http://www.w3.org/2000/svg" width="82.975" height="152.155" viewBox="0 0 82.975 152.155">
  <path id="Path_38402" data-name="Path 38402" d="M289.341,167.062c0,.769-1.582,1.392-3.532,1.392s-3.532-.624-3.532-1.392,1.581-1.392,3.532-1.392S289.341,166.294,289.341,167.062Z" transform="translate(-244.321 -86.715)" fill="#3c3c3b"/>
  <g id="Group_176297" data-name="Group 176297" transform="translate(14.77 64.084)">
    <g id="Group_176296" data-name="Group 176296" transform="translate(0 0)">
      <path id="Path_38403" data-name="Path 38403" d="M270.779,176.877c-.009-.044-.005-.087-.014-.131a3.914,3.914,0,0,1-.042-.429,3.6,3.6,0,0,1-.011-.362,3.254,3.254,0,0,1,.037-.369,3.584,3.584,0,0,1,.072-.415c.011-.044.011-.09.023-.134l4.145-14.772a3.9,3.9,0,0,1,.292-.74,3.9,3.9,0,0,0-4.142,3.387l-1.969,15.214c-.005.046,0,.09,0,.136a3.689,3.689,0,0,0-.012.421,3.731,3.731,0,0,0,.018.373,3.553,3.553,0,0,0,.062.355,3.621,3.621,0,0,0,.106.419c.012.042.016.087.032.129l5.218,14.426c.02.042.044.076.064.117Z" transform="translate(-269.155 -155.521)" fill="#ebae73"/>
      <path id="Path_38404" data-name="Path 38404" d="M274.314,161.178l-4.145,14.772c-.012.044-.012.09-.023.134a3.592,3.592,0,0,0-.072.415,3.263,3.263,0,0,0-.037.369,3.569,3.569,0,0,0,.011.362,3.913,3.913,0,0,0,.042.429c.009.044.005.087.014.131l3.875,17.622.009.034c.083.24.173.435.262.638l-.822-17.332.03.021-.343-3.88c0-.044.005-.088,0-.133-.007-.143,0-.286.005-.431.007-.122.014-.242.032-.36s.048-.242.078-.364a3.925,3.925,0,0,1,.12-.4c.016-.044.021-.088.039-.131l5.8-14.2c.048-.115.115-.214.171-.322-.051-.016-.1-.042-.147-.058l-.076-.021a3.912,3.912,0,0,0-4.826,2.711Z" transform="translate(-268.479 -156.436)" fill="#ebae73"/>
      <path id="Path_38405" data-name="Path 38405" d="M273.3,180.883l-.613-.7A3.2,3.2,0,0,0,273.3,180.883Z" transform="translate(-266.449 -139.67)" fill="#f4d3b0"/>
      <path id="Path_38406" data-name="Path 38406" d="M272.054,173.89c-.018.042-.023.087-.039.131a3.948,3.948,0,0,0-.12.4c-.03.122-.06.242-.078.364s-.025.239-.032.36c-.007.145-.013.288-.005.431,0,.044-.005.088,0,.133l.343,3.88-.03-.021.822,17.332.018.352.445.509.613.7,21.243,24.312,13.03-5.808.369-5.391,3.712-21.193-.025,0,0-.014c.021-.1.051-.186.065-.283a4.647,4.647,0,0,0,.055-.767c0-.042.011-.083.009-.127l0-.067c0-.041,0-.081,0-.122l-.542-17.838a4.73,4.73,0,0,0-4.872-4.584l-.1,0a4.73,4.73,0,0,0-4.584,4.872l.454,14.959-4.428,5.937-7.84,2.447-8.932-7.925-1.815-11.028,5.384-13.177a3.916,3.916,0,0,0-2.143-5.1l-.074-.03a3.9,3.9,0,0,0-4.932,1.822c-.057.108-.124.207-.171.322Z" transform="translate(-267.143 -157.254)" fill="#ffcf9f"/>
    </g>
    <rect id="Rectangle_162348" data-name="Rectangle 162348" width="23.803" height="13.734" transform="translate(18.191 54.521) rotate(-0.478)" fill="#ededed"/>
    <path id="Path_38407" data-name="Path 38407" d="M305.438,217.289l0-1.2.055-22.282-26.866.222.062,23.26Z" transform="translate(-261.887 -129.218)" fill="#28324e"/>
    <path id="Path_38408" data-name="Path 38408" d="M291.646,201.53a1.469,1.469,0,1,1-.922,1.861A1.469,1.469,0,0,1,291.646,201.53Z" transform="translate(-252.671 -123.354)" fill="#ededed"/>
    <path id="Path_38409" data-name="Path 38409" d="M291.762,198.833a1.469,1.469,0,1,1-.922,1.862A1.472,1.472,0,0,1,291.762,198.833Z" transform="translate(-252.582 -125.422)" fill="#ededed"/>
    <path id="Path_38410" data-name="Path 38410" d="M291.741,196.16a1.469,1.469,0,1,1-.924,1.861A1.47,1.47,0,0,1,291.741,196.16Z" transform="translate(-252.599 -127.472)" fill="#ededed"/>
  </g>
  <rect id="Rectangle_162349" data-name="Rectangle 162349" width="17.054" height="13.148" transform="translate(32.96 65.144)" fill="#c6c6c6"/>
  <path id="Path_38411" data-name="Path 38411" d="M309.995,152.788c0-11.051-9.183-19.863-20.02-18.589a18.321,18.321,0,0,0-15.6,15.454,19.215,19.215,0,0,0,5.066,16.426,14.076,14.076,0,0,1,4.1,9.759v.253h17.055v-.164a14.021,14.021,0,0,1,4.03-9.782A19.052,19.052,0,0,0,309.995,152.788Z" transform="translate(-250.572 -110.947)" fill="#f5862c"/>
  <path id="Path_38412" data-name="Path 38412" d="M291.509,167.4h-7.066l-4.994-2.107H296.5Z" transform="translate(-246.489 -87.003)" fill="#9d9d9c"/>
  <path id="Path_38413" data-name="Path 38413" d="M282.324,143.676c.949,0,1.4.8,1.8,1.507.41.726.7,1.168,1.217,1.168s.8-.442,1.212-1.166c.4-.707.848-1.509,1.8-1.509s1.4.8,1.8,1.509c.408.724.693,1.166,1.212,1.166s.8-.442,1.212-1.166c.4-.707.848-1.509,1.8-1.509s1.4.8,1.8,1.507c.406.726.691,1.168,1.21,1.168a.335.335,0,0,1,0,.67c-.947,0-1.4-.8-1.793-1.509-.408-.726-.693-1.168-1.212-1.168s-.8.442-1.212,1.168c-.4.707-.848,1.509-1.8,1.509s-1.4-.8-1.8-1.509c-.408-.726-.693-1.168-1.214-1.168s-.8.442-1.212,1.168c-.4.707-.848,1.509-1.8,1.509s-1.4-.8-1.8-1.509c-.41-.726-.7-1.168-1.216-1.168s-.807.442-1.216,1.168c-.4.707-.85,1.509-1.8,1.509a.335.335,0,0,1,0-.67c.521,0,.807-.442,1.216-1.168C280.925,144.476,281.376,143.676,282.324,143.676Z" transform="translate(-246.852 -103.585)" fill="#fff"/>
  <path id="Path_38414" data-name="Path 38414" d="M286.067,151.384h-1.255a1.889,1.889,0,0,0-2.055,1.656v9.777h5.365V153.04A1.889,1.889,0,0,0,286.067,151.384Z" transform="translate(-243.952 -97.673)" fill="#dadada"/>
  <path id="Path_38415" data-name="Path 38415" d="M286.867,157.828a.442.442,0,0,1-.369-.2l-7.7-11.816a.441.441,0,1,1,.739-.482l7.7,11.816a.442.442,0,0,1-.127.611A.448.448,0,0,1,286.867,157.828Z" transform="translate(-247.044 -102.47)" fill="#c6c6c6"/>
  <path id="Path_38416" data-name="Path 38416" d="M285.409,157.828a.449.449,0,0,1-.242-.071.442.442,0,0,1-.127-.611l7.7-11.816a.441.441,0,1,1,.739.482l-7.7,11.816A.443.443,0,0,1,285.409,157.828Z" transform="translate(-242.257 -102.469)" fill="#c6c6c6"/>
  <g id="Group_176307" data-name="Group 176307" transform="translate(0 0)">
    <g id="Group_176298" data-name="Group 176298" transform="translate(51.104 5.323)">
      <path id="Path_38417" data-name="Path 38417" d="M290.59,141.994a1.745,1.745,0,0,1-.638-2.384l8.508-14.737a1.745,1.745,0,1,1,3.023,1.744l-8.508,14.739A1.747,1.747,0,0,1,290.59,141.994Z" transform="translate(-289.717 -123.999)" fill="#f5862c"/>
    </g>
    <g id="Group_176299" data-name="Group 176299" transform="translate(59.421 19.87)">
      <path id="Path_38418" data-name="Path 38418" d="M294.659,143.359a1.743,1.743,0,0,1,.64-2.384l14.737-8.51a1.746,1.746,0,0,1,1.746,3.023L297.044,144A1.747,1.747,0,0,1,294.659,143.359Z" transform="translate(-294.424 -132.232)" fill="#f5862c"/>
    </g>
    <g id="Group_176300" data-name="Group 176300" transform="translate(62.467 39.742)">
      <path id="Path_38419" data-name="Path 38419" d="M296.148,145.222a1.743,1.743,0,0,1,1.746-1.744H314.91a1.745,1.745,0,1,1,0,3.49H297.894A1.745,1.745,0,0,1,296.148,145.222Z" transform="translate(-296.148 -143.478)" fill="#f5862c"/>
    </g>
    <g id="Group_176301" data-name="Group 176301" transform="translate(59.421 51.103)">
      <path id="Path_38420" data-name="Path 38420" d="M294.659,150.781a1.747,1.747,0,0,1,2.386-.64l14.737,8.508a1.746,1.746,0,0,1-1.746,3.023L295.3,153.165A1.744,1.744,0,0,1,294.659,150.781Z" transform="translate(-294.424 -149.908)" fill="#f5862c"/>
    </g>
    <g id="Group_176302" data-name="Group 176302" transform="translate(5.325 51.103)">
      <path id="Path_38421" data-name="Path 38421" d="M281.8,150.781a1.744,1.744,0,0,1-.64,2.384l-14.737,8.508a1.746,1.746,0,0,1-1.746-3.023l14.737-8.508A1.747,1.747,0,0,1,281.8,150.781Z" transform="translate(-263.809 -149.908)" fill="#f5862c"/>
    </g>
    <g id="Group_176303" data-name="Group 176303" transform="translate(0 39.742)">
      <path id="Path_38422" data-name="Path 38422" d="M281.3,145.222a1.745,1.745,0,0,1-1.746,1.746H262.542a1.745,1.745,0,1,1,0-3.49h17.016A1.744,1.744,0,0,1,281.3,145.222Z" transform="translate(-260.796 -143.478)" fill="#f5862c"/>
    </g>
    <g id="Group_176304" data-name="Group 176304" transform="translate(5.325 19.87)">
      <path id="Path_38423" data-name="Path 38423" d="M281.8,143.359a1.747,1.747,0,0,1-2.386.64l-14.737-8.51a1.746,1.746,0,0,1,1.746-3.023l14.737,8.51A1.743,1.743,0,0,1,281.8,143.359Z" transform="translate(-263.809 -132.232)" fill="#f5862c"/>
    </g>
    <g id="Group_176305" data-name="Group 176305" transform="translate(19.871 5.323)">
      <path id="Path_38424" data-name="Path 38424" d="M283.169,141.994a1.747,1.747,0,0,1-2.385-.638l-8.508-14.739a1.745,1.745,0,1,1,3.023-1.744l8.508,14.737A1.745,1.745,0,0,1,283.169,141.994Z" transform="translate(-272.041 -123.999)" fill="#f5862c"/>
    </g>
    <g id="Group_176306" data-name="Group 176306" transform="translate(39.742)">
      <path id="Path_38425" data-name="Path 38425" d="M285.033,141.493a1.745,1.745,0,0,1-1.746-1.744V122.731a1.746,1.746,0,0,1,3.492,0v17.018A1.745,1.745,0,0,1,285.033,141.493Z" transform="translate(-283.287 -120.987)" fill="#f5862c"/>
    </g>
  </g>
</svg>
