<svg xmlns="http://www.w3.org/2000/svg" xmlns:xlink="http://www.w3.org/1999/xlink" width="45" height="45" viewBox="0 0 45 45">
  <defs>
    <linearGradient id="linear-gradient" x1="-3.234" y1="2.301" x2="-2.865" y2="1.797" gradientUnits="objectBoundingBox">
      <stop offset="0" stop-color="#fff"/>
      <stop offset="1" stop-color="#e1e1e1"/>
    </linearGradient>
    <linearGradient id="linear-gradient-2" x1="-8.577" y1="5.715" x2="-8.433" y2="5.582" gradientUnits="objectBoundingBox">
      <stop offset="0" stop-color="#fff"/>
      <stop offset="1" stop-color="#c8c8c8"/>
    </linearGradient>
    <linearGradient id="linear-gradient-3" x1="-4.783" y1="7.273" x2="-4.978" y2="9.052" gradientUnits="objectBoundingBox">
      <stop offset="0.127" stop-color="#8a0000"/>
      <stop offset="0.244" stop-color="#900000"/>
      <stop offset="0.398" stop-color="#a00000"/>
      <stop offset="0.573" stop-color="#bc0000" stop-opacity="0.996"/>
      <stop offset="0.761" stop-color="#e20000" stop-opacity="0.996"/>
      <stop offset="0.867" stop-color="#fa0000" stop-opacity="0.996"/>
    </linearGradient>
    <linearGradient id="linear-gradient-4" x1="-4.587" y1="6.484" x2="-4.789" y2="8.199" gradientUnits="objectBoundingBox">
      <stop offset="0.315" stop-color="#5e0000"/>
      <stop offset="0.444" stop-color="#830000"/>
      <stop offset="0.618" stop-color="#ae0000" stop-opacity="0.996"/>
      <stop offset="0.775" stop-color="#cd0000" stop-opacity="0.996"/>
      <stop offset="0.908" stop-color="#e00000" stop-opacity="0.996"/>
      <stop offset="1" stop-color="#e70000" stop-opacity="0.996"/>
    </linearGradient>
  </defs>
  <g id="Group_178957" data-name="Group 178957" transform="translate(-181 -396)">
    <circle id="Ellipse_872" data-name="Ellipse 872" cx="22.5" cy="22.5" r="22.5" transform="translate(181 396)" fill="#fff"/>
    <g id="SvgjsG1042" transform="translate(370.236 541.833)">
      <g id="Group_178284" data-name="Group 178284" transform="translate(-181.236 -137.833)">
        <path id="Path_41637" data-name="Path 41637" d="M-46.192-137.833h13.4a36.343,36.343,0,0,1,8.694,8.708v20.609h-22.09Z" transform="translate(52.692 137.833)" fill="url(#linear-gradient)"/>
        <path id="Path_41638" data-name="Path 41638" d="M-46.192-137.833h13.4a36.343,36.343,0,0,1,8.694,8.708v20.609h-22.09Z" transform="translate(52.692 137.833)" fill="none" stroke="#c8c8c8" stroke-width="0.5"/>
        <path id="Path_41639" data-name="Path 41639" d="M232.147-137.833a36.745,36.745,0,0,1,8.694,8.708,7.814,7.814,0,0,0-6.16-2.345A6.959,6.959,0,0,0,232.147-137.833Z" transform="translate(-212.251 137.833)" fill="url(#linear-gradient-2)"/>
        <path id="Path_41640" data-name="Path 41640" d="M232.147-137.833a36.745,36.745,0,0,1,8.694,8.708,7.814,7.814,0,0,0-6.16-2.345A6.959,6.959,0,0,0,232.147-137.833Z" transform="translate(-212.251 137.833)" fill="none" stroke="#c8c8c8" stroke-width="0.5"/>
        <path id="Path_41641" data-name="Path 41641" d="M-173.561-95.046h19.942v6.7h-19.942Z" transform="translate(173.93 97.105)" fill="none" stroke="#c8c8c8" stroke-width="6.005"/>
        <path id="Path_41642" data-name="Path 41642" d="M2.591,63.2c.538-1.055,1.15-2.245,1.64-3.438l.194-.471c-.64-2.435-1.023-4.389-.681-5.653a.872.872,0,0,1,.882-.529l.249,0h.046c.559-.009.821.7.851.978a4.447,4.447,0,0,1-.164,1.239,3.048,3.048,0,0,0-.186-1.261c-.231-.507-.452-.81-.649-.858a.623.623,0,0,0-.23.471,6.768,6.768,0,0,0-.09,1.085,12.142,12.142,0,0,0,.5,3.152c.063-.18.118-.354.161-.516.068-.256.5-1.953.5-1.953s-.109,2.259-.261,2.942c-.033.144-.069.287-.106.434A9.919,9.919,0,0,0,7.725,62.7a7.742,7.742,0,0,0,1.432.984,19.551,19.551,0,0,1,2.907-.218,3.642,3.642,0,0,1,2.238.5.852.852,0,0,1,.246.559,1.684,1.684,0,0,1-.047.325c.012-.059.012-.349-.873-.631a10.294,10.294,0,0,0-3.565-.049c1.81.885,3.572,1.325,4.131,1.062a1.177,1.177,0,0,0,.3-.294,3.142,3.142,0,0,1-.169.559.881.881,0,0,1-.435.3c-.882.235-3.179-.309-5.181-1.453a42.325,42.325,0,0,0-6.663,1.584c-1.935,3.391-3.39,4.949-4.574,4.356l-.435-.219a.5.5,0,0,1-.163-.548c.138-.675.985-1.692,2.685-2.707.183-.111,1-.542,1-.542s-.6.584-.745.7c-1.357,1.112-2.359,2.512-2.334,3.054l0,.047c1.153-.164,2.882-2.511,5.1-6.86m.7.361c-.371.7-.734,1.348-1.069,1.943a28.4,28.4,0,0,1,5.747-1.626c-.255-.176-.5-.363-.736-.56a9.856,9.856,0,0,1-2.421-3.152,26.985,26.985,0,0,1-1.521,3.4m11.659,2.687h.072c.079,0,.147-.024.147-.093s-.034-.093-.137-.093a.371.371,0,0,0-.082.007v.178Zm0,.321h-.106V66a1.179,1.179,0,0,1,.2-.016.28.28,0,0,1,.18.044.144.144,0,0,1-.054.257v.007a.172.172,0,0,1,.1.137.392.392,0,0,0,.041.143H15.2a.4.4,0,0,1-.045-.15c-.013-.062-.05-.089-.133-.089h-.069Zm.11.25a.547.547,0,1,1,.547-.547A.547.547,0,0,1,15.065,66.822Zm.438-.547a.438.438,0,1,0-.438.438A.438.438,0,0,0,15.5,66.275Z" transform="translate(11.711 -43.922)" fill="#f91d0a"/>
        <path id="Path_41643" data-name="Path 41643" d="M136.235,357.505l-.148-.958c-.043-.276-.1-.707-.138-1.005h-.016c-.044.3-.1.744-.148,1.008l-.16.956Zm-.691.623-.193,1.062h-.713l.889-4.42h.875l.808,4.42h-.717l-.19-1.062h-.759Zm3.289-.912a1.165,1.165,0,0,0-.011-.191c-.029-.219-.136-.415-.307-.415-.295,0-.4.462-.4,1,0,.62.155.973.393.973.109,0,.234-.061.3-.321a.712.712,0,0,0,.026-.2Zm.732-2.563v3.62c0,.288.014.641.025.917h-.633l-.041-.369H138.9a.7.7,0,0,1-.613.42c-.606,0-.906-.727-.906-1.645,0-1.118.448-1.663.936-1.663a.517.517,0,0,1,.5.333h.013v-1.614h.731Zm1.524,3.977c.28,0,.348-.573.348-1.047,0-.451-.068-1.038-.36-1.038-.309,0-.374.587-.374,1.038,0,.544.083,1.047.381,1.047Zm-.013.611c-.675,0-1.1-.59-1.1-1.644,0-1.151.543-1.664,1.114-1.664.665,0,1.083.619,1.083,1.644,0,1.319-.654,1.663-1.094,1.663Zm2.241-1.2a.708.708,0,0,0,.029.2c.073.268.2.334.3.334.282,0,.4-.39.4-1.015,0-.568-.121-.96-.4-.96-.139,0-.256.165-.3.341a.894.894,0,0,0-.028.2Zm-.731-3.393h.731v1.668h.012a.683.683,0,0,1,.614-.388c.552,0,.829.683.829,1.575,0,1.129-.413,1.732-.948,1.732-.255,0-.426-.123-.579-.435h-.015l-.042.384h-.628c.01-.266.025-.629.025-.917v-3.62h0Zm3.941,2.629c0-.45-.118-.764-.35-.764-.265,0-.378.422-.386.764Zm-.738.563c.009.579.288.768.636.768a1.445,1.445,0,0,0,.549-.111l.1.573a1.971,1.971,0,0,1-.781.148c-.785,0-1.214-.583-1.214-1.581,0-1.07.5-1.714,1.148-1.714.627,0,.976.568.976,1.5a3.059,3.059,0,0,1-.022.425Z" transform="translate(-119.435 -330.95)" fill="#1a171b"/>
        <path id="Path_41644" data-name="Path 41644" d="M-173.741-94.5H-153.8v6.7h-19.942Z" transform="translate(174.102 96.581)" fill="url(#linear-gradient-3)"/>
        <path id="Path_41645" data-name="Path 41645" d="M-160.552-95.343h-20.684v-7.507h20.684Zm-.744-6.763h-19.2v6.017h19.2Z" transform="translate(181.236 104.534)" fill="url(#linear-gradient-4)"/>
        <path id="Path_41646" data-name="Path 41646" d="M-65.448-74.06H-64a1.269,1.269,0,0,1,.992.382,1.545,1.545,0,0,1,.348,1.083A1.561,1.561,0,0,1-63-71.507a1.273,1.273,0,0,1-.992.379h-.577v1.558h-.874v-4.49m.874.839v1.254h.484a.488.488,0,0,0,.393-.162.706.706,0,0,0,.139-.466.693.693,0,0,0-.139-.463.488.488,0,0,0-.393-.162h-.484m3.406.036v2.74h.313a.985.985,0,0,0,.818-.352,1.6,1.6,0,0,0,.284-1.022,1.587,1.587,0,0,0-.282-1.017.992.992,0,0,0-.82-.349h-.313m-.874-.875h.922a3.354,3.354,0,0,1,1.149.147,1.482,1.482,0,0,1,.65.493,2.052,2.052,0,0,1,.354.7,3.213,3.213,0,0,1,.116.9,3.27,3.27,0,0,1-.116.908,2.052,2.052,0,0,1-.354.7,1.517,1.517,0,0,1-.654.5,3.426,3.426,0,0,1-1.145.144h-.922v-4.49m3.86,0h2.359v.875h-1.485v.836h1.4v.875h-1.4v1.9h-.874v-4.49" transform="translate(71.021 77.129)" fill="#fff9f9"/>
      </g>
    </g>
  </g>
</svg>
