<svg xmlns="http://www.w3.org/2000/svg" width="40.826" height="40.827" viewBox="0 0 40.826 40.827">
  <g id="Solid" transform="translate(-2 -2)">
    <path id="Path_41481" data-name="Path 41481" d="M41.754,21.729a3.6,3.6,0,0,0-5.049-.124l-6.833,6.071a4.665,4.665,0,0,1,.524,2.157,4.784,4.784,0,0,1-3.088,4.455l-5.741,2.157a.894.894,0,0,1-1.136-.524.873.873,0,0,1,.515-1.136l5.741-2.157a3,3,0,0,0,1.934-2.8,3.069,3.069,0,0,0-2.982-2.982H9.1a1.775,1.775,0,0,0-1.775-1.775H3.775A1.775,1.775,0,0,0,2,26.85v14.2a1.775,1.775,0,0,0,1.775,1.775H7.324A1.775,1.775,0,0,0,9.1,41.051h3.594L13.8,41.5A17.407,17.407,0,0,0,33.883,36.5l8.084-9.772a3.729,3.729,0,0,0-.213-5ZM11.761,39.276H9.1V28.625h2.662ZM27.221,2a7.625,7.625,0,0,0-4.812,1.694A7.625,7.625,0,0,0,17.6,2,7.711,7.711,0,0,0,9.906,9.712c0,8.114,11.564,14.955,12.057,15.243a.89.89,0,0,0,.894,0c.492-.288,12.057-7.129,12.057-15.243A7.711,7.711,0,0,0,27.22,2ZM25.649,18.558a.873.873,0,0,1-.577.2.884.884,0,0,1-.577-1.546c3.285-2.814,5.095-5.478,5.095-7.5a2.38,2.38,0,0,0-2.367-2.387.888.888,0,1,1,0-1.775,4.157,4.157,0,0,1,4.142,4.162c0,3.265-3.107,6.612-5.715,8.846Z" transform="translate(0 0)" fill="#fff"/>
  </g>
</svg>
