<svg xmlns="http://www.w3.org/2000/svg" width="45.358" height="43.908" viewBox="0 0 45.358 43.908">
  <path id="woman-avatar" d="M11.336,25.05a7.726,7.726,0,0,1-3.606-2.274c2.414-.908,3.529-3.348,3.691-7.615.114-3.171-.543-5.563.539-8.693,2.134-6.2,10.055-8.309,14.47-4.692,3.47-.369,6.947,1.417,7.7,6.755.561,3.979-.628,7.464.628,11.133a5.71,5.71,0,0,0,2.953,3.492,8.571,8.571,0,0,1-3.942,1.9,38.758,38.758,0,0,1-6.105.683c.17,2.661.487,3.211,2.03,4.09-2.78,4.267-11.528,4.212-14.027,0a5.711,5.711,0,0,0,1.72-4.023,28.785,28.785,0,0,1-6.057-.738Zm20.616,4.212c2.111.812,9.926,2.983,11.28,5.537,1.532,2.872,1.307,6.065,2.126,9.117H0c.819-3.053.594-6.246,2.126-9.117,1.329-2.5,7.8-4.186,10.391-5.168.506,9,20.018,9.007,19.434-.34Z" transform="translate(0 -0.008)" fill="#fff" fill-rule="evenodd"/>
</svg>
