<svg xmlns="http://www.w3.org/2000/svg" width="44.794" height="51.431" viewBox="0 0 44.794 51.431">
  <g id="nanny" transform="translate(-5 -1)">
    <path id="Path_41506" data-name="Path 41506" d="M13.374,40.578c.293-.148.592-.287.9-.413l8.51-3.482a3.318,3.318,0,0,0,2.062-3.071V32.577A14.555,14.555,0,0,1,18.211,20.37v-.022a7.28,7.28,0,0,1,4.977-6.906l2.6,1.563A23.961,23.961,0,0,0,38.119,18.42v1.95a14.555,14.555,0,0,1-6.636,12.206v1.036a3.318,3.318,0,0,0,2.061,3.071l8.51,3.482c.308.126.607.265.9.413a19.955,19.955,0,0,0,3.217-2.492l.655-.655-.723-.579a10.175,10.175,0,0,1-3.837-7.983V15.1a14.1,14.1,0,0,0-28.2,0V28.87a10.171,10.171,0,0,1-3.837,7.982L9.5,37.43l.655.655a19.9,19.9,0,0,0,3.216,2.493Z" transform="translate(-0.768)" fill="#fff"/>
    <path id="Path_41507" data-name="Path 41507" d="M12.946,60.807H44.558L43.19,56.7A2.486,2.486,0,0,0,40.829,55H16.675a2.485,2.485,0,0,0-2.361,1.7Z" transform="translate(-1.355 -9.206)" fill="#fff"/>
    <circle id="Ellipse_867" data-name="Ellipse 867" cx="0.5" cy="0.5" r="0.5" transform="translate(22 19.431)"/>
    <circle id="Ellipse_868" data-name="Ellipse 868" cx="0.5" cy="0.5" r="0.5" transform="translate(32 19.431)"/>
    <path id="Path_41508" data-name="Path 41508" d="M34.636,32H32.977a1.659,1.659,0,1,1-3.318,0H28a3.318,3.318,0,0,0,6.636,0Z" transform="translate(-3.921 -5.285)"/>
    <path id="Path_41509" data-name="Path 41509" d="M40.836,13.5l1.606-.415A10.783,10.783,0,0,0,32,5V6.659A9.125,9.125,0,0,1,40.836,13.5Z" transform="translate(-4.603 -0.682)"/>
    <path id="Path_41510" data-name="Path 41510" d="M42.994,17.815v.83h1.659v-.83c0-.3-.012-.6-.036-.9l-1.654.138C42.983,17.306,42.994,17.558,42.994,17.815Z" transform="translate(-6.472 -2.713)"/>
    <path id="Path_41511" data-name="Path 41511" d="M41.6,41.768l-8.51-3.482a2.479,2.479,0,0,1-1.546-2.3v-.6A15.358,15.358,0,0,0,38.181,22.74V19.961h-.83a23.134,23.134,0,0,1-11.9-3.3L22.52,14.906l-.363.121a8.1,8.1,0,0,0-5.544,7.714A15.359,15.359,0,0,0,23.25,35.388v.6a2.477,2.477,0,0,1-1.546,2.3l-8.51,3.482A13.138,13.138,0,0,0,5,53.972v.83H49.794v-.83a13.138,13.138,0,0,0-8.193-12.2Zm-9.139-1.946,1.1.449-.945,1.654a2.507,2.507,0,0,1-3.949.529l-.1-.1L31.6,39.33a4.149,4.149,0,0,0,.864.492Zm-14.19-17.1a6.441,6.441,0,0,1,4.061-5.991l2.265,1.36a24.8,24.8,0,0,0,11.924,3.519V22.74A13.71,13.71,0,0,1,27.4,35.674a13.716,13.716,0,0,1-9.125-12.956Zm8.863,14.62.262.088.262-.087a15.5,15.5,0,0,0,2.255-.956,4.124,4.124,0,0,0,.562,1.722l-3.08,3.08L24.316,38.1a4.125,4.125,0,0,0,.562-1.722,15.422,15.422,0,0,0,2.256.956Zm-4.8,2.484a4.168,4.168,0,0,0,.864-.493l3.029,3.029-.1.1a2.508,2.508,0,0,1-3.949-.528l-.945-1.654ZM6.688,53.142A11.479,11.479,0,0,1,13.822,43.3l1.132-.464v5.354a2.55,2.55,0,0,1,.366-.029h1.293v-6l1.659-.679v6.682h1.659v-6.83l.808,1.414a4.166,4.166,0,0,0,6.562.878l.1-.1.1.1a4.166,4.166,0,0,0,6.562-.878l.808-1.414v6.83h1.659V41.483l1.659.679v6h1.293a2.531,2.531,0,0,1,.366.029V42.84l1.132.464a11.481,11.481,0,0,1,7.134,9.838Z" transform="translate(0 -2.371)"/>
  </g>
</svg>
