<svg xmlns="http://www.w3.org/2000/svg" width="38.276" height="55.5" viewBox="0 0 38.276 55.5">
  <g id="quality-svgrepo-com" transform="translate(-79.448)">
    <path id="Path_41497" data-name="Path 41497" d="M124.584,269.659l-8.439-24.552H96.768l-8.439,24.552a.957.957,0,0,0,1.148,1.237l4.944-1.3,3.1,4.064a.957.957,0,0,0,1.666-.269l7.268-21.146,7.268,21.146a.957.957,0,0,0,1.666.269l3.1-4.064,4.944,1.3A.957.957,0,0,0,124.584,269.659Z" transform="translate(-7.871 -218.538)" fill="#fff"/>
    <path id="Path_41498" data-name="Path 41498" d="M163.077,254.337l-3.172-9.23H140.527l-3.172,9.23a20.939,20.939,0,0,0,10.672,4.277l2.189-6.369,2.189,6.369A20.94,20.94,0,0,0,163.077,254.337Z" transform="translate(-51.63 -218.538)" fill="#a7a7a7"/>
    <circle id="Ellipse_866" data-name="Ellipse 866" cx="19.138" cy="19.138" r="19.138" transform="translate(79.448 0)" fill="#ffc36e"/>
    <path id="Path_41499" data-name="Path 41499" d="M98.586,0a19.138,19.138,0,1,0,19.138,19.138A19.138,19.138,0,0,0,98.586,0Zm0,35.405a16.267,16.267,0,1,1,16.267-16.267A16.267,16.267,0,0,1,98.586,35.405Z" transform="translate(0 0)" fill="#ffd782"/>
    <path id="Path_41500" data-name="Path 41500" d="M122.2,26.483A16.267,16.267,0,1,0,138.466,42.75,16.267,16.267,0,0,0,122.2,26.483Zm0,30.621A14.353,14.353,0,1,1,136.552,42.75,14.354,14.354,0,0,1,122.2,57.1Z" transform="translate(-23.612 -23.612)" fill="#ebb45f"/>
    <path id="Path_41501" data-name="Path 41501" d="M178.436,103.849l-4.719,2.481a1.065,1.065,0,0,1-1.545-1.123l.9-5.255-3.818-3.722a1.065,1.065,0,0,1,.59-1.816l5.276-.767,2.36-4.781a1.065,1.065,0,0,1,1.91,0l2.36,4.781,5.276.767a1.065,1.065,0,0,1,.59,1.816L183.8,99.953l.9,5.255a1.065,1.065,0,0,1-1.545,1.123Z" transform="translate(-79.784 -78.705)" fill="#ffd782"/>
    <path id="Path_41502" data-name="Path 41502" d="M162.686,72.535a1.052,1.052,0,0,1,.955.594L166,77.909l5.276.767a1.065,1.065,0,0,1,.59,1.816l-3.818,3.722.9,5.255a1.062,1.062,0,0,1-1.545,1.123l-4.719-2.481-4.719,2.481a1.062,1.062,0,0,1-1.545-1.123l.9-5.255-3.818-3.722a1.065,1.065,0,0,1,.59-1.816l5.276-.767,2.36-4.781a1.052,1.052,0,0,1,.955-.594m0-1.914a2.96,2.96,0,0,0-2.671,1.66L158.1,76.16l-4.28.622a2.979,2.979,0,0,0-1.651,5.081l3.1,3.019-.731,4.263a2.976,2.976,0,0,0,4.322,3.14l3.829-2.013,3.829,2.013a2.978,2.978,0,0,0,4.322-3.14l-.731-4.263,3.1-3.019a2.979,2.979,0,0,0-1.651-5.081l-4.28-.622-1.914-3.879a2.961,2.961,0,0,0-2.671-1.66Z" transform="translate(-64.035 -62.966)" fill="#ebb45f"/>
    <path id="Path_41503" data-name="Path 41503" d="M244.879,94.416l-5.276-.767-2.36-4.781a1.065,1.065,0,0,0-1.91,0l-1.515,3.07,8.38,14.246a1.042,1.042,0,0,0,.354-.976l-.9-5.255,3.818-3.722A1.065,1.065,0,0,0,244.879,94.416Z" transform="translate(-137.637 -78.706)" fill="#ffe6a0"/>
    <g id="Group_178197" data-name="Group 178197" transform="translate(99.878 5.741)">
      <path id="Path_41504" data-name="Path 41504" d="M303.728,56.386a4.434,4.434,0,0,1-3.328-3.328.112.112,0,0,0-.221,0,4.434,4.434,0,0,1-3.328,3.328.112.112,0,0,0,0,.221,4.434,4.434,0,0,1,3.328,3.328.112.112,0,0,0,.221,0,4.434,4.434,0,0,1,3.328-3.328A.112.112,0,0,0,303.728,56.386Z" transform="translate(-293.631 -52.964)" fill="#fff"/>
      <path id="Path_41505" data-name="Path 41505" d="M272.3,116.894a2.876,2.876,0,0,1-2.057-2.057.093.093,0,0,0-.183,0A2.876,2.876,0,0,1,268,116.894a.093.093,0,0,0,0,.183,2.876,2.876,0,0,1,2.057,2.057.093.093,0,0,0,.183,0,2.875,2.875,0,0,1,2.057-2.057A.093.093,0,0,0,272.3,116.894Z" transform="translate(-267.923 -108.062)" fill="#fff"/>
    </g>
  </g>
</svg>
