<svg xmlns="http://www.w3.org/2000/svg" xmlns:xlink="http://www.w3.org/1999/xlink" width="192" height="139" viewBox="0 0 192 139">
  <defs>
    <filter id="Rectangle_163408" x="0" y="0" width="175" height="139" filterUnits="userSpaceOnUse">
      <feOffset dy="3" input="SourceAlpha"/>
      <feGaussianBlur stdDeviation="3" result="blur"/>
      <feFlood flood-opacity="0.161"/>
      <feComposite operator="in" in2="blur"/>
      <feComposite in="SourceGraphic"/>
    </filter>
  </defs>
  <g id="Group_178931" data-name="Group 178931" transform="translate(-689 -1216)">
    <g transform="matrix(1, 0, 0, 1, 689, 1216)" filter="url(#Rectangle_163408)">
      <g id="Rectangle_163408-2" data-name="Rectangle 163408" transform="translate(9 6)" fill="#f0f0f0" stroke="#028a98" stroke-width="1" stroke-dasharray="6">
        <path d="M20.419,0H96.5A60.5,60.5,0,0,1,157,60.5v0A60.5,60.5,0,0,1,96.5,121H20.419A20.419,20.419,0,0,1,0,100.581V20.419A20.419,20.419,0,0,1,20.419,0Z" stroke="none"/>
        <path d="M20.5.5h76a60,60,0,0,1,60,60v0a60,60,0,0,1-60,60h-76a20,20,0,0,1-20-20v-80A20,20,0,0,1,20.5.5Z" fill="none"/>
      </g>
    </g>
    <circle id="Ellipse_894" data-name="Ellipse 894" cx="36.5" cy="36.5" r="36.5" transform="translate(808 1246)" fill="#028a98"/>
    <text id="_1" data-name="1" transform="translate(836 1297)" fill="#fff" font-size="47" font-family="CoconNextArabic-Bold, CoconÆ Next Arabic" font-weight="700"><tspan x="0" y="0">1</tspan></text>
    <path id="thumbs-up-solid" d="M9.581,20.635H2.211A2.211,2.211,0,0,0,0,22.846V44.955a2.211,2.211,0,0,0,2.211,2.211h7.37a2.211,2.211,0,0,0,2.211-2.211V22.846A2.211,2.211,0,0,0,9.581,20.635ZM5.9,43.481A2.211,2.211,0,1,1,8.107,41.27,2.211,2.211,0,0,1,5.9,43.481ZM35.375,7.5c0,3.907-2.392,6.1-3.066,8.71H41.68a5.5,5.5,0,0,1,5.486,5.352A6.67,6.67,0,0,1,45.375,26.1l-.01.01a7.7,7.7,0,0,1-.857,7.321A7.285,7.285,0,0,1,43,40.315a4.89,4.89,0,0,1-.566,4.112c-1.88,2.7-6.54,2.739-10.481,2.739h-.262c-4.448,0-8.089-1.621-11.014-2.923a14.5,14.5,0,0,0-4.85-1.49,1.106,1.106,0,0,1-1.085-1.105V21.955a1.1,1.1,0,0,1,.328-.785c3.649-3.606,5.218-7.424,8.21-10.42,1.364-1.366,1.86-3.43,2.339-5.426C26.026,3.62,26.883,0,28.742,0,30.953,0,35.375.737,35.375,7.5Z" transform="translate(737.042 1254)" fill="#f5862c"/>
  </g>
</svg>
