<svg xmlns="http://www.w3.org/2000/svg" width="95" height="95" viewBox="0 0 95 95">
  <g id="Group_178969" data-name="Group 178969" transform="translate(-754 -1286)">
    <circle id="Ellipse_862" data-name="Ellipse 862" cx="47.5" cy="47.5" r="47.5" transform="translate(754 1286)" fill="rgba(252,215,185,0.47)"/>
    <g id="Group_178175" data-name="Group 178175" transform="translate(697.983 1193.501)">
      <path id="Path_41452" data-name="Path 41452" d="M164.234,122.88l.894-.661a7.941,7.941,0,0,1,3.133-1.661,5.7,5.7,0,0,1,1.921-.088,3.222,3.222,0,0,1,2.45,4.58,7.2,7.2,0,0,1-2.29,2.959,31.752,31.752,0,0,1-9.742,4.839,1.467,1.467,0,0,1-2.078-.927,25.606,25.606,0,0,1-2.092-9,10.76,10.76,0,0,1,.377-2.922,3.475,3.475,0,0,1,3.141-2.656,3.562,3.562,0,0,1,3.65,2.26,13.719,13.719,0,0,1,.544,2.272A9.342,9.342,0,0,1,164.234,122.88Z" transform="translate(-46.812 0)" fill="#fc6d53"/>
      <g id="Group_178173" data-name="Group 178173" transform="translate(65.733 119.878)">
        <path id="Path_41453" data-name="Path 41453" d="M116.237,142.161c-.129,4.566-2.459,8.876-6.918,11.991a17.852,17.852,0,0,1-23.513-3.115,15.484,15.484,0,0,1,1.812-22.043,17.784,17.784,0,0,1,25.813,3.344A16.131,16.131,0,0,1,116.237,142.161Z" transform="translate(-74.146 -123.784)" fill="#fff"/>
        <path id="Path_41454" data-name="Path 41454" d="M93.762,126.231c-.284,1.059-.48,1.951-.762,2.816a21.411,21.411,0,0,1-13.119,14.071c-.984.381-1.986.716-2.98,1.074-.474.171-.946.348-1.549.57a14.186,14.186,0,0,0,.575,1.783,12.666,12.666,0,0,0,3.228,4.054,30.314,30.314,0,0,0,6.65,4.355c.666.326.791.5.572,1.187a10.923,10.923,0,0,1-.706,1.693,3.974,3.974,0,0,1-6.662.964c-.18.132-.37.262-.55.4a8.382,8.382,0,0,1-7.344,1.542A6.873,6.873,0,0,1,66.3,156.8a5.553,5.553,0,0,1,.232-5.3,5.8,5.8,0,0,1,.791-1.19,8.263,8.263,0,0,0,1.943-5.46c.138-2.071.273-4.155.615-6.2,1.023-6.107,4.558-10.4,9.991-13.146A25.891,25.891,0,0,1,92.8,122.621a21.938,21.938,0,0,1,10.4,3.029,11.009,11.009,0,0,1,5.119,11.128c-.249,1.568-.528,1.76-2.021,1.3a17.184,17.184,0,0,1-7.477-4.821,32.354,32.354,0,0,1-4.695-6.425C94.045,126.681,93.952,126.543,93.762,126.231Z" transform="translate(-65.733 -122.598)"/>
        <path id="Path_41455" data-name="Path 41455" d="M98.7,176.073a1.921,1.921,0,0,1-2-1.977,2.16,2.16,0,0,1,2.135-2.044,1.92,1.92,0,0,1,2.041,1.938A2.108,2.108,0,0,1,98.7,176.073Z" transform="translate(-81.714 -148.124)" fill="#f1a9db"/>
        <path id="Path_41456" data-name="Path 41456" d="M142.538,168.414a2.148,2.148,0,0,1-2.155-2.006,1.955,1.955,0,0,1,1.993-1.993,2.1,2.1,0,0,1,2.092,2.056A1.93,1.93,0,0,1,142.538,168.414Z" transform="translate(-104.263 -144.182)" fill="#f1a9db"/>
        <path id="Path_41457" data-name="Path 41457" d="M126.372,160.319c.518-.05.884-.118,1.25-.116a1.307,1.307,0,0,1,1.25,1.9,2.27,2.27,0,0,1-2.182,1.388c-.362-.04-.719-.138-.678-.584.039-.429.37-.373.7-.329a1.192,1.192,0,0,0,1.185-.639.812.812,0,0,0,.053-.646c-.044-.11-.344-.164-.528-.164a3.962,3.962,0,0,0-.7.124.888.888,0,0,1-1.123-.641,11.425,11.425,0,0,1-.332-2.1.726.726,0,0,1,.449-.546c.328-.065.416.248.446.544C126.222,159.11,126.3,159.7,126.372,160.319Z" transform="translate(-96.461 -140.852)"/>
        <path id="Path_41458" data-name="Path 41458" d="M117.008,169.409a8.44,8.44,0,0,1-.234,1.191,1.549,1.549,0,0,1-2.376.89,2.271,2.271,0,0,1-1.156-1.92c-.031-.283.014-.6.368-.594.164,0,.37.231.468.406.13.231.144.525.261.767a.993.993,0,0,0,1.058.633c.473-.058.528-.481.618-.834a5.7,5.7,0,0,0,.091-.807c.035-.331.151-.663.534-.566.156.039.236.4.336.626.025.055,0,.134-.007.2Z" transform="translate(-90.251 -146.32)"/>
        <path id="Path_41459" data-name="Path 41459" d="M137.156,157.37c-.059.953-.286,1.577-.982,1.912a2.019,2.019,0,0,1-2.045-.139,2.51,2.51,0,0,1-1.028-1.479c-.09-.3-.153-.675.244-.756.159-.032.423.232.571.417.166.208.225.5.381.717a1.127,1.127,0,0,0,1.244.5.874.874,0,0,0,.665-.917.471.471,0,0,1,.014-.1c.082-.312.043-.8.515-.71C136.946,156.854,137.087,157.272,137.156,157.37Z" transform="translate(-100.471 -140.254)"/>
        <path id="Path_41460" data-name="Path 41460" d="M111.97,163.049a2,2,0,0,1-2.018-1.415.8.8,0,0,1,.189-.693c.285-.206.477.07.617.322a2.443,2.443,0,0,0,.325.516,1.23,1.23,0,0,0,2.071-.47c.132-.345.136-.739.262-1.088a.594.594,0,0,1,.415-.348c.127,0,.337.22.373.375A2.34,2.34,0,0,1,111.97,163.049Z" transform="translate(-88.55 -141.838)"/>
      </g>
      <g id="Group_178174" data-name="Group 178174" transform="translate(108.146 135.561)">
        <path id="Path_41461" data-name="Path 41461" d="M179.292,169.666a13.864,13.864,0,0,1-11.865,13.471c-9.3,1.126-16.344-7.463-13.329-16.612a13.53,13.53,0,0,1,12.027-9.327,12.161,12.161,0,0,1,12.841,9.838C179.141,167.9,179.187,168.789,179.292,169.666Z" transform="translate(-153.392 -156.128)" fill="#fff"/>
        <path id="Path_41462" data-name="Path 41462" d="M182.591,169.04c.211.069.564.178.912.3a5.43,5.43,0,0,1,3.289,2.879,2.76,2.76,0,0,1-1.054,3.807.913.913,0,0,0-.405.518,3.509,3.509,0,0,1-4.75,2.548c-.129-.037-.255-.087-.419-.143-.127.1-.262.2-.383.306a4.213,4.213,0,0,1-4.788.974,4.579,4.579,0,0,1-2.491-4.648,14.919,14.919,0,0,1,1.215-4.623c.159-.37.3-.747.473-1.175-4.12-3-5.432-7.285-5.578-12.208a4.131,4.131,0,0,0-.547.351,30.342,30.342,0,0,1-6.026,4.543,49,49,0,0,1-5.1,2.332c-.715.308-1.478.5-2.353.8a7.759,7.759,0,0,1-.053-1.1,9.025,9.025,0,0,1,2.417-5.3,12.679,12.679,0,0,1,7.635-3.99,17.788,17.788,0,0,1,8.944,1,12.359,12.359,0,0,1,6.251,5.358,25.166,25.166,0,0,1,2.086,4.2A20.879,20.879,0,0,1,182.591,169.04Z" transform="translate(-153.976 -155.013)"/>
        <path id="Path_41463" data-name="Path 41463" d="M166.782,190.757a2.742,2.742,0,0,1-2.147-1.133,1.273,1.273,0,0,1-.086-1.44,1.169,1.169,0,0,1,1.3-.6,6.805,6.805,0,0,0,2.611.172c.561-.106.873.277.876.862a1.656,1.656,0,0,1-.872,1.519A11.135,11.135,0,0,1,166.782,190.757Z" transform="translate(-159.055 -171.813)"/>
        <path id="Path_41464" data-name="Path 41464" d="M180.939,192.638a1.777,1.777,0,0,1,1.828,1.88,1.97,1.97,0,0,1-2.031,1.958,1.892,1.892,0,0,1-1.859-1.9A2.013,2.013,0,0,1,180.939,192.638Z" transform="translate(-166.546 -174.433)" fill="#f1a9db"/>
        <path id="Path_41465" data-name="Path 41465" d="M156.716,184.591a1.578,1.578,0,0,1-1.589-1.527,1.6,1.6,0,0,1,1.638-1.591,1.554,1.554,0,0,1,1.592,1.513A1.648,1.648,0,0,1,156.716,184.591Z" transform="translate(-154.287 -168.67)" fill="#f1a9db"/>
        <path id="Path_41466" data-name="Path 41466" d="M167.484,181.551c.229.622.645.412.926.532.136.059.332.222.323.321a.667.667,0,0,1-.276.472,1.442,1.442,0,0,1-1.854-.8,1.114,1.114,0,0,1,1-1.462c.422-.046.828.052,1.236-.268.3-.238.643.12.549.538-.132.583-.48.806-1.12.726C168.045,181.581,167.821,181.575,167.484,181.551Z" transform="translate(-160.182 -168.048)"/>
        <path id="Path_41467" data-name="Path 41467" d="M178.831,183.774a.783.783,0,0,1-.792.758.869.869,0,0,1-.8-.883.83.83,0,0,1,.864-.7A.785.785,0,0,1,178.831,183.774Z" transform="translate(-165.698 -169.433)"/>
        <path id="Path_41468" data-name="Path 41468" d="M165.125,176.823a.692.692,0,0,1,.756.66.717.717,0,0,1-.635.787.748.748,0,0,1-.823-.712A.738.738,0,0,1,165.125,176.823Z" transform="translate(-159.086 -166.27)"/>
      </g>
    </g>
  </g>
</svg>
