<svg xmlns="http://www.w3.org/2000/svg" width="68.189" height="60.676" viewBox="0 0 68.189 60.676">
  <g id="Group_177598" data-name="Group 177598" transform="translate(-4182.875 -2858.93)">
    <g id="Group_177278" data-name="Group 177278" transform="translate(4204.765 2860.835)">
      <g id="Group_177273" data-name="Group 177273" transform="translate(0 0)">
        <path id="Path_39157" data-name="Path 39157" d="M4452.126,2898.8v22.359a.92.92,0,0,1-.919.92H4411.2a.923.923,0,0,1-.92-.912V2898.8a.927.927,0,0,1,.92-.921h40.009A.92.92,0,0,1,4452.126,2898.8Z" transform="translate(-4408.053 -2895.658)" fill="#008fc1"/>
        <path id="Path_39158" data-name="Path 39158" d="M4432.445,2876.9h-40.009a3.149,3.149,0,0,0-3.145,3.146v24.22a3.15,3.15,0,0,0,3.145,3.146h40.009a3.149,3.149,0,0,0,3.145-3.146v-24.22A3.149,3.149,0,0,0,4432.445,2876.9Zm-40.928,3.146a.929.929,0,0,1,.919-.92h40.009a.92.92,0,0,1,.919.92V2902.4a.921.921,0,0,1-.919.92h-40.009a.921.921,0,0,1-.919-.911v-22.366Z" transform="translate(-4389.291 -2876.897)" fill="#474646"/>
      </g>
      <path id="Path_39159" data-name="Path 39159" d="M4573.264,3139.729H4565.5a.647.647,0,1,1,0-1.295h7.767A.647.647,0,0,1,4573.264,3139.729Z" transform="translate(-4546.23 -3110.698)" fill="#908f92"/>
      <path id="Path_39160" data-name="Path 39160" d="M4565.109,3170.873h-11.432l.808-6.26h9.817Z" transform="translate(-4536.244 -3134.101)" fill="#666665"/>
      <path id="Path_39161" data-name="Path 39161" d="M4536.816,3227.268h-14.927a1.816,1.816,0,1,1,0-3.631h14.927C4539.144,3223.637,4539.328,3227.268,4536.816,3227.268Z" transform="translate(-4506.203 -3186.866)" fill="#d8c5b8"/>
      <g id="Group_177277" data-name="Group 177277" transform="translate(8.175 2.936)">
        <g id="Group_177275" data-name="Group 177275">
          <rect id="Rectangle_162784" data-name="Rectangle 162784" width="29.948" height="3.791" fill="#515151"/>
          <g id="Group_177274" data-name="Group 177274" transform="translate(1.445 1.262)">
            <path id="Path_39162" data-name="Path 39162" d="M4481.412,2917.18a.7.7,0,1,1-.705-.7A.706.706,0,0,1,4481.412,2917.18Z" transform="translate(-4480.003 -2916.476)" fill="#d7f2f9"/>
            <path id="Path_39163" data-name="Path 39163" d="M4502.992,2917.18a.705.705,0,1,1-.707-.7A.706.706,0,0,1,4502.992,2917.18Z" transform="translate(-4499.294 -2916.476)" fill="#d7f2f9"/>
            <path id="Path_39164" data-name="Path 39164" d="M4524.581,2917.18a.7.7,0,1,1-.7-.7A.706.706,0,0,1,4524.581,2917.18Z" transform="translate(-4518.594 -2916.476)" fill="#d7f2f9"/>
          </g>
          <rect id="Rectangle_162785" data-name="Rectangle 162785" width="29.948" height="18.25" transform="translate(0 3.791)" fill="#f9f5f2"/>
        </g>
        <g id="Group_177276" data-name="Group 177276" transform="translate(4.872 6.739)">
          <path id="Path_39165" data-name="Path 39165" d="M4610.384,3070.662a1.568,1.568,0,1,1-1.57-1.568A1.569,1.569,0,0,1,4610.384,3070.662Z" transform="translate(-4597.181 -3058.387)" fill="#d8c5b8"/>
          <path id="Path_39166" data-name="Path 39166" d="M4549.72,3070.662a1.569,1.569,0,1,1-1.569-1.568A1.569,1.569,0,0,1,4549.72,3070.662Z" transform="translate(-4542.949 -3058.387)" fill="#d8c5b8"/>
          <path id="Path_39167" data-name="Path 39167" d="M4556.2,3078.01a.7.7,0,1,1-.7-.7A.7.7,0,0,1,4556.2,3078.01Z" transform="translate(-4550.301 -3065.735)" fill="#f9f5f2"/>
          <path id="Path_39168" data-name="Path 39168" d="M4616.85,3078.01a.7.7,0,1,1-.695-.7A.694.694,0,0,1,4616.85,3078.01Z" transform="translate(-4604.522 -3065.735)" fill="#f9f5f2"/>
          <path id="Path_39169" data-name="Path 39169" d="M4512.321,2994.9l2.831,7.172h11.426V2994.9Zm12.461,5.6h-8.631a.741.741,0,0,1,0-1.483h8.631C4525.79,2999.013,4525.647,3000.5,4524.782,3000.5Zm0-2.545h-8.631a.741.741,0,1,1,0-1.482h8.631C4525.79,2996.469,4525.647,2997.951,4524.782,2997.951Z" transform="translate(-4512.321 -2992.057)" fill="#d8c5b8"/>
          <rect id="Rectangle_162786" data-name="Rectangle 162786" width="4.515" height="1.207" transform="translate(12.328 2.839)" fill="#d8c5b8"/>
          <rect id="Rectangle_162787" data-name="Rectangle 162787" width="4.516" height="1.206" transform="translate(15.991 3.193) rotate(-44.992)" fill="#d8c5b8"/>
        </g>
        <path id="Path_39170" data-name="Path 39170" d="M4691.411,3013.294l2.534,2.533,1.747-1.748-2.532-2.534,1.053-1.052-7.492-3.638,3.639,7.491Z" transform="translate(-4663.353 -2996.009)" fill="#515151"/>
      </g>
    </g>
    <g id="Group_177286" data-name="Group 177286" transform="translate(4182.875 2885.376)">
      <g id="Group_177279" data-name="Group 177279" transform="translate(0 22.281)">
        <path id="Path_39171" data-name="Path 39171" d="M4223.658,3324.531v3.071h3.743a.643.643,0,0,0,.58-.693v-2.334a.185.185,0,0,0,0-.043Z" transform="translate(-4219.333 -3323.882)" fill="#ffce00"/>
        <path id="Path_39172" data-name="Path 39172" d="M4182.875,3319.057h8.646a.632.632,0,0,0-.579-.649h-7.489A.634.634,0,0,0,4182.875,3319.057Z" transform="translate(-4182.875 -3318.408)" fill="#fff91a"/>
        <path id="Path_39173" data-name="Path 39173" d="M4182.875,3324.575v2.334a.644.644,0,0,0,.578.693h3.748v-3.071h-4.326Z" transform="translate(-4182.875 -3323.882)" fill="#ffb000"/>
      </g>
      <g id="Group_177280" data-name="Group 177280" transform="translate(0 18.562)">
        <path id="Path_39174" data-name="Path 39174" d="M4223.658,3289.463v3.07h3.743a.642.642,0,0,0,.58-.692v-2.335a.178.178,0,0,0,0-.042Z" transform="translate(-4219.333 -3288.814)" fill="#ffce00"/>
        <path id="Path_39175" data-name="Path 39175" d="M4182.875,3283.99h8.646a.631.631,0,0,0-.579-.649h-7.489A.634.634,0,0,0,4182.875,3283.99Z" transform="translate(-4182.875 -3283.341)" fill="#fff91a"/>
        <path id="Path_39176" data-name="Path 39176" d="M4182.875,3289.505v2.335a.643.643,0,0,0,.578.692h3.748v-3.07h-4.326Z" transform="translate(-4182.875 -3288.814)" fill="#ffb000"/>
      </g>
      <g id="Group_177281" data-name="Group 177281" transform="translate(0 14.843)">
        <path id="Path_39177" data-name="Path 39177" d="M4223.658,3254.392v3.07h3.743a.642.642,0,0,0,.58-.692v-2.335a.182.182,0,0,0,0-.043Z" transform="translate(-4219.333 -3253.743)" fill="#ffce00"/>
        <path id="Path_39178" data-name="Path 39178" d="M4182.875,3248.922h8.646a.632.632,0,0,0-.579-.649h-7.489A.635.635,0,0,0,4182.875,3248.922Z" transform="translate(-4182.875 -3248.272)" fill="#fff91a"/>
        <path id="Path_39179" data-name="Path 39179" d="M4182.875,3254.435v2.335a.644.644,0,0,0,.578.692h3.748v-3.07h-4.326Z" transform="translate(-4182.875 -3253.743)" fill="#ffb000"/>
      </g>
      <g id="Group_177282" data-name="Group 177282" transform="translate(0 11.124)">
        <path id="Path_39180" data-name="Path 39180" d="M4223.658,3219.324v3.07h3.743a.642.642,0,0,0,.58-.691v-2.335a.183.183,0,0,0,0-.043Z" transform="translate(-4219.333 -3218.676)" fill="#ffce00"/>
        <path id="Path_39181" data-name="Path 39181" d="M4182.875,3213.853h8.646a.631.631,0,0,0-.579-.649h-7.489A.634.634,0,0,0,4182.875,3213.853Z" transform="translate(-4182.875 -3213.204)" fill="#fff91a"/>
        <path id="Path_39182" data-name="Path 39182" d="M4182.875,3219.367v2.335a.643.643,0,0,0,.578.691h3.748v-3.07h-4.326Z" transform="translate(-4182.875 -3218.676)" fill="#ffb000"/>
      </g>
      <g id="Group_177283" data-name="Group 177283" transform="translate(0 7.405)">
        <path id="Path_39183" data-name="Path 39183" d="M4223.658,3184.262v3.07h3.743a.642.642,0,0,0,.58-.692V3184.3a.178.178,0,0,0,0-.043Z" transform="translate(-4219.333 -3183.612)" fill="#ffce00"/>
        <path id="Path_39184" data-name="Path 39184" d="M4182.875,3178.782h8.646a.632.632,0,0,0-.579-.65h-7.489A.635.635,0,0,0,4182.875,3178.782Z" transform="translate(-4182.875 -3178.132)" fill="#fff91a"/>
        <path id="Path_39185" data-name="Path 39185" d="M4182.875,3184.3v2.335a.643.643,0,0,0,.578.692h3.748v-3.07h-4.326Z" transform="translate(-4182.875 -3183.612)" fill="#ffb000"/>
      </g>
      <g id="Group_177284" data-name="Group 177284" transform="translate(0 3.686)">
        <path id="Path_39186" data-name="Path 39186" d="M4223.658,3149.194v3.069h3.743a.642.642,0,0,0,.58-.691v-2.335a.178.178,0,0,0,0-.043Z" transform="translate(-4219.333 -3148.545)" fill="#ffce00"/>
        <path id="Path_39187" data-name="Path 39187" d="M4182.875,3143.72h8.646a.631.631,0,0,0-.579-.649h-7.489A.634.634,0,0,0,4182.875,3143.72Z" transform="translate(-4182.875 -3143.071)" fill="#fff91a"/>
        <path id="Path_39188" data-name="Path 39188" d="M4182.875,3149.237v2.335a.643.643,0,0,0,.578.691h3.748v-3.069h-4.326Z" transform="translate(-4182.875 -3148.545)" fill="#ffb000"/>
      </g>
      <g id="Group_177285" data-name="Group 177285" transform="translate(0 0)">
        <path id="Path_39189" data-name="Path 39189" d="M4223.658,3114.434v3.069h3.743a.642.642,0,0,0,.58-.692v-2.336a.173.173,0,0,0,0-.042Z" transform="translate(-4219.333 -3113.785)" fill="#ffce00"/>
        <path id="Path_39190" data-name="Path 39190" d="M4182.875,3108.958h8.646a.631.631,0,0,0-.579-.65h-7.489A.634.634,0,0,0,4182.875,3108.958Z" transform="translate(-4182.875 -3108.309)" fill="#fff91a"/>
        <path id="Path_39191" data-name="Path 39191" d="M4182.875,3114.476v2.336a.643.643,0,0,0,.578.692h3.748v-3.069h-4.326Z" transform="translate(-4182.875 -3113.785)" fill="#ffb000"/>
      </g>
    </g>
    <g id="Group_177291" data-name="Group 177291" transform="translate(4192.771 2896.5)">
      <g id="Group_177287" data-name="Group 177287" transform="translate(0 11.157)">
        <path id="Path_39192" data-name="Path 39192" d="M4316.981,3324.531v3.071h3.745a.644.644,0,0,0,.58-.693v-2.334a.258.258,0,0,0,0-.043Z" transform="translate(-4312.656 -3323.882)" fill="#ffce00"/>
        <path id="Path_39193" data-name="Path 39193" d="M4276.213,3319.057h8.645a.631.631,0,0,0-.577-.649h-7.489A.633.633,0,0,0,4276.213,3319.057Z" transform="translate(-4276.212 -3318.408)" fill="#fff91a"/>
        <path id="Path_39194" data-name="Path 39194" d="M4276.2,3324.575v2.334a.643.643,0,0,0,.58.693h3.744v-3.071H4276.2C4276.2,3324.546,4276.2,3324.56,4276.2,3324.575Z" transform="translate(-4276.201 -3323.882)" fill="#ffb000"/>
      </g>
      <g id="Group_177288" data-name="Group 177288" transform="translate(0 7.438)">
        <path id="Path_39195" data-name="Path 39195" d="M4316.981,3289.463v3.07h3.745a.643.643,0,0,0,.58-.692v-2.335a.248.248,0,0,0,0-.042Z" transform="translate(-4312.656 -3288.814)" fill="#ffce00"/>
        <path id="Path_39196" data-name="Path 39196" d="M4276.213,3283.99h8.645a.631.631,0,0,0-.577-.649h-7.489A.633.633,0,0,0,4276.213,3283.99Z" transform="translate(-4276.212 -3283.341)" fill="#fff91a"/>
        <path id="Path_39197" data-name="Path 39197" d="M4276.2,3289.505v2.335a.642.642,0,0,0,.58.692h3.744v-3.07H4276.2C4276.2,3289.477,4276.2,3289.491,4276.2,3289.505Z" transform="translate(-4276.201 -3288.814)" fill="#ffb000"/>
      </g>
      <g id="Group_177289" data-name="Group 177289" transform="translate(0 3.719)">
        <path id="Path_39198" data-name="Path 39198" d="M4316.981,3254.392v3.07h3.745a.643.643,0,0,0,.58-.692v-2.335a.254.254,0,0,0,0-.043Z" transform="translate(-4312.656 -3253.743)" fill="#ffce00"/>
        <path id="Path_39199" data-name="Path 39199" d="M4276.213,3248.922h8.645a.631.631,0,0,0-.577-.649h-7.489A.633.633,0,0,0,4276.213,3248.922Z" transform="translate(-4276.212 -3248.272)" fill="#fff91a"/>
        <path id="Path_39200" data-name="Path 39200" d="M4276.2,3254.435v2.335a.643.643,0,0,0,.58.692h3.744v-3.07H4276.2C4276.2,3254.407,4276.2,3254.42,4276.2,3254.435Z" transform="translate(-4276.201 -3253.743)" fill="#ffb000"/>
      </g>
      <g id="Group_177290" data-name="Group 177290" transform="translate(0 0)">
        <path id="Path_39201" data-name="Path 39201" d="M4316.981,3219.324v3.07h3.745a.643.643,0,0,0,.58-.691v-2.335a.255.255,0,0,0,0-.043Z" transform="translate(-4312.656 -3218.676)" fill="#ffce00"/>
        <path id="Path_39202" data-name="Path 39202" d="M4276.213,3213.853h8.645a.63.63,0,0,0-.577-.649h-7.489A.633.633,0,0,0,4276.213,3213.853Z" transform="translate(-4276.212 -3213.204)" fill="#fff91a"/>
        <path id="Path_39203" data-name="Path 39203" d="M4276.2,3219.367v2.335a.642.642,0,0,0,.58.691h3.744v-3.07H4276.2C4276.2,3219.339,4276.2,3219.353,4276.2,3219.367Z" transform="translate(-4276.201 -3218.676)" fill="#ffb000"/>
      </g>
    </g>
    <g id="Group_177294" data-name="Group 177294" transform="translate(4202.667 2903.938)">
      <g id="Group_177292" data-name="Group 177292" transform="translate(0 3.719)">
        <path id="Path_39204" data-name="Path 39204" d="M4410.306,3324.531v3.071h3.743a.642.642,0,0,0,.579-.693v-2.334a.428.428,0,0,0,0-.043Z" transform="translate(-4405.98 -3323.882)" fill="#ffce00"/>
        <path id="Path_39205" data-name="Path 39205" d="M4369.522,3319.057h8.645a.63.63,0,0,0-.577-.649H4370.1A.633.633,0,0,0,4369.522,3319.057Z" transform="translate(-4369.521 -3318.408)" fill="#fff91a"/>
        <path id="Path_39206" data-name="Path 39206" d="M4369.509,3324.575v2.334a.644.644,0,0,0,.581.693h3.745v-3.071h-4.324A.322.322,0,0,0,4369.509,3324.575Z" transform="translate(-4369.509 -3323.882)" fill="#ffb000"/>
      </g>
      <g id="Group_177293" data-name="Group 177293">
        <path id="Path_39207" data-name="Path 39207" d="M4410.306,3289.463v3.07h3.743a.642.642,0,0,0,.579-.692v-2.335a.412.412,0,0,0,0-.042Z" transform="translate(-4405.98 -3288.814)" fill="#ffce00"/>
        <path id="Path_39208" data-name="Path 39208" d="M4369.522,3283.99h8.645a.63.63,0,0,0-.577-.649H4370.1A.633.633,0,0,0,4369.522,3283.99Z" transform="translate(-4369.521 -3283.341)" fill="#fff91a"/>
        <path id="Path_39209" data-name="Path 39209" d="M4369.509,3289.505v2.335a.644.644,0,0,0,.581.692h3.745v-3.07h-4.324A.309.309,0,0,0,4369.509,3289.505Z" transform="translate(-4369.509 -3288.814)" fill="#ffb000"/>
      </g>
    </g>
    <g id="Group_177299" data-name="Group 177299" transform="translate(4184.641 2872.022)">
      <g id="Group_177295" data-name="Group 177295" transform="translate(2.56 2.627)">
        <path id="Path_39210" data-name="Path 39210" d="M4248.19,3031.232l-12.269-9.223-12.264-13.78,1.2-1.072,12.156,13.662,12.139,9.126Z" transform="translate(-4223.658 -3007.157)" fill="#474646"/>
      </g>
      <g id="Group_177296" data-name="Group 177296" transform="translate(0 0)">
        <path id="Path_39211" data-name="Path 39211" d="M4205.846,2985.552a3.162,3.162,0,1,1-3.16-3.162A3.162,3.162,0,0,1,4205.846,2985.552Z" transform="translate(-4199.522 -2982.39)" fill="#ff5122"/>
      </g>
      <g id="Group_177297" data-name="Group 177297" transform="translate(12.209 13.721)">
        <path id="Path_39212" data-name="Path 39212" d="M4320.97,3114.933a3.162,3.162,0,1,1-3.163-3.162A3.163,3.163,0,0,1,4320.97,3114.933Z" transform="translate(-4314.646 -3111.771)" fill="#ff5122"/>
      </g>
      <g id="Group_177298" data-name="Group 177298" transform="translate(24.413 22.895)">
        <path id="Path_39213" data-name="Path 39213" d="M4436.053,3201.442a3.162,3.162,0,1,1-3.162-3.163A3.162,3.162,0,0,1,4436.053,3201.442Z" transform="translate(-4429.729 -3198.279)" fill="#ff5122"/>
      </g>
    </g>
    <g id="Group_177301" data-name="Group 177301" transform="translate(4221.332 2899.574)">
      <g id="Group_177300" data-name="Group 177300" transform="translate(0 0)">
        <path id="Path_39214" data-name="Path 39214" d="M4558.6,3248.736a6.548,6.548,0,1,1-6.55-6.549A6.549,6.549,0,0,1,4558.6,3248.736Z" transform="translate(-4545.507 -3242.188)" fill="#fa0"/>
        <path id="Path_39215" data-name="Path 39215" d="M4570.854,3262.631a4.9,4.9,0,1,1-4.9-4.9A4.9,4.9,0,0,1,4570.854,3262.631Z" transform="translate(-4559.406 -3256.082)" fill="#ffc700"/>
        <path id="Path_39216" data-name="Path 39216" d="M4592.833,3278.465a2.287,2.287,0,0,0-1.137-.49l-.529-.106a1.372,1.372,0,0,1-.519-.185.355.355,0,0,1-.145-.3.407.407,0,0,1,.214-.38,1.348,1.348,0,0,1,.655-.122,3.071,3.071,0,0,1,.71.09,4.373,4.373,0,0,1,.772.267v-1.016a7.463,7.463,0,0,0-.863-.179c-.085-.012-.169-.019-.251-.027v-.56h-.931V3276a1.783,1.783,0,0,0-.967.366,1.354,1.354,0,0,0-.463,1.1,1.239,1.239,0,0,0,.334.911,2.058,2.058,0,0,0,1.053.492l.48.107a1.482,1.482,0,0,1,.583.219.467.467,0,0,1-.069.733,1.168,1.168,0,0,1-.62.135,3,3,0,0,1-.831-.123,4.709,4.709,0,0,1-.89-.369v1.045a5.542,5.542,0,0,0,.922.257c.156.031.311.052.467.067v.549h.931v-.556a1.834,1.834,0,0,0,.958-.36,1.442,1.442,0,0,0,.472-1.182A1.242,1.242,0,0,0,4592.833,3278.465Z" transform="translate(-4584.728 -3271.928)" fill="#fff039"/>
      </g>
      <path id="Path_39217" data-name="Path 39217" d="M4570.965,3266.394a.536.536,0,1,1-.536-.536A.537.537,0,0,1,4570.965,3266.394Z" transform="translate(-4567.308 -3263.348)" fill="#fff"/>
    </g>
    <g id="Group_177303" data-name="Group 177303" transform="translate(4212.239 2909.871)">
      <g id="Group_177302" data-name="Group 177302" transform="translate(0 0)">
        <path id="Path_39218" data-name="Path 39218" d="M4469.5,3344.158a4.867,4.867,0,1,1-4.869-4.867A4.869,4.869,0,0,1,4469.5,3344.158Z" transform="translate(-4459.766 -3339.291)" fill="#fa0"/>
        <path id="Path_39219" data-name="Path 39219" d="M4478.606,3354.488a3.642,3.642,0,1,1-3.644-3.643A3.643,3.643,0,0,1,4478.606,3354.488Z" transform="translate(-4470.096 -3349.62)" fill="#ffc700"/>
        <path id="Path_39220" data-name="Path 39220" d="M4494.942,3366.256a1.7,1.7,0,0,0-.847-.364l-.392-.079a1.01,1.01,0,0,1-.386-.138.259.259,0,0,1-.107-.223.3.3,0,0,1,.159-.282,1.007,1.007,0,0,1,.486-.091,2.324,2.324,0,0,1,.529.067,3.176,3.176,0,0,1,.572.2v-.756a5.288,5.288,0,0,0-.643-.133c-.062-.009-.123-.014-.184-.02v-.416h-.691v.407a1.318,1.318,0,0,0-.719.273,1,1,0,0,0-.345.819.918.918,0,0,0,.249.677,1.532,1.532,0,0,0,.782.367l.357.079a1.11,1.11,0,0,1,.435.162.348.348,0,0,1-.052.545.864.864,0,0,1-.46.1,2.241,2.241,0,0,1-.618-.091,3.452,3.452,0,0,1-.661-.274v.777a4.24,4.24,0,0,0,.685.191c.116.022.232.038.348.049v.408h.691v-.413a1.369,1.369,0,0,0,.712-.267,1.075,1.075,0,0,0,.351-.879A.923.923,0,0,0,4494.942,3366.256Z" transform="translate(-4488.917 -3361.398)" fill="#fff039"/>
      </g>
      <path id="Path_39221" data-name="Path 39221" d="M4478.689,3357.283a.4.4,0,1,1-.4-.4A.4.4,0,0,1,4478.689,3357.283Z" transform="translate(-4475.969 -3355.019)" fill="#fff"/>
    </g>
    <g id="Group_177305" data-name="Group 177305" transform="translate(4190.301 2858.93)">
      <g id="Group_177304" data-name="Group 177304" transform="translate(0 0)">
        <path id="Path_39222" data-name="Path 39222" d="M4264.294,2864.625a5.7,5.7,0,1,1-5.7-5.695A5.7,5.7,0,0,1,4264.294,2864.625Z" transform="translate(-4252.904 -2858.93)" fill="#fa0"/>
        <path id="Path_39223" data-name="Path 39223" d="M4274.953,2876.709a4.261,4.261,0,1,1-4.262-4.262A4.262,4.262,0,0,1,4274.953,2876.709Z" transform="translate(-4264.996 -2871.013)" fill="#ffc700"/>
        <path id="Path_39224" data-name="Path 39224" d="M4294.064,2890.481a1.989,1.989,0,0,0-.991-.426l-.458-.092a1.174,1.174,0,0,1-.45-.161.3.3,0,0,1-.127-.262.355.355,0,0,1,.187-.33,1.174,1.174,0,0,1,.57-.107,2.633,2.633,0,0,1,.617.079,3.717,3.717,0,0,1,.67.233v-.884a6.35,6.35,0,0,0-.751-.155c-.073-.011-.145-.017-.216-.024v-.487h-.81v.476a1.554,1.554,0,0,0-.842.319,1.179,1.179,0,0,0-.4.96,1.08,1.08,0,0,0,.291.792,1.8,1.8,0,0,0,.916.428l.417.093a1.261,1.261,0,0,1,.507.19.365.365,0,0,1,.129.3.374.374,0,0,1-.188.335,1.032,1.032,0,0,1-.54.117,2.639,2.639,0,0,1-.722-.108,4.066,4.066,0,0,1-.773-.321v.908a4.932,4.932,0,0,0,.8.225c.136.026.271.044.407.057v.478h.81v-.483a1.6,1.6,0,0,0,.833-.312,1.255,1.255,0,0,0,.41-1.028A1.079,1.079,0,0,0,4294.064,2890.481Z" transform="translate(-4287.015 -2884.796)" fill="#fff039"/>
      </g>
      <path id="Path_39225" data-name="Path 39225" d="M4275.062,2879.982a.466.466,0,1,1-.468-.466A.467.467,0,0,1,4275.062,2879.982Z" transform="translate(-4271.879 -2877.333)" fill="#fff"/>
    </g>
  </g>
</svg>
