<svg xmlns="http://www.w3.org/2000/svg" xmlns:xlink="http://www.w3.org/1999/xlink" width="78.24" height="82.314" viewBox="0 0 78.24 82.314">
  <defs>
    <linearGradient id="linear-gradient" x1="0.5" x2="0.5" y2="1" gradientUnits="objectBoundingBox">
      <stop offset="0" stop-color="#e88218"/>
      <stop offset="1" stop-color="#fff"/>
    </linearGradient>
  </defs>
  <g id="Group_178967" data-name="Group 178967" transform="translate(-653.24 -4204.285)">
    <path id="instilling-good-behavior-in-down-syndrome-children-800x533" d="M34.475,2.434C7.062,12.451,0,17.869,0,36.909S36.92,76.166,55.96,76.166s16.3-22.745,16.3-41.785S61.888-7.583,34.475,2.434Z" transform="translate(728.559 4283.525) rotate(180)" fill="#028a98"/>
    <g id="instilling-good-behavior-in-down-syndrome-children-800x533-2" data-name="instilling-good-behavior-in-down-syndrome-children-800x533" transform="translate(731.48 4286.6) rotate(180)" fill="none" opacity="0.67">
      <path d="M37.258,2.63C7.632,13.456,0,19.311,0,39.888S39.9,82.315,60.477,82.315,78.092,57.733,78.092,37.156,66.883-8.2,37.258,2.63Z" stroke="none"/>
      <path d="M 50.64768981933594 0.9999923706054688 C 46.65697479248047 0.9999923706054688 42.26746368408203 1.86456298828125 37.60111236572266 3.5697021484375 C 29.40413665771484 6.564964294433594 23.78397369384766 8.863739013671875 19.3781852722168 11.0233039855957 C 14.41118621826172 13.45795440673828 10.86305999755859 15.77775192260742 8.2120361328125 18.3238525390625 C 5.525527954101562 20.90401458740234 3.744209289550781 23.73033905029297 2.606124877929688 27.21842956542969 C 1.510360717773438 30.57681655883789 1 34.60277938842773 1 39.88837814331055 C 1 42.23665618896484 1.561775207519531 44.70198822021484 2.669723510742188 47.21592712402344 C 3.728790283203125 49.61892700195312 5.296211242675781 52.09098052978516 7.328453063964844 54.56339263916016 C 11.11781311035156 59.17350387573242 16.55821228027344 63.8114013671875 23.0615119934082 67.97570037841797 C 29.190673828125 71.90042877197266 35.97573852539062 75.24139404296875 42.68316268920898 77.63740539550781 C 49.41752624511719 80.04302978515625 55.57061004638672 81.3145751953125 60.47723770141602 81.3145751953125 C 65.13179016113281 81.3145751953125 68.65705871582031 80.031982421875 71.25450134277344 77.39350128173828 C 77.58621215820312 70.96173858642578 77.37249755859375 57.33201599121094 77.16584014892578 44.15103912353516 C 77.12962341308594 41.84189224243164 77.09218597412109 39.4541015625 77.09218597412109 37.15640258789062 C 77.09218597412109 32.82807922363281 76.57606506347656 28.403564453125 75.59960174560547 24.36119079589844 C 74.53266143798828 19.94424057006836 72.95108795166016 16.01444244384766 70.89883422851562 12.68091583251953 C 68.66089630126953 9.045806884765625 65.90776062011719 6.209213256835938 62.71592712402344 4.249954223632812 C 59.20285034179688 2.093528747558594 55.14268493652344 1.000076293945312 50.64791107177734 0.9999923706054688 L 50.64768981933594 0.9999923706054688 M 50.64823150634766 0 C 70.32872009277344 0.0003662109375 78.09218597412109 20.03194046020508 78.09218597412109 37.15640258789062 C 78.09218597412109 57.73337936401367 81.05419921875 82.3145751953125 60.47723770141602 82.3145751953125 C 39.90027618408203 82.3145751953125 0 60.46535491943359 0 39.88837814331055 C 0 19.3113899230957 7.632286071777344 13.45596694946289 37.25790023803711 2.630439758300781 C 42.2286491394043 0.8140716552734375 46.68038177490234 -7.62939453125e-05 50.64823150634766 0 Z" stroke="none" fill="#f58737"/>
    </g>
    <g id="staff-people-group-in-a-circular-arrow-svgrepo-com" transform="translate(656.608 4188.729)">
      <g id="_x32__137_" transform="translate(12.807 32.624)">
        <g id="Group_177374" data-name="Group 177374" transform="translate(0 0)">
          <path id="Path_41336" data-name="Path 41336" d="M35.924,21.3c0-.053-.005-.106-.011-.157-.045-2-.394-3.623-1.97-4.29a5.628,5.628,0,0,0-4.209-.3c-.07.028-.255.271-.325.315s-.449-.081-.592-.047c-2.362.337-3.142,2.563-2.97,4.3a7.748,7.748,0,0,1,.8,3.513,4.982,4.982,0,0,0,4.194,2.714c2.408,0,4.316-2.033,4.91-4.247a.477.477,0,0,0,.433-.433l.074-.875A.481.481,0,0,0,35.924,21.3Zm-5.09,5.373c-2.486,0-4.344-2.633-4.344-4.99,0-.111.009-.219.018-.328,1.036-.379,3.026-1.171,3.244-1.588.9.94,4.1,1.468,5.5,1.645.007.089.015.18.015.271C35.266,24,33.33,26.677,30.834,26.677Z" transform="translate(-1.432 -1.854)" fill="url(#linear-gradient)"/>
          <path id="Path_41337" data-name="Path 41337" d="M9.642,21.779l.074.875a.485.485,0,0,0,.466.437c.581,2.219,2.456,4.262,4.832,4.262a5.091,5.091,0,0,0,4.306-2.8,5.535,5.535,0,0,1,.9-3.167c-.039-.028-.068-.07-.115-.087,0-.053-.005-.106-.011-.157-.045-2-.394-3.623-1.97-4.29a5.628,5.628,0,0,0-4.209-.3c-.07.028-.253.271-.325.315s-.449-.081-.592-.047c-2.362.337-3.142,2.564-2.97,4.3-.005.049-.008.1-.012.146A.479.479,0,0,0,9.642,21.779Zm1.042-.418c1.036-.379,3.026-1.171,3.242-1.588.9.94,4.1,1.468,5.5,1.645.007.089.015.18.015.271,0,2.307-1.936,4.99-4.431,4.99s-4.344-2.633-4.344-4.99A3.247,3.247,0,0,1,10.684,21.361Z" transform="translate(-7.159 -1.854)" fill="url(#linear-gradient)"/>
          <path id="Path_41338" data-name="Path 41338" d="M19.107,9.769a3.276,3.276,0,0,0,2.939,2.593,3.316,3.316,0,0,0,2.988-2.583.291.291,0,0,0,.264-.264l.045-.532a.293.293,0,0,0-.2-.3c0-.031,0-.064-.005-.095-.028-1.218-.241-2.2-1.2-2.61a3.419,3.419,0,0,0-2.561-.18c-.043.018-.154.165-.2.192s-.273-.049-.36-.028a2.248,2.248,0,0,0-1.806,2.616c0,.028-.005.06-.008.089a.292.292,0,0,0-.226.307l.046.532A.292.292,0,0,0,19.107,9.769Zm.306-1.053a6.586,6.586,0,0,0,1.972-.967c.55.571,2.494.894,3.348,1,0,.056.009.11.009.165a3.046,3.046,0,0,1-2.7,3.034A2.982,2.982,0,0,1,19.4,8.915C19.4,8.847,19.408,8.782,19.413,8.716Z" transform="translate(-3.926 -5.624)" fill="url(#linear-gradient)"/>
          <path id="Path_41339" data-name="Path 41339" d="M14.91,8.736A3.122,3.122,0,0,0,12.4,12.368c0,.041-.007.083-.011.123a.4.4,0,0,0-.313.426l.064.739a.406.406,0,0,0,.393.368,4.551,4.551,0,0,0,4.082,3.6,4.6,4.6,0,0,0,4.148-3.586.408.408,0,0,0,.367-.367l.062-.738a.409.409,0,0,0-.279-.42c0-.043,0-.088-.009-.133-.038-1.692-.333-3.06-1.664-3.624a4.754,4.754,0,0,0-3.555-.25c-.06.024-.214.229-.275.267S15.031,8.706,14.91,8.736Zm.787,2.487c.764.793,3.463,1.24,4.649,1.389.005.076.012.152.012.229,0,1.948-1.635,4.213-3.743,4.213s-3.669-2.224-3.669-4.213c0-.093.007-.185.014-.276A9.176,9.176,0,0,0,15.7,11.223Z" transform="translate(-6.297 -4.688)" fill="url(#linear-gradient)"/>
          <path id="Path_41340" data-name="Path 41340" d="M24.083,14.024a4.551,4.551,0,0,0,4.082,3.6,4.6,4.6,0,0,0,4.148-3.586.394.394,0,0,0,.292-.211l.1-.011a.072.072,0,0,0,.068-.058l.064-.736a.074.074,0,0,0-.053-.07l-.042-.015a.409.409,0,0,0-.28-.42c0-.043,0-.088-.008-.133-.038-1.692-.333-3.06-1.664-3.624a4.754,4.754,0,0,0-3.555-.25c-.06.024-.214.229-.275.267s-.378-.068-.5-.039a3.122,3.122,0,0,0-2.509,3.632c0,.041-.007.083-.012.123a.4.4,0,0,0-.311.426l.064.739A.4.4,0,0,0,24.083,14.024Zm.424-1.462a9.126,9.126,0,0,0,2.737-1.342c.762.793,3.463,1.24,4.65,1.389.005.076.012.152.012.229,0,1.948-1.635,4.213-3.743,4.213s-3.67-2.224-3.67-4.213C24.5,12.746,24.5,12.653,24.507,12.562Z" transform="translate(-2.21 -4.688)" fill="url(#linear-gradient)"/>
          <path id="Path_41341" data-name="Path 41341" d="M19.016,13.612a5.753,5.753,0,0,1-1.228,2.128l4.6,0v-.008l4.694,0a5.79,5.79,0,0,1-1.2-2.121.735.735,0,0,1-.458-.621l-.064-.739a.737.737,0,0,1,.319-.674,4.024,4.024,0,0,1,.015-.8,1.693,1.693,0,0,0-.979-.536.38.38,0,0,0-.2.026L23.3,11.907l-.919-.732-.005,0v0h0l-.917.734-1.21-1.637a.392.392,0,0,0-.2-.024,1.651,1.651,0,0,0-.894.454c.032.3.054.607.062.908a.742.742,0,0,1,.288.651L19.446,13A.737.737,0,0,1,19.016,13.612Z" transform="translate(-4.276 -3.991)" fill="url(#linear-gradient)"/>
          <path id="Path_41342" data-name="Path 41342" d="M33.526,21.764a5.962,5.962,0,0,1-1.687,2.377A5.918,5.918,0,0,0,33.526,21.764Z" transform="translate(0.695 0.086)" fill="url(#linear-gradient)"/>
          <path id="Path_41343" data-name="Path 41343" d="M12.841,17.084l.073.014.03-.034a.874.874,0,0,1,.306-.257,4.851,4.851,0,0,1,2.031-.287l-1.324-1.791a.544.544,0,0,0-.275-.034c-1.241.175-2.024,1.378-2.521,2.777a3.821,3.821,0,0,1,1.248-.417l.11-.009A2.626,2.626,0,0,1,12.841,17.084Z" transform="translate(-6.62 -2.417)" fill="url(#linear-gradient)"/>
          <path id="Path_41344" data-name="Path 41344" d="M16.7,25.151l.092,1.076a.593.593,0,0,0,.573.539c.715,2.729,3.022,5.246,5.946,5.246,2.966,0,5.311-2.5,6.043-5.227a.6.6,0,0,0,.536-.535l.091-1.075a.588.588,0,0,0-.407-.609c-.005-.064-.007-.13-.015-.194-.053-2.465-.482-4.458-2.425-5.28a6.926,6.926,0,0,0-5.178-.366c-.087.034-.311.333-.4.389s-.552-.1-.728-.057c-2.907.414-3.866,3.154-3.655,5.291-.005.06-.011.119-.015.18A.588.588,0,0,0,16.7,25.151Zm1.283-.516c1.273-.466,3.723-1.44,3.988-1.954,1.114,1.156,5.047,1.806,6.773,2.023.008.111.019.222.019.333,0,2.84-2.383,6.139-5.453,6.139s-5.346-3.241-5.346-6.139C17.959,24.9,17.97,24.769,17.979,24.635Z" transform="translate(-4.663 -1.111)" fill="url(#linear-gradient)"/>
          <path id="Path_41345" data-name="Path 41345" d="M16.908,16.995l-1.275-1.017-.008.007v.007h0l-.818.651a7.677,7.677,0,0,1,1.619.471c1.82.77,2.125,2.7,2.173,4.515a4.311,4.311,0,0,1,2.843-1.595l.123-.011a2.392,2.392,0,0,1,.384.047l.069.012c-.332-2.146-1.149-5.112-3.156-5.395a.532.532,0,0,0-.276.035Z" transform="translate(-5.331 -2.42)" fill="url(#linear-gradient)"/>
          <path id="Path_41346" data-name="Path 41346" d="M31.837,14.686a.526.526,0,0,0-.275.035L29.882,17l-1.275-1.017-.008.007v.007h0l-1.275,1.017-1.681-2.274a.536.536,0,0,0-.273-.034c-1.788.252-2.634,2.639-3.031,4.675a8.978,8.978,0,0,1,2.932.718,3.707,3.707,0,0,1,1.466,1.094,3.874,3.874,0,0,1,3.272-4.125l.11-.009a2.07,2.07,0,0,1,.324.039l.073.014c.009-.011.02-.022.03-.034a.851.851,0,0,1,.306-.257,5.38,5.38,0,0,1,3.2-.112A3.12,3.12,0,0,0,31.837,14.686Z" transform="translate(-2.667 -2.42)" fill="url(#linear-gradient)"/>
          <path id="Path_41347" data-name="Path 41347" d="M24.078,38.839l9.632-.008s-.294-10.45-4.921-11.1a.767.767,0,0,0-.4.05L25.94,31.091,24.081,29.61l-.011.008v.011l0,0-1.859,1.482L19.76,27.794a.8.8,0,0,0-.4-.05c-4.627.65-4.921,11.1-4.921,11.1l9.639.005v-.014Z" transform="translate(-5.461 2.193)" fill="url(#linear-gradient)"/>
          <path id="Path_41348" data-name="Path 41348" d="M31.477,32.9,39.3,32.9s-.238-8.492-4-9.024a.635.635,0,0,0-.325.041l-1.991,2.693L31.48,25.4l-.009.008v.007l-1.509,1.2-1.99-2.691a.687.687,0,0,0-.278-.034l-.038.444a.911.911,0,0,1-.6.785A8.017,8.017,0,0,1,24.083,29.3c-.05.248-.092.489-.133.724l.86-1.162.087-.035a1.161,1.161,0,0,1,.581-.072c1.928.272,3.137,2.067,3.9,4.156l2.1,0V32.9Z" transform="translate(-2.096 0.83)" fill="url(#linear-gradient)"/>
          <path id="Path_41349" data-name="Path 41349" d="M7.807,32.912l7.833,0V32.9h2.121c.768-2.078,1.975-3.86,3.9-4.128a1.242,1.242,0,0,1,.573.069l.089.035.842,1.139c-.045-.272-.095-.55-.154-.835a8.039,8.039,0,0,1-2.775-4.064.921.921,0,0,1-.639-.8l-.035-.417c-.031-.005-.057-.02-.089-.026a.644.644,0,0,0-.326.039L17.152,26.6l-1.509-1.2-.009.008v.005l-1.509,1.2-1.99-2.693a.675.675,0,0,0-.326-.039C8.045,24.417,7.807,32.912,7.807,32.912Z" transform="translate(-7.807 0.83)" fill="url(#linear-gradient)"/>
        </g>
      </g>
    </g>
  </g>
</svg>
