<svg xmlns="http://www.w3.org/2000/svg" width="78.24" height="82.314" viewBox="0 0 78.24 82.314">
  <g id="Group_178964" data-name="Group 178964" transform="translate(-653.24 -3907.5)">
    <g id="Group_177405" data-name="Group 177405" transform="translate(653.24 3907.5)">
      <path id="instilling-good-behavior-in-down-syndrome-children-800x533" d="M34.475,73.732C7.062,63.715,0,58.3,0,39.257S36.92,0,55.96,0s16.3,22.745,16.3,41.785S61.888,83.749,34.475,73.732Z" transform="translate(2.922 3.074)" fill="#eee"/>
      <g id="instilling-good-behavior-in-down-syndrome-children-800x533-2" data-name="instilling-good-behavior-in-down-syndrome-children-800x533" transform="translate(0 0)" fill="none" opacity="0.67">
        <path d="M37.258,79.684C7.632,68.859,0,63,0,42.426S39.9,0,60.477,0,78.092,24.581,78.092,45.158,66.883,90.51,37.258,79.684Z" stroke="none"/>
        <path d="M 50.64822387695312 81.31453704833984 C 55.1426887512207 81.31453704833984 59.20283889770508 80.22115325927734 62.71591186523438 78.06472778320312 C 65.90775299072266 76.10549926757812 68.660888671875 73.26891326904297 70.89882659912109 69.63376617431641 C 72.95108795166016 66.30022430419922 74.53264617919922 62.37040328979492 75.59958648681641 57.95341491699219 C 76.57606506347656 53.91101455688477 77.09218597412109 49.48647689819336 77.09218597412109 45.15815353393555 C 77.09218597412109 42.86045455932617 77.12962341308594 40.47266387939453 77.16584014892578 38.16351699829102 C 77.37249755859375 24.98255348205566 77.58621215820312 11.35284042358398 71.25450897216797 4.921077728271484 C 68.65707397460938 2.282602787017822 65.13179779052734 1.00000274181366 60.47723770141602 1.00000274181366 C 55.57061386108398 1.00000274181366 49.41752624511719 2.271552801132202 42.68316268920898 4.677177906036377 C 35.97573852539062 7.073177814483643 29.190673828125 10.41413974761963 23.0615119934082 14.33886528015137 C 16.55821228027344 18.50316429138184 11.11781215667725 23.14106559753418 7.328449726104736 27.75116539001465 C 5.296212196350098 30.22357749938965 3.728787183761597 32.69562911987305 2.669724702835083 35.09862899780273 C 1.561774611473083 37.61256408691406 0.9999995827674866 40.07790374755859 0.9999995827674866 42.42617797851562 C 0.9999995827674866 47.71176528930664 1.510362148284912 51.73772811889648 2.606124639511108 55.09611511230469 C 3.74421215057373 58.5842170715332 5.525524616241455 61.41052627563477 8.212037086486816 63.99070358276367 C 10.86307430267334 66.53678894042969 14.41118717193604 68.85659027099609 19.37818717956543 71.29123687744141 C 23.78397369384766 73.4508056640625 29.40413665771484 75.74958038330078 37.60111236572266 78.74484252929688 C 42.26744842529297 80.44996643066406 46.65712356567383 81.31453704833984 50.64822387695312 81.31453704833984 M 50.64823150634766 82.31454467773438 C 46.68037796020508 82.31454467773438 42.2286491394043 81.50046539306641 37.25790023803711 79.68410491943359 C 7.632299423217773 68.85857391357422 -3.906250185536919e-07 63.00315093994141 -3.906250185536919e-07 42.42617797851562 C -3.906250185536919e-07 21.84920310974121 39.90027618408203 2.703857489905204e-06 60.47723770141602 2.703857489905204e-06 C 81.05419921875 2.703857489905204e-06 78.09218597412109 24.5811767578125 78.09218597412109 45.15815353393555 C 78.09218597412109 62.28261566162109 70.32872009277344 82.31454467773438 50.64823150634766 82.31454467773438 Z" stroke="none" fill="#f58737"/>
      </g>
    </g>
    <g id="Group_178143" data-name="Group 178143" transform="translate(489.845 3894.902)">
      <g id="Group_178133" data-name="Group 178133" transform="translate(180.22 28.885)">
        <g id="Group_178131" data-name="Group 178131" transform="translate(4.393 5.391)">
          <path id="Path_41350" data-name="Path 41350" d="M196.919,39.879A7.857,7.857,0,0,0,191.491,53.3a8.821,8.821,0,0,1,1.534,1.679,5.077,5.077,0,0,1,.57,2.1v2.854h6.647V57.133a7.712,7.712,0,0,1,.475-2.1,6.2,6.2,0,0,1,1.317-1.434,7.855,7.855,0,0,0-5.115-13.716Z" transform="translate(-189.18 -39.879)" fill="#ffa465"/>
          <path id="Path_41351" data-name="Path 41351" d="M201.584,53.381h-.006c-.085,0-.175-.124-.271-.253a.868.868,0,0,0-.651-.457h-.014a.939.939,0,0,0-.7.466c-.086.109-.184.233-.254.245a1.261,1.261,0,0,1-.255-.049c-.3-.076-.721-.178-.954.069-.184.194-.2.55-.031,1.087,1.519,4.995,1.644,5.587,1.648,5.61a.137.137,0,0,0,.133.109h.026a.134.134,0,0,0,.107-.159c0-.021-.117-.583-1.653-5.637-.173-.564-.1-.757-.034-.822.127-.133.455-.051.693.007a1.055,1.055,0,0,0,.362.053c.176-.027.3-.181.426-.344.141-.178.285-.363.487-.363h.01c.185,0,.307.17.436.346s.266.36.5.362a.135.135,0,0,0,0-.27Z" transform="translate(-193.845 -46.399)" fill="#3c3c3c"/>
          <path id="Path_41352" data-name="Path 41352" d="M206.974,53.333a1.211,1.211,0,0,1-.257.049c-.069-.011-.166-.135-.252-.244a.937.937,0,0,0-.7-.467h-.015a.865.865,0,0,0-.65.456c-.1.13-.188.253-.274.253h-.005a.135.135,0,0,0,0,.27c.234,0,.368-.181.5-.363s.254-.341.44-.345h.008c.2,0,.346.184.487.363.129.163.249.317.424.344a1.09,1.09,0,0,0,.363-.053c.239-.059.566-.141.693-.007.061.065.14.258-.032.822-1.537,5.051-1.675,5.61-1.681,5.631a.137.137,0,0,0,.1.163.11.11,0,0,0,.031,0,.134.134,0,0,0,.131-.1c.007-.022.15-.6,1.675-5.616.164-.537.154-.893-.029-1.087C207.7,53.155,207.279,53.257,206.974,53.333Z" transform="translate(-197.083 -46.399)" fill="#3c3c3c"/>
          <path id="Path_41353" data-name="Path 41353" d="M203.235,66.779c-.919,0-1.664.03-1.664,1.143v4.444c0,1.115,3.329,1.115,3.329,0V67.922C204.9,66.809,204.155,66.779,203.235,66.779Z" transform="translate(-195.495 -53.589)" fill="#e7efef" opacity="0.4"/>
          <rect id="Rectangle_163288" data-name="Rectangle 163288" width="0.968" height="3.604" transform="translate(7.207 9.586)" fill="#e7efef" opacity="0.4"/>
          <path id="Path_41354" data-name="Path 41354" d="M204.645,59.135H203.58a.145.145,0,1,0,0,.29h1.065a.145.145,0,0,0,0-.29Z" transform="translate(-196.445 -49.693)" fill="#e7efef" opacity="0.4"/>
          <path id="Path_41355" data-name="Path 41355" d="M198.185,81.42c0,1.835,2.394,3.324,3.324,3.324.9,0,3.323-1.489,3.323-3.324V78.581h-6.647Z" transform="translate(-193.77 -59.604)" fill="#0093bd"/>
          <path id="Path_41356" data-name="Path 41356" d="M204.7,89.707h-1.159c-.127,0-.227.2-.227.453s.1.454.227.454H204.7c.128,0,.228-.2.228-.454S204.833,89.707,204.7,89.707Z" transform="translate(-196.386 -65.275)" fill="#9ba4ab"/>
          <path id="Path_41357" data-name="Path 41357" d="M204.546,79.584l-6.1.289a.272.272,0,1,0,.028.543l6.1-.29a.271.271,0,1,0-.026-.542Z" transform="translate(-193.771 -60.115)" fill="#c9c9c2"/>
          <path id="Path_41358" data-name="Path 41358" d="M204.545,81.6l-6.1.3a.273.273,0,1,0,.028.544l6.1-.3a.272.272,0,1,0-.028-.543Z" transform="translate(-193.771 -61.142)" fill="#c9c9c2"/>
          <path id="Path_41359" data-name="Path 41359" d="M204.547,83.63l-6.1.288a.272.272,0,1,0,.027.544l6.1-.288a.272.272,0,1,0-.025-.544Z" transform="translate(-193.771 -62.177)" fill="#c9c9c2"/>
          <path id="Path_41360" data-name="Path 41360" d="M206.275,67.506a.423.423,0,0,0-.424.423v4.4a.424.424,0,0,0,.848,0v-4.4A.423.423,0,0,0,206.275,67.506Z" transform="translate(-197.677 -53.96)" fill="#fff" opacity="0.4"/>
          <path id="Path_41361" data-name="Path 41361" d="M205.022,60.335a.158.158,0,0,0-.158.156v2.677a.158.158,0,0,0,.316,0V60.491A.158.158,0,0,0,205.022,60.335Z" transform="translate(-197.174 -50.305)" fill="#fff" opacity="0.4"/>
          <path id="Path_41362" data-name="Path 41362" d="M201.3,89.1c.01.23.1.414.223.414h1.159c.121,0,.216-.186.225-.42a5.126,5.126,0,0,0,1.948-1.546h-5.507A5.064,5.064,0,0,0,201.3,89.1Z" transform="translate(-194.36 -64.174)" fill="#3c3c3c"/>
          <path id="Path_41363" data-name="Path 41363" d="M211.79,44.855c-.868.383-1.013,1.957-.322,3.515s1.95,2.51,2.817,2.126,1.011-1.957.322-3.515S212.655,44.471,211.79,44.855Z" transform="translate(-200.317 -42.372)" fill="#ffbd8f"/>
        </g>
        <g id="Group_178132" data-name="Group 178132">
          <path id="Path_41364" data-name="Path 41364" d="M183.756,50.724h-3.422a.114.114,0,0,0,0,.229h3.422a.114.114,0,1,0,0-.229Z" transform="translate(-180.22 -40.016)" fill="#ff6801"/>
          <path id="Path_41365" data-name="Path 41365" d="M225.788,50.724h-3.422a.114.114,0,1,0,0,.229h3.422a.114.114,0,0,0,0-.229Z" transform="translate(-201.642 -40.016)" fill="#ff6801"/>
          <path id="Path_41366" data-name="Path 41366" d="M222.52,40.025l-2.714,2.522a.115.115,0,0,0-.006.162.114.114,0,0,0,.162.006l2.715-2.521a.115.115,0,0,0-.156-.168Z" transform="translate(-200.377 -34.547)" fill="#ff6801"/>
          <path id="Path_41367" data-name="Path 41367" d="M217.46,33.809l-1.807,3.517a.115.115,0,0,0,.049.154.12.12,0,0,0,.052.013.115.115,0,0,0,.1-.062l1.807-3.517a.114.114,0,1,0-.2-.1Z" transform="translate(-198.272 -31.363)" fill="#ff6801"/>
          <path id="Path_41368" data-name="Path 41368" d="M211.665,30.032a.115.115,0,0,0-.138.085l-.934,3.984a.114.114,0,0,0,.085.138.118.118,0,0,0,.026,0,.115.115,0,0,0,.112-.089l.934-3.984A.114.114,0,0,0,211.665,30.032Z" transform="translate(-195.698 -29.468)" fill="#ff6801"/>
          <path id="Path_41369" data-name="Path 41369" d="M204.632,28.885a.114.114,0,0,0-.114.115l0,4.142a.115.115,0,0,0,.229,0l0-4.142A.115.115,0,0,0,204.632,28.885Z" transform="translate(-192.601 -28.885)" fill="#ff6801"/>
          <path id="Path_41370" data-name="Path 41370" d="M223.091,45.756l-1.836.981a.115.115,0,0,0,.054.216.117.117,0,0,0,.054-.013l1.836-.982a.115.115,0,1,0-.108-.2Z" transform="translate(-201.103 -37.477)" fill="#ff6801"/>
          <path id="Path_41371" data-name="Path 41371" d="M219.211,39.347l-1.371,1.774a.115.115,0,0,0,.021.161.113.113,0,0,0,.07.024.117.117,0,0,0,.091-.045l1.371-1.774a.115.115,0,0,0-.182-.14Z" transform="translate(-199.382 -34.194)" fill="#ff6801"/>
          <path id="Path_41372" data-name="Path 41372" d="M214.177,35.007a.115.115,0,0,0-.149.066l-.851,2.2a.115.115,0,0,0,.066.148.123.123,0,0,0,.042.008.115.115,0,0,0,.107-.074l.851-2.2A.115.115,0,0,0,214.177,35.007Z" transform="translate(-197.013 -32.001)" fill="#ff6801"/>
          <path id="Path_41373" data-name="Path 41373" d="M207.909,32.671a.113.113,0,0,0-.126.1l-.237,2.412a.115.115,0,0,0,.1.126h.011a.114.114,0,0,0,.114-.1l.237-2.412A.115.115,0,0,0,207.909,32.671Z" transform="translate(-194.147 -30.814)" fill="#ff6801"/>
          <path id="Path_41374" data-name="Path 41374" d="M184.338,40.025a.115.115,0,0,0-.156.168l2.714,2.521a.116.116,0,0,0,.078.031.115.115,0,0,0,.078-.2Z" transform="translate(-182.22 -34.547)" fill="#ff6801"/>
          <path id="Path_41375" data-name="Path 41375" d="M190.341,33.808a.115.115,0,0,0-.2.1l1.808,3.517a.114.114,0,0,0,.1.062.117.117,0,0,0,.052-.013.115.115,0,0,0,.05-.154Z" transform="translate(-185.268 -31.363)" fill="#ff6801"/>
          <path id="Path_41376" data-name="Path 41376" d="M197.044,30.032a.115.115,0,0,0-.086.138l.935,3.984a.115.115,0,0,0,.112.089.122.122,0,0,0,.026,0,.114.114,0,0,0,.085-.138l-.934-3.984A.114.114,0,0,0,197.044,30.032Z" transform="translate(-188.749 -29.468)" fill="#ff6801"/>
          <path id="Path_41377" data-name="Path 41377" d="M184.68,45.756a.115.115,0,1,0-.108.2l1.836.982a.117.117,0,0,0,.054.013.115.115,0,0,0,.054-.216Z" transform="translate(-182.407 -37.477)" fill="#ff6801"/>
          <path id="Path_41378" data-name="Path 41378" d="M189.043,39.347a.115.115,0,0,0-.181.14l1.37,1.774a.117.117,0,0,0,.091.045.112.112,0,0,0,.07-.024.115.115,0,0,0,.021-.161Z" transform="translate(-184.612 -34.194)" fill="#ff6801"/>
          <path id="Path_41379" data-name="Path 41379" d="M194.617,35.007a.115.115,0,0,0-.066.148l.851,2.2a.115.115,0,0,0,.107.074.123.123,0,0,0,.041-.008.115.115,0,0,0,.066-.148l-.851-2.2A.115.115,0,0,0,194.617,35.007Z" transform="translate(-187.52 -32.001)" fill="#ff6801"/>
          <path id="Path_41380" data-name="Path 41380" d="M201.523,32.67a.115.115,0,0,0-.1.126l.237,2.412a.115.115,0,0,0,.114.1h.011a.115.115,0,0,0,.1-.126l-.237-2.412A.112.112,0,0,0,201.523,32.67Z" transform="translate(-191.025 -30.814)" fill="#ff6801"/>
        </g>
      </g>
      <g id="Group_178142" data-name="Group 178142" transform="translate(194.511 48.651)">
        <g id="Group_178136" data-name="Group 178136" transform="translate(4.582 8.385)">
          <path id="Path_41381" data-name="Path 41381" d="M268.168,86.3v9.691a1.451,1.451,0,0,0,1.451-1.451V87.748A1.451,1.451,0,0,0,268.168,86.3Z" transform="translate(-243.917 -86.297)" fill="#00b3fe"/>
          <path id="Path_41382" data-name="Path 41382" d="M218.709,86.652v.584a.326.326,0,0,0,.326.327H242.96V86.326H219.035A.326.326,0,0,0,218.709,86.652Z" transform="translate(-218.709 -86.312)" fill="#00b3fe"/>
          <path id="Path_41383" data-name="Path 41383" d="M218.709,103.851v.584a.327.327,0,0,0,.326.327H242.96v-1.237H219.035A.326.326,0,0,0,218.709,103.851Z" transform="translate(-218.709 -95.078)" fill="#00b3fe"/>
          <rect id="Rectangle_163289" data-name="Rectangle 163289" width="23.393" height="7.196" transform="translate(0.859 1.247)" fill="#fff"/>
          <path id="Path_41384" data-name="Path 41384" d="M220.46,96.037h2.07s4.328-5.99,9.343-5.99H243.93V88.841H220.46Z" transform="translate(-219.601 -87.594)" fill="#e2e3e5"/>
          <path id="Path_41385" data-name="Path 41385" d="M218.709,88.007v.086a.326.326,0,0,0,.326.327H242.96a1.479,1.479,0,0,0-1.024-.412Z" transform="translate(-218.709 -87.169)" fill="#0093bd"/>
          <rect id="Rectangle_163290" data-name="Rectangle 163290" width="0.698" height="7.488" rx="0.349" transform="translate(23.98 1.101)" fill="#3c3c3c"/>
          <g id="Group_178134" data-name="Group 178134" transform="translate(0 7.82)">
            <path id="Path_41386" data-name="Path 41386" d="M218.709,105.292a.326.326,0,0,0,.326.326H242.96v-.412H218.709Z" transform="translate(-218.709 -103.755)" fill="#0093bd"/>
            <path id="Path_41387" data-name="Path 41387" d="M268.168,103.7v.419a1.451,1.451,0,0,0,1.451-1.451v-.419A1.451,1.451,0,0,1,268.168,103.7Z" transform="translate(-243.917 -102.246)" fill="#0093bd"/>
          </g>
          <g id="Group_178135" data-name="Group 178135" transform="translate(0.859 2.666)">
            <path id="Path_41388" data-name="Path 41388" d="M220.46,92.193l17.552-.153-17.552-.305Z" transform="translate(-220.46 -91.735)" fill="#aaaaac"/>
            <path id="Path_41389" data-name="Path 41389" d="M220.46,98.967l11.138-.153-11.138-.305Z" transform="translate(-220.46 -95.187)" fill="#aaaaac"/>
            <path id="Path_41390" data-name="Path 41390" d="M220.46,95.7l3.808-.153-3.808-.305Z" transform="translate(-220.46 -93.521)" fill="#aaaaac"/>
          </g>
        </g>
        <g id="Group_178138" data-name="Group 178138" transform="translate(0 18.06)">
          <path id="Path_41391" data-name="Path 41391" d="M209.365,107.642v5.884a1.613,1.613,0,0,0,1.613,1.613v-9.11A1.613,1.613,0,0,0,209.365,107.642Z" transform="translate(-209.365 -106.029)" fill="#ff6801"/>
          <path id="Path_41392" data-name="Path 41392" d="M245.2,106.061H212.655v1.374H245.2a.363.363,0,0,0,.363-.363v-.649A.363.363,0,0,0,245.2,106.061Z" transform="translate(-211.042 -106.045)" fill="#ff6801"/>
          <path id="Path_41393" data-name="Path 41393" d="M245.2,121.789H212.655v1.374H245.2a.363.363,0,0,0,.363-.363v-.649A.363.363,0,0,0,245.2,121.789Z" transform="translate(-211.042 -114.061)" fill="#ff6801"/>
          <rect id="Rectangle_163291" data-name="Rectangle 163291" width="31.954" height="6.337" transform="translate(1.613 1.386)" fill="#fff"/>
          <path id="Path_41394" data-name="Path 41394" d="M212.48,115.194h2.3s4.81-5,10.384-5H244.52v-1.34H212.48Z" transform="translate(-210.953 -107.47)" fill="#e2e3e5"/>
          <path id="Path_41395" data-name="Path 41395" d="M212.655,108.388H245.2a.363.363,0,0,0,.363-.363v-.1h-31.77A1.644,1.644,0,0,0,212.655,108.388Z" transform="translate(-211.042 -106.998)" fill="#b45002"/>
          <rect id="Rectangle_163292" data-name="Rectangle 163292" width="0.775" height="6.662" rx="0.388" transform="translate(1.14 1.224)" fill="#3c3c3c"/>
          <path id="Path_41396" data-name="Path 41396" d="M209.365,120.368v.466a1.613,1.613,0,0,0,1.613,1.613v-.008h32.546a.363.363,0,0,0,.362-.363v-.1H210.978A1.613,1.613,0,0,1,209.365,120.368Z" transform="translate(-209.365 -113.337)" fill="#b45002"/>
          <g id="Group_178137" data-name="Group 178137" transform="translate(16.123 2.784)">
            <path id="Path_41397" data-name="Path 41397" d="M259.8,112.165v-.458l-17.552.305Z" transform="translate(-242.247 -111.706)" fill="#aaaaac"/>
            <path id="Path_41398" data-name="Path 41398" d="M266.466,118.939v-.458l-11.138.305Z" transform="translate(-248.914 -115.159)" fill="#aaaaac"/>
            <path id="Path_41399" data-name="Path 41399" d="M274.085,115.668v-.458l-3.808.305Z" transform="translate(-256.533 -113.492)" fill="#aaaaac"/>
          </g>
        </g>
        <g id="Group_178141" data-name="Group 178141" transform="translate(9.345)">
          <path id="Path_41400" data-name="Path 41400" d="M228.423,70.81v5.159a1.613,1.613,0,0,0,1.613,1.613V69.2A1.612,1.612,0,0,0,228.423,70.81Z" transform="translate(-228.423 -69.197)" fill="#3c3c3c"/>
          <path id="Path_41401" data-name="Path 41401" d="M247.155,69.229H231.712V70.6h15.443a.363.363,0,0,0,.362-.363v-.649A.363.363,0,0,0,247.155,69.229Z" transform="translate(-230.099 -69.213)" fill="#3c3c3c"/>
          <path id="Path_41402" data-name="Path 41402" d="M247.155,83.477H231.712v1.374h15.443a.362.362,0,0,0,.362-.362V83.84A.363.363,0,0,0,247.155,83.477Z" transform="translate(-230.099 -76.475)" fill="#3c3c3c"/>
          <rect id="Rectangle_163293" data-name="Rectangle 163293" width="14.851" height="5.612" transform="translate(1.613 1.386)" fill="#fff"/>
          <path id="Path_41403" data-name="Path 41403" d="M231.537,77.636h2.3s.658-4.272,10.384-4.272h2.253v-1.34H231.537Z" transform="translate(-230.01 -70.638)" fill="#e2e3e5"/>
          <path id="Path_41404" data-name="Path 41404" d="M231.712,71.556h15.443a.363.363,0,0,0,.362-.363v-.1H232.851A1.646,1.646,0,0,0,231.712,71.556Z" transform="translate(-230.099 -70.166)" fill="#00000d"/>
          <rect id="Rectangle_163294" data-name="Rectangle 163294" width="0.776" height="5.937" rx="0.388" transform="translate(1.139 1.224)" fill="#555e66"/>
          <g id="Group_178139" data-name="Group 178139" transform="translate(0 6.305)">
            <path id="Path_41405" data-name="Path 41405" d="M231.712,85.8h15.443a.362.362,0,0,0,.362-.362v-.1H231.712Z" transform="translate(-230.099 -83.733)" fill="#00000d"/>
            <path id="Path_41406" data-name="Path 41406" d="M228.423,82.056v.466a1.613,1.613,0,0,0,1.613,1.613v-.466A1.613,1.613,0,0,1,228.423,82.056Z" transform="translate(-228.423 -82.056)" fill="#00000d"/>
          </g>
          <g id="Group_178140" data-name="Group 178140" transform="translate(4.89 2.292)">
            <path id="Path_41407" data-name="Path 41407" d="M249.97,74.262v-.39l-11.574.26Z" transform="translate(-238.396 -73.871)" fill="#aaaaac"/>
            <path id="Path_41408" data-name="Path 41408" d="M254.366,80.035v-.39l-7.345.26Z" transform="translate(-242.792 -76.814)" fill="#aaaaac"/>
            <path id="Path_41409" data-name="Path 41409" d="M259.39,77.248v-.39l-2.511.26Z" transform="translate(-247.816 -75.393)" fill="#aaaaac"/>
          </g>
        </g>
      </g>
    </g>
  </g>
</svg>
