<svg xmlns="http://www.w3.org/2000/svg" width="64.44" height="59.72" viewBox="0 0 64.44 59.72">
  <g id="Group_177597" data-name="Group 177597" transform="translate(-188.833 -49.823)">
    <g id="Group_177307" data-name="Group 177307" transform="translate(216.666 49.492)">
      <path id="Path_39226" data-name="Path 39226" d="M256.992,52.412l-5,9-8-5Z" transform="translate(-244.105 -51.081)" fill="#30bfbf"/>
      <path id="Path_39227" data-name="Path 39227" d="M256.991,50.823l-13,4,1-3,10-2Z" transform="translate(-244.104 -49.492)" fill="#46d4e0"/>
      <path id="Path_39228" data-name="Path 39228" d="M246.991,56.262l-3,1,1-3h0Z" transform="translate(-244.104 -51.93)" fill="#aefffd"/>
      <path id="Path_39229" data-name="Path 39229" d="M253.1,54.449l-3,1,1-3h0Z" transform="translate(-247.209 -51.118)" fill="#aefffd"/>
      <path id="Path_39230" data-name="Path 39230" d="M260.2,52.636l-4,1,1-3h0Z" transform="translate(-250.314 -50.305)" fill="#aefffd"/>
      <path id="Path_39231" data-name="Path 39231" d="M266.306,50.823l-3,1,1-2h0Z" transform="translate(-253.419 -49.492)" fill="#aefffd"/>
      <path id="Path_39232" data-name="Path 39232" d="M250.1,57.035l5,6-2-7Z" transform="translate(-247.209 -52.704)" fill="#46d4e0"/>
      <path id="Path_39233" data-name="Path 39233" d="M262.058,53.409l-2,8,5-9Z" transform="translate(-252.17 -51.078)" fill="#46d4e0"/>
    </g>
    <g id="Group_177308" data-name="Group 177308" transform="translate(208.308 59.593)">
      <path id="Path_39234" data-name="Path 39234" d="M255.712,113.828c-11.867,3.107-24.893-4.133-28-16s4.133-24.893,16-28,24.893,4.133,28,16S267.579,110.721,255.712,113.828Zm-10-39a18.329,18.329,0,0,0-13,22c2.477,9.463,11.537,14.477,21,12s15.477-11.537,13-21S255.175,72.35,245.712,74.828Z" transform="translate(-227.466 -69.598)" fill="#ff9700"/>
    </g>
    <g id="Group_177309" data-name="Group 177309" transform="translate(188.965 64.657)">
      <path id="Path_39235" data-name="Path 39235" d="M220.554,81.844a22.119,22.119,0,0,0-5-2c-3.292-.708-6.521.089-10,1a22.2,22.2,0,1,0,20,38,21.938,21.938,0,0,1-5-2,16.576,16.576,0,0,1-5,2c-9.464,2.478-19.522-2.536-22-12a18.33,18.33,0,0,1,13-22,21.266,21.266,0,0,1,6-1,18.259,18.259,0,0,1,5,1c5.331,1.912,9.462,7.124,11,13a17.566,17.566,0,0,1-4,16,18.4,18.4,0,0,0,5,1,23.783,23.783,0,0,0,3-19A21.894,21.894,0,0,0,220.554,81.844Z" transform="translate(-188.965 -79.677)" fill="#ffb300"/>
    </g>
    <path id="Rectangle_162788" data-name="Rectangle 162788" d="M2.618,0H6.395A2.618,2.618,0,0,1,9.013,2.618V3.38a0,0,0,0,1,0,0H0a0,0,0,0,1,0,0V2.618A2.618,2.618,0,0,1,2.618,0Z" transform="translate(220.087 59.646) rotate(-14.671)" fill="#ff9700"/>
  </g>
</svg>
