<svg xmlns="http://www.w3.org/2000/svg" width="44.75" height="42.78" viewBox="0 0 44.75 42.78">
  <g id="staff-people-group-in-a-circular-arrow-svgrepo-com" transform="translate(0 -0.985)">
    <g id="_x32__137_">
      <g id="Group_178196" data-name="Group 178196">
        <path id="Path_41482" data-name="Path 41482" d="M33.285,19.991c0-.039,0-.078-.008-.116-.033-1.48-.291-2.676-1.455-3.169a4.157,4.157,0,0,0-3.109-.219c-.052.021-.188.2-.24.233s-.332-.06-.437-.035a2.73,2.73,0,0,0-2.194,3.175,5.723,5.723,0,0,1,.588,2.595,3.68,3.68,0,0,0,3.1,2.005,4.023,4.023,0,0,0,3.627-3.137.353.353,0,0,0,.32-.32l.055-.646A.355.355,0,0,0,33.285,19.991Zm-3.76,3.969c-1.836,0-3.209-1.945-3.209-3.686,0-.082.007-.162.013-.242a8.035,8.035,0,0,0,2.4-1.173c.668.694,3.028,1.084,4.065,1.215.005.066.011.133.011.2C32.8,21.979,31.369,23.96,29.525,23.96Z" fill="#fff"/>
        <path id="Path_41483" data-name="Path 41483" d="M9.641,20.342l.055.646a.358.358,0,0,0,.344.323,3.978,3.978,0,0,0,3.569,3.148,3.761,3.761,0,0,0,3.181-2.065,4.088,4.088,0,0,1,.664-2.339c-.029-.021-.05-.052-.085-.064,0-.039,0-.078-.008-.116-.033-1.48-.291-2.676-1.455-3.169a4.157,4.157,0,0,0-3.109-.219c-.052.021-.187.2-.24.233s-.332-.06-.437-.035a2.731,2.731,0,0,0-2.194,3.176c0,.036-.006.072-.009.108A.354.354,0,0,0,9.641,20.342Zm.77-.309a8.015,8.015,0,0,0,2.395-1.173c.668.694,3.029,1.084,4.066,1.215,0,.066.011.133.011.2,0,1.7-1.43,3.686-3.273,3.686S10.4,22.016,10.4,20.275A2.4,2.4,0,0,1,10.411,20.033Z" fill="#fff"/>
        <path id="Path_41484" data-name="Path 41484" d="M19.021,8.686A2.42,2.42,0,0,0,21.192,10.6,2.45,2.45,0,0,0,23.4,8.693a.215.215,0,0,0,.195-.195l.033-.393a.217.217,0,0,0-.148-.223c0-.023,0-.047,0-.07-.021-.9-.178-1.627-.886-1.928A2.525,2.525,0,0,0,20.7,5.751c-.032.013-.114.122-.146.142s-.2-.036-.266-.021A1.66,1.66,0,0,0,18.951,7.8c0,.021,0,.044-.006.066a.216.216,0,0,0-.167.227l.034.393A.216.216,0,0,0,19.021,8.686Zm.226-.778A4.865,4.865,0,0,0,20.7,7.194a5.717,5.717,0,0,0,2.473.739c0,.041.007.081.007.122A2.25,2.25,0,0,1,21.192,10.3,2.2,2.2,0,0,1,19.24,8.055C19.24,8.005,19.243,7.957,19.247,7.908Z" fill="#fff"/>
        <path id="Path_41485" data-name="Path 41485" d="M14.169,8.614A2.306,2.306,0,0,0,12.316,11.3c0,.03-.005.061-.008.091a.3.3,0,0,0-.231.315l.047.546a.3.3,0,0,0,.29.272,3.361,3.361,0,0,0,3.015,2.659,3.4,3.4,0,0,0,3.064-2.649.3.3,0,0,0,.271-.271l.046-.545a.3.3,0,0,0-.206-.31c0-.032,0-.065-.007-.1-.028-1.25-.246-2.26-1.229-2.677a3.512,3.512,0,0,0-2.626-.185c-.044.018-.158.169-.2.2S14.259,8.592,14.169,8.614Zm.581,1.837c.564.586,2.558.916,3.434,1.026,0,.056.009.112.009.169a3.122,3.122,0,0,1-2.765,3.112,3.058,3.058,0,0,1-2.71-3.112c0-.069.005-.137.01-.2A6.778,6.778,0,0,0,14.75,10.451Z" fill="#fff"/>
        <path id="Path_41486" data-name="Path 41486" d="M23.964,12.521a3.361,3.361,0,0,0,3.015,2.659,3.4,3.4,0,0,0,3.064-2.649.291.291,0,0,0,.216-.156l.074-.008a.053.053,0,0,0,.05-.043l.047-.544a.055.055,0,0,0-.039-.052l-.031-.011a.3.3,0,0,0-.207-.31c0-.032,0-.065-.006-.1-.028-1.25-.246-2.26-1.229-2.677a3.512,3.512,0,0,0-2.626-.185c-.044.018-.158.169-.2.2s-.279-.05-.369-.029A2.306,2.306,0,0,0,23.867,11.3c0,.03,0,.061-.009.091a.3.3,0,0,0-.23.315l.047.546A.3.3,0,0,0,23.964,12.521Zm.313-1.08A6.741,6.741,0,0,0,26.3,10.45c.563.586,2.558.916,3.435,1.026,0,.056.009.112.009.169a3.122,3.122,0,0,1-2.765,3.112,3.058,3.058,0,0,1-2.711-3.112C24.27,11.577,24.273,11.508,24.277,11.441Z" fill="#fff"/>
        <path id="Path_41487" data-name="Path 41487" d="M18.695,12.731a4.25,4.25,0,0,1-.907,1.572l3.4,0V14.3l3.467,0a4.277,4.277,0,0,1-.887-1.567.543.543,0,0,1-.338-.459l-.047-.546a.544.544,0,0,1,.236-.5,2.972,2.972,0,0,1,.011-.588,1.25,1.25,0,0,0-.723-.4.281.281,0,0,0-.147.019l-.894,1.209-.679-.541,0,0v0h0l-.677.542-.894-1.209a.29.29,0,0,0-.146-.018,1.219,1.219,0,0,0-.66.335c.024.223.04.448.046.671a.548.548,0,0,1,.213.481l-.046.544A.544.544,0,0,1,18.695,12.731Z" fill="#fff"/>
        <path id="Path_41488" data-name="Path 41488" d="M33.085,21.764a4.4,4.4,0,0,1-1.246,1.756A4.371,4.371,0,0,0,33.085,21.764Z" fill="#fff"/>
        <path id="Path_41489" data-name="Path 41489" d="M12.4,16.458l.054.01.022-.025a.646.646,0,0,1,.226-.19,3.583,3.583,0,0,1,1.5-.212l-.978-1.323a.4.4,0,0,0-.2-.025c-.917.129-1.495,1.018-1.862,2.051a2.822,2.822,0,0,1,.922-.308l.081-.007A1.94,1.94,0,0,1,12.4,16.458Z" fill="#fff"/>
        <path id="Path_41490" data-name="Path 41490" d="M16.695,23.382l.068.8a.438.438,0,0,0,.423.4c.528,2.016,2.232,3.875,4.392,3.875a4.953,4.953,0,0,0,4.464-3.861.44.44,0,0,0,.4-.4l.067-.794a.434.434,0,0,0-.3-.45c0-.047,0-.1-.011-.143-.039-1.821-.356-3.293-1.791-3.9a5.116,5.116,0,0,0-3.825-.27c-.064.025-.23.246-.3.287s-.408-.073-.538-.042a3.36,3.36,0,0,0-2.7,3.908c0,.044-.008.088-.011.133A.435.435,0,0,0,16.695,23.382ZM17.643,23c.94-.344,2.75-1.064,2.946-1.443.823.854,3.728,1.334,5,1.494.006.082.014.164.014.246,0,2.1-1.76,4.535-4.028,4.535s-3.949-2.394-3.949-4.535C17.628,23.2,17.636,23.1,17.643,23Z" fill="#fff"/>
        <path id="Path_41491" data-name="Path 41491" d="M16.359,16.39l-.942-.751-.006.005v.005h0l-.6.481a5.671,5.671,0,0,1,1.2.348c1.344.569,1.57,2,1.6,3.335a3.185,3.185,0,0,1,2.1-1.178l.091-.008a1.767,1.767,0,0,1,.284.035l.051.009c-.245-1.585-.849-3.776-2.331-3.985a.393.393,0,0,0-.2.026Z" fill="#fff"/>
        <path id="Path_41492" data-name="Path 41492" d="M29.354,14.685a.389.389,0,0,0-.2.026l-1.241,1.68-.942-.751-.006.005v.005h0l-.942.751-1.242-1.68a.4.4,0,0,0-.2-.025c-1.321.186-1.946,1.949-2.239,3.453a6.632,6.632,0,0,1,2.166.53,2.738,2.738,0,0,1,1.083.808A2.862,2.862,0,0,1,28,16.439l.081-.007a1.529,1.529,0,0,1,.239.029l.054.01c.007-.008.015-.016.022-.025a.629.629,0,0,1,.226-.19,3.974,3.974,0,0,1,2.364-.083A2.3,2.3,0,0,0,29.354,14.685Z" fill="#fff"/>
        <path id="Path_41493" data-name="Path 41493" d="M21.559,35.933l7.115-.006s-.217-7.719-3.635-8.2a.567.567,0,0,0-.3.037L22.934,30.21l-1.373-1.094-.008.006v.008l0,0-1.373,1.095-1.809-2.448a.59.59,0,0,0-.3-.037c-3.418.48-3.635,8.2-3.635,8.2l7.12,0v-.01Z" fill="#fff"/>
        <path id="Path_41494" data-name="Path 41494" d="M29.51,30.542l5.782,0s-.176-6.273-2.954-6.666a.469.469,0,0,0-.24.03l-1.471,1.989L29.512,25l-.007.006v0l-1.115.89-1.47-1.988a.508.508,0,0,0-.2-.025l-.028.328a.673.673,0,0,1-.441.58,5.922,5.922,0,0,1-2.2,3.086c-.037.183-.068.361-.1.535l.635-.858.064-.026a.857.857,0,0,1,.429-.053c1.424.2,2.317,1.527,2.883,3.07l1.55,0v-.01Z" fill="#fff"/>
        <path id="Path_41495" data-name="Path 41495" d="M7.807,30.548l5.786,0v-.01H15.16c.567-1.535,1.459-2.851,2.878-3.049a.917.917,0,0,1,.423.051l.066.026.622.841c-.033-.2-.07-.406-.114-.617a5.938,5.938,0,0,1-2.05-3,.68.68,0,0,1-.472-.592l-.026-.308c-.023,0-.042-.015-.066-.019a.476.476,0,0,0-.241.029l-1.47,1.989L13.6,25,13.588,25v0l-1.115.89L11,23.91a.5.5,0,0,0-.241-.029C7.983,24.273,7.807,30.548,7.807,30.548Z" fill="#fff"/>
        <path id="Path_41496" data-name="Path 41496" d="M37.445,4.883l2.582-3.9-9.471,1.2,2.92,8.694,2.287-3.452A19.358,19.358,0,1,1,14.617,3.646L12.36,1.39A22.395,22.395,0,1,0,37.445,4.883Z" fill="#fff"/>
      </g>
    </g>
  </g>
</svg>
