<svg xmlns="http://www.w3.org/2000/svg" width="60.438" height="68.42" viewBox="0 0 60.438 68.42">
  <g id="Group_178957" data-name="Group 178957" transform="translate(-21.34 -357.397)">
    <g id="Group_177250" data-name="Group 177250" transform="translate(36.793 357.397)">
      <path id="Path_39087" data-name="Path 39087" d="M49.421,376.336v0a1.1,1.1,0,0,1,.4.014l.056.009a1.487,1.487,0,0,1,.331.137l0-.015h.874v-4.37a4.113,4.113,0,0,1,.342-1.638c.1-.083.2-.152.3-.228s.206-.159.309-.229c.082-.056.163-.1.244-.151.123-.077.246-.157.367-.224.075-.041.149-.072.223-.11.127-.064.254-.13.38-.183.071-.03.14-.052.211-.079.128-.049.256-.1.383-.138.068-.021.136-.034.2-.052.129-.035.258-.07.385-.094.067-.012.132-.02.2-.03.128-.02.256-.04.383-.051.065-.006.128-.007.192-.009.129-.008.258-.013.386-.012.061,0,.121.006.183.008.13.006.26.012.389.025.059.007.119.015.178.023.131.016.262.034.391.057.057.01.115.024.172.036.131.026.263.055.393.087l.168.046c.133.036.265.073.4.116.053.016.106.034.16.052.136.045.271.091.406.14l.152.057c.139.053.279.106.419.163l.135.056c.15.062.3.125.45.191l.09.039q.542.239,1.089.492c2.871,1.321,5.891,2.72,9.591.941a4.056,4.056,0,0,1,.071.7l-.04,4.37h.933l-.011.038a1.445,1.445,0,0,1,.356-.163h.008a.992.992,0,0,1,.415-.02v0h.02a1.427,1.427,0,0,1,.963.743,2.564,2.564,0,0,0,1.006-2.125,2.832,2.832,0,0,0-.422-1.5,2.591,2.591,0,0,0,.943-2.081,2.722,2.722,0,0,0-.658-1.819,3.323,3.323,0,0,0,.214-1.17,2.59,2.59,0,0,0-1.534-2.566,2.942,2.942,0,0,0-1.477-3.384,2.182,2.182,0,0,0-1.415-.019,3.7,3.7,0,0,0-3.534-2.474c-.1,0-.193.021-.291.028a4.745,4.745,0,0,0-4.432-2.569,5.042,5.042,0,0,0-3.951,1.755,3.815,3.815,0,0,0-1.724-.422,3.713,3.713,0,0,0-3.494,2.353,2.109,2.109,0,0,0-.975-.251c-1.484,0-2.688,1.6-2.688,3.574,0,.021,0,.039,0,.059a2.9,2.9,0,0,0-1.81,2.93,3.691,3.691,0,0,0,.387,1.676,3.41,3.41,0,0,0-.828,2.3,3.364,3.364,0,0,0,.918,2.4,4.388,4.388,0,0,0-.16,1.187,3.4,3.4,0,0,0,1.066,2.659A1.715,1.715,0,0,1,49.421,376.336Z" transform="translate(-38.27 -357.397)" fill="#3c3c3b"/>
      <path id="Path_39088" data-name="Path 39088" d="M77.844,402.03l-11.813-4.789c0,4.048-11.555,4.048-11.555,0L42.663,402.03a7.133,7.133,0,0,0-4.9,6.776v10.827H82.746V408.806A7.132,7.132,0,0,0,77.844,402.03Z" transform="translate(-37.761 -359.746)" fill="#df4937"/>
      <path id="Path_39089" data-name="Path 39089" d="M67.078,397.038h0V393.8a5.378,5.378,0,0,1-3.823,2.12,15.439,15.439,0,0,1-1.922.1h-.066a15.455,15.455,0,0,1-1.923-.1,5.381,5.381,0,0,1-3.823-2.12v3.24C55.523,401.086,67.078,401.086,67.078,397.038Z" transform="translate(-38.808 -359.543)" fill="#f2c28d"/>
      <path id="Path_39090" data-name="Path 39090" d="M61.66,396.153h0Z" transform="translate(-39.167 -359.682)" fill="#ffd2a1"/>
      <path id="Path_39091" data-name="Path 39091" d="M68.675,377.55H63.546a.135.135,0,0,0-.13.138v1.756a2.333,2.333,0,0,0,2.338,2.339h.87a2.36,2.36,0,0,0,2.365-2.355v-1.565A.311.311,0,0,0,68.675,377.55Zm-4.668,2.725a1.893,1.893,0,0,1-.207-.848v-.681l.729-.761H66.2Z" transform="translate(-39.273 -358.585)" fill="#ffd2a1"/>
      <path id="Path_39092" data-name="Path 39092" d="M50.568,378.539l-.257-.853a1.49,1.49,0,0,0-.331-.137l-.056-.009a1.1,1.1,0,0,0-.4-.014v0a1.715,1.715,0,0,0-1.209,1.277,5.3,5.3,0,0,0-.155,2.53,3.946,3.946,0,0,0,1.886,3.111,1.124,1.124,0,0,0,.608.07,1.5,1.5,0,0,0,.184-.052c-.021-.255-.194-4.257-.265-5.919Z" transform="translate(-38.369 -358.583)" fill="#ffd2a1"/>
      <path id="Path_39093" data-name="Path 39093" d="M54.148,376.212h5.128a1,1,0,0,1,1,.992h1.567a1,1,0,0,1,1-.992h5.129a1.167,1.167,0,0,1,1.143.992h1.571l.04-4.37a4.056,4.056,0,0,0-.071-.7c-3.7,1.779-6.72.38-9.591-.941h0c-.365-.168-.727-.334-1.089-.492l-.09-.04c-.151-.066-.3-.129-.45-.191l-.135-.055c-.14-.056-.279-.11-.419-.163l-.152-.057c-.135-.049-.27-.1-.406-.14-.054-.018-.107-.036-.16-.052-.133-.042-.265-.08-.4-.116l-.168-.046c-.131-.033-.263-.061-.393-.087-.057-.012-.115-.025-.172-.036-.13-.024-.261-.041-.391-.057-.059-.008-.119-.017-.178-.024-.129-.012-.259-.019-.389-.024-.061,0-.121-.007-.183-.008-.128,0-.257,0-.386.012-.064,0-.127,0-.192.009-.127.011-.255.031-.383.051-.066.01-.131.018-.2.03-.127.024-.256.059-.385.094-.067.018-.135.031-.2.052-.127.039-.255.089-.383.138-.071.027-.14.049-.211.079-.126.053-.253.12-.38.183-.074.038-.148.069-.223.11-.121.067-.244.148-.367.224-.081.051-.162.1-.244.151-.1.07-.205.152-.309.229s-.2.145-.3.228a4.113,4.113,0,0,0-.342,1.638v4.37H53A1.169,1.169,0,0,1,54.148,376.212Z" transform="translate(-38.564 -358.117)" fill="#ffd2a1"/>
      <path id="Path_39094" data-name="Path 39094" d="M59.43,377.55H54.3a.311.311,0,0,0-.313.312v1.565a2.36,2.36,0,0,0,2.364,2.355h.87a2.334,2.334,0,0,0,2.339-2.339v-1.756A.135.135,0,0,0,59.43,377.55Zm-4.8,2.725a1.893,1.893,0,0,1-.207-.848v-.681l.729-.761h1.672Z" transform="translate(-38.718 -358.585)" fill="#ffd2a1"/>
      <path id="Path_39095" data-name="Path 39095" d="M69.151,379.489a3.231,3.231,0,0,1-3.233,3.225h-.87a3.205,3.205,0,0,1-3.207-3.208v-.9H60.28v.9a3.205,3.205,0,0,1-3.207,3.208H56.2a3.232,3.232,0,0,1-3.233-3.225V378.6H51.45a45.746,45.746,0,0,0,.912,5.963c.4,1.278,2.633,3.486,4.268,2.495a9.4,9.4,0,0,1,4.381-1.3l.051,0,.05,0a9.408,9.408,0,0,1,4.382,1.3c1.634.991,3.868-1.217,4.268-2.495a45.744,45.744,0,0,0,.911-5.963h-1.52Z" transform="translate(-38.568 -358.647)" fill="#ffd2a1"/>
      <path id="Path_39096" data-name="Path 39096" d="M73.633,377.521h-.02v0a.991.991,0,0,0-.415.02H73.19a1.442,1.442,0,0,0-.356.163l-.25.831c-.071,1.662-.244,5.664-.264,5.919a1.472,1.472,0,0,0,.183.052,1.124,1.124,0,0,0,.608-.07A3.947,3.947,0,0,0,75,381.329a4.726,4.726,0,0,0-.4-3.065A1.427,1.427,0,0,0,73.633,377.521Z" transform="translate(-39.798 -358.583)" fill="#ffd2a1"/>
      <path id="Path_39097" data-name="Path 39097" d="M59.063,395.022a15.589,15.589,0,0,0,1.9.1h.1a15.59,15.59,0,0,0,1.9-.1A5.378,5.378,0,0,0,66.8,392.9h0a38.108,38.108,0,0,0,2.355-3.225,14.851,14.851,0,0,0,1.9-5.154c.021-.255.194-4.257.264-5.919h-.683a45.748,45.748,0,0,1-.911,5.963c-.4,1.278-2.634,3.486-4.268,2.495a9.408,9.408,0,0,0-4.382-1.3l-.05,0-.051,0a9.4,9.4,0,0,0-4.381,1.3c-1.635.991-3.868-1.217-4.268-2.495a45.747,45.747,0,0,1-.912-5.963h-.683c.072,1.662.245,5.664.265,5.919a14.834,14.834,0,0,0,1.894,5.154,38.527,38.527,0,0,0,2.355,3.225h0A5.381,5.381,0,0,0,59.063,395.022Zm.361-7.559h3.187a1.152,1.152,0,1,1,0,2.282H59.424a1.152,1.152,0,1,1,0-2.282Z" transform="translate(-38.525 -358.647)" fill="#ffd2a1"/>
      <path id="Path_39098" data-name="Path 39098" d="M59.063,395.022a15.589,15.589,0,0,0,1.9.1h.1a15.59,15.59,0,0,0,1.9-.1A5.378,5.378,0,0,0,66.8,392.9h0a38.108,38.108,0,0,0,2.355-3.225,14.851,14.851,0,0,0,1.9-5.154c.021-.255.194-4.257.264-5.919h-.683a45.748,45.748,0,0,1-.911,5.963c-.4,1.278-2.634,3.486-4.268,2.495a9.408,9.408,0,0,0-4.382-1.3l-.05,0-.051,0a9.4,9.4,0,0,0-4.381,1.3c-1.635.991-3.868-1.217-4.268-2.495a45.747,45.747,0,0,1-.912-5.963h-.683c.072,1.662.245,5.664.265,5.919a14.834,14.834,0,0,0,1.894,5.154,38.527,38.527,0,0,0,2.355,3.225h0A5.381,5.381,0,0,0,59.063,395.022Zm.361-7.559h3.187a1.152,1.152,0,1,1,0,2.282H59.424a1.152,1.152,0,1,1,0-2.282Z" transform="translate(-38.525 -358.647)" fill="#3c3c3b" opacity="0.7"/>
      <path id="Path_39099" data-name="Path 39099" d="M59.887,390.3h3.187a1.152,1.152,0,1,0,0-2.282H59.887a1.152,1.152,0,1,0,0,2.282Z" transform="translate(-38.988 -359.202)" fill="#ffd2a1"/>
      <path id="Path_39100" data-name="Path 39100" d="M71.545,377.656l.011-.038h-2.5a1.167,1.167,0,0,0-1.143-.992H62.781a1,1,0,0,0-1,.992H60.218a1,1,0,0,0-1-.992H54.093a1.169,1.169,0,0,0-1.144.992h-2.5l0,.015.257.853h2.2v.887a3.232,3.232,0,0,0,3.233,3.225h.87a3.205,3.205,0,0,0,3.207-3.208v-.9h1.561v.9a3.205,3.205,0,0,0,3.207,3.208h.87a3.231,3.231,0,0,0,3.233-3.225v-.887h2.2ZM59.352,379.39a2.334,2.334,0,0,1-2.339,2.339h-.87a2.36,2.36,0,0,1-2.364-2.355v-1.565a.311.311,0,0,1,.313-.312h5.128a.135.135,0,0,1,.131.138Zm8.871-.017a2.36,2.36,0,0,1-2.365,2.355h-.87a2.333,2.333,0,0,1-2.338-2.339v-1.756a.135.135,0,0,1,.13-.138H67.91a.311.311,0,0,1,.313.312Z" transform="translate(-38.509 -358.531)" fill="#575756"/>
      <path id="Path_39101" data-name="Path 39101" d="M54.451,378.773v.681a1.893,1.893,0,0,0,.207.848l2.195-2.291H55.18Z" transform="translate(-38.745 -358.612)" fill="#f6f6f6"/>
      <path id="Path_39102" data-name="Path 39102" d="M63.824,378.773v.681a1.893,1.893,0,0,0,.207.848l2.195-2.291H64.553Z" transform="translate(-39.297 -358.612)" fill="#f6f6f6"/>
    </g>
    <g id="Group_177251" data-name="Group 177251" transform="translate(21.34 399.963)">
      <rect id="Rectangle_162770" data-name="Rectangle 162770" width="30.434" height="1.294" transform="translate(2.722 21.911)" fill="#9d9d9c"/>
      <rect id="Rectangle_162771" data-name="Rectangle 162771" width="34.945" height="22.115" rx="1.78" transform="translate(0.466)" fill="#ededed"/>
      <path id="Path_39103" data-name="Path 39103" d="M57.215,427.287v.9a1.9,1.9,0,0,1-.329,1.078,1.493,1.493,0,0,1-1.225.676H22.895a1.494,1.494,0,0,1-1.225-.676,1.9,1.9,0,0,1-.329-1.078v-.9Z" transform="translate(-21.34 -404.083)" fill="#ededed"/>
      <rect id="Rectangle_162772" data-name="Rectangle 162772" width="35.877" height="0.896" transform="translate(0 23.205)" fill="#575756"/>
      <path id="Path_39104" data-name="Path 39104" d="M56.906,429.385a1.493,1.493,0,0,1-1.225.676H22.915a1.494,1.494,0,0,1-1.225-.676Z" transform="translate(-21.36 -404.206)" opacity="0.2"/>
      <path id="Path_39105" data-name="Path 39105" d="M42.57,414.234a2.313,2.313,0,1,1-2.313-2.312A2.313,2.313,0,0,1,42.57,414.234Z" transform="translate(-22.319 -403.177)" fill="#fff"/>
    </g>
  </g>
</svg>
