<svg xmlns="http://www.w3.org/2000/svg" width="95" height="95" viewBox="0 0 95 95">
  <g id="Group_178970" data-name="Group 178970" transform="translate(-754 -1461)">
    <circle id="Ellipse_865" data-name="Ellipse 865" cx="47.5" cy="47.5" r="47.5" transform="translate(754 1461)" fill="rgba(13,246,98,0.18)"/>
    <g id="Group_178176" data-name="Group 178176" transform="translate(669.905 1353.765)">
      <g id="Group_178174" data-name="Group 178174" transform="translate(108.146 135.561)">
        <path id="Path_41461" data-name="Path 41461" d="M190.029,174.844c-.084,9.527-7.528,17.935-16.783,19.056-13.153,1.593-23.119-10.557-18.854-23.5A19.139,19.139,0,0,1,171.4,157.208a17.2,17.2,0,0,1,18.164,13.916C189.815,172.346,189.88,173.6,190.029,174.844Z" transform="translate(-153.392 -155.695)" fill="#fff"/>
        <path id="Path_41462" data-name="Path 41462" d="M194.226,174.856c.3.1.8.252,1.289.425a7.682,7.682,0,0,1,4.653,4.072c.91,1.947.584,4.419-1.491,5.385a1.292,1.292,0,0,0-.574.733c-1.03,3.248-3.428,4.547-6.719,3.6-.183-.052-.361-.123-.593-.2-.179.142-.371.277-.542.433-2.1,1.925-4.6,2.434-6.773,1.378a6.477,6.477,0,0,1-3.523-6.575,21.1,21.1,0,0,1,1.719-6.539c.225-.523.426-1.056.669-1.662-5.829-4.241-7.684-10.305-7.891-17.269a5.844,5.844,0,0,0-.773.5,42.921,42.921,0,0,1-8.524,6.427,69.323,69.323,0,0,1-7.212,3.3c-1.012.435-2.091.713-3.329,1.126a10.978,10.978,0,0,1-.075-1.551,12.766,12.766,0,0,1,3.419-7.491,17.935,17.935,0,0,1,10.8-5.644,25.162,25.162,0,0,1,12.652,1.414,17.483,17.483,0,0,1,8.843,7.579,35.6,35.6,0,0,1,2.951,5.941A29.534,29.534,0,0,1,194.226,174.856Z" transform="translate(-153.749 -155.013)"/>
        <path id="Path_41463" data-name="Path 41463" d="M167.784,192.081a3.879,3.879,0,0,1-3.037-1.6,1.8,1.8,0,0,1-.121-2.037,1.654,1.654,0,0,1,1.84-.842,9.627,9.627,0,0,0,3.693.243c.794-.151,1.235.392,1.239,1.219a2.342,2.342,0,0,1-1.233,2.148A15.751,15.751,0,0,1,167.784,192.081Z" transform="translate(-156.855 -165.285)"/>
        <path id="Path_41464" data-name="Path 41464" d="M181.794,192.639a2.514,2.514,0,0,1,2.585,2.659,2.787,2.787,0,0,1-2.873,2.77,2.676,2.676,0,0,1-2.63-2.682A2.847,2.847,0,0,1,181.794,192.639Z" transform="translate(-161.434 -166.887)" fill="#f1a9db"/>
        <path id="Path_41465" data-name="Path 41465" d="M157.375,185.883a2.232,2.232,0,0,1-2.248-2.16,2.27,2.27,0,0,1,2.317-2.25,2.2,2.2,0,0,1,2.252,2.14A2.331,2.331,0,0,1,157.375,185.883Z" transform="translate(-153.939 -163.363)" fill="#f1a9db"/>
        <path id="Path_41466" data-name="Path 41466" d="M167.873,182.084c.324.879.913.582,1.31.753.193.083.47.313.457.454a.944.944,0,0,1-.391.668,2.04,2.04,0,0,1-2.622-1.137,1.576,1.576,0,0,1,1.414-2.068c.6-.066,1.172.073,1.748-.378.43-.337.909.17.776.761-.186.825-.68,1.14-1.584,1.027C168.667,182.125,168.349,182.117,167.873,182.084Z" transform="translate(-157.543 -162.983)"/>
        <path id="Path_41467" data-name="Path 41467" d="M179.493,184.116a1.108,1.108,0,0,1-1.12,1.072,1.23,1.23,0,0,1-1.135-1.248,1.174,1.174,0,0,1,1.222-.987A1.11,1.11,0,0,1,179.493,184.116Z" transform="translate(-160.916 -163.829)"/>
        <path id="Path_41468" data-name="Path 41468" d="M165.415,176.824a.979.979,0,0,1,1.07.934,1.014,1.014,0,0,1-.9,1.114,1.058,1.058,0,0,1-1.163-1.007A1.044,1.044,0,0,1,165.415,176.824Z" transform="translate(-156.873 -161.895)"/>
      </g>
    </g>
  </g>
</svg>
