<svg xmlns="http://www.w3.org/2000/svg" width="78.24" height="82.314" viewBox="0 0 78.24 82.314">
  <g id="Group_178968" data-name="Group 178968" transform="translate(-653.24 -4348.194)">
    <path id="instilling-good-behavior-in-down-syndrome-children-800x533" d="M34.475,73.732C7.062,63.715,0,58.3,0,39.257S36.92,0,55.96,0s16.3,22.745,16.3,41.785S61.888,83.749,34.475,73.732Z" transform="translate(656.162 4351.268)" fill="#e4e4e4"/>
    <g id="instilling-good-behavior-in-down-syndrome-children-800x533-2" data-name="instilling-good-behavior-in-down-syndrome-children-800x533" transform="translate(653.24 4348.194)" fill="none" opacity="0.67">
      <path d="M37.258,79.684C7.632,68.859,0,63,0,42.426S39.9,0,60.477,0,78.092,24.581,78.092,45.158,66.883,90.51,37.258,79.684Z" stroke="none"/>
      <path d="M 50.64822387695312 81.31453704833984 C 55.1426887512207 81.31453704833984 59.20283889770508 80.22115325927734 62.71591186523438 78.06472778320312 C 65.90775299072266 76.10549926757812 68.660888671875 73.26891326904297 70.89882659912109 69.63376617431641 C 72.95108795166016 66.30022430419922 74.53264617919922 62.37040328979492 75.59958648681641 57.95341491699219 C 76.57606506347656 53.91101455688477 77.09218597412109 49.48647689819336 77.09218597412109 45.15815353393555 C 77.09218597412109 42.86045455932617 77.12962341308594 40.47266387939453 77.16584014892578 38.16351699829102 C 77.37249755859375 24.98255348205566 77.58621215820312 11.35284042358398 71.25450897216797 4.921077728271484 C 68.65707397460938 2.282602787017822 65.13179779052734 1.00000274181366 60.47723770141602 1.00000274181366 C 55.57061386108398 1.00000274181366 49.41752624511719 2.271552801132202 42.68316268920898 4.677177906036377 C 35.97573852539062 7.073177814483643 29.190673828125 10.41413974761963 23.0615119934082 14.33886528015137 C 16.55821228027344 18.50316429138184 11.11781215667725 23.14106559753418 7.328449726104736 27.75116539001465 C 5.296212196350098 30.22357749938965 3.728787183761597 32.69562911987305 2.669724702835083 35.09862899780273 C 1.561774611473083 37.61256408691406 0.9999995827674866 40.07790374755859 0.9999995827674866 42.42617797851562 C 0.9999995827674866 47.71176528930664 1.510362148284912 51.73772811889648 2.606124639511108 55.09611511230469 C 3.74421215057373 58.5842170715332 5.525524616241455 61.41052627563477 8.212037086486816 63.99070358276367 C 10.86307430267334 66.53678894042969 14.41118717193604 68.85659027099609 19.37818717956543 71.29123687744141 C 23.78397369384766 73.4508056640625 29.40413665771484 75.74958038330078 37.60111236572266 78.74484252929688 C 42.26744842529297 80.44996643066406 46.65712356567383 81.31453704833984 50.64822387695312 81.31453704833984 M 50.64823150634766 82.31454467773438 C 46.68037796020508 82.31454467773438 42.2286491394043 81.50046539306641 37.25790023803711 79.68410491943359 C 7.632299423217773 68.85857391357422 -3.906250185536919e-07 63.00315093994141 -3.906250185536919e-07 42.42617797851562 C -3.906250185536919e-07 21.84920310974121 39.90027618408203 2.703857489905204e-06 60.47723770141602 2.703857489905204e-06 C 81.05419921875 2.703857489905204e-06 78.09218597412109 24.5811767578125 78.09218597412109 45.15815353393555 C 78.09218597412109 62.28261566162109 70.32872009277344 82.31454467773438 50.64823150634766 82.31454467773438 Z" stroke="none" fill="#f58737"/>
    </g>
    <g id="Group_178150" data-name="Group 178150" transform="translate(304.736 4334.107)">
      <g id="Group_178144" data-name="Group 178144" transform="translate(364.68 42.711)">
        <path id="Path_41410" data-name="Path 41410" d="M371.663,68.734c.172,2.153.5,7.025-2.2,11.457-.7,1.15,1.445,2.807,5.3,3.2,3.9.4,6.642-.652,6.554-1.45-.55-5,.976-9.959.959-10.935S371.485,66.574,371.663,68.734Z" transform="translate(-365.932 -49.777)" fill="#ff9a55"/>
        <path id="Path_41411" data-name="Path 41411" d="M385.026,50.059c-1.883-3.659-10.256-5.778-14.985-.383-.9,1.022-2.579,4.247-1.62,10.135a14.831,14.831,0,0,0,3.439,7.5,11.783,11.783,0,0,0,7.181,2.248c2.856-.245,5.969-.151,6.041-1.33.151-2.209.383-4.972.383-4.972l1.133-.183a.432.432,0,0,0,.36-.5c-.159-.877-.527-3.034-.872-5.948C385.959,55.588,387.385,54.624,385.026,50.059Z" transform="translate(-365.61 -43.953)" fill="#ffa76a"/>
        <path id="Path_41412" data-name="Path 41412" d="M373.662,43.051c-6.107-.188-8.849,8.115-8.977,11.685-.148,4.1,3.253,7.837,3.824,11.274.319,1.911,2.994-1.518,2.994-1.518l1.261-4.793s-.819-5.585,2.31-4.552c2.236.746,1.344,4.235,1.344,4.235l1.106-.089s.509-4.235,1.4-5.436,5.55-3.806,5.55-3.806a6.426,6.426,0,0,0-.117-2.506C383.281,45.132,378.469,43.194,373.662,43.051Z" transform="translate(-364.68 -43.048)" fill="#c47639"/>
      </g>
      <g id="Group_178145" data-name="Group 178145" transform="translate(390.966 42.711)">
        <path id="Path_41413" data-name="Path 41413" d="M418.124,68.734c.179-2.16-10.6,1.293-10.615,2.274s1.51,5.931.959,10.935c-.088.8,2.652,1.851,6.554,1.45,3.859-.4,6-2.052,5.3-3.2C417.624,75.759,417.953,70.887,418.124,68.734Z" transform="translate(-402.5 -49.777)" fill="#ff9a55"/>
        <path id="Path_41414" data-name="Path 41414" d="M402.593,50.059c-2.359,4.565-.932,5.529-1.06,6.561-.345,2.914-.713,5.071-.872,5.948a.433.433,0,0,0,.361.5l1.133.183s.232,2.763.383,4.972c.072,1.179,3.185,1.085,6.041,1.33a11.786,11.786,0,0,0,7.181-2.248,14.831,14.831,0,0,0,3.439-7.5c.959-5.888-.718-9.113-1.62-10.135C412.849,44.281,404.476,46.4,402.593,50.059Z" transform="translate(-400.654 -43.953)" fill="#ffa76a"/>
        <path id="Path_41415" data-name="Path 41415" d="M413.574,43.051c-4.807.143-9.62,2.081-10.7,4.5a6.426,6.426,0,0,0-.117,2.506s4.658,2.6,5.55,3.806,1.4,5.436,1.4,5.436l1.106.089s-.891-3.489,1.344-4.235c3.128-1.033,2.309,4.552,2.309,4.552l1.261,4.793s2.677,3.428,3,1.518c.571-3.437,3.971-7.174,3.824-11.274C422.423,51.166,419.681,42.863,413.574,43.051Z" transform="translate(-401.2 -43.048)" fill="#c47639"/>
      </g>
      <g id="Group_178147" data-name="Group 178147" transform="translate(367.08 41.796)">
        <path id="Path_41416" data-name="Path 41416" d="M378.229,48.492a2.842,2.842,0,0,0-.723.083,2.587,2.587,0,0,0-.4-.88,3.5,3.5,0,0,0-3.727-1.493,2.853,2.853,0,0,0-1.977,2.633c0,.029,0,.058-.005.088a4.2,4.2,0,0,0-2.1,1.331,5.572,5.572,0,0,0-.783,3.778,6.782,6.782,0,0,0,2.552,4.795c0,.05.007.1.012.15a3.16,3.16,0,0,0,3.108,2.79,2.252,2.252,0,0,0,1.968-.733,2.882,2.882,0,0,0,.566-1.107,3.42,3.42,0,0,0,1.421,1.526,3.057,3.057,0,0,0,1.488.417,2.668,2.668,0,0,0,2.327-1.487,5.136,5.136,0,0,0,.588-2.8,3.766,3.766,0,0,0,2.133-4.291A6.344,6.344,0,0,0,378.229,48.492Zm.1,5.662c-.048-.167-.091-.327-.126-.474a3.675,3.675,0,0,1,1.247-1.031,8.227,8.227,0,0,1,2.3,3.843,4.762,4.762,0,0,1-.89.846,1.828,1.828,0,0,1-.658-.213,2.4,2.4,0,0,1-.582-.452,1.043,1.043,0,0,0,.417-.861C380.01,55.041,379.222,54.509,378.333,54.154Zm1.1,1.678a.464.464,0,0,1-.2.371,6.237,6.237,0,0,1-.649-1.278C379.084,55.182,379.424,55.487,379.435,55.833Zm-1.381-2.9c-.069-.446-.115-.99-.163-1.561a11.749,11.749,0,0,1,1.084.836A4.049,4.049,0,0,0,378.054,52.93Zm.64,3.541-.072.02a4.171,4.171,0,0,1-1.673.039,7,7,0,0,1,.655-1.92c.012-.023.023-.045.036-.067.068.022.135.044.2.067A7.6,7.6,0,0,0,378.694,56.471Zm-1.4-5.082a18.828,18.828,0,0,0,.223,1.932c.013.068.028.14.044.213q-.1.145-.2.3c-.15-.04-.3-.076-.433-.107a1.4,1.4,0,0,0,.069-.4,1.618,1.618,0,0,0-.878-1.437,4.993,4.993,0,0,1,.255-1.426q.334.173.68.375c.069.04.137.08.2.121Q377.272,51.177,377.29,51.389Zm-.9,1.922a.816.816,0,0,1-.063.3l-.14-.024q-.06-.5-.077-.946A.921.921,0,0,1,376.391,53.311Zm.791-3.089c-.186-.105-.371-.205-.553-.3a2.068,2.068,0,0,1,.129-.181,1.719,1.719,0,0,1,.319-.309C377.118,49.683,377.153,49.949,377.183,50.222Zm-3.629-3.445a2.928,2.928,0,0,1,3.078,1.286,2.14,2.14,0,0,1,.315.737,2.271,2.271,0,0,0-.657.568,2.717,2.717,0,0,0-.2.289,8.366,8.366,0,0,0-3.467-.887,5.089,5.089,0,0,0-.613.037A2.252,2.252,0,0,1,373.553,46.777Zm.308,7.173a2.77,2.77,0,0,1-.121-.649,5.933,5.933,0,0,0,.835.832,1.87,1.87,0,0,0,1.161.481q.084.461.2.954.089.38.156.74c-.072-.026-.143-.054-.213-.084a2.508,2.508,0,0,0-.487-1.112A4.439,4.439,0,0,0,373.862,53.95Zm1.263,1.855a3.036,3.036,0,0,1-.858-.921,3.012,3.012,0,0,1,.654.6A1.934,1.934,0,0,1,375.125,55.8Zm-1.955-2.176c-.209-.09-.42-.177-.629-.263l-.138-.057a10.455,10.455,0,0,0-.176-2.389c.054.05.109.1.164.164a3.581,3.581,0,0,1,.621,1c.072.151.147.307.234.469A2.2,2.2,0,0,0,373.17,53.629Zm-.341-2.956a3.181,3.181,0,0,0-.74-.6c-.036-.235-.065-.461-.082-.672a6.882,6.882,0,0,1,3.82.793,5.276,5.276,0,0,0-.3,1.44,1.9,1.9,0,0,0-1.908.323c-.022-.045-.044-.09-.065-.135A4.175,4.175,0,0,0,372.829,50.673Zm2.808,3.335a1.391,1.391,0,0,1-.678-.338,4.685,4.685,0,0,1-1.035-1.146.837.837,0,0,1,.1-.121,1.367,1.367,0,0,1,1.479-.14A12.113,12.113,0,0,0,375.637,54.008Zm-4.221-4.471c.008.1.019.2.032.3a1.625,1.625,0,0,0-.764.031A3.529,3.529,0,0,1,371.417,49.537Zm-.921,1.1a.934.934,0,0,1,.637-.246,1.186,1.186,0,0,1,.412.078l.039.236a11.981,11.981,0,0,1,.232,2.349,3.983,3.983,0,0,1-1.342-.841A1.115,1.115,0,0,1,370.5,50.642Zm.622,7.444a6.224,6.224,0,0,1-2.005-4.109,5.129,5.129,0,0,1,.63-3.317,1.725,1.725,0,0,0,.283,1.958,4.873,4.873,0,0,0,1.736,1.073,4.289,4.289,0,0,1-.639,1.722l.5.325a4.853,4.853,0,0,0,.7-1.809c.35.145.7.291,1.041.451a5.712,5.712,0,0,0,.29.649,3.769,3.769,0,0,0,1.67,1.605,2.611,2.611,0,0,1-.43,1.5,3.669,3.669,0,0,1-1.367-.983,1.375,1.375,0,0,0-.94-.566.969.969,0,0,0-.276.043A1.84,1.84,0,0,0,371.117,58.086Zm1.375-.888c.18-.056.277.019.609.364a4.318,4.318,0,0,0,1.392,1.039,2.119,2.119,0,0,1-2.829-.076A1.366,1.366,0,0,1,372.492,57.2Zm3.206,3.445a1.652,1.652,0,0,1-1.465.525,2.576,2.576,0,0,1-2.491-1.89,2.64,2.64,0,0,0,3.278-.35c.032-.031.064-.064.094-.1a6.131,6.131,0,0,0,1.161.213A2.9,2.9,0,0,1,375.7,60.644Zm-.2-2.329a3.157,3.157,0,0,0,.426-1.429c.094.033.188.064.283.091q.029.207.05.406a6.3,6.3,0,0,0,.039,1.06A5.75,5.75,0,0,1,375.494,58.315ZM376.56,55.6c-.012-.057-.026-.114-.039-.172-.077-.331-.143-.653-.2-.962a1.212,1.212,0,0,0,.27-.2c.151.032.305.067.459.107A7.418,7.418,0,0,0,376.56,55.6Zm.29,1.714c0-.064.009-.126.015-.19a4.758,4.758,0,0,0,1.909-.055,2.811,2.811,0,0,0,.3-.1,3.115,3.115,0,0,0,.835.678,2.481,2.481,0,0,0,.248.118,6.646,6.646,0,0,1-3.254.706A9.875,9.875,0,0,0,376.85,57.317Zm4.584,2.771a2.057,2.057,0,0,1-3,.842,3.018,3.018,0,0,1-1.408-1.852,6.889,6.889,0,0,0,4-1.127,2.934,2.934,0,0,0,.9-.131A4.371,4.371,0,0,1,381.435,60.088Zm-1.327-7.65a2.537,2.537,0,0,1,1.548.243,1.872,1.872,0,0,1,.87,2.281,3.651,3.651,0,0,1-.322.842A8.8,8.8,0,0,0,380.108,52.438Zm2.37,4.5q-.026-.17-.061-.342a4.435,4.435,0,0,0,.692-1.5,2.441,2.441,0,0,0-1.2-2.964,3.108,3.108,0,0,0-2.325-.2,12.851,12.851,0,0,0-1.764-1.33c-.047-.5-.1-1-.185-1.443a2.216,2.216,0,0,1,.585-.071,5.746,5.746,0,0,1,5.862,4.309A3.145,3.145,0,0,1,382.478,56.942Z" transform="translate(-368.103 -42.95)" fill="#555e66"/>
        <g id="Group_178146" data-name="Group 178146">
          <path id="Path_41417" data-name="Path 41417" d="M389.345,41.895c-4.951-.549-7.6,1.321-8.738,2.486a6.454,6.454,0,0,0-1.293,1.882,6.679,6.679,0,0,0-1.982-.218c-.034-.036-.07-.071-.107-.105a3.159,3.159,0,0,0-4.175-.112,2.244,2.244,0,0,0-1.024,1.833,2.864,2.864,0,0,0,.287,1.209,3.425,3.425,0,0,0-2.072-.242,2.642,2.642,0,0,0-2.213,3.287,5.132,5.132,0,0,0,1.368,2.516,3.767,3.767,0,0,0,1.157,4.651,5.662,5.662,0,0,0,3.544,1.184,6.945,6.945,0,0,0,4.476-1.708,2.788,2.788,0,0,0,.5-.532,2.6,2.6,0,0,0,.875.411,3.5,3.5,0,0,0,3.806-1.277,2.852,2.852,0,0,0-.2-3.287l-.041-.056a4.25,4.25,0,0,0,.725-2.389,5.577,5.577,0,0,0-1.852-3.385,7.155,7.155,0,0,0-2.493-1.6,5.886,5.886,0,0,1,1.147-1.646c1.062-1.086,3.543-2.831,8.242-2.308a15.468,15.468,0,0,1,10.512,5.861l.5-.338A16.1,16.1,0,0,0,389.345,41.895Zm-11.571,4.748a6.01,6.01,0,0,1,1.326.186,4.449,4.449,0,0,0-.191,1.933,4.857,4.857,0,0,0,.636,1.833c-.36.118-.725.235-1.085.332a5.75,5.75,0,0,0-.642-.306,3.531,3.531,0,0,0-1.342-.258,4.2,4.2,0,0,0-.97.117,2.608,2.608,0,0,1-.642-1.418,3.68,3.68,0,0,1,1.678-.137c.469.046.954.1,1.265-.39A1.839,1.839,0,0,0,377.775,46.643Zm5.3,5.268a.985.985,0,0,1-.691.807l-.183-.155a11.988,11.988,0,0,1-1.7-1.638,3.981,3.981,0,0,1,1.568-.229A1.113,1.113,0,0,1,383.071,51.91Zm.359.718a3.475,3.475,0,0,1-.346.72c-.069-.068-.141-.136-.215-.2A1.62,1.62,0,0,0,383.43,52.628Zm-1.859.193c-.074,0-.151-.01-.23-.019a3.561,3.561,0,0,1-1.12-.358c-.153-.068-.311-.139-.482-.205a2.2,2.2,0,0,0-.641-.871c.217-.066.434-.137.65-.207l.142-.046A10.464,10.464,0,0,0,381.571,52.821Zm-10.863,1.925a4.789,4.789,0,0,1,.129-1.221,1.818,1.818,0,0,1,.639-.265,2.406,2.406,0,0,1,.737-.033,1.042,1.042,0,0,0,.24.926c.52.571,1.464.465,2.371.16.145.1.281.19.4.28a3.69,3.69,0,0,1-.281,1.593A8.233,8.233,0,0,1,370.709,54.746Zm3.877,2.025a2.532,2.532,0,0,1-1.336.818,1.871,1.871,0,0,1-2.142-1.174,3.669,3.669,0,0,1-.3-.849A8.794,8.794,0,0,0,374.586,56.77Zm-1.537-3.988c.015-.024.03-.045.042-.062a4.15,4.15,0,0,1,1.25-1.114,7,7,0,0,1,.744,1.887c.006.024.012.049.017.074-.066.028-.132.054-.2.08A7.55,7.55,0,0,0,373.049,52.782Zm1.079,1.11c-.541.125-1,.113-1.23-.143a.465.465,0,0,1-.092-.41A6.217,6.217,0,0,1,374.128,53.892Zm.49-3.11q-.157-.139-.3-.276a6.27,6.27,0,0,0-.718-.782,5.733,5.733,0,0,1,.692-.42,3.164,3.164,0,0,0,.6,1.365C374.8,50.7,374.708,50.742,374.619,50.782Zm-.713.161c.038.051.075.1.112.155a4.761,4.761,0,0,0-1.418,1.278,2.981,2.981,0,0,0-.17.272,3.109,3.109,0,0,0-1.076.025,2.619,2.619,0,0,0-.265.071,6.728,6.728,0,0,1,2.021-2.646A9.758,9.758,0,0,0,373.905,50.943Zm1.231.278c.072-.026.143-.051.216-.074a2.508,2.508,0,0,0,1.091.532,4.442,4.442,0,0,0,1.92-.108,2.758,2.758,0,0,1,.512.417A5.794,5.794,0,0,0,377.7,51.9a1.871,1.871,0,0,0-1.2.385q-.364-.3-.769-.6Q375.421,51.451,375.137,51.221Zm1.063-.244a3.016,3.016,0,0,1,1.25.146,2.985,2.985,0,0,1-.885-.032A1.894,1.894,0,0,1,376.2,50.977Zm.63,2.381q.367.34.672.671a.918.918,0,0,1-.651-.332.81.81,0,0,1-.143-.265Zm-1.451-1.192q.41.3.775.6a1.2,1.2,0,0,0-.075.327c-.137.074-.277.146-.419.216a7.427,7.427,0,0,0-.422-1.252Zm.452,2.9c.342.3.729.68,1.135,1.083a11.947,11.947,0,0,1-1.367.066A4,4,0,0,0,375.831,55.064Zm.159-.648-.172-.134q-.015-.176-.042-.36c.14-.066.273-.133.4-.2a1.433,1.433,0,0,0,.207.35,1.62,1.62,0,0,0,1.6.526,4.957,4.957,0,0,1,.73,1.252q-.367.084-.761.155c-.079.015-.157.028-.235.04-.1-.1-.206-.2-.307-.3A18.891,18.891,0,0,0,375.99,54.416Zm.983-1.738a1.392,1.392,0,0,1,.736-.183,4.723,4.723,0,0,1,1.532.2.872.872,0,0,1,0,.157,1.368,1.368,0,0,1-1.035,1.065A12.005,12.005,0,0,0,376.973,52.678Zm.329-4.468c-.1.16-.225.165-.7.117a4.344,4.344,0,0,0-1.733.11c.086-.577.482-1.614,2.2-1.775A1.366,1.366,0,0,1,377.3,48.21Zm-3.9-1.9a2.95,2.95,0,0,1,1.733-.618,2.412,2.412,0,0,1,1.388.444,2.641,2.641,0,0,0-2.27,2.39c0,.045-.007.091-.008.136a6.082,6.082,0,0,0-1.022.59,2.884,2.884,0,0,1-.6-1.591A1.649,1.649,0,0,1,373.4,46.314Zm-4.785,5.49a2.058,2.058,0,0,1,1.741-2.587,2.763,2.763,0,0,1,.543-.054,3.156,3.156,0,0,1,1.729.552,6.988,6.988,0,0,0-2.319,3.454,2.959,2.959,0,0,0-.605.685A4.374,4.374,0,0,1,368.618,51.8Zm9.569,6.294a5.745,5.745,0,0,1-7.257.517,3.146,3.146,0,0,1-1.068-3.739q.129.112.268.221a4.426,4.426,0,0,0,.442,1.589,2.445,2.445,0,0,0,2.832,1.483,3.109,3.109,0,0,0,1.9-1.353,13.011,13.011,0,0,0,2.205-.13c.363.354.726.694,1.076.98A2.162,2.162,0,0,1,378.187,58.1Zm.653-1c-.194-.164-.392-.346-.592-.534.21-.04.417-.083.616-.129a1.9,1.9,0,0,1,.018.22A1.671,1.671,0,0,1,378.841,57.1Zm-.246-2.683a1.892,1.892,0,0,0,1.244-1.483l.137.061a4.156,4.156,0,0,0,1.3.406,3.142,3.142,0,0,0,.951-.023c.179.156.348.308.5.46A6.87,6.87,0,0,1,379.3,55.7,5.248,5.248,0,0,0,378.594,54.413Zm4.651,2.422a2.927,2.927,0,0,1-3.178,1.015,2.111,2.111,0,0,1-.717-.357,2.272,2.272,0,0,0,.133-.858,2.722,2.722,0,0,0-.034-.349,7.579,7.579,0,0,0,3.671-1.981A2.248,2.248,0,0,1,383.245,56.835Zm-1.282-8.362a5.128,5.128,0,0,1,1.67,2.936,1.725,1.725,0,0,0-1.485-1.308,2.4,2.4,0,0,0-.335-.023,5.927,5.927,0,0,0-1.682.33,4.3,4.3,0,0,1-.628-1.726,3.855,3.855,0,0,1,.168-1.676A6.552,6.552,0,0,1,381.964,48.473Z" transform="translate(-367.964 -41.796)" fill="#00b3fe"/>
        </g>
      </g>
      <g id="Group_178149" data-name="Group 178149" transform="translate(394.104 45.707)">
        <circle id="Ellipse_861" data-name="Ellipse 861" cx="7.355" cy="7.355" r="7.355" transform="translate(0)" fill="#00b3fe"/>
        <g id="Group_178148" data-name="Group 178148" transform="translate(0 0.075)">
          <path id="Path_41418" data-name="Path 41418" d="M405.213,54.754a7.338,7.338,0,0,0-.161.823,11.23,11.23,0,0,0,1.335,1.517c.194-.078.4-.167.6-.266A11.013,11.013,0,0,1,405.213,54.754Z" transform="translate(-404.976 -49.272)" fill="#555e66"/>
          <path id="Path_41419" data-name="Path 41419" d="M407.57,58.458c.179.147.364.291.561.427.21-.088.426-.19.642-.3-.208-.131-.406-.27-.6-.416C407.971,58.278,407.769,58.371,407.57,58.458Z" transform="translate(-405.654 -50.192)" fill="#555e66"/>
          <path id="Path_41420" data-name="Path 41420" d="M412.173,59.344c-.246.169-.5.323-.749.465a11.776,11.776,0,0,0,4.265.125,9.091,9.091,0,0,0,4.343-1.659l-.383-.463C418.042,59.141,414.7,59.739,412.173,59.344Z" transform="translate(-406.692 -50.095)" fill="#555e66"/>
          <path id="Path_41421" data-name="Path 41421" d="M409.183,59.553c.094.053.186.108.283.158a5.284,5.284,0,0,0,.525.228c.245-.118.49-.248.731-.392a5.251,5.251,0,0,1-.881-.327C409.621,59.343,409.4,59.452,409.183,59.553Z" transform="translate(-406.089 -50.474)" fill="#555e66"/>
          <path id="Path_41422" data-name="Path 41422" d="M409.747,60.818q-.39.169-.763.3c.052.028.1.058.153.085a10.03,10.03,0,0,0,5.619.6,9.08,9.08,0,0,0,4.343-1.659l-.382-.463C416.762,61.3,412.232,61.839,409.747,60.818Z" transform="translate(-406.035 -50.599)" fill="#555e66"/>
          <path id="Path_41423" data-name="Path 41423" d="M404.982,57.783c.063.079.128.159.2.242.186-.052.4-.117.627-.2a11.591,11.591,0,0,1-.848-1.107A7.48,7.48,0,0,0,404.982,57.783Z" transform="translate(-404.948 -49.802)" fill="#555e66"/>
          <path id="Path_41424" data-name="Path 41424" d="M405.866,59.113c.139.149.289.3.445.446.206-.059.427-.129.661-.21-.166-.148-.321-.3-.47-.449C406.275,58.983,406.061,59.054,405.866,59.113Z" transform="translate(-405.196 -50.388)" fill="#555e66"/>
          <path id="Path_41425" data-name="Path 41425" d="M407.205,60.359c.2.162.4.319.623.467.232-.073.473-.157.721-.251a7.588,7.588,0,0,1-.669-.452C407.646,60.212,407.419,60.291,407.205,60.359Z" transform="translate(-405.556 -50.717)" fill="#555e66"/>
          <path id="Path_41426" data-name="Path 41426" d="M411.017,58.488a7.549,7.549,0,0,0,.952.25c.154-.115.306-.235.452-.363.05-.044.1-.1.147-.145a8.094,8.094,0,0,1-.944-.183C411.426,58.206,411.223,58.35,411.017,58.488Z" transform="translate(-406.583 -50.158)" fill="#555e66"/>
          <path id="Path_41427" data-name="Path 41427" d="M413.975,57.8a5.4,5.4,0,0,1-.511.521c-.013.012-.028.023-.042.034a12.727,12.727,0,0,0,3.133-.069,9.091,9.091,0,0,0,4.343-1.659l-.382-.463C419.1,57.332,416.337,57.939,413.975,57.8Z" transform="translate(-407.23 -49.651)" fill="#555e66"/>
          <path id="Path_41428" data-name="Path 41428" d="M409.72,57.25c-.184.129-.37.251-.556.363.2.128.408.251.625.362l.046.02c.2-.121.4-.254.594-.394-.126-.05-.251-.1-.367-.161S409.833,57.316,409.72,57.25Z" transform="translate(-406.084 -49.944)" fill="#555e66"/>
          <path id="Path_41429" data-name="Path 41429" d="M405.718,53.241q-.147.332-.262.68a10.741,10.741,0,0,0,2.161,2.232c.186-.1.372-.213.557-.335A10.327,10.327,0,0,1,405.718,53.241Z" transform="translate(-405.085 -48.864)" fill="#555e66"/>
          <path id="Path_41430" data-name="Path 41430" d="M405.347,60.011c.056.2.116.387.187.574.306-.066.707-.165,1.171-.313q-.282-.23-.533-.47C405.848,59.9,405.565,59.964,405.347,60.011Z" transform="translate(-405.056 -50.631)" fill="#555e66"/>
          <path id="Path_41431" data-name="Path 41431" d="M407.379,59.416c.172.153.357.3.548.444.25-.095.508-.2.77-.327-.213-.121-.421-.248-.617-.385C407.838,59.251,407.6,59.338,407.379,59.416Z" transform="translate(-405.603 -50.455)" fill="#555e66"/>
          <path id="Path_41432" data-name="Path 41432" d="M411.583,54.357a7.232,7.232,0,0,1-.687.554,5.7,5.7,0,0,0,.695.23c.136-.109.27-.223.4-.343,1.672-1.543,2.749-4.793,2.718-7.5-.2-.022-.4-.037-.6-.042C414.147,49.8,413.132,52.928,411.583,54.357Z" transform="translate(-406.55 -47.252)" fill="#555e66"/>
          <path id="Path_41433" data-name="Path 41433" d="M409.217,58.614c.172.108.347.212.531.306.032.016.069.029.1.045.229-.126.457-.267.682-.417a5.541,5.541,0,0,1-.682-.277C409.639,58.4,409.428,58.509,409.217,58.614Z" transform="translate(-406.098 -50.219)" fill="#555e66"/>
          <path id="Path_41434" data-name="Path 41434" d="M408.98,58.741c-.216.108-.432.21-.642.3.2.137.4.264.617.385.218-.1.438-.21.658-.332-.033-.015-.07-.028-.1-.045C409.327,58.953,409.152,58.849,408.98,58.741Z" transform="translate(-405.861 -50.345)" fill="#555e66"/>
          <path id="Path_41435" data-name="Path 41435" d="M406.475,59.725q.252.239.533.47c.214-.068.441-.147.675-.236-.191-.143-.376-.291-.548-.444C406.9,59.6,406.681,59.666,406.475,59.725Z" transform="translate(-405.36 -50.554)" fill="#555e66"/>
          <path id="Path_41436" data-name="Path 41436" d="M410.083,58.126a5.541,5.541,0,0,0,.682.277c.206-.137.409-.281.606-.441a5.694,5.694,0,0,1-.695-.23C410.482,57.872,410.284,58.005,410.083,58.126Z" transform="translate(-406.331 -50.074)" fill="#555e66"/>
          <path id="Path_41437" data-name="Path 41437" d="M411.29,59.486a7.666,7.666,0,0,0,.847.175,8.241,8.241,0,0,0,.711-.546c-.276-.03-.544-.072-.805-.123A8.379,8.379,0,0,1,411.29,59.486Z" transform="translate(-406.656 -50.413)" fill="#555e66"/>
          <path id="Path_41438" data-name="Path 41438" d="M405.918,61.484c.091.191.193.376.3.557a14.21,14.21,0,0,0,1.941-.544q-.354-.192-.677-.411A13.987,13.987,0,0,1,405.918,61.484Z" transform="translate(-405.21 -50.976)" fill="#555e66"/>
          <path id="Path_41439" data-name="Path 41439" d="M415.569,47.352c.372,2.652-.667,6.309-2.43,8,.248.034.5.061.76.076a11.321,11.321,0,0,0,2.294-7.952C415.987,47.424,415.78,47.383,415.569,47.352Z" transform="translate(-407.154 -47.278)" fill="#555e66"/>
          <path id="Path_41440" data-name="Path 41440" d="M409.044,60.6c.125.074.251.147.383.213.105.054.221.1.336.148a11.085,11.085,0,0,0,1.02-.5,6.753,6.753,0,0,1-.829-.248C409.647,60.352,409.341,60.482,409.044,60.6Z" transform="translate(-406.051 -50.739)" fill="#555e66"/>
          <path id="Path_41441" data-name="Path 41441" d="M410.289,60.06a6.754,6.754,0,0,0,.829.248c.253-.142.5-.3.749-.465a7.666,7.666,0,0,1-.847-.175C410.779,59.811,410.534,59.941,410.289,60.06Z" transform="translate(-406.387 -50.595)" fill="#555e66"/>
          <path id="Path_41442" data-name="Path 41442" d="M408.778,60.741c-.248.094-.49.178-.721.251q.323.219.677.411.373-.134.763-.3c-.115-.047-.231-.094-.336-.148C409.03,60.888,408.9,60.815,408.778,60.741Z" transform="translate(-405.786 -50.884)" fill="#555e66"/>
          <path id="Path_41443" data-name="Path 41443" d="M412.772,58.442c-.145.128-.3.248-.452.363.261.051.529.094.805.123.014-.012.028-.022.042-.034a5.4,5.4,0,0,0,.511-.521c-.259-.015-.512-.042-.76-.076C412.869,58.344,412.822,58.4,412.772,58.442Z" transform="translate(-406.934 -50.226)" fill="#555e66"/>
          <path id="Path_41444" data-name="Path 41444" d="M410.286,53.316a7.294,7.294,0,0,1-1.111.889c.175.124.359.242.548.353a7.873,7.873,0,0,0,.984-.813,10.95,10.95,0,0,0,2.523-6.494c-.2.007-.4.025-.606.048A10.35,10.35,0,0,1,410.286,53.316Z" transform="translate(-406.087 -47.251)" fill="#555e66"/>
          <path id="Path_41445" data-name="Path 41445" d="M407.7,57.493c.161.145.334.286.512.424.184-.095.37-.2.557-.311q-.286-.183-.549-.381C408.047,57.322,407.873,57.411,407.7,57.493Z" transform="translate(-405.69 -49.937)" fill="#555e66"/>
          <path id="Path_41446" data-name="Path 41446" d="M405.032,58.55c.005.043.006.085.012.129.023.159.059.313.092.468.149-.037.317-.083.506-.14-.159-.17-.3-.338-.441-.5Z" transform="translate(-404.971 -50.282)" fill="#555e66"/>
          <path id="Path_41447" data-name="Path 41447" d="M406.121,58.162c.139.159.29.322.449.484.194-.072.4-.154.609-.246q-.266-.218-.5-.444C406.482,58.033,406.3,58.1,406.121,58.162Z" transform="translate(-405.264 -50.134)" fill="#555e66"/>
          <path id="Path_41448" data-name="Path 41448" d="M406.879,57.858q.239.226.5.444c.2-.087.4-.18.608-.286-.178-.137-.351-.278-.512-.424C407.274,57.691,407.073,57.78,406.879,57.858Z" transform="translate(-405.468 -50.036)" fill="#555e66"/>
          <path id="Path_41449" data-name="Path 41449" d="M405.263,58.433c.137.164.281.332.441.5.2-.059.409-.13.636-.213-.159-.162-.311-.324-.449-.484C405.661,58.316,405.449,58.381,405.263,58.433Z" transform="translate(-405.033 -50.21)" fill="#555e66"/>
          <path id="Path_41450" data-name="Path 41450" d="M408.413,57.1q.263.2.549.381c.186-.112.372-.234.556-.363-.189-.111-.373-.229-.548-.353C408.785,56.888,408.6,57,408.413,57.1Z" transform="translate(-405.881 -49.814)" fill="#555e66"/>
        </g>
        <path id="Path_41451" data-name="Path 41451" d="M416.376,48.337A7.353,7.353,0,0,1,407.2,59.459a7.354,7.354,0,1,0,9.173-11.122Z" transform="translate(-405.556 -47.469)" fill="#555e66"/>
      </g>
    </g>
  </g>
</svg>
