<svg xmlns="http://www.w3.org/2000/svg" width="78.24" height="82.314" viewBox="0 0 78.24 82.314">
  <g id="Group_178966" data-name="Group 178966" transform="translate(-653.24 -4053.962)">
    <path id="instilling-good-behavior-in-down-syndrome-children-800x533" d="M34.475,2.434C7.062,12.451,0,17.869,0,36.909S36.92,76.166,55.96,76.166s16.3-22.745,16.3-41.785S61.888-7.583,34.475,2.434Z" transform="translate(728.559 4133.202) rotate(180)" fill="#028a98"/>
    <g id="Group_178965" data-name="Group 178965">
      <g id="instilling-good-behavior-in-down-syndrome-children-800x533-2" data-name="instilling-good-behavior-in-down-syndrome-children-800x533" transform="translate(731.48 4136.276) rotate(180)" fill="none" opacity="0.67">
        <path d="M37.258,2.63C7.632,13.456,0,19.311,0,39.888S39.9,82.315,60.477,82.315,78.092,57.733,78.092,37.156,66.883-8.2,37.258,2.63Z" stroke="none"/>
        <path d="M 50.64768981933594 0.9999923706054688 C 46.65697479248047 0.9999923706054688 42.26746368408203 1.86456298828125 37.60111236572266 3.5697021484375 C 29.40413665771484 6.564964294433594 23.78397369384766 8.863739013671875 19.3781852722168 11.0233039855957 C 14.41118621826172 13.45795440673828 10.86305999755859 15.77775192260742 8.2120361328125 18.3238525390625 C 5.525527954101562 20.90401458740234 3.744209289550781 23.73033905029297 2.606124877929688 27.21842956542969 C 1.510360717773438 30.57681655883789 1 34.60277938842773 1 39.88837814331055 C 1 42.23665618896484 1.561775207519531 44.70198822021484 2.669723510742188 47.21592712402344 C 3.728790283203125 49.61892700195312 5.296211242675781 52.09098052978516 7.328453063964844 54.56339263916016 C 11.11781311035156 59.17350387573242 16.55821228027344 63.8114013671875 23.0615119934082 67.97570037841797 C 29.190673828125 71.90042877197266 35.97573852539062 75.24139404296875 42.68316268920898 77.63740539550781 C 49.41752624511719 80.04302978515625 55.57061004638672 81.3145751953125 60.47723770141602 81.3145751953125 C 65.13179016113281 81.3145751953125 68.65705871582031 80.031982421875 71.25450134277344 77.39350128173828 C 77.58621215820312 70.96173858642578 77.37249755859375 57.33201599121094 77.16584014892578 44.15103912353516 C 77.12962341308594 41.84189224243164 77.09218597412109 39.4541015625 77.09218597412109 37.15640258789062 C 77.09218597412109 32.82807922363281 76.57606506347656 28.403564453125 75.59960174560547 24.36119079589844 C 74.53266143798828 19.94424057006836 72.95108795166016 16.01444244384766 70.89883422851562 12.68091583251953 C 68.66089630126953 9.045806884765625 65.90776062011719 6.209213256835938 62.71592712402344 4.249954223632812 C 59.20285034179688 2.093528747558594 55.14268493652344 1.000076293945312 50.64791107177734 0.9999923706054688 L 50.64768981933594 0.9999923706054688 M 50.64823150634766 0 C 70.32872009277344 0.0003662109375 78.09218597412109 20.03194046020508 78.09218597412109 37.15640258789062 C 78.09218597412109 57.73337936401367 81.05419921875 82.3145751953125 60.47723770141602 82.3145751953125 C 39.90027618408203 82.3145751953125 0 60.46535491943359 0 39.88837814331055 C 0 19.3113899230957 7.632286071777344 13.45596694946289 37.25790023803711 2.630439758300781 C 42.2286491394043 0.8140716552734375 46.68038177490234 -7.62939453125e-05 50.64823150634766 0 Z" stroke="none" fill="#f58737"/>
      </g>
      <g id="Group_178130" data-name="Group 178130" transform="translate(475.329 4023.186)">
        <g id="Group_177307" data-name="Group 177307" transform="translate(209.359 49.823)">
          <path id="Path_39226" data-name="Path 39226" d="M253.618,52.412l-3.7,6.664-5.924-3.7Z" transform="translate(-243.992 -51.672)" fill="#30bfbf"/>
          <path id="Path_39227" data-name="Path 39227" d="M253.617,50.563l-9.626,2.962.74-2.221,7.4-1.481Z" transform="translate(-243.991 -49.823)" fill="#46d4e0"/>
          <path id="Path_39228" data-name="Path 39228" d="M246.213,55.743l-2.221.74.74-2.221h0Z" transform="translate(-243.991 -52.781)" fill="#aefffd"/>
          <path id="Path_39229" data-name="Path 39229" d="M252.317,53.93l-2.221.74.74-2.221h0Z" transform="translate(-247.875 -51.708)" fill="#aefffd"/>
          <path id="Path_39230" data-name="Path 39230" d="M259.163,52.117l-2.962.74.74-2.221h0Z" transform="translate(-251.759 -50.636)" fill="#aefffd"/>
          <path id="Path_39231" data-name="Path 39231" d="M265.527,50.563l-2.221.74.74-1.481h0Z" transform="translate(-255.902 -49.823)" fill="#aefffd"/>
          <path id="Path_39232" data-name="Path 39232" d="M250.1,56.776l3.7,4.443-1.481-5.183Z" transform="translate(-247.875 -53.814)" fill="#46d4e0"/>
          <path id="Path_39233" data-name="Path 39233" d="M261.539,53.15l-1.481,5.924,3.7-6.664Z" transform="translate(-254.134 -51.669)" fill="#46d4e0"/>
        </g>
        <g id="Group_177308" data-name="Group 177308" transform="translate(202.902 56.694)">
          <path id="Path_39234" data-name="Path 39234" d="M248.258,102.221c-8.787,2.3-18.432-3.061-20.733-11.847s3.061-18.432,11.847-20.733S257.8,72.7,260.105,81.488,257.044,99.92,248.258,102.221Zm-7.4-28.878a13.572,13.572,0,0,0-9.626,16.29c1.834,7.007,8.543,10.72,15.55,8.885s11.46-8.543,9.626-15.55S247.86,71.508,240.853,73.343Z" transform="translate(-226.992 -69.107)" fill="#ff9700"/>
        </g>
        <g id="Group_177309" data-name="Group 177309" transform="translate(188.833 60.729)">
          <path id="Path_39235" data-name="Path 39235" d="M212.321,81.254a16.378,16.378,0,0,0-3.7-1.481c-2.438-.524-4.828.066-7.4.74a16.437,16.437,0,1,0,14.809,28.137,16.244,16.244,0,0,1-3.7-1.481,12.274,12.274,0,0,1-3.7,1.481c-7.008,1.835-14.455-1.878-16.29-8.885a13.572,13.572,0,0,1,9.626-16.29,15.747,15.747,0,0,1,4.443-.74,13.52,13.52,0,0,1,3.7.74c3.947,1.415,7.006,5.275,8.145,9.626a13.007,13.007,0,0,1-2.962,11.847,13.623,13.623,0,0,0,3.7.74,17.61,17.61,0,0,0,2.221-14.069A16.211,16.211,0,0,0,212.321,81.254Z" transform="translate(-188.833 -79.572)" fill="#ffb300"/>
        </g>
        <path id="Rectangle_162788" data-name="Rectangle 162788" d="M2.5,0H4.171a2.5,2.5,0,0,1,2.5,2.5v0a0,0,0,0,1,0,0H0a0,0,0,0,1,0,0v0A2.5,2.5,0,0,1,2.5,0Z" transform="translate(211.976 57.096) rotate(-14.671)" fill="#ff9700"/>
      </g>
    </g>
  </g>
</svg>
