<svg xmlns="http://www.w3.org/2000/svg" width="95" height="95" viewBox="0 0 95 95">
  <g id="Group_178971" data-name="Group 178971" transform="translate(-342 -1282)">
    <circle id="Ellipse_863" data-name="Ellipse 863" cx="47.5" cy="47.5" r="47.5" transform="translate(342 1282)" fill="rgba(232,8,105,0.13)"/>
    <g id="Group_178177" data-name="Group 178177" transform="translate(428.438 787.769)">
      <path id="Path_41469" data-name="Path 41469" d="M-65.4,631.972a5.282,5.282,0,0,0,1.569,3.738,4.151,4.151,0,0,0,3.493,1.325,3.506,3.506,0,0,0,1.088-.242,3.989,3.989,0,0,0,1.686-1.2,5.19,5.19,0,0,0,1.445-3.737,5.7,5.7,0,0,0-1.445-3.618,7.188,7.188,0,0,0-1.806-1.084c-.362-.12-.727-.12-1.088-.241a4.631,4.631,0,0,0-3.492,1.446,5.674,5.674,0,0,0-1.449,3.617Z" transform="translate(0 -82.649)" fill="#ffdcc0" fill-rule="evenodd"/>
      <path id="Path_41470" data-name="Path 41470" d="M98.4,631.972a5.294,5.294,0,0,0,1.566,3.738,4.163,4.163,0,0,0,3.5,1.325,3.507,3.507,0,0,0,1.084-.242,4,4,0,0,0,1.69-1.2,5.243,5.243,0,0,0-.12-7.355,5.023,5.023,0,0,0-1.69-1.084c-.361-.12-.723-.12-1.084-.241a4.647,4.647,0,0,0-3.5,1.446,5.693,5.693,0,0,0-1.445,3.617Z" transform="translate(-120.154 -82.649)" fill="#ffdcc0" fill-rule="evenodd"/>
      <path id="Path_41471" data-name="Path 41471" d="M-56.919,639.709a.582.582,0,0,1,0,.843.562.562,0,0,1-.843.121,3.486,3.486,0,0,1,0-5.665.574.574,0,0,1,.843,0,.728.728,0,0,1-.12.963c-2.168,1.927.12,3.738.12,3.738Z" transform="translate(-4.501 -88.454)" fill="#cca69a"/>
      <path id="Path_41472" data-name="Path 41472" d="M120.771,635.346a.582.582,0,0,1-.12-.844.745.745,0,0,1,.848-.124c0,.124,3.492,2.654.12,5.669a.6.6,0,0,1-.847-.843,2.378,2.378,0,0,0,0-3.858Z" transform="translate(-136.384 -88.07)" fill="#cca69a"/>
      <path id="Path_41473" data-name="Path 41473" d="M-48.33,572.781a61.174,61.174,0,0,0,.361,9.161,6.858,6.858,0,0,0,.245,1.57v-.121l.116.723.125.6.12.241.12.362.241.482.241.362.241.482.241.482.241.486.241.361.361.482.361.361.361.482.361.241.482.6.241.241.847.722c5.544,4.34,14.344,6.151,23.506,4.943,8.68-1.2,12.3-4.46,13.983-9.523a5.171,5.171,0,0,0,.121-.6c.963-3.252,1.084-7.23,1.325-11.812v-1.69c.481-12.658-7.351-20.37-21.334-21.092a22.681,22.681,0,0,0-11.936,2.77l-1.2.723-.486.241-.722.486-.361.362-.723.481-.361.361-.6.6-.481.362-.482.6c-.121.121-.241.242-.362.362l-.486.6-.361.481-.481.606-.362.482-.361.724-.361.36-.362.723c-.12.242-.241.362-.241.482l-.361.722-.241.606-.361.722-.121.482-.361.723-.12.6-.241.844-.125.482-.12.847-.12.482-.12.843v.6l-.121.482v1.2Z" transform="translate(-12.488 -27.195)" fill="#ffdcc0" fill-rule="evenodd"/>
      <path id="Path_41474" data-name="Path 41474" d="M31.041,652.857c0,.241-.607.481-1.449.481-.723,0-1.325-.241-1.325-.481,0-.362.6-.6,1.325-.6.842,0,1.449.241,1.449.6Z" transform="translate(-68.71 -101.24)" fill="#b79d8f"/>
      <path id="Path_41475" data-name="Path 41475" d="M29.59,514.244c.125,0,.241.12.365.241,0,.12,0,.361-.241.361a4.246,4.246,0,0,0-2.172,2.173,12.375,12.375,0,0,0-.481,1.685,3.543,3.543,0,0,0,.241,1.089,2.855,2.855,0,0,1,.723-1.089,2.074,2.074,0,0,1,1.931-.722h0a1.167,1.167,0,0,1,.843.963,2.081,2.081,0,0,1-.241,1.449,1.8,1.8,0,0,1-1.931.843c-.241,0-.481-.12-.723-.12.121.361.241.842.362,1.324.361,1.325.6,2.654-.241,3.5-.121.12-.241.241-.362.12a.366.366,0,0,1,0-.482c.6-.722.241-1.811,0-2.894a6.7,6.7,0,0,1-.361-2.049c-.12-.12-.241-.241-.361-.241a2.773,2.773,0,0,1-.482-1.69,5.663,5.663,0,0,1,.482-1.926,4.979,4.979,0,0,1,2.65-2.533Zm-1.686,6.15a1.737,1.737,0,0,0,.843.241.944.944,0,0,0,1.209-.6,1.3,1.3,0,0,0,.241-.968c-.12-.241-.241-.482-.481-.482h0c-.246-.121-.727,0-1.329.6a1.562,1.562,0,0,0-.482,1.208Z" transform="translate(-67.384)" fill="#9b4009"/>
      <path id="Path_41476" data-name="Path 41476" d="M5.4,673.621a.54.54,0,0,1,0-.6.341.341,0,0,1,.6,0c2.529,2.168,4.822,3.377,7.11,3.377,2.172,0,4.34-1.088,6.271-3.377a.452.452,0,0,1,.723,0,.4.4,0,0,1,0,.6c-2.172,2.534-4.581,3.738-6.994,3.618-2.529,0-5.063-1.209-7.712-3.618Z" transform="translate(-51.87 -116.34)" fill="#f06376"/>
      <path id="Path_41477" data-name="Path 41477" d="M-12.975,627.093c0-1.569-1.084-2.894-2.168-2.894-1.329,0-2.292,1.325-2.292,2.894,0,1.687.963,2.891,2.292,2.891,1.084,0,2.168-1.2,2.168-2.891Z" transform="translate(-35.184 -80.66)" fill="#3f1f0e" fill-rule="evenodd"/>
      <path id="Path_41478" data-name="Path 41478" d="M73.32,627.093c0-1.569-.963-2.894-2.167-2.894s-2.172,1.325-2.172,2.894c0,1.687.964,2.891,2.172,2.891s2.167-1.2,2.167-2.891Z" transform="translate(-98.576 -80.66)" fill="#3f1f0e" fill-rule="evenodd"/>
      <path id="Path_41479" data-name="Path 41479" d="M-10.248,639.009a.905.905,0,0,0,.843-.843.906.906,0,0,0-.843-.844.824.824,0,0,0-.843.844.823.823,0,0,0,.843.843Z" transform="translate(-39.838 -90.287)" fill="#fefefe" fill-rule="evenodd"/>
      <path id="Path_41480" data-name="Path 41480" d="M74.812,639.462a.843.843,0,1,0-.843-.843.824.824,0,0,0,.843.843Z" transform="translate(-102.236 -90.62)" fill="#fefefe" fill-rule="evenodd"/>
    </g>
  </g>
</svg>
