<svg xmlns="http://www.w3.org/2000/svg" xmlns:xlink="http://www.w3.org/1999/xlink" width="175" height="139" viewBox="0 0 175 139">
  <defs>
    <filter id="Rectangle_163410" x="0" y="0" width="175" height="139" filterUnits="userSpaceOnUse">
      <feOffset dy="3" input="SourceAlpha"/>
      <feGaussianBlur stdDeviation="3" result="blur"/>
      <feFlood flood-opacity="0.161"/>
      <feComposite operator="in" in2="blur"/>
      <feComposite in="SourceGraphic"/>
    </filter>
  </defs>
  <g id="Group_178957" data-name="Group 178957" transform="translate(-724 -1494)">
    <g transform="matrix(1, 0, 0, 1, 724, 1494)" filter="url(#Rectangle_163410)">
      <g id="Rectangle_163410-2" data-name="Rectangle 163410" transform="translate(9 6)" fill="#f0f0f0" stroke="#028a98" stroke-width="1" stroke-dasharray="6">
        <path d="M20.419,0H96.5A60.5,60.5,0,0,1,157,60.5v0A60.5,60.5,0,0,1,96.5,121H20.419A20.419,20.419,0,0,1,0,100.581V20.419A20.419,20.419,0,0,1,20.419,0Z" stroke="none"/>
        <path d="M20.5.5h76a60,60,0,0,1,60,60v0a60,60,0,0,1-60,60h-76a20,20,0,0,1-20-20v-80A20,20,0,0,1,20.5.5Z" fill="none"/>
      </g>
    </g>
    <circle id="Ellipse_896" data-name="Ellipse 896" cx="36.5" cy="36.5" r="36.5" transform="translate(808 1527)" fill="#028a98"/>
    <text id="_3" data-name="3" transform="translate(836 1578)" fill="#fff" font-size="47" font-family="CoconNextArabic-Bold, CoconÆ Next Arabic" font-weight="700"><tspan x="0" y="0">3</tspan></text>
    <g id="layer1" transform="translate(733 1530.5)">
      <path id="path850" d="M27.621,0a.849.849,0,0,0-.863.86V2.586a.863.863,0,1,0,1.727,0V.86A.849.849,0,0,0,27.621,0ZM22.952,1.367a.866.866,0,0,0-.619,1.475L23.558,4.06a.863.863,0,0,0,1.224-1.217L23.558,1.619A.824.824,0,0,0,22.952,1.367Zm9.338,0a.824.824,0,0,0-.605.251L30.461,2.843A.863.863,0,0,0,31.685,4.06l1.224-1.217a.866.866,0,0,0-.619-1.475ZM21.848,6.908a1.762,1.762,0,0,0-1.415.733L16.673,12.8a1.458,1.458,0,0,0,.071,1.8c2.582,3.094,5.229,6.115,7.864,9.14a3.742,3.742,0,0,0-.44,1.789V30.7c0,3.089-.771,5.974-.853,10.031l-.7-.14a.863.863,0,0,0-.931.438L14.775,53.98a.864.864,0,0,0,.757,1.27H40.57a.864.864,0,0,0,.8-.543l3.456-8.635a.865.865,0,0,0-.639-1.167l-.361-.072c.427-.461.986-1.013,1.619-1.6,1.2-1.114,2.662-2.41,4.09-3.785a33.933,33.933,0,0,0,3.881-4.288,7.845,7.845,0,0,0,1.829-4.451A63.667,63.667,0,0,0,54.223,22.1c-.521-3.165-1.052-5.895-1.052-5.895a3.3,3.3,0,0,0-2.433-2.7,3.18,3.18,0,0,0-1.425.015l-.067-.939a2.884,2.884,0,0,0-3.059-2.593,2.838,2.838,0,0,0-2.62,2.683L43.3,18.7l-2.079-4.161a3.015,3.015,0,0,0-1.74-1.46,3.061,3.061,0,0,0-.818-.14c-1.3-1.835-2.676-3.694-4.008-5.524a1.729,1.729,0,0,0-1.266-.509Zm4.409,1.727h2.728l1.723,4.315h-6.18ZM46.369,11.7c.441,0,.986.2,1.168,1.138l.8,11.879a.866.866,0,0,0,1.728-.121L49.434,15.3a1.5,1.5,0,0,1,.932-.113c.493.108.931.409,1.109,1.339,0,0,.522,2.712,1.039,5.851A67.656,67.656,0,0,1,53.521,30.7a6.578,6.578,0,0,1-1.5,3.448,32.659,32.659,0,0,1-3.684,4.052c-1.394,1.342-2.844,2.635-4.065,3.773a20.461,20.461,0,0,0-2.4,2.475L25.03,41.075c.047-4.014.865-6.919.865-10.373v-5.18a1.606,1.606,0,0,1,1.128-1.7c.472-.105,1.135.052,1.514,1.13,1.21,3.157,2.384,6.3,3.443,9.472a.863.863,0,1,0,1.639-.541c-.087-.26-.177-.52-.265-.779a28.241,28.241,0,0,0,3.527-2.382,12.368,12.368,0,0,0,2.4-2.414,3.432,3.432,0,0,0,.7-3.048l-2.76-8.594a1.434,1.434,0,0,1,.772-1.892,1.337,1.337,0,0,1,1.706.587l6.146,12.28c.008.015.016.029.025.044a7.664,7.664,0,0,1,.752,2.275.865.865,0,0,0,1.715-.236,8.712,8.712,0,0,0-.976-2.905l-2.467-4.933.4-9.134A1.085,1.085,0,0,1,46.369,11.7Zm-21.8,2.973h6.1l-2.656,7.518a2.758,2.758,0,0,0-.828-.12Zm11.213,3.14,2.558,7.975a1.8,1.8,0,0,1-.469,1.523A11.127,11.127,0,0,1,35.8,29.377a27.082,27.082,0,0,1-3.023,2.064c-.834-2.371-1.717-4.72-2.63-7.093,1.87-2.192,3.76-4.349,5.63-6.532ZM6.9,18.99a.863.863,0,0,0-.835.637,7.837,7.837,0,0,1-4.638,5.461.864.864,0,0,0,0,1.625A7.83,7.83,0,0,1,6.07,32.167a.863.863,0,0,0,1.662,0,7.836,7.836,0,0,1,4.64-5.46.864.864,0,0,0,0-1.625,7.833,7.833,0,0,1-4.645-5.454A.865.865,0,0,0,6.9,18.99Zm8.634,12.088a.862.862,0,0,0-.828.624A4.8,4.8,0,0,1,11.8,35.01a.863.863,0,0,0,0,1.63A4.8,4.8,0,0,1,14.7,39.949a.864.864,0,0,0,1.664-.007,4.8,4.8,0,0,1,2.905-3.308.862.862,0,0,0,0-1.624A4.8,4.8,0,0,1,16.362,31.7.864.864,0,0,0,15.532,31.078ZM4.744,36.259a.862.862,0,0,0-.835.642A5.908,5.908,0,0,1,.551,41.063a.863.863,0,0,0,.007,1.612A5.891,5.891,0,0,1,3.91,46.831a.863.863,0,0,0,1.669,0A5.907,5.907,0,0,1,8.938,42.67a.864.864,0,0,0,0-1.614A5.9,5.9,0,0,1,5.579,36.9a.862.862,0,0,0-.835-.642Z" transform="translate(0)" fill="#f5862c"/>
    </g>
  </g>
</svg>
