<svg xmlns="http://www.w3.org/2000/svg" width="60.367" height="60.653" viewBox="0 0 60.367 60.653">
  <g id="Group_178258" data-name="Group 178258" transform="translate(-346.424 -24.601)">
    <g id="Group_178252" data-name="Group 178252" transform="translate(375.035 24.601)">
      <path id="Path_41566" data-name="Path 41566" d="M402.655,38.829c.517-.164.971-.887,1.294-1.286.579-.715,1.027-1.506,1.585-2.232a7.3,7.3,0,0,1,2.031-1.99,12.922,12.922,0,0,1,1.549-.667,3.381,3.381,0,0,0-.682,1.427,4.349,4.349,0,0,1,1.594-.329,7.582,7.582,0,0,0-1.5,1.617,12.379,12.379,0,0,1-2.652,2.357,20.773,20.773,0,0,1-2.164,1.294c-.22.11-1.333.694-1.22-.025Z" transform="translate(-386.605 -26.263)" fill="#93063d"/>
      <path id="Path_41567" data-name="Path 41567" d="M399.536,38.944c-.528-.126-1.033-.813-1.382-1.188-.629-.671-1.136-1.428-1.745-2.112a7.315,7.315,0,0,0-2.168-1.838,12.856,12.856,0,0,0-1.592-.552,3.386,3.386,0,0,1,.782,1.373,4.35,4.35,0,0,0-1.614-.211,7.517,7.517,0,0,1,1.614,1.5,12.479,12.479,0,0,0,2.815,2.159,21.354,21.354,0,0,0,2.252,1.133c.227.093,1.382.594,1.217-.113Z" transform="translate(-384.404 -26.387)" fill="#93063d"/>
      <g id="Group_178248" data-name="Group 178248" transform="translate(0 0.05)">
        <path id="Path_41568" data-name="Path 41568" d="M384.214,26.666c-1.728,2.14-.463,6.027,2.827,8.684s10.11,4.366,11.379,2.793c.888-1.1-1.834-7.882-5.123-10.539S385.942,24.528,384.214,26.666Zm13.467,10.991c-.907,1.123-6.132-.386-8.719-2.474s-3.681-5.019-2.449-6.547,4.33-1.072,6.915,1.016S398.315,36.871,397.681,37.657Z" transform="translate(-382.675 -24.795)" fill="#93063d"/>
        <path id="Path_41569" data-name="Path 41569" d="M383.44,26.35c-1.976,2.447-.817,6.663,2.591,9.414s10.674,4.275,12.128,2.475c1.017-1.258-1.56-8.587-4.969-11.339S385.419,23.9,383.44,26.35Zm13.949,11.394c-1.039,1.284-6.6-.1-9.276-2.264s-3.707-5.334-2.3-7.082,4.728-1.41,7.407.752S398.113,36.845,397.389,37.744Z" transform="translate(-382.477 -24.664)" fill="#b70b45"/>
      </g>
      <g id="Group_178249" data-name="Group 178249" transform="translate(15.619)">
        <path id="Path_41570" data-name="Path 41570" d="M407.724,27.385c-3.362,2.564-6.271,9.27-5.414,10.393,1.226,1.608,8.092.088,11.452-2.477s4.735-6.415,3.068-8.6S411.084,24.82,407.724,27.385Zm-.188,2.044c2.642-2.016,5.748-2.384,6.938-.823s.013,4.461-2.627,6.475-7.909,3.38-8.785,2.232C402.45,36.51,404.894,31.444,407.535,29.428Z" transform="translate(-402.158 -24.733)" fill="#93063d"/>
        <path id="Path_41571" data-name="Path 41571" d="M407.649,26.679c-3.483,2.656-6.261,9.911-5.28,11.2,1.4,1.838,8.709.518,12.19-2.138s4.76-6.838,2.851-9.34S411.132,24.022,407.649,26.679Zm-.1,2.247c2.737-2.088,6.061-2.333,7.424-.547s.248,4.927-2.488,7.015-8.334,3.32-9.335,2.007C402.452,36.483,404.815,31.014,407.552,28.926Z" transform="translate(-402.16 -24.601)" fill="#b70b45"/>
      </g>
      <g id="Group_178251" data-name="Group 178251" transform="translate(0.676 12.885)">
        <rect id="Rectangle_163327" data-name="Rectangle 163327" width="27.072" height="24.726" transform="translate(1.397 4.778)" fill="#fcb900"/>
        <rect id="Rectangle_163328" data-name="Rectangle 163328" width="29.773" height="1.328" transform="translate(0 3.45)" fill="#e89700"/>
        <rect id="Rectangle_163329" data-name="Rectangle 163329" width="29.748" height="2.363" transform="translate(0 1.088)" fill="#fcb900"/>
        <path id="Path_41572" data-name="Path 41572" d="M415.16,71.583H399.621l11.524-24.726h4.015Z" transform="translate(-386.691 -42.08)" fill="#e89700"/>
        <rect id="Rectangle_163330" data-name="Rectangle 163330" width="29.773" height="0.465" transform="translate(0 4.313)" fill="#cc7a00"/>
        <g id="Group_178250" data-name="Group 178250" transform="translate(5.827 8.28)">
          <path id="Path_41573" data-name="Path 41573" d="M409.947,54.757c0,6.605-9.639,13-9.639,13s-9.638-6.393-9.638-13,9.638-1.8,9.638-1.8S409.947,48.152,409.947,54.757Z" transform="translate(-390.67 -51.271)" fill="#b70b45"/>
          <path id="Path_41574" data-name="Path 41574" d="M409.558,52.106a12.783,12.783,0,0,1-12.316,9.946,12.344,12.344,0,0,1-3-.372,33.157,33.157,0,0,0,6.8,6.248s9.639-6.393,9.639-13A3.316,3.316,0,0,0,409.558,52.106Z" transform="translate(-391.408 -51.443)" fill="#93063d"/>
        </g>
        <rect id="Rectangle_163331" data-name="Rectangle 163331" width="2.322" height="3.691" transform="translate(13.938 1.088)" fill="#b70b45"/>
        <path id="Path_41575" data-name="Path 41575" d="M404.162,41.38a.545.545,0,0,1-.544.545h-3.455a.543.543,0,0,1-.542-.545h0a.542.542,0,0,1,.542-.543h3.455a.544.544,0,0,1,.544.543Z" transform="translate(-386.691 -40.837)" fill="#b70b45"/>
        <rect id="Rectangle_163332" data-name="Rectangle 163332" width="0.696" height="3.691" transform="translate(13.938 1.088)" fill="#93063d"/>
        <rect id="Rectangle_163333" data-name="Rectangle 163333" width="0.696" height="3.691" transform="translate(15.564 1.088)" fill="#93063d"/>
        <path id="Path_41576" data-name="Path 41576" d="M403.928,40.961a3.23,3.23,0,0,1-2.407.764,4.446,4.446,0,0,1-1.9-.375c0,.02,0,.037,0,.056a.543.543,0,0,0,.542.545h3.455a.545.545,0,0,0,.544-.545A.539.539,0,0,0,403.928,40.961Z" transform="translate(-386.691 -40.863)" fill="#93063d"/>
      </g>
      <rect id="Rectangle_163334" data-name="Rectangle 163334" width="27.072" height="0.618" transform="translate(2.072 41.771)" fill="#cc7a00"/>
    </g>
    <g id="Group_178257" data-name="Group 178257" transform="translate(346.424 64.487)">
      <g id="Group_178254" data-name="Group 178254" transform="translate(10.658 0.441)">
        <path id="Path_41577" data-name="Path 41577" d="M380.071,81.093c.063.056.128.108.192.16s.106.081.159.12c.129.067.263.127.4.186a3.1,3.1,0,0,1,1.663,1.286,2.944,2.944,0,0,1-1.017,4.051,2.846,2.846,0,0,1-2.281.324,15.682,15.682,0,0,1-1.85-.8l-.051-.029a4.489,4.489,0,0,1-1.356-1.078,3.176,3.176,0,0,1-.9-2.078,2.96,2.96,0,0,1,.844-2.1A3.009,3.009,0,0,1,380.071,81.093Z" transform="translate(-362.987 -76.418)" fill="#ffd4a8"/>
        <path id="Path_41578" data-name="Path 41578" d="M379.152,82.361a3.257,3.257,0,0,1,1.128.6,2.848,2.848,0,0,1,.4.275c.113.062.227.122.34.179a2.956,2.956,0,0,1,1.4,3.32,2.986,2.986,0,0,1-1.343,1.78,3.194,3.194,0,0,1-2.282.323,6.826,6.826,0,0,1-3.032-1.758,2.847,2.847,0,0,1-.893-2.078,2.948,2.948,0,0,1,.843-2.1,2.978,2.978,0,0,1,2.086-.888A2.727,2.727,0,0,1,379.152,82.361Z" transform="translate(-362.954 -76.78)" fill="#ffd4a8"/>
        <path id="Path_41579" data-name="Path 41579" d="M408.345,90.855c-.579-1.3-1.828-1.626-3.224-1.694.094-1.579-4.041-1.7-5.12-1.7a9.906,9.906,0,0,1-2.314-.171c-.467-.11-.875-.318-1.333-.43.863,1.083-.563,1.747-1.424,1.974-.375.1-.719.067-.592.413s.808.517,1.108.675c.707.376,1.429.8,2.117,1.207.5.29.985.544,1.491.808.628.329.673.47,1.359.256a9.287,9.287,0,0,1,3.784-.2c.838.09,1.424.3,2.144-.135a4.979,4.979,0,0,1,2.151-1.048Z" transform="translate(-366.966 -77.778)" fill="#c98553"/>
        <g id="Group_178253" data-name="Group 178253">
          <path id="Path_41580" data-name="Path 41580" d="M372.275,75.619c-4.17.778-7.9,1.763-12.114,2.056-.5,1.262-.471,7.983.706,8.978.62.525,2.656-.037,3.666-.045a35.7,35.7,0,0,1,4.75-.059c2.463.32,4.387,2.276,6.638,3.371,3.035,1.471,6.525,3.493,9.427,5.157,2.775,1.6,6.608-.108,9.579-.652,2.376-.436,4.39-1.244,6.758-1.793,1.153-.268,3.077-.426,4.21-1.1,2.6-.469,2.672-3.239-.269-3.632a12.159,12.159,0,0,0-6.077.808c-.58.252-.483.525-1.055.636a13.859,13.859,0,0,1-1.6-.169c-1.147.017-2.377.256-3.521.378-1.264.134-1.418-.017-2.6-.7a10.294,10.294,0,0,0-2.76-1.072c-1.751-.455-2.229-1.04-.812-.434,1.036.443,3.351,1.543,3.451-.606.069-1.513-3.72-4.339-4.638-5.41-1.765-2.057-3.366-3.791-6.031-4.759A14.031,14.031,0,0,0,372.275,75.619Z" transform="translate(-359.854 -75.417)" fill="#ffd4a8"/>
          <path id="Path_41581" data-name="Path 41581" d="M388.555,88.88l.687-.02a3.311,3.311,0,0,0-.3.135c-.126-.028-.252-.052-.382-.077Z" transform="translate(-365.778 -78.192)" fill="#ffd4a8"/>
        </g>
        <path id="Path_41582" data-name="Path 41582" d="M393.278,89.958a12.186,12.186,0,0,1-3.208-1.883,6.593,6.593,0,0,0-2.167-1.319,36.8,36.8,0,0,1-4.928-2.217c1.271.409,2.522.863,3.8,1.229a10.977,10.977,0,0,1,1.859.61,4.682,4.682,0,0,1,1.144.96,8.5,8.5,0,0,0,2.891,1.836c1.209.46,2.243.815,2.751-.554,1.039,1.33-2.061,1.886-2.963,1.053Z" transform="translate(-364.626 -77.3)" fill="#d3945a"/>
        <path id="Path_41583" data-name="Path 41583" d="M369.487,86.582c-.067-.011-.136-.026-.2-.034a35.7,35.7,0,0,0-4.75.058c-1.009.01-3.046.57-3.666.047-1.176-1-1.206-7.716-.706-8.978,4.213-.3,7.945-1.278,12.114-2.056a13.351,13.351,0,0,1,7.042.721C373.962,78.521,370.206,82.259,369.487,86.582Z" transform="translate(-359.854 -75.417)" fill="#eaaf7d"/>
        <path id="Path_41584" data-name="Path 41584" d="M412.609,91.526c-.543-1.183-3.119-1.061-4.354-.982a6.71,6.71,0,0,0-3.465,1.439c-.788.6-.673.522-1.557.226a6.019,6.019,0,0,0-2.006-.181,6.714,6.714,0,0,0-3.9.924c-.1-1.076-2.079-1.712-2.93-2.081-1.355-.589-2.638-1.294-3.97-1.892-1.211-.544-2.451-1.043-3.634-1.585a28.033,28.033,0,0,1-3.819-2.859c.905-.14,2.552,1.044,3.356,1.408.821.373,1.755.612,2.553,1.041,1.236.667,2.2,1.744,3.55,2.286a17.145,17.145,0,0,1,3.593,1.417,8.749,8.749,0,0,0,1.1.771c.414.15,1.551-.372,2.236-.444,1.216-.13,2.465.117,3.635.1.758-.007.825-.423,1.548-.736a9.542,9.542,0,0,1,1.774-.558c2.278-.475,4.837-.925,6.117,1.138a7.237,7.237,0,0,1,.148.914Z" transform="translate(-364.626 -77.297)" fill="#eaaf7d"/>
        <path id="Path_41585" data-name="Path 41585" d="M397.446,88.433c.141,1.563-1.3,1.138-1.563,1.062a3.217,3.217,0,0,1-1.383-.709c.686-.306,1.463-1.405,1.335-1.921.121,0,.509.342.648.462.206.176.923.837.963,1.105Z" transform="translate(-367.005 -77.78)" fill="#e29682"/>
        <path id="Path_41586" data-name="Path 41586" d="M419.49,94.48c-.721.8-1.892.69-2.8,1.067a7.413,7.413,0,0,0,1.863-1.082c.41-.319.835-.671.8-1.236.271-.056.417.354.447.559.07.46-.4.583-.483.867Z" transform="translate(-371.586 -79.092)" fill="#e29682"/>
        <path id="Path_41587" data-name="Path 41587" d="M388.4,83.46c-1.835.017-6.013-1.359-5.339-3.868.509-1.9,3.078-.4,4.1.094,1.113.541,2.569,2.579,1.286,3.528Z" transform="translate(-364.628 -76.086)" fill="#ffdcc0"/>
        <path id="Path_41588" data-name="Path 41588" d="M392.508,95.838c-1,.689-2.874-.286-3.843-.71a22.268,22.268,0,0,1-4.353-2.609c-1.584-1.176-6.029-3.387-4.8-6.04.917-1.978,4.19.421,5.114,1.127a18.1,18.1,0,0,0,6.118,3.47c1.276.356,2.928.477,3.215,2.014.179.967-.413,2.671-1.452,2.749Z" transform="translate(-363.868 -77.542)" fill="#ffdcc0"/>
        <path id="Path_41589" data-name="Path 41589" d="M415.443,93.5c-.4.775-1.609,1.212-2.336,1.593a12.922,12.922,0,0,1-3.1,1.128c-1.729.41-3.446.7-5.175,1.076-.734.159-4.749,1.45-5.038.521-.343-1.1,3.825-2.38,4.55-2.5a16.6,16.6,0,0,1,3.19.04,5.078,5.078,0,0,0,2.864-.768c.853-.431,4.155-1.945,4.973-.948Z" transform="translate(-368.094 -79.11)" fill="#ffdcc0"/>
      </g>
      <g id="Group_178256" data-name="Group 178256">
        <g id="Group_178255" data-name="Group 178255">
          <path id="Path_41590" data-name="Path 41590" d="M346.463,89.285l-.04-13.37L359.61,75.9l.038,13.371Z" transform="translate(-346.424 -75.075)" fill="#0a0101"/>
          <rect id="Rectangle_163335" data-name="Rectangle 163335" width="4.374" height="15.004" transform="translate(10.944 0.009) rotate(-0.118)" fill="#bad6d5"/>
        </g>
        <path id="Path_41591" data-name="Path 41591" d="M360.245,89.877l-.031-15,4.4,11.691.005,3.3Z" transform="translate(-349.27 -74.864)" fill="#97bebf"/>
      </g>
    </g>
  </g>
</svg>
