<svg xmlns="http://www.w3.org/2000/svg" width="95" height="95" viewBox="0 0 95 95">
  <g id="Group_178972" data-name="Group 178972" transform="translate(-342 -1457)">
    <circle id="Ellipse_864" data-name="Ellipse 864" cx="47.5" cy="47.5" r="47.5" transform="translate(342 1457)" fill="rgba(209,237,249,0.59)"/>
    <g id="Group_178180" data-name="Group 178180" transform="translate(-2 -6.907)">
      <g id="Group_178179" data-name="Group 178179" transform="translate(277.904 1353.765)">
        <g id="Group_178174" data-name="Group 178174" transform="translate(108.146 135.561)">
          <path id="Path_41461" data-name="Path 41461" d="M190.029,174.844c-.084,9.527-7.528,17.935-16.783,19.056-13.153,1.593-23.119-10.557-18.854-23.5A19.139,19.139,0,0,1,171.4,157.208a17.2,17.2,0,0,1,18.164,13.916C189.815,172.346,189.88,173.6,190.029,174.844Z" transform="translate(-153.392 -155.695)" fill="#fff"/>
          <path id="Path_41462" data-name="Path 41462" d="M194.226,174.856c.3.1.8.252,1.289.425a7.682,7.682,0,0,1,4.653,4.072c.91,1.947.584,4.419-1.491,5.385a1.292,1.292,0,0,0-.574.733c-1.03,3.248-3.428,4.547-6.719,3.6-.183-.052-.361-.123-.593-.2-.179.142-.371.277-.542.433-2.1,1.925-4.6,2.434-6.773,1.378a6.477,6.477,0,0,1-3.523-6.575,21.1,21.1,0,0,1,1.719-6.539c.225-.523.426-1.056.669-1.662-5.829-4.241-7.684-10.305-7.891-17.269a5.844,5.844,0,0,0-.773.5,42.921,42.921,0,0,1-8.524,6.427,69.323,69.323,0,0,1-7.212,3.3c-1.012.435-2.091.713-3.329,1.126a10.978,10.978,0,0,1-.075-1.551,12.766,12.766,0,0,1,3.419-7.491,17.935,17.935,0,0,1,10.8-5.644,25.162,25.162,0,0,1,12.652,1.414,17.483,17.483,0,0,1,8.843,7.579,35.6,35.6,0,0,1,2.951,5.941A29.534,29.534,0,0,1,194.226,174.856Z" transform="translate(-153.749 -155.013)"/>
          <path id="Path_41463" data-name="Path 41463" d="M167.784,192.081a3.879,3.879,0,0,1-3.037-1.6,1.8,1.8,0,0,1-.121-2.037,1.654,1.654,0,0,1,1.84-.842,9.627,9.627,0,0,0,3.693.243c.794-.151,1.235.392,1.239,1.219a2.342,2.342,0,0,1-1.233,2.148A15.751,15.751,0,0,1,167.784,192.081Z" transform="translate(-156.855 -165.285)"/>
          <path id="Path_41464" data-name="Path 41464" d="M181.794,192.639a2.514,2.514,0,0,1,2.585,2.659,2.787,2.787,0,0,1-2.873,2.77,2.676,2.676,0,0,1-2.63-2.682A2.847,2.847,0,0,1,181.794,192.639Z" transform="translate(-161.434 -166.887)" fill="#f1a9db"/>
          <path id="Path_41465" data-name="Path 41465" d="M157.375,185.883a2.232,2.232,0,0,1-2.248-2.16,2.27,2.27,0,0,1,2.317-2.25,2.2,2.2,0,0,1,2.252,2.14A2.331,2.331,0,0,1,157.375,185.883Z" transform="translate(-153.939 -163.363)" fill="#f1a9db"/>
          <path id="Path_41466" data-name="Path 41466" d="M167.873,182.084c.324.879.913.582,1.31.753.193.083.47.313.457.454a.944.944,0,0,1-.391.668,2.04,2.04,0,0,1-2.622-1.137,1.576,1.576,0,0,1,1.414-2.068c.6-.066,1.172.073,1.748-.378.43-.337.909.17.776.761-.186.825-.68,1.14-1.584,1.027C168.667,182.125,168.349,182.117,167.873,182.084Z" transform="translate(-157.543 -162.983)"/>
          <path id="Path_41467" data-name="Path 41467" d="M179.493,184.116a1.108,1.108,0,0,1-1.12,1.072,1.23,1.23,0,0,1-1.135-1.248,1.174,1.174,0,0,1,1.222-.987A1.11,1.11,0,0,1,179.493,184.116Z" transform="translate(-160.916 -163.829)"/>
          <path id="Path_41468" data-name="Path 41468" d="M165.415,176.824a.979.979,0,0,1,1.07.934,1.014,1.014,0,0,1-.9,1.114,1.058,1.058,0,0,1-1.163-1.007A1.044,1.044,0,0,1,165.415,176.824Z" transform="translate(-156.873 -161.895)"/>
        </g>
      </g>
      <g id="Group_178178" data-name="Group 178178" transform="translate(422.438 987.256)">
        <path id="Path_41469" data-name="Path 41469" d="M-65.4,630.592a3.842,3.842,0,0,0,1.141,2.719,3.02,3.02,0,0,0,2.541.964,2.55,2.55,0,0,0,.791-.176,2.9,2.9,0,0,0,1.227-.876,3.775,3.775,0,0,0,1.051-2.719,4.144,4.144,0,0,0-1.051-2.631,5.229,5.229,0,0,0-1.314-.788c-.263-.088-.529-.088-.792-.175a3.368,3.368,0,0,0-2.54,1.052,4.127,4.127,0,0,0-1.054,2.631Z" transform="translate(0 -90.832)" fill="#ffdcc0" fill-rule="evenodd"/>
        <path id="Path_41470" data-name="Path 41470" d="M98.4,630.592a3.851,3.851,0,0,0,1.139,2.719,3.028,3.028,0,0,0,2.543.964,2.551,2.551,0,0,0,.788-.176,2.907,2.907,0,0,0,1.229-.876,3.814,3.814,0,0,0-.087-5.35,3.654,3.654,0,0,0-1.23-.788c-.263-.088-.526-.088-.788-.175a3.38,3.38,0,0,0-2.543,1.052,4.141,4.141,0,0,0-1.051,2.631Z" transform="translate(-132.051 -90.832)" fill="#ffdcc0" fill-rule="evenodd"/>
        <path id="Path_41471" data-name="Path 41471" d="M-57.558,638.377a.424.424,0,0,1,0,.613.408.408,0,0,1-.613.088,2.535,2.535,0,0,1,0-4.12.418.418,0,0,1,.613,0,.53.53,0,0,1-.087.7,1.692,1.692,0,0,0,.087,2.719Z" transform="translate(-4.947 -97.213)" fill="#cca69a"/>
        <path id="Path_41472" data-name="Path 41472" d="M120.7,635.061a.423.423,0,0,1-.088-.614.542.542,0,0,1,.616-.09c0,.09,2.54,1.931.087,4.124a.435.435,0,1,1-.616-.613,1.729,1.729,0,0,0,0-2.806Z" transform="translate(-149.888 -96.79)" fill="#cca69a"/>
        <path id="Path_41473" data-name="Path 41473" d="M-48.342,566.929a44.5,44.5,0,0,0,.263,6.664,4.989,4.989,0,0,0,.178,1.142v-.088l.084.526.091.438.088.175.087.263.175.35.175.263.175.35.175.35.175.354.176.262.263.35.263.263.263.35.263.175.351.438.175.175.616.525c4.032,3.157,10.434,4.474,17.1,3.6,6.313-.876,8.944-3.244,10.171-6.927a3.761,3.761,0,0,0,.088-.438,39.42,39.42,0,0,0,.964-8.592v-1.229c.35-9.207-5.347-14.816-15.518-15.342a16.5,16.5,0,0,0-8.682,2.015l-.876.526-.353.175-.525.354-.263.263-.526.35-.263.262-.438.438-.35.263-.35.438-.263.263-.353.438-.263.35-.35.441-.263.35-.263.526-.263.262-.263.526c-.087.176-.175.263-.175.351l-.263.525-.175.441-.263.525-.088.351-.263.526-.088.437-.175.614-.091.35-.088.616-.088.35-.087.613v.438l-.088.351v.876Z" transform="translate(-13.724 -29.887)" fill="#ffdcc0" fill-rule="evenodd"/>
        <path id="Path_41474" data-name="Path 41474" d="M30.285,652.692c0,.175-.441.35-1.054.35-.526,0-.964-.175-.964-.35,0-.263.438-.438.964-.438.613,0,1.054.175,1.054.438Z" transform="translate(-75.513 -111.265)" fill="#b79d8f"/>
        <path id="Path_41475" data-name="Path 41475" d="M28.737,514.244c.091,0,.175.087.266.175,0,.087,0,.262-.175.262a3.089,3.089,0,0,0-1.58,1.58,9,9,0,0,0-.35,1.226,2.577,2.577,0,0,0,.175.792,2.076,2.076,0,0,1,.526-.792,1.509,1.509,0,0,1,1.4-.525h0a.849.849,0,0,1,.613.7,1.514,1.514,0,0,1-.175,1.054,1.306,1.306,0,0,1-1.4.613c-.175,0-.35-.087-.526-.087.088.263.176.613.263.963.263.964.438,1.931-.175,2.544-.088.087-.175.175-.263.087a.266.266,0,0,1,0-.35c.438-.525.175-1.317,0-2.1a4.87,4.87,0,0,1-.263-1.49c-.088-.087-.175-.175-.263-.175a2.017,2.017,0,0,1-.35-1.229,4.119,4.119,0,0,1,.35-1.4,3.622,3.622,0,0,1,1.927-1.843Zm-1.227,4.473a1.264,1.264,0,0,0,.613.175.686.686,0,0,0,.879-.437.949.949,0,0,0,.175-.7c-.087-.175-.175-.35-.35-.35h0c-.179-.088-.529,0-.967.438a1.137,1.137,0,0,0-.351.879Z" transform="translate(-74.056)" fill="#9b4009"/>
        <path id="Path_41476" data-name="Path 41476" d="M5.376,673.407a.393.393,0,0,1,0-.438.248.248,0,0,1,.438,0c1.84,1.577,3.507,2.456,5.172,2.456a6.022,6.022,0,0,0,4.561-2.456.329.329,0,0,1,.526,0,.289.289,0,0,1,0,.438c-1.58,1.843-3.332,2.719-5.087,2.631-1.84,0-3.682-.879-5.61-2.631Z" transform="translate(-57.006 -127.859)" fill="#f06376"/>
        <path id="Path_41477" data-name="Path 41477" d="M-14.191,626.3c0-1.141-.788-2.1-1.577-2.1a1.906,1.906,0,0,0-1.667,2.1c0,1.227.7,2.1,1.667,2.1a1.915,1.915,0,0,0,1.577-2.1Z" transform="translate(-38.668 -88.646)" fill="#3f1f0e" fill-rule="evenodd"/>
        <path id="Path_41478" data-name="Path 41478" d="M72.137,626.3c0-1.141-.7-2.1-1.577-2.1s-1.58.964-1.58,2.1c0,1.227.7,2.1,1.58,2.1s1.577-.876,1.577-2.1Z" transform="translate(-108.336 -88.646)" fill="#3f1f0e" fill-rule="evenodd"/>
        <path id="Path_41479" data-name="Path 41479" d="M-10.478,638.549a.658.658,0,0,0,.613-.613.659.659,0,0,0-.613-.614.6.6,0,0,0-.613.614.6.6,0,0,0,.613.613Z" transform="translate(-43.783 -99.226)" fill="#fefefe" fill-rule="evenodd"/>
        <path id="Path_41480" data-name="Path 41480" d="M74.582,639a.613.613,0,1,0-.613-.613.6.6,0,0,0,.613.613Z" transform="translate(-112.359 -99.592)" fill="#fefefe" fill-rule="evenodd"/>
      </g>
    </g>
  </g>
</svg>
