<svg xmlns="http://www.w3.org/2000/svg" width="401.517" height="336.278" viewBox="0 0 401.517 336.278">
  <g id="Group_178282" data-name="Group 178282" transform="translate(-136.647 -363.843)">
    <g id="Group_178279" data-name="Group 178279" transform="translate(136.647 363.843)">
      <path id="Path_41617" data-name="Path 41617" d="M148.89,606.933H138.834V484.459A115.021,115.021,0,0,1,253.725,369.573v10.051A104.952,104.952,0,0,0,148.89,484.459Z" transform="translate(-127.102 -338.841)" fill="#f7c31e"/>
      <g id="Group_178278" data-name="Group 178278">
        <path id="Path_41618" data-name="Path 41618" d="M263.316,444.579H136.647V422.086c41.908-16.958,84.138-16.707,126.669,0Z" transform="translate(-136.645 -164.8)" fill="#f7c31e"/>
        <rect id="Rectangle_163339" data-name="Rectangle 163339" width="126.671" height="22.492" transform="translate(0 257.285)" fill="#f89f26"/>
        <g id="Group_178277" data-name="Group 178277" transform="translate(105.524)">
          <path id="Path_41619" data-name="Path 41619" d="M198.284,374.731c1.512,7.841-6.1,15.9-17.012,18s-20.97-2.547-22.483-10.383,6.1-15.9,17.007-18S196.771,366.9,198.284,374.731Z" transform="translate(-146.394 -363.843)" fill="#f89f26"/>
          <path id="Path_41620" data-name="Path 41620" d="M250.115,410.219,156.322,428.31,175.1,379.659l39.492-7.617Z" transform="translate(-156.322 -328.067)" fill="#f89f26"/>
          <rect id="Rectangle_163340" data-name="Rectangle 163340" width="40.22" height="33.693" transform="translate(12.396 18.508) rotate(-10.917)" fill="#f7c31e"/>
        </g>
      </g>
    </g>
    <rect id="Rectangle_163341" data-name="Rectangle 163341" width="185.301" height="7.878" transform="translate(267.804 619.609)" fill="#9d9d9c"/>
    <rect id="Rectangle_163342" data-name="Rectangle 163342" width="212.768" height="134.65" rx="1.902" transform="translate(254.071 486.203)" fill="#ededed"/>
    <path id="Path_41621" data-name="Path 41621" d="M376.44,413v5.46a11.547,11.547,0,0,1-2.011,6.57,9.077,9.077,0,0,1-7.455,4.114h-199.5a9.1,9.1,0,0,1-7.46-4.114,11.544,11.544,0,0,1-2.006-6.57V413Z" transform="translate(93.222 214.48)" fill="#9d9d9c"/>
    <rect id="Rectangle_163343" data-name="Rectangle 163343" width="218.44" height="5.452" transform="translate(251.235 627.487)" fill="#575756"/>
    <rect id="Rectangle_163344" data-name="Rectangle 163344" width="184.963" height="117.054" rx="1.653" transform="translate(267.973 495.001)" fill="#07c1d4"/>
    <path id="Path_41622" data-name="Path 41622" d="M295.269,426.335l-19.195-2.848a6.237,6.237,0,0,0-5.256-5.943l-27.1-4.022a5.334,5.334,0,0,0-6.044,4.457l-8.281-1.233a5.342,5.342,0,0,0-4.489-6.018l-27.1-4.022a6.32,6.32,0,0,0-7.176,5.32l-1.228,8.265a17.269,17.269,0,0,0,14.561,19.581l4.591.681a17.13,17.13,0,0,0,19.469-14.433l.708-4.779,8.249,1.228-.713,4.773A17.121,17.121,0,0,0,250.7,446.807l4.591.681a17.259,17.259,0,0,0,19.619-14.5l.665-4.494,18.959,2.816a10.856,10.856,0,0,1,9.134,12.314l-1.486,10a2.513,2.513,0,0,0,4.972.735l1.486-10A15.884,15.884,0,0,0,295.269,426.335Zm-71.846-.9a12.461,12.461,0,0,1-14.191,10.523l-4.591-.681a12.6,12.6,0,0,1-10.646-14.3l1.223-8.265a1.673,1.673,0,0,1,1.9-1.41l27.1,4.022a.73.73,0,0,1,.579.842ZM255.972,442.9l-4.591-.681a12.464,12.464,0,0,1-10.523-14.191l1.378-9.279a.722.722,0,0,1,.794-.633l27.106,4.022a1.661,1.661,0,0,1,1.405,1.9l-.1.687a1.593,1.593,0,0,0-.177,1.212l-.949,6.372A12.6,12.6,0,0,1,255.972,442.9Z" transform="translate(229.351 186.722)" fill="#575756"/>
    <g id="Group_178280" data-name="Group 178280" transform="translate(181.148 503.695)">
      <rect id="Rectangle_163345" data-name="Rectangle 163345" width="66.576" height="84.28" transform="translate(30.96 55.645)" fill="#df4937"/>
      <path id="Path_41623" data-name="Path 41623" d="M144.944,430.15c0-15.162,8.469-27.041,19.27-27.041s19.275,11.88,19.275,27.041-8.469,27.042-19.275,27.042S144.944,445.318,144.944,430.15Zm7.857,0c0,10.4,5.224,19.19,11.413,19.19s11.418-8.785,11.418-19.19-5.229-19.184-11.418-19.184S152.8,419.751,152.8,430.15Z" transform="translate(-144.944 -332.368)" fill="#df4937"/>
      <path id="Path_41624" data-name="Path 41624" d="M178.242,404.443,169,416.938l-14.427-5.779,9.027,12.651-9.955,11.935,14.821-4.676,8.274,13.156.133-15.541,15.068-3.8L177.2,419.95Z" transform="translate(-106.978 -326.548)" fill="#fff"/>
      <path id="Path_41625" data-name="Path 41625" d="M160.215,442.253a1.307,1.307,0,0,0,1.309-1.308,14.882,14.882,0,0,0-2.821-8.984,13.118,13.118,0,0,1,.005-15.173,15.747,15.747,0,0,0,0-17.972,12.217,12.217,0,0,1-2.419-7.589,1.309,1.309,0,0,0-2.617,0,14.868,14.868,0,0,0,2.821,8.983,13.147,13.147,0,0,1,0,15.183,15.714,15.714,0,0,0,0,17.967,12.2,12.2,0,0,1,2.413,7.584A1.307,1.307,0,0,0,160.215,442.253Z" transform="translate(-106.862 -389.919)" fill="#dadada"/>
      <path id="Path_41626" data-name="Path 41626" d="M162.74,442.253a1.31,1.31,0,0,0,1.309-1.308,14.918,14.918,0,0,0-2.821-8.984,13.106,13.106,0,0,1,0-15.173,15.723,15.723,0,0,0,0-17.972,12.216,12.216,0,0,1-2.419-7.589,1.309,1.309,0,0,0-2.617,0,14.9,14.9,0,0,0,2.821,8.983,13.147,13.147,0,0,1,0,15.183,15.714,15.714,0,0,0,0,17.967,12.2,12.2,0,0,1,2.414,7.584A1.311,1.311,0,0,0,162.74,442.253Z" transform="translate(-95.871 -389.919)" fill="#dadada"/>
      <path id="Path_41627" data-name="Path 41627" d="M165.253,442.253a1.311,1.311,0,0,0,1.314-1.308,14.917,14.917,0,0,0-2.821-8.984,13.106,13.106,0,0,1,0-15.173,15.723,15.723,0,0,0,0-17.972,12.216,12.216,0,0,1-2.419-7.589,1.309,1.309,0,1,0-2.617,0,14.9,14.9,0,0,0,2.821,8.983,13.147,13.147,0,0,1,0,15.183,15.714,15.714,0,0,0,0,17.967,12.2,12.2,0,0,1,2.414,7.584A1.31,1.31,0,0,0,165.253,442.253Z" transform="translate(-84.88 -389.919)" fill="#dadada"/>
    </g>
    <path id="Path_41628" data-name="Path 41628" d="M300.791,431.521c-12.335,0-18.61-8.554-24.151-16.106-5.3-7.229-10.308-14.057-20.1-14.057s-14.8,6.827-20.1,14.057c-5.54,7.552-11.815,16.106-24.151,16.106s-18.6-8.554-24.135-16.106c-5.3-7.229-10.3-14.057-20.085-14.057a2.513,2.513,0,1,1,0-5.025c12.33,0,18.605,8.554,24.14,16.106,5.3,7.235,10.3,14.057,20.08,14.057s14.8-6.827,20.1-14.057c5.535-7.551,11.815-16.106,24.151-16.106s18.616,8.554,24.151,16.106c5.3,7.23,10.308,14.057,20.1,14.057a2.513,2.513,0,1,1,0,5.025Z" transform="translate(126.169 141.762)" fill="#f6f6f6"/>
    <rect id="Rectangle_163346" data-name="Rectangle 163346" width="10.878" height="10.878" transform="translate(377.121 532.655)" fill="#fff"/>
    <rect id="Rectangle_163347" data-name="Rectangle 163347" width="6.704" height="6.704" transform="translate(346.103 534.742)" fill="#fff"/>
    <rect id="Rectangle_163348" data-name="Rectangle 163348" width="6.704" height="6.704" transform="translate(415.211 534.742)" fill="#fff"/>
    <rect id="Rectangle_163349" data-name="Rectangle 163349" width="69.108" height="2.514" transform="translate(349.454 536.837)" fill="#fff"/>
    <path id="Path_41629" data-name="Path 41629" d="M183.692,389.951a2.931,2.931,0,1,1-2.928-2.934A2.93,2.93,0,0,1,183.692,389.951Z" transform="translate(179.693 101.114)" fill="#706f6f"/>
    <g id="Group_178281" data-name="Group 178281" transform="translate(246.652 643.621)">
      <path id="Path_41630" data-name="Path 41630" d="M157.158,416.009l21.178,56.5,150.733-56.5Z" transform="translate(-157.158 -416.009)" fill="#ededed"/>
      <path id="Path_41631" data-name="Path 41631" d="M178.252,416.009h-5.369l5.567,14.856a2.514,2.514,0,0,0,4.709-1.764Z" transform="translate(-88.544 -416.007)" fill="#706f6f"/>
      <path id="Path_41632" data-name="Path 41632" d="M175,416.009H169.63l7.718,20.59a2.512,2.512,0,0,0,4.7-1.764Z" transform="translate(-102.738 -416.007)" fill="#706f6f"/>
      <path id="Path_41633" data-name="Path 41633" d="M171.745,416.009h-5.369l9.868,26.323a2.514,2.514,0,1,0,4.709-1.764Z" transform="translate(-116.935 -416.007)" fill="#706f6f"/>
      <path id="Path_41634" data-name="Path 41634" d="M168.5,416.009h-5.374l12.019,32.062a2.515,2.515,0,0,0,4.709-1.77Z" transform="translate(-131.134 -416.007)" fill="#706f6f"/>
      <path id="Path_41635" data-name="Path 41635" d="M165.238,416.009h-5.369L174.033,453.8a2.514,2.514,0,0,0,4.709-1.764Z" transform="translate(-145.327 -416.007)" fill="#706f6f"/>
    </g>
  </g>
</svg>
