<svg xmlns="http://www.w3.org/2000/svg" width="78.727" height="60.952" viewBox="0 0 78.727 60.952">
  <g id="Group_178247" data-name="Group 178247" transform="translate(-125.989 -358.376)">
    <g id="Group_178221" data-name="Group 178221">
      <g id="Group_178217" data-name="Group 178217">
        <g id="Group_178210" data-name="Group 178210">
          <path id="Path_41514" data-name="Path 41514" d="M164.087,380.427A8.21,8.21,0,1,1,155.879,372,8.321,8.321,0,0,1,164.087,380.427Z" fill="#fcb900"/>
          <path id="Path_41515" data-name="Path 41515" d="M162.945,380.427a7.066,7.066,0,1,1-7.066-7.019A7.042,7.042,0,0,1,162.945,380.427Z" fill="#e89700"/>
          <path id="Path_41516" data-name="Path 41516" d="M159.077,374.315c-2.176,2.841-6.308,8.236-8.32,10.86a6.932,6.932,0,1,0,8.32-10.86Z" fill="#cc7a00"/>
        </g>
        <g id="Group_178213" data-name="Group 178213">
          <g id="Group_178211" data-name="Group 178211">
            <path id="Path_41517" data-name="Path 41517" d="M159.569,382.719c-.091,1.8-1.409,2.3-3.158,2.4l-.036,1.1-.946.041.037-1.139c-1.031-.022-2.462-.113-3.114-.137l.024-.742c.818-.033,3.916-.047,3.916-.047,1.143-.013,2.03-.215,2.068-1.429l.028-.844c.029-1.02-.845-1.215-1.661-1.179l-2.125.088c-2.251.1-2.526-1.043-2.492-2.092l.029-.871c.055-1.763,1.879-2.245,3.626-2.241l.03-1.051.947-.04-.037,1.114c1.029.046,2.283.121,2.708.139l-.024.705c-.653.027-2.384.021-3.9.087-.67.028-2.111.178-2.144,1.237l-.026.87c-.025.731.252,1.242,1.317,1.2l2.121-.091c2.4-.1,2.868,1.067,2.837,2.078Z" fill="#846c06"/>
          </g>
          <g id="Group_178212" data-name="Group 178212">
            <path id="Path_41518" data-name="Path 41518" d="M156.766,374.478l-.966.04-.374,11.767.971-.04Z" fill="#846c06"/>
            <path id="Path_41519" data-name="Path 41519" d="M155.2,386.295l.369-11.767-.851.036-.37,11.765Z" fill="#846c06"/>
          </g>
        </g>
        <g id="Group_178216" data-name="Group 178216">
          <g id="Group_178214" data-name="Group 178214">
            <path id="Path_41520" data-name="Path 41520" d="M159.6,382.535c-.09,1.8-1.411,2.3-3.16,2.4l-.035,1.1-.946.04.035-1.139c-1.028-.019-2.46-.113-3.112-.137l.025-.742c.817-.034,3.916-.049,3.916-.049,1.142-.01,2.03-.213,2.068-1.427l.025-.844c.032-1.022-.842-1.215-1.659-1.179l-2.124.087c-2.253.1-2.528-1.043-2.492-2.089l.027-.871c.055-1.764,1.88-2.25,3.626-2.243l.031-1.052.947-.037-.036,1.113c1.029.045,2.282.119,2.705.138l-.022.7c-.653.027-2.382.023-3.9.088-.668.028-2.111.177-2.145,1.238l-.025.869c-.024.728.253,1.241,1.316,1.2l2.122-.089c2.4-.1,2.868,1.069,2.837,2.079Z" fill="#fcb900"/>
          </g>
          <g id="Group_178215" data-name="Group 178215">
            <path id="Path_41521" data-name="Path 41521" d="M156.793,374.294l-.966.041-.375,11.768.971-.04Z" fill="#fcb900"/>
            <path id="Path_41522" data-name="Path 41522" d="M155.224,386.112l.37-11.765-.852.032-.37,11.766Z" fill="#fcb900"/>
          </g>
        </g>
      </g>
      <g id="Group_178218" data-name="Group 178218">
        <path id="Path_41523" data-name="Path 41523" d="M157.022,361.172c-1.012.883-2.4,1.408-3.47,2.294-1.046.867-2.138,1.715-3.23,2.513-2.009,1.473-3.966,3.043-5.97,4.531-.722.537-4.635,2.612-4.171,3.74.27.658,1.752.553,2.266.483,1.247-.171,2.133-1.267,3.088-2.035.938-.752,2.2-.566,3.281-1.136a53.893,53.893,0,0,0,5.89-3.483c1.43-1.005,3.384-2.519,3.706-4.4.125-.725-.354-2.214-1.312-2.106Z" fill="#c98553"/>
        <path id="Path_41524" data-name="Path 41524" d="M191.114,367.267v0c-.678-.555-2.8.164-3.871.219a35.765,35.765,0,0,1-5.015.284c-2.616-.244-4.729-2.336-7.159-3.453-3.268-1.505-7.045-3.6-10.181-5.32-1.677-.921-3.657-.676-5.621-.156a.31.31,0,0,0-.046.013c-.046.013-.09.023-.135.033.012,0,.022.013.035.019a1.031,1.031,0,0,0-.463.614,106.049,106.049,0,0,0-8.065,8.208,32.577,32.577,0,0,0-3.746,5.2c-.645,1.064-1.341,2.075-2.046,3.105-.307.448-1.339,1.592-1.22,2.192.15.735,1.694.653,2.24.572a5.543,5.543,0,0,0,2.865-1.694,10.356,10.356,0,0,0,1.524-2.208,2.81,2.81,0,0,1,1.715-1.378,7.849,7.849,0,0,0,3-2.033c.812-.985.783-1.059,2-1.136a34.352,34.352,0,0,0,6.28-1.2c.231-.061.476-.1.713-.161.62.42,1.242.836,1.888,1.2.024.006.048,0,.073.011.19.047.388.1.591.16a3.308,3.308,0,0,1,.645.165,11.219,11.219,0,0,1,2.49,1.192c.017.013.028.026.044.038a5.515,5.515,0,0,1,2.07,2.179c.035.076.063.156.094.234s.072.185.1.278c.012.036.019.073.028.106-.991,1.12-2.877,1.691-4.163,2.137a12.17,12.17,0,0,1-2.274.487,7.892,7.892,0,0,0-1.974.181,2.121,2.121,0,0,0-.925,1.054c-.4.953.1.945.831,1.136a27.461,27.461,0,0,0,4.247.8c1.4.143,2.854.084,4.249.161a18.783,18.783,0,0,0,3.863-.079c.059-.008.116-.018.175-.028a.573.573,0,0,1,.081.006c.161.008.323.02.487.022.186,0,.37,0,.556-.007.137,0,.274,0,.414-.011.242-.016.488-.044.734-.074.087-.012.172-.018.259-.03.345-.051.691-.117,1.045-.2,4.369-1.061,8.269-2.331,12.708-2.852C192.725,375.815,192.4,368.322,191.114,367.267Z" fill="#ffd4a8"/>
        <path id="Path_41525" data-name="Path 41525" d="M191.166,367.21h0c-.678-.56-2.8.159-3.87.216-1.113.06-2.318.241-3.485.3-1.385,5.074-5.06,9.532-10.19,12.768a14.018,14.018,0,0,0,2.226-.133l.175-.028.081,0c.162.01.325.02.488.024.183,0,.371,0,.555-.006.137,0,.275,0,.414-.012.241-.016.488-.046.734-.076.087-.011.172-.015.261-.03.341-.05.69-.115,1.042-.2,4.372-1.063,8.27-2.33,12.708-2.851C192.775,375.756,192.45,368.264,191.166,367.21Z" fill="#eaaf7d"/>
      </g>
      <g id="Group_178220" data-name="Group 178220">
        <g id="Group_178219" data-name="Group 178219">
          <rect id="Rectangle_163319" data-name="Rectangle 163319" width="20.559" height="16.017" transform="translate(188.658 384.028) rotate(-89.883)" fill="#0a0101"/>
          <rect id="Rectangle_163320" data-name="Rectangle 163320" width="23.07" height="6.372" transform="translate(185.562 385.275) rotate(-89.886)" fill="#bad6d5"/>
        </g>
        <path id="Path_41526" data-name="Path 41526" d="M191.935,385.289l.046-23.07-6.407,17.975-.011,5.081Z" fill="#97bebf"/>
      </g>
      <path id="Path_41527" data-name="Path 41527" d="M162.623,379.038c-.14-1.063,1.741-.927,2.309-.863.524.059.734.028.706.619a6.617,6.617,0,0,0-.008,1.09,7.836,7.836,0,0,1-1.652-.239c-.392-.062-1.294-.012-1.393-.567Z" fill="#e29682"/>
      <path id="Path_41528" data-name="Path 41528" d="M145.012,375.626a3.619,3.619,0,0,0-1.5,2.465c.5-.792,1.033-1.583,1.571-2.355-.015-.064-.033.005-.072.012Z" fill="#e29682"/>
    </g>
    <g id="Group_178224" data-name="Group 178224">
      <g id="Group_178222" data-name="Group 178222">
        <rect id="Rectangle_163321" data-name="Rectangle 163321" width="65.606" height="25.183" transform="translate(128.659 391.537)" fill="#31bfc1"/>
        <path id="Path_41529" data-name="Path 41529" d="M194.266,416.72H153.384l13.837-22.377h27.045Z" fill="#05726d"/>
        <rect id="Rectangle_163322" data-name="Rectangle 163322" width="70.471" height="4.392" transform="translate(125.989 389.951)" fill="#05726d"/>
        <rect id="Rectangle_163323" data-name="Rectangle 163323" width="70.471" height="1.586" transform="translate(125.989 389.951)" fill="#31bfc1"/>
        <rect id="Rectangle_163324" data-name="Rectangle 163324" width="67.5" height="2.608" transform="translate(127.642 416.72)" fill="#05726d"/>
      </g>
      <g id="Group_178223" data-name="Group 178223">
        <rect id="Rectangle_163325" data-name="Rectangle 163325" width="56.258" height="4.392" transform="translate(133.096 389.951)" fill="#bad6d5"/>
        <rect id="Rectangle_163326" data-name="Rectangle 163326" width="56.258" height="22.377" transform="translate(133.096 394.343)" fill="#97bebf"/>
      </g>
    </g>
    <g id="Group_178227" data-name="Group 178227">
      <path id="Path_41530" data-name="Path 41530" d="M138.1,404.356l24.575-7.684L165.6,407.7l-24.575,7.682Z" fill="#069692"/>
      <path id="Path_41531" data-name="Path 41531" d="M146.3,407.764c-.7-2.651,1.215-5.575,4.284-6.536s6.124.412,6.827,3.062-1.217,5.576-4.284,6.536S147,410.413,146.3,407.764Z" fill="#05726d"/>
      <path id="Path_41532" data-name="Path 41532" d="M165.149,407.343l-1.068-4.032-4.008,5.618Z" fill="#05726d"/>
      <path id="Path_41533" data-name="Path 41533" d="M141.4,414.766l4.321-1.362-5.59-3.367Z" fill="#05726d"/>
      <path id="Path_41534" data-name="Path 41534" d="M138.6,404.6l1.068,4.032,4.008-5.619Z" fill="#05726d"/>
      <path id="Path_41535" data-name="Path 41535" d="M162.358,397.176l-4.321,1.36,5.591,3.368Z" fill="#05726d"/>
      <g id="Group_178225" data-name="Group 178225">
        <path id="Path_41536" data-name="Path 41536" d="M154.418,406.928c.281,1.147-.419,1.673-1.454,2.012l.186.7-.562.174-.192-.719c-.621.151-1.5.319-1.9.408l-.125-.468c.484-.152,2.347-.655,2.347-.655.684-.188,1.179-.457.977-1.226l-.14-.533c-.172-.647-.734-.629-1.22-.478l-1.26.394c-1.339.418-1.715-.251-1.892-.914l-.145-.551c-.3-1.116.712-1.711,1.763-1.986l-.176-.665.562-.175.187.7c.626-.134,1.393-.288,1.652-.342l.118.446c-.387.12-1.427.392-2.331.675-.4.124-1.235.447-1.057,1.118l.145.551c.121.462.385.738,1.014.54l1.261-.393c1.426-.446,1.925.213,2.1.851Z" fill="#33c1c2"/>
      </g>
      <g id="Group_178226" data-name="Group 178226">
        <path id="Path_41537" data-name="Path 41537" d="M151.194,402.2l-.576.18,1.974,7.446.573-.181Z" fill="#33c1c2"/>
        <path id="Path_41538" data-name="Path 41538" d="M152.454,409.87l-1.972-7.444-.508.156,1.974,7.445Z" fill="#33c1c2"/>
      </g>
    </g>
    <g id="Group_178230" data-name="Group 178230">
      <path id="Path_41539" data-name="Path 41539" d="M157.949,403.028l25.646,2.295-1.516,11.3-25.645-2.3Z" fill="#069692"/>
      <path id="Path_41540" data-name="Path 41540" d="M164.218,409.308c.363-2.717,3.254-4.686,6.457-4.4s5.5,2.722,5.138,5.438-3.256,4.688-6.458,4.4S163.852,412.025,164.218,409.308Z" fill="#05726d"/>
      <path id="Path_41541" data-name="Path 41541" d="M181.8,416.128l.555-4.135-5.852,3.659Z" fill="#05726d"/>
      <path id="Path_41542" data-name="Path 41542" d="M157.013,413.906l4.514.393-3.878-5.249Z" fill="#05726d"/>
      <path id="Path_41543" data-name="Path 41543" d="M158.32,403.444l-.555,4.135,5.852-3.66Z" fill="#05726d"/>
      <path id="Path_41544" data-name="Path 41544" d="M183.107,405.666l-4.513-.4,3.879,5.25Z" fill="#05726d"/>
      <g id="Group_178228" data-name="Group 178228">
        <path id="Path_41545" data-name="Path 41545" d="M172.042,411.641c-.179,1.168-1.026,1.387-2.112,1.3l-.095.716-.586-.054.1-.738c-.632-.1-1.508-.278-1.909-.348l.064-.48c.506.045,2.419.292,2.419.292.7.088,1.264.028,1.371-.759l.074-.547c.089-.663-.437-.861-.944-.907L169.107,410c-1.4-.125-1.488-.888-1.4-1.568l.076-.564c.153-1.145,1.312-1.31,2.388-1.162l.092-.682.587.054-.1.722c.629.116,1.4.266,1.657.316l-.06.456c-.4-.037-1.47-.183-2.414-.266-.413-.038-1.311-.06-1.4.628l-.076.565c-.064.473.073.829.73.887l1.316.118c1.488.133,1.7.933,1.61,1.588Z" fill="#33c1c2"/>
      </g>
      <g id="Group_178229" data-name="Group 178229">
        <path id="Path_41546" data-name="Path 41546" d="M170.87,406.042l-.6-.054-1.023,7.635.6.053Z" fill="#33c1c2"/>
        <path id="Path_41547" data-name="Path 41547" d="M169.1,413.609l1.025-7.633-.529-.05-1.023,7.635Z" fill="#33c1c2"/>
      </g>
    </g>
    <g id="Group_178238" data-name="Group 178238">
      <g id="Group_178231" data-name="Group 178231">
        <path id="Path_41548" data-name="Path 41548" d="M172.43,397.736a6.08,6.08,0,1,1-6.078-6.239A6.16,6.16,0,0,1,172.43,397.736Z" fill="#fcb900"/>
        <path id="Path_41549" data-name="Path 41549" d="M171.584,397.736a5.233,5.233,0,1,1-5.232-5.2A5.214,5.214,0,0,1,171.584,397.736Z" fill="#e89700"/>
        <path id="Path_41550" data-name="Path 41550" d="M168.721,393.211c-1.612,2.1-4.673,6.1-6.162,8.042a5.133,5.133,0,1,0,6.162-8.042Z" fill="#cc7a00"/>
      </g>
      <g id="Group_178234" data-name="Group 178234">
        <g id="Group_178232" data-name="Group 178232">
          <path id="Path_41551" data-name="Path 41551" d="M169.085,399.433c-.067,1.338-1.044,1.707-2.34,1.781l-.026.815-.7.028.027-.841c-.762-.017-1.822-.083-2.3-.1l.018-.55c.605-.025,2.9-.035,2.9-.035.846-.009,1.5-.158,1.531-1.058l.02-.623c.022-.757-.625-.9-1.229-.876l-1.573.067c-1.669.07-1.872-.774-1.847-1.548l.022-.645c.04-1.3,1.392-1.664,2.685-1.662l.022-.777.7-.029-.027.824c.763.035,1.69.09,2,.105l-.019.52c-.481.019-1.764.017-2.888.064-.494.022-1.562.131-1.585.917l-.02.644c-.019.54.187.92.974.887l1.571-.069c1.779-.073,2.125.791,2.1,1.541Z" fill="#846c06"/>
        </g>
        <g id="Group_178233" data-name="Group 178233">
          <path id="Path_41552" data-name="Path 41552" d="M167.008,393.331l-.715.029-.277,8.715.719-.029Z" fill="#846c06"/>
          <path id="Path_41553" data-name="Path 41553" d="M165.846,402.084l.274-8.713-.63.022-.274,8.715Z" fill="#846c06"/>
        </g>
      </g>
      <g id="Group_178237" data-name="Group 178237">
        <g id="Group_178235" data-name="Group 178235">
          <path id="Path_41554" data-name="Path 41554" d="M169.1,399.3c-.067,1.335-1.045,1.707-2.34,1.779l-.026.814-.7.03.025-.842c-.761-.017-1.822-.085-2.3-.1l.017-.547c.606-.026,2.9-.039,2.9-.039.845-.005,1.5-.157,1.531-1.054l.019-.625c.024-.756-.624-.9-1.228-.875l-1.573.066c-1.669.069-1.872-.774-1.847-1.549l.022-.644c.041-1.309,1.392-1.665,2.684-1.661l.024-.778.7-.028-.029.824c.762.033,1.691.089,2.005.1l-.017.519c-.483.021-1.764.017-2.888.067-.495.018-1.564.131-1.587.916l-.019.643c-.018.54.187.918.974.888l1.57-.069c1.78-.071,2.125.792,2.1,1.539Z" fill="#fcb900"/>
        </g>
        <g id="Group_178236" data-name="Group 178236">
          <path id="Path_41555" data-name="Path 41555" d="M167.028,393.2l-.716.029-.277,8.715.719-.029Z" fill="#fcb900"/>
          <path id="Path_41556" data-name="Path 41556" d="M165.867,401.946l.273-8.713-.631.025-.273,8.715Z" fill="#fcb900"/>
        </g>
      </g>
    </g>
    <g id="Group_178246" data-name="Group 178246">
      <g id="Group_178239" data-name="Group 178239">
        <path id="Path_41557" data-name="Path 41557" d="M144.643,402.425a5.064,5.064,0,1,1-5.064-5.2A5.131,5.131,0,0,1,144.643,402.425Z" fill="#fcb900"/>
        <path id="Path_41558" data-name="Path 41558" d="M143.937,402.425a4.358,4.358,0,1,1-4.358-4.329A4.343,4.343,0,0,1,143.937,402.425Z" fill="#e89700"/>
        <path id="Path_41559" data-name="Path 41559" d="M141.553,398.655l-5.133,6.7a4.275,4.275,0,1,0,5.133-6.7Z" fill="#cc7a00"/>
      </g>
      <g id="Group_178242" data-name="Group 178242">
        <g id="Group_178240" data-name="Group 178240">
          <path id="Path_41560" data-name="Path 41560" d="M141.856,403.838c-.056,1.114-.87,1.422-1.949,1.483l-.021.679-.584.023.022-.7c-.635-.014-1.517-.068-1.92-.085l.015-.458c.5-.021,2.416-.029,2.416-.029.7-.007,1.253-.132,1.275-.881l.017-.519c.018-.631-.521-.751-1.024-.73l-1.31.056c-1.391.058-1.56-.645-1.538-1.289l.017-.538c.034-1.087,1.16-1.386,2.237-1.384l.018-.648.585-.024-.022.686c.635.03,1.407.076,1.67.088l-.016.434c-.4.015-1.469.013-2.4.053-.412.018-1.3.109-1.321.763l-.017.537c-.015.45.156.766.811.739l1.309-.057c1.482-.062,1.771.658,1.751,1.283Z" fill="#846c06"/>
        </g>
        <g id="Group_178241" data-name="Group 178241">
          <path id="Path_41561" data-name="Path 41561" d="M140.126,398.755l-.6.024-.231,7.259.6-.024Z" fill="#846c06"/>
          <path id="Path_41562" data-name="Path 41562" d="M139.158,406.046l.229-7.258-.524.02-.229,7.259Z" fill="#846c06"/>
        </g>
      </g>
      <g id="Group_178245" data-name="Group 178245">
        <g id="Group_178243" data-name="Group 178243">
          <path id="Path_41563" data-name="Path 41563" d="M141.873,403.725c-.056,1.113-.87,1.422-1.949,1.483l-.022.679-.583.024.022-.7c-.635-.014-1.519-.071-1.92-.087l.014-.456c.5-.022,2.417-.031,2.417-.031.7,0,1.251-.131,1.275-.879l.016-.521c.019-.63-.52-.749-1.024-.728l-1.309.054c-1.391.058-1.56-.644-1.539-1.29l.018-.537c.034-1.09,1.16-1.386,2.236-1.383l.02-.647.584-.024-.024.686c.635.028,1.409.074,1.67.087l-.014.433c-.4.016-1.469.013-2.406.055-.412.015-1.3.109-1.321.763l-.016.536c-.015.449.156.765.811.739l1.309-.057c1.481-.059,1.769.659,1.75,1.281Z" fill="#fcb900"/>
        </g>
        <g id="Group_178244" data-name="Group 178244">
          <path id="Path_41564" data-name="Path 41564" d="M140.144,398.642l-.6.024-.23,7.259.6-.024Z" fill="#fcb900"/>
          <path id="Path_41565" data-name="Path 41565" d="M139.176,405.931l.227-7.257-.525.021-.228,7.259Z" fill="#fcb900"/>
        </g>
      </g>
    </g>
  </g>
</svg>
