<svg xmlns="http://www.w3.org/2000/svg" width="23.918" height="24.611" viewBox="0 0 23.918 24.611">
  <g id="call-2021585" transform="translate(-6.675 -6)">
    <path id="Path_40605" data-name="Path 40605" d="M29.924,18.888a.511.511,0,0,0,.513.513,1.058,1.058,0,0,1,1.056,1.056.513.513,0,0,0,1.025,0,2.083,2.083,0,0,0-2.082-2.082.514.514,0,0,0-.513.513Zm8.347,2.082a.511.511,0,0,0,.513-.513,8.355,8.355,0,0,0-8.347-8.347.513.513,0,0,0,0,1.025,7.329,7.329,0,0,1,7.322,7.322A.514.514,0,0,0,38.271,20.97Z" transform="translate(-11.329 -2.977)"/>
    <path id="Path_40606" data-name="Path 40606" d="M23.3,17.48a.513.513,0,1,0,1.025,0,5.219,5.219,0,0,0-5.214-5.214.513.513,0,0,0,0,1.025A4.194,4.194,0,0,1,23.3,17.48ZM19.108,6a.513.513,0,1,0,0,1.025A10.469,10.469,0,0,1,29.568,17.48a.513.513,0,0,0,1.025,0A11.5,11.5,0,0,0,19.108,6Zm5.009,16.884-.672.364a2.955,2.955,0,0,1-3.487-.508l-5.414-5.414a2.962,2.962,0,0,1-.508-3.492l.364-.667a3.949,3.949,0,0,0,.436-2.461,3.953,3.953,0,0,0-3.922-3.4,3.947,3.947,0,0,0-2.81,1.159l-.261.267C6.459,10.117,6.3,12.5,7.392,15.455a24.91,24.91,0,0,0,5.835,8.6c4.158,4.158,8.788,6.553,12.111,6.553a4.4,4.4,0,0,0,3.215-1.164l.267-.267a3.969,3.969,0,0,0,1.164-2.81,3.972,3.972,0,0,0-5.866-3.487Z"/>
  </g>
</svg>
