<svg id="SvgjsG1014" xmlns="http://www.w3.org/2000/svg" width="36" height="36" viewBox="0 0 36 36">
  <g id="Group_177969" data-name="Group 177969">
    <path id="Path_40607" data-name="Path 40607" d="M0,18A18,18,0,1,1,18,36,18,18,0,0,1,0,18Z" fill="#ffe400"/>
    <path id="Path_40608" data-name="Path 40608" d="M20.985,12h-.048l-.33,0a5.578,5.578,0,0,0-2.194.463,4.892,4.892,0,0,0-1.4.926,5.225,5.225,0,0,0-1.17,1.676,9.523,9.523,0,0,0-.245,3.874v0l.026.426a.758.758,0,0,1-.315.059,2.082,2.082,0,0,1-.855-.229.767.767,0,0,0-.326-.068,1.164,1.164,0,0,0-.575.161.79.79,0,0,0-.4.52.712.712,0,0,0,.273.674,2.337,2.337,0,0,0,.715.409c.082.032.179.063.28.1.356.112.894.283,1.034.612a.794.794,0,0,1-.091.653,6.317,6.317,0,0,1-.977,1.518A5.426,5.426,0,0,1,13.215,24.8a4.3,4.3,0,0,1-1.639.638.448.448,0,0,0-.376.468.59.59,0,0,0,.047.195v0a1.206,1.206,0,0,0,.65.556,7.486,7.486,0,0,0,1.877.489,2.221,2.221,0,0,1,.115.413c.031.145.064.292.111.45a.492.492,0,0,0,.514.375,2.508,2.508,0,0,0,.442-.061,4.965,4.965,0,0,1,1.007-.114,4.491,4.491,0,0,1,.72.06,3.431,3.431,0,0,1,1.346.7A4.365,4.365,0,0,0,20.682,30c.032,0,.064,0,.1,0s.088,0,.139,0a4.354,4.354,0,0,0,2.651-1.032h0a3.424,3.424,0,0,1,1.345-.694,4.408,4.408,0,0,1,.72-.061,5.033,5.033,0,0,1,1.007.106,2.44,2.44,0,0,0,.442.054h.022a.485.485,0,0,0,.493-.368c.045-.155.078-.3.11-.446a2.339,2.339,0,0,1,.114-.411,7.452,7.452,0,0,0,1.878-.489,1.2,1.2,0,0,0,.649-.554.573.573,0,0,0,.047-.2.449.449,0,0,0-.376-.467,5.546,5.546,0,0,1-3.77-3.164l-.011-.022a.793.793,0,0,1-.09-.653c.139-.329.677-.5,1.033-.611.1-.032.2-.063.281-.1a2.161,2.161,0,0,0,.766-.458.726.726,0,0,0,.233-.524.824.824,0,0,0-.617-.714,1.106,1.106,0,0,0-.418-.08.943.943,0,0,0-.389.08,2.179,2.179,0,0,1-.8.227.727.727,0,0,1-.265-.058L26,19l0-.056a9.521,9.521,0,0,0-.245-3.876,5.232,5.232,0,0,0-1.174-1.682,4.905,4.905,0,0,0-1.406-.926A5.6,5.6,0,0,0,20.985,12Z" transform="translate(-2.8 -3)" fill="#fff"/>
  </g>
</svg>
