<svg id="SvgjsG1014" xmlns="http://www.w3.org/2000/svg" width="32.174" height="32.174" viewBox="0 0 32.174 32.174">
  <g id="Layer_1" data-name="Layer 1" transform="translate(0 0)">
    <circle id="Ellipse_608" data-name="Ellipse 608" cx="16.087" cy="16.087" r="16.087" fill="#38a8e0"/>
    <path id="Path_12056" data-name="Path 12056" d="M46.373,39.22a7.126,7.126,0,0,1-2.048.561,3.574,3.574,0,0,0,1.566-1.973,7.135,7.135,0,0,1-2.263.864,3.566,3.566,0,0,0-6.073,3.251A10.119,10.119,0,0,1,30.209,38.2a3.569,3.569,0,0,0,1.1,4.758,3.549,3.549,0,0,1-1.613-.447v.045a3.566,3.566,0,0,0,2.859,3.5,3.571,3.571,0,0,1-1.611.062,3.569,3.569,0,0,0,3.331,2.464,7.15,7.15,0,0,1-4.428,1.526A7.233,7.233,0,0,1,29,50.068a10.134,10.134,0,0,0,15.6-8.54v-.462A7.242,7.242,0,0,0,46.373,39.22Z" transform="translate(-21.599 -28.025)" fill="#fff"/>
  </g>
</svg>
